<?xml version="1.0" encoding="UTF-8" standalone="no"?>
<svg
   viewBox="0 0 499.75 878.79"
   version="1.1"
   id="svg1"
   sodipodi:docname="april-fools.svg"
   inkscape:version="1.4 (86a8ad7, 2024-10-11)"
   xmlns:inkscape="http://www.inkscape.org/namespaces/inkscape"
   xmlns:sodipodi="http://sodipodi.sourceforge.net/DTD/sodipodi-0.dtd"
   xmlns="http://www.w3.org/2000/svg"
   xmlns:svg="http://www.w3.org/2000/svg">
  <defs
     id="defs1" />
  <sodipodi:namedview
     id="namedview1"
     pagecolor="#ffffff"
     bordercolor="#000000"
     borderopacity="0.25"
     inkscape:showpageshadow="2"
     inkscape:pageopacity="0.0"
     inkscape:pagecheckerboard="0"
     inkscape:deskcolor="#d1d1d1"
     inkscape:zoom="0.72144655"
     inkscape:cx="250.19178"
     inkscape:cy="439.39499"
     inkscape:window-width="1440"
     inkscape:window-height="878"
     inkscape:window-x="-6"
     inkscape:window-y="-6"
     inkscape:window-maximized="1"
     inkscape:current-layer="svg1" />
  <path
     d="M312.94 63.07a63.07 63.07 0 1 0-79.27 61 3.75 3.75 0 0 1 2.79 3.63v59a3.76 3.76 0 0 1-2.78 3.63 63.07 63.07 0 0 0 0 121.91 3.76 3.76 0 0 1 2.78 3.63v59a3.76 3.76 0 0 1-2.78 3.63 63.07 63.07 0 0 0 0 121.92 3.74 3.74 0 0 1 2.78 3.62v59a3.74 3.74 0 0 1-2.78 3.62 63.07 63.07 0 0 0 0 121.92 3.75 3.75 0 0 1 2.78 3.62v59a3.77 3.77 0 0 1-2.79 3.63 63.05 63.05 0 1 0 32.4 0 3.73 3.73 0 0 1-2.78-3.62v-59a3.73 3.73 0 0 1 2.78-3.62 63.08 63.08 0 0 0 0-121.92 3.73 3.73 0 0 1-2.78-3.62V504a3.73 3.73 0 0 1 2.78-3.62 63.08 63.08 0 0 0 0-121.92 3.75 3.75 0 0 1-2.78-3.63v-59a3.75 3.75 0 0 1 2.78-3.63 63.07 63.07 0 0 0 0-121.91 3.75 3.75 0 0 1-2.78-3.63v-59a3.75 3.75 0 0 1 2.78-3.63 63.09 63.09 0 0 0 46.87-60.96M291.56 439.4a41.69 41.69 0 1 1-41.69-41.69 41.69 41.69 0 0 1 41.69 41.69m0-188.17a41.69 41.69 0 1 1-41.69-41.69 41.68 41.68 0 0 1 41.69 41.69m208.19 94.09a63.09 63.09 0 0 0-46.88-61 3.76 3.76 0 0 1-2.78-3.63v-59a3.75 3.75 0 0 1 2.79-3.63 63.08 63.08 0 1 0-32.4 0 3.76 3.76 0 0 1 2.78 3.63v59a3.76 3.76 0 0 1-2.78 3.63 63.07 63.07 0 0 0 0 121.91 3.76 3.76 0 0 1 2.78 3.63v59a3.75 3.75 0 0 1-2.78 3.62 63.07 63.07 0 0 0 0 121.92 3.74 3.74 0 0 1 2.78 3.62v59a3.77 3.77 0 0 1-2.79 3.63 63.06 63.06 0 1 0 32.4 0 3.74 3.74 0 0 1-2.78-3.62v-59a3.74 3.74 0 0 1 2.78-3.62 63.07 63.07 0 0 0 0-121.92 3.75 3.75 0 0 1-2.78-3.62v-59a3.76 3.76 0 0 1 2.78-3.63 63.08 63.08 0 0 0 46.88-60.92m-104.77 0A41.69 41.69 0 1 1 436.67 387 41.69 41.69 0 0 1 395 345.32Zm83.38 188.16a41.69 41.69 0 1 1-41.69-41.69 41.69 41.69 0 0 1 41.69 41.69M76.49 409.9v59a3.74 3.74 0 0 0 2.79 3.63 63.08 63.08 0 1 1-32.4 0 3.75 3.75 0 0 0 2.78-3.62v-59a3.76 3.76 0 0 0-2.8-3.63 63.08 63.08 0 1 1 32.41 0 3.75 3.75 0 0 0-2.78 3.62"
     style="fill:#10743c;fill-opacity:1"
     id="path1" />
</svg>
