<svg xmlns="http://www.w3.org/2000/svg" viewBox="50 50 400 400"><path d="M410.8 140.07C380.14 107.24 337.34 85.4 291 84c-66-2-100 50-149 74s-83 45-89 92-1 91 40 113 66-15 119-13 85 62 151.5 44c43.75-11.85 76.19-55.27 88.39-97.05 16.7-57.2-2.65-115.7-41.09-156.88" style="fill:#17816e"/><path d="M410.8 140.07C380.14 107.24 337.34 85.4 291 84c-66-2-100 50-149 74s-83 45-89 92-1 91 40 113 66-15 119-13 85 62 151.5 44c43.75-11.85 76.19-55.27 88.39-97.05 16.7-57.2-2.65-115.7-41.09-156.88" style="fill:#fff;opacity:.7000000000000001"/><path d="m151.85 133.66-4.09-11.74H81.47v171.01h219.77V133.66z" style="fill:#17816e;stroke:#2e353a;stroke-miterlimit:10"/><path d="M85.58 149.23h211.54v133.95H85.58zM151.82 138.1h105.1v6.43h-105.1z" style="fill:#fff;stroke:#2e353a;stroke-miterlimit:10"/><path d="m90.67 137.07-3.03 2.92 3.14 3.37M87.63 139.99h6.74M107.85 137.07l3.03 2.92-3.14 3.37M110.88 139.99h-6.73M125.36 139.59a3.31 3.31 0 0 0-3.09-2.41 3 3 0 1 0 1.92 5.38" style="fill:none;stroke:#2e353a;stroke-linecap:round;stroke-linejoin:round"/><path d="M123.32 139.94h2.36v-2.81M141.43 138.94l-2.8-2.26-2.66 2.26v4.93h5.46z" style="fill:none;stroke:#2e353a;stroke-linecap:round;stroke-linejoin:round"/><path d="M137.56 140.27h2.13v3.42h-2.13z" style="fill:#2e353a"/><path d="m135.97 138.94-1.6 1.47M141.43 138.94l1.5 1.34M140.42 128l4.26 4.39M144.74 128.07l-4.39 4.26M285.98 139.27h8.43M285.98 141.18h8.43M285.98 143.08h8.43M285.98 144.98h8.43" style="fill:none;stroke:#2e353a;stroke-linecap:round;stroke-linejoin:round"/><path d="m246.49 100.05-4.09-11.74h-66.29v171.01h219.77V100.05z" style="fill:#17816e;stroke:#2e353a;stroke-miterlimit:10"/><path d="M180.23 115.62h211.54v133.95H180.23zM246.46 104.49h105.1v6.43h-105.1z" style="fill:#fff;stroke:#2e353a;stroke-miterlimit:10"/><path d="m185.31 103.46-3.03 2.92 3.15 3.37M182.28 106.38h6.74M202.5 103.46l3.03 2.92-3.15 3.37M205.53 106.38h-6.74M220 106a3.32 3.32 0 0 0-3.09-2.42 3 3 0 1 0 1.92 5.38" style="fill:none;stroke:#2e353a;stroke-linecap:round;stroke-linejoin:round"/><path d="M217.97 106.33h2.35v-2.81M236.07 105.33l-2.8-2.26-2.66 2.26v4.93h5.46z" style="fill:none;stroke:#2e353a;stroke-linecap:round;stroke-linejoin:round"/><path d="M232.21 106.66h2.13v3.42h-2.13z" style="fill:#2e353a"/><path d="m230.61 105.33-1.6 1.47M236.07 105.33l1.5 1.34M235.06 94.39l4.26 4.39M239.39 94.46 235 98.72M380.63 105.67h8.42M380.63 107.57h8.42M380.63 109.47h8.42M380.63 111.37h8.42" style="fill:none;stroke:#2e353a;stroke-linecap:round;stroke-linejoin:round"/><path d="m297.79 148.39-4.1-11.74h-66.28v171.01h219.76V148.39z" style="fill:#17816e;stroke:#2e353a;stroke-miterlimit:10"/><path d="M231.52 163.96h211.54v133.95H231.52zM297.75 152.82h105.1v6.43h-105.1z" style="fill:#fff;stroke:#2e353a;stroke-miterlimit:10"/><path d="m236.6 151.79-3.03 2.93 3.15 3.36M233.57 154.72h6.74M253.79 151.79l3.03 2.93-3.14 3.36M256.82 154.72h-6.74M271.3 154.32a3.31 3.31 0 0 0-3.09-2.41 3 3 0 1 0 0 6.06 3 3 0 0 0 1.92-.68" style="fill:none;stroke:#2e353a;stroke-linecap:round;stroke-linejoin:round"/><path d="M269.26 154.66h2.36v-2.8M287.36 153.67l-2.8-2.27-2.66 2.27v4.93h5.46z" style="fill:none;stroke:#2e353a;stroke-linecap:round;stroke-linejoin:round"/><path d="M283.5 155h2.13v3.42h-2.13z" style="fill:#2e353a"/><path d="m281.9 153.67-1.6 1.46M287.36 153.67l1.51 1.33M286.35 142.73l4.26 4.39M290.68 142.79l-4.39 4.26M431.92 154h8.43M431.92 155.9h8.43M431.92 157.8h8.43M431.92 159.7h8.43M263.8 231.99h44.08M263.8 237.69h44.08M263.8 243.38h44.08M263.8 249.07h44.08M263.8 254.76h44.08M263.8 260.46h44.08M263.8 266.15h44.08M263.8 271.84h44.08M263.8 277.53h44.08M315.64 231.99h44.07M315.64 237.69h44.07M315.64 243.38h44.07M315.64 249.07h44.07M315.64 254.76h44.07M315.64 260.46h44.07M315.64 266.15h44.07M315.64 271.84h44.07M315.64 277.53h44.07M315.64 186.91h44.07M315.64 192.6h44.07M315.64 198.29h44.07M315.64 203.98h44.07M315.64 209.68h44.07M315.64 215.37h44.07M315.64 221.06h44.07M315.64 226.75h44.07M367.26 231.99h44.08M367.26 237.69h44.08M367.26 243.38h44.08M367.26 249.07h44.08M367.26 254.76h44.08M367.26 260.46h44.08M367.26 266.15h44.08M367.26 271.84h44.08M367.26 277.53h44.08" style="fill:none;stroke:#2e353a;stroke-linecap:round;stroke-linejoin:round"/><path d="M293.28 196a6.81 6.81 0 0 0 .34-2.09c0-2.59-2.62-2.74-5.21-2.74h-.64v-.61H299v.61c-2.93 0-3.95 1.87-4.9 4.64l-6 17.91c-.46 1.33-.84 2.32-2.25 2.32h-.11l-5.24-17.14-4.94 14.79c-.46 1.33-.84 2.32-2.24 2.32h-.12l-7.68-24.87h-2.7v-.61h9.89v.61h-2.82l5.71 19.62h.23l4.29-13.08-2-6.54h-2.7v-.61h9.88v.61h-2.81l5.7 19.62h.23Z" style="fill:#17816e"/><path d="M366.4 184.86h45.36v41H366.4z" style="fill:#17816e;stroke:#2e353a;stroke-linecap:round;stroke-linejoin:round"/><path d="M411.76 202a29.34 29.34 0 0 0-4.53.64c-6.89 1.5-8.69 11.39-16.48 11.39-6.9 0-7.49-9.29-17.38-10.49a10.89 10.89 0 0 0-7 1.24v21.09h45.36Z" style="fill:#2e353a;stroke:#2e353a;stroke-linecap:round;stroke-linejoin:round"/><path d="M381.46 194.24a5.09 5.09 0 1 1-5.09-5.09 5.09 5.09 0 0 1 5.09 5.09" style="fill:#fff;stroke:#2e353a;stroke-linecap:round;stroke-linejoin:round"/><ellipse cx="142.77" cy="421.02" rx="70.48" ry="8" style="fill:#17816e"/><ellipse cx="142.77" cy="421.02" rx="70.48" ry="8" style="fill:#fff;opacity:.5"/><path d="M183.58 191.77s-5.56 2-6.43 7.6-10.81 3.51-10.81 3.51 0-16.95 2.63-19.87 14.61 8.76 14.61 8.76Z" style="fill:#fff;stroke:#2e353a;stroke-miterlimit:10"/><path d="M186.5 169.28s1.75 7.3 2.63 7.89 3.5 1.75 3.21 2.62a23.47 23.47 0 0 1-2.34 3.51s.5 7.56-.38 8.43-2.54 1.5-6 1.5-7.6-1.16-8.77-2.92l-2.34-3.5s-2 0-2-2.92-1.46-6.72 2-10.82 10.77-6.13 13.99-3.79Z" style="fill:#fff;stroke:#2e353a;stroke-miterlimit:10"/><path d="M187 178.38c.12.79 0 1.46-.31 1.51s-.61-.57-.73-1.35 0-1.47.3-1.51.6.56.74 1.35" style="fill:#2e353a"/><path d="M184 176s1.06-2.76 3-1.7" style="fill:none;stroke:#2e353a;stroke-linecap:round;stroke-linejoin:round"/><path d="M165.75 196.45s2.63-1.46 7.6.58 10.52 5 11.39 5.26 2.34 1.17.3 1.76a44.41 44.41 0 0 1-7.6 1.16c-1.17 0-7.6-3.21-9.93-3.21H164s-.58-4.67 1.75-5.55Z" style="fill:#17816e;stroke:#2e353a;stroke-miterlimit:10"/><path d="M181.24 207a36.64 36.64 0 0 0-13.44-6.14c-7.89-1.75-15.19-.29-20.16 1.17s-9.35 2.63-11.4 5-23.66 31.84-28.92 39.73-9.16 27-9.16 27a4 4 0 0 0 2.92 1.76c1.75 0 1.86-3.32 1.86-3.32a20.4 20.4 0 0 0 4.67-3.5c2.34-2.34 5.26-15.78 9.06-19s26-23.37 26-23.37 4.38 11.69 4.38 16.36-1.75 7.89-6.42 16.36-9.06 12.86-11.4 21.92-4.09 21-4.09 21S115.79 334.06 114 339s-14.61 16.07-17 24.54-8.38 39.46-11.3 42.69-8.77 4.38-12.86 8.77-3.21 5.55 1.75 5.26S84.82 417.63 88 417s5-.29 5.85-3.5-2-4.39.29-9.94 17.82-38 24.54-47.33 13.44-20.45 16.07-26.59 11.4-27.76 12.27-30.39.88-3.5 2-.58 8.26 33.33 7.98 40.65-6.43 19.87-3.8 28.34 10.23 30.68 11.39 36.82-1.16 10.22 0 12 12.28 3.5 15.2 3.8 10.52 1.16 11.1-.88-5.26-2.34-9.06-6.43c-3.14-3.38-8.18-8.47-9.93-16.07s-4.1-33.62-2.9-40.9 2.63-28.05 2.92-31.56 3.21-17.82 1.17-31.85-4.09-34.78-4.09-34.78 1.75-11.11 2.33-12 7.31-9.94 7.6-13.44a45.17 45.17 0 0 0-.58-8.77s20.74-6.43 32.14-10.52 36.86-23.19 39.49-25.53c1.18-1 .36-3.34 1.51-4.6 1.43-1.57 2.53-2.88 2.53-2.88l-1.75-2.92s-13.44 6.72-25.71 13.73A224 224 0 0 1 202 203.17c-4.11 1.75-19.89 3.83-20.76 3.83Z" style="fill:#fff;stroke:#2e353a;stroke-miterlimit:10"/><path d="M88.68 407.45c-2.59 0-6.48 2.08-6.48 2.08l.69-1.11c-3 1.85-7 3.34-10 6.58-4.09 4.38-3.21 5.55 1.75 5.26S84.82 417.63 88 417s5-.29 5.85-3.5c.56-2.08-.45-3.31-.61-5.41a17.44 17.44 0 0 0-4.56-.64Z" style="fill:#17816e;stroke:#2e353a;stroke-miterlimit:10"/><path d="M93.84 413.67a18.78 18.78 0 0 0-7.75-.77 61.07 61.07 0 0 0-14.55 3.59c-2.51 3.16-1.29 4 3 3.77 5-.3 10.23-2.63 13.44-3.22s5.02-.31 5.86-3.37Z" style="fill:#fff;stroke:#2e353a;stroke-miterlimit:10"/><path d="M93 415.45c-1-.33-3.27-.75-8.17-.22a44.89 44.89 0 0 0-14.48 4.1c.29.84 1.75 1.07 4.28.93 5-.3 10.23-2.63 13.44-3.22 2.31-.43 3.93-.39 4.93-1.59Z" style="fill:#fff;stroke:#2e353a;stroke-miterlimit:10"/><path d="m107.5 376-5.5.72s-7.25 18-9.75 24.5-3.57 9.78-6.16 11.68c-2.07 1.47-10.59 2.25-15.22 4.53-1.52 2.38-.15 3.05 3.72 2.83 5-.3 10.23-2.63 13.44-3.22s5-.29 5.85-3.5-2-4.39.29-9.94c1.38-3.27 7.31-15.86 13.33-27.6" style="fill:#17816e;opacity:.5;mix-blend-mode:multiply"/><path d="M181.82 413c-1.28-1.38-2.87-3-4.43-5a6.8 6.8 0 0 0-2.13 3.17s-6.74-1-9.07-2.33a5 5 0 0 0-1.27-.5c0 4.06-1.24 6.84-.34 8.21 1.17 1.75 12.28 3.5 15.2 3.8s10.52 1.16 11.1-.88-5.26-2.47-9.06-6.47Z" style="fill:#17816e;stroke:#2e353a;stroke-miterlimit:10"/><path d="M190.88 419.38a.93.93 0 0 0-.1-.75c-3.18.74-7.9 0-14.48-1.33l-12-2.41a2.78 2.78 0 0 0 .32 1.57c1.17 1.75 12.28 3.5 15.2 3.8s10.48 1.16 11.06-.88Z" style="fill:#fff;stroke:#2e353a;stroke-miterlimit:10"/><path d="M181.82 413c-3.14-3.38-8.18-8.47-9.93-16.07a163.57 163.57 0 0 1-2.36-18.18l-3.65 2s2 17.53 4 22.54 13.53 12.52 15 15.52a2.37 2.37 0 0 1 .14 1.88c2.78.1 5.49-.1 5.83-1.29.61-2.07-5.23-2.4-9.03-6.4M139.83 211a13.71 13.71 0 0 0 8.52 10c7.51 3 20 1 26.54-3.51s2.55-12.25 2.55-12.25l-3.05-4.28s-16.03 14.5-34.56 10.04M107.61 268.62c2.34-2.34 5.26-15.78 9.06-19 3.54-3 23-20.68 25.69-23.09l-2.53-5.06a128 128 0 0 0-16 15c-7.52 8.52-16.53 14-16 19s-4.84 16.6-4.84 16.6a20.4 20.4 0 0 0 4.62-3.45" style="fill:#17816e;opacity:.5;mix-blend-mode:multiply"/><path d="M200.93 214s7.52-9.52 6-8-5.5 7-12.52 9-23.54 7.51-26 9-11 0-8.51 2.51a26.36 26.36 0 0 1 5 8.51c.51 1.5-1.5 5-2 8s-2.92 10.93 0 13a21.93 21.93 0 0 0 6.16 2.45c0-.43-.06-.67-.06-.67s1.75-11.11 2.33-12 7.31-9.94 7.6-13.44a45.17 45.17 0 0 0-.58-8.77s20.74-6.43 32.14-10.52 36.86-23.19 39.49-25.53c1.18-1 .36-3.34 1.51-4.6 0 0-15.47 9.45-27 18.47A78.48 78.48 0 0 1 200.93 214" style="fill:#17816e;opacity:.5;mix-blend-mode:multiply"/><path d="m178.32 223.62-9.94 3.8M175.98 224.79l-7.6 7.89M142.67 226.25l-4.45-9.72" style="fill:none;stroke:#2e353a;stroke-linecap:round;stroke-linejoin:round"/><path d="M190.25 167.58a51.67 51.67 0 0 1-8.85 7.89c-5.16 3.57-7.93 1.79-7.12 8.46s6.46 16.88 1.54 24.84-14.19 14.08-30.33 7.2-18.21-24-11.08-30.73 13.25-7.2 16.72-12.63 1.17-14.56 10.21-17.71 16.74-.27 19.06-.55 2-5.54 9.26-3.77 7.63 14.42.59 17Z" style="fill:#2e353a;stroke:#2e353a;stroke-miterlimit:10"/><path d="M189.42 156.48s6.45-.25 5.71 4.22-2.24 4.47-9.94 6.21-16.14 2-17.87 9.43 3.47 19.37 3 28.31-6 12.17-11.92 12.91" style="fill:none;stroke:#fff;stroke-linecap:round;stroke-linejoin:round;stroke-width:.5px"/><path d="M174.77 179.32s-5.47 3.48-5.22 15.4M184.45 163.18s-9.68-4.22-16.14 1.24-4.47 12.42-6.95 19.87-8.94 19.12-18.63 21.85-12.66-10.68-8.44-12.66 8.69 1 7 5" style="fill:none;stroke:#fff;stroke-linecap:round;stroke-linejoin:round;stroke-width:.5px"/><path d="M100.28 283.82s.6 4.59.2 6.19l-.4 1.6s-1.2 1-1.4-7.19c0 0 .8-1.8 1.6-.6" style="fill:#fff;stroke:#2e353a;stroke-linecap:round;stroke-linejoin:round"/><path d="M99.08 286.22s.6 4.59.2 6.19l-.4 1.6s-1.19 1-1.39-7.19c0 0 .8-1.82 1.59-.6" style="fill:#fff;stroke:#2e353a;stroke-linecap:round;stroke-linejoin:round"/><path d="M98.09 287.82s.59 4.59.2 6.19l-.4 1.59s-1.2 1-1.4-7.19c0 0 .8-1.79 1.6-.59" style="fill:#fff;stroke:#2e353a;stroke-linecap:round;stroke-linejoin:round"/><path d="M102.08 275a22.93 22.93 0 0 1 3.19 5c1 2.39 2.6 4.39 3.8 5s1.79 1.4-.2 1.4-2.4-1.8-3.6-2.2a16.77 16.77 0 0 0-3.79-.4 12.76 12.76 0 0 0-2.8 3.6c-.59 1.59-1.39 2-1.39 4.39s-.6 6-1.2 4.19a19.92 19.92 0 0 1-.8-7.79c.4-2.19 2-11.78 2.2-12.57a18.77 18.77 0 0 1 .67-2s1.72 2.02 3.92 1.38" style="fill:#fff;stroke:#2e353a;stroke-linecap:round;stroke-linejoin:round"/><path d="M101.48 283.82a4.77 4.77 0 0 0 .4-3.79" style="fill:none;stroke:#2e353a;stroke-linecap:round;stroke-linejoin:round"/><path d="M143.38 253.92c-.78 1.47-1.69 3.12-2.75 5.05-4.68 8.48-9.06 12.86-11.4 21.92s-4.09 21-4.09 21S115.79 334.06 114 339s-14.61 16.07-17 24.54c-.78 2.84-2 8.22-3.37 14.22a10.69 10.69 0 0 1 11.38 3c4.92-9.79 10.32-19.91 13.61-24.49 6.72-9.35 13.44-20.45 16.07-26.59s11.4-27.76 12.27-30.39.88-3.5 2-.58 8.32 33.29 8.04 40.61-6.43 19.87-3.8 28.34c1.4 4.51 4.21 12.91 6.7 20.71a41.71 41.71 0 0 0 10.47-1.37c-1.27-10.79-2.24-25.73-1.4-31 1.17-7.31 2.63-28.05 2.92-31.56s3.21-17.82 1.17-31.85-4.06-34.78-4.06-34.78-12.45-5.25-25.62-3.89Z" style="fill:#2e353a;stroke:#2e353a;stroke-miterlimit:10"/><path d="m147.77 298.05-6.93-5.26M165.8 258.12s3.32 17.19 4.71 31.34-1.94 41.6-1.39 48.53-3.05 16.91-3.32 26.07a209.31 209.31 0 0 0 1.11 22.46M95.64 377.37s4.43-17.2 9.15-24.41a114.64 114.64 0 0 1 8.32-11.37" style="fill:none;stroke:#fff;stroke-linecap:round;stroke-linejoin:round;stroke-width:.5px"/><path d="M280.18 176.81c.28-.14.14-.7 0-1.19a4.31 4.31 0 0 0-.77-.59l-10.3-2.43s0-.17 2.29-.46 5.4.66 6.55.84c2.79.46 2-1.16 2-1.16s-7-2.34-8.47-2.34-4.79.46-4.79.46 2.74-2.8 2.16-4.26-4.09 2.63-7 4.38-9.6 7.11-9.6 7.11l1.72 3.12h2.83c2.85 0 3.41-.84 4.85-1.15l.69-.15h.09l5.31-.51s2.08.77 3.24 1.29a12.84 12.84 0 0 0 4.54.78c1.43 0-4.79-2.59-4.79-2.59s3.63 1 5.18 1.29a5.3 5.3 0 0 0 3.63-.64c.91-.52-1.94-1.56-3.63-1.69a19.13 19.13 0 0 1-3.43-.77c.11 0-1.09-.53-1-.53 1.7.02 8.19 1.46 8.7 1.19" style="fill:none;stroke:#2e353a;stroke-linecap:round;stroke-linejoin:round"/><path d="M271.49 175.64a17.39 17.39 0 0 0-3-.87M270.72 178a12 12 0 0 0-2.58-1.31" style="fill:none;stroke:#2e353a;stroke-linecap:round;stroke-linejoin:round"/><path d="m144.22 230.69.12-.21-.57-1.15Z" style="fill:#17816e;opacity:.5;mix-blend-mode:multiply"/></svg>