<svg xmlns="http://www.w3.org/2000/svg" viewBox="50 50 400 400"><!--Tabs--><g id="freepik--background-simple--inject-1--inject-154"><path d="M410.8,140.07C380.14,107.24,337.34,85.4,291,84c-66-2-100,50-149,74s-83,45-89,92-1,91,40,113,66-15,119-13,85,62,151.5,44c43.75-11.85,76.19-55.27,88.39-97.05C468.59,239.75,449.24,181.25,410.8,140.07Z" style="fill:#17816E"></path><path d="M410.8,140.07C380.14,107.24,337.34,85.4,291,84c-66-2-100,50-149,74s-83,45-89,92-1,91,40,113,66-15,119-13,85,62,151.5,44c43.75-11.85,76.19-55.27,88.39-97.05C468.59,239.75,449.24,181.25,410.8,140.07Z" style="fill:#fff;opacity:0.7000000000000001"></path></g><g id="freepik--Windows--inject-1--inject-154"><polygon points="151.85 133.66 147.76 121.92 81.47 121.92 81.47 133.66 81.47 142.9 81.47 292.93 301.24 292.93 301.24 133.66 151.85 133.66" style="fill:#17816E;stroke:#2e353a;stroke-miterlimit:10"></polygon><rect x="85.58" y="149.23" width="211.54" height="133.95" style="fill:#fff;stroke:#2e353a;stroke-miterlimit:10"></rect><rect x="151.82" y="138.1" width="105.1" height="6.43" style="fill:#fff;stroke:#2e353a;stroke-miterlimit:10"></rect><polyline points="90.67 137.07 87.64 139.99 90.78 143.36" style="fill:none;stroke:#2e353a;stroke-linecap:round;stroke-linejoin:round"></polyline><line x1="87.63" y1="139.99" x2="94.37" y2="139.99" style="fill:none;stroke:#2e353a;stroke-linecap:round;stroke-linejoin:round"></line><polyline points="107.85 137.07 110.88 139.99 107.74 143.36" style="fill:none;stroke:#2e353a;stroke-linecap:round;stroke-linejoin:round"></polyline><line x1="110.88" y1="139.99" x2="104.15" y2="139.99" style="fill:none;stroke:#2e353a;stroke-linecap:round;stroke-linejoin:round"></line><path d="M125.36,139.59a3.31,3.31,0,0,0-3.09-2.41,3,3,0,1,0,1.92,5.38" style="fill:none;stroke:#2e353a;stroke-linecap:round;stroke-linejoin:round"></path><polyline points="123.32 139.94 125.68 139.94 125.68 137.13" style="fill:none;stroke:#2e353a;stroke-linecap:round;stroke-linejoin:round"></polyline><polygon points="141.43 138.94 138.63 136.68 135.97 138.94 135.97 143.87 141.43 143.87 141.43 138.94" style="fill:none;stroke:#2e353a;stroke-linecap:round;stroke-linejoin:round"></polygon><rect x="137.56" y="140.27" width="2.13" height="3.42" style="fill:#2e353a"></rect><line x1="135.97" y1="138.94" x2="134.37" y2="140.41" style="fill:none;stroke:#2e353a;stroke-linecap:round;stroke-linejoin:round"></line><line x1="141.43" y1="138.94" x2="142.93" y2="140.28" style="fill:none;stroke:#2e353a;stroke-linecap:round;stroke-linejoin:round"></line><line x1="140.42" y1="128" x2="144.68" y2="132.39" style="fill:none;stroke:#2e353a;stroke-linecap:round;stroke-linejoin:round"></line><line x1="144.74" y1="128.07" x2="140.35" y2="132.33" style="fill:none;stroke:#2e353a;stroke-linecap:round;stroke-linejoin:round"></line><line x1="285.98" y1="139.27" x2="294.41" y2="139.27" style="fill:none;stroke:#2e353a;stroke-linecap:round;stroke-linejoin:round"></line><line x1="285.98" y1="141.18" x2="294.41" y2="141.18" style="fill:none;stroke:#2e353a;stroke-linecap:round;stroke-linejoin:round"></line><line x1="285.98" y1="143.08" x2="294.41" y2="143.08" style="fill:none;stroke:#2e353a;stroke-linecap:round;stroke-linejoin:round"></line><line x1="285.98" y1="144.98" x2="294.41" y2="144.98" style="fill:none;stroke:#2e353a;stroke-linecap:round;stroke-linejoin:round"></line><polygon points="246.49 100.05 242.4 88.31 176.11 88.31 176.11 100.05 176.11 109.29 176.11 259.32 395.88 259.32 395.88 100.05 246.49 100.05" style="fill:#17816E;stroke:#2e353a;stroke-miterlimit:10"></polygon><rect x="180.23" y="115.62" width="211.54" height="133.95" style="fill:#fff;stroke:#2e353a;stroke-miterlimit:10"></rect><rect x="246.46" y="104.49" width="105.1" height="6.43" style="fill:#fff;stroke:#2e353a;stroke-miterlimit:10"></rect><polyline points="185.31 103.46 182.28 106.38 185.43 109.75" style="fill:none;stroke:#2e353a;stroke-linecap:round;stroke-linejoin:round"></polyline><line x1="182.28" y1="106.38" x2="189.02" y2="106.38" style="fill:none;stroke:#2e353a;stroke-linecap:round;stroke-linejoin:round"></line><polyline points="202.5 103.46 205.53 106.38 202.38 109.75" style="fill:none;stroke:#2e353a;stroke-linecap:round;stroke-linejoin:round"></polyline><line x1="205.53" y1="106.38" x2="198.79" y2="106.38" style="fill:none;stroke:#2e353a;stroke-linecap:round;stroke-linejoin:round"></line><path d="M220,106a3.32,3.32,0,0,0-3.09-2.42,3,3,0,1,0,1.92,5.38" style="fill:none;stroke:#2e353a;stroke-linecap:round;stroke-linejoin:round"></path><polyline points="217.97 106.33 220.32 106.33 220.32 103.52" style="fill:none;stroke:#2e353a;stroke-linecap:round;stroke-linejoin:round"></polyline><polygon points="236.07 105.33 233.27 103.07 230.61 105.33 230.61 110.26 236.07 110.26 236.07 105.33" style="fill:none;stroke:#2e353a;stroke-linecap:round;stroke-linejoin:round"></polygon><rect x="232.21" y="106.66" width="2.13" height="3.42" style="fill:#2e353a"></rect><line x1="230.61" y1="105.33" x2="229.01" y2="106.8" style="fill:none;stroke:#2e353a;stroke-linecap:round;stroke-linejoin:round"></line><line x1="236.07" y1="105.33" x2="237.57" y2="106.67" style="fill:none;stroke:#2e353a;stroke-linecap:round;stroke-linejoin:round"></line><line x1="235.06" y1="94.39" x2="239.32" y2="98.78" style="fill:none;stroke:#2e353a;stroke-linecap:round;stroke-linejoin:round"></line><line x1="239.39" y1="94.46" x2="235" y2="98.72" style="fill:none;stroke:#2e353a;stroke-linecap:round;stroke-linejoin:round"></line><line x1="380.63" y1="105.67" x2="389.05" y2="105.67" style="fill:none;stroke:#2e353a;stroke-linecap:round;stroke-linejoin:round"></line><line x1="380.63" y1="107.57" x2="389.05" y2="107.57" style="fill:none;stroke:#2e353a;stroke-linecap:round;stroke-linejoin:round"></line><line x1="380.63" y1="109.47" x2="389.05" y2="109.47" style="fill:none;stroke:#2e353a;stroke-linecap:round;stroke-linejoin:round"></line><line x1="380.63" y1="111.37" x2="389.05" y2="111.37" style="fill:none;stroke:#2e353a;stroke-linecap:round;stroke-linejoin:round"></line><polygon points="297.79 148.39 293.69 136.65 227.41 136.65 227.41 148.39 227.41 157.62 227.41 307.66 447.17 307.66 447.17 148.39 297.79 148.39" style="fill:#17816E;stroke:#2e353a;stroke-miterlimit:10"></polygon><rect x="231.52" y="163.96" width="211.54" height="133.95" style="fill:#fff;stroke:#2e353a;stroke-miterlimit:10"></rect><rect x="297.75" y="152.82" width="105.1" height="6.43" style="fill:#fff;stroke:#2e353a;stroke-miterlimit:10"></rect><polyline points="236.6 151.79 233.57 154.72 236.72 158.08" style="fill:none;stroke:#2e353a;stroke-linecap:round;stroke-linejoin:round"></polyline><line x1="233.57" y1="154.72" x2="240.31" y2="154.72" style="fill:none;stroke:#2e353a;stroke-linecap:round;stroke-linejoin:round"></line><polyline points="253.79 151.79 256.82 154.72 253.68 158.08" style="fill:none;stroke:#2e353a;stroke-linecap:round;stroke-linejoin:round"></polyline><line x1="256.82" y1="154.72" x2="250.08" y2="154.72" style="fill:none;stroke:#2e353a;stroke-linecap:round;stroke-linejoin:round"></line><path d="M271.3,154.32a3.31,3.31,0,0,0-3.09-2.41,3,3,0,1,0,0,6.06,3,3,0,0,0,1.92-.68" style="fill:none;stroke:#2e353a;stroke-linecap:round;stroke-linejoin:round"></path><polyline points="269.26 154.66 271.62 154.66 271.62 151.86" style="fill:none;stroke:#2e353a;stroke-linecap:round;stroke-linejoin:round"></polyline><polygon points="287.36 153.67 284.56 151.4 281.9 153.67 281.9 158.6 287.36 158.6 287.36 153.67" style="fill:none;stroke:#2e353a;stroke-linecap:round;stroke-linejoin:round"></polygon><rect x="283.5" y="155" width="2.13" height="3.42" style="fill:#2e353a"></rect><line x1="281.9" y1="153.67" x2="280.3" y2="155.13" style="fill:none;stroke:#2e353a;stroke-linecap:round;stroke-linejoin:round"></line><line x1="287.36" y1="153.67" x2="288.87" y2="155" style="fill:none;stroke:#2e353a;stroke-linecap:round;stroke-linejoin:round"></line><line x1="286.35" y1="142.73" x2="290.61" y2="147.12" style="fill:none;stroke:#2e353a;stroke-linecap:round;stroke-linejoin:round"></line><line x1="290.68" y1="142.79" x2="286.29" y2="147.05" style="fill:none;stroke:#2e353a;stroke-linecap:round;stroke-linejoin:round"></line><line x1="431.92" y1="154" x2="440.35" y2="154" style="fill:none;stroke:#2e353a;stroke-linecap:round;stroke-linejoin:round"></line><line x1="431.92" y1="155.9" x2="440.35" y2="155.9" style="fill:none;stroke:#2e353a;stroke-linecap:round;stroke-linejoin:round"></line><line x1="431.92" y1="157.8" x2="440.35" y2="157.8" style="fill:none;stroke:#2e353a;stroke-linecap:round;stroke-linejoin:round"></line><line x1="431.92" y1="159.7" x2="440.35" y2="159.7" style="fill:none;stroke:#2e353a;stroke-linecap:round;stroke-linejoin:round"></line><line x1="263.8" y1="231.99" x2="307.88" y2="231.99" style="fill:none;stroke:#2e353a;stroke-linecap:round;stroke-linejoin:round"></line><line x1="263.8" y1="237.69" x2="307.88" y2="237.69" style="fill:none;stroke:#2e353a;stroke-linecap:round;stroke-linejoin:round"></line><line x1="263.8" y1="243.38" x2="307.88" y2="243.38" style="fill:none;stroke:#2e353a;stroke-linecap:round;stroke-linejoin:round"></line><line x1="263.8" y1="249.07" x2="307.88" y2="249.07" style="fill:none;stroke:#2e353a;stroke-linecap:round;stroke-linejoin:round"></line><line x1="263.8" y1="254.76" x2="307.88" y2="254.76" style="fill:none;stroke:#2e353a;stroke-linecap:round;stroke-linejoin:round"></line><line x1="263.8" y1="260.46" x2="307.88" y2="260.46" style="fill:none;stroke:#2e353a;stroke-linecap:round;stroke-linejoin:round"></line><line x1="263.8" y1="266.15" x2="307.88" y2="266.15" style="fill:none;stroke:#2e353a;stroke-linecap:round;stroke-linejoin:round"></line><line x1="263.8" y1="271.84" x2="307.88" y2="271.84" style="fill:none;stroke:#2e353a;stroke-linecap:round;stroke-linejoin:round"></line><line x1="263.8" y1="277.53" x2="307.88" y2="277.53" style="fill:none;stroke:#2e353a;stroke-linecap:round;stroke-linejoin:round"></line><line x1="315.64" y1="231.99" x2="359.71" y2="231.99" style="fill:none;stroke:#2e353a;stroke-linecap:round;stroke-linejoin:round"></line><line x1="315.64" y1="237.69" x2="359.71" y2="237.69" style="fill:none;stroke:#2e353a;stroke-linecap:round;stroke-linejoin:round"></line><line x1="315.64" y1="243.38" x2="359.71" y2="243.38" style="fill:none;stroke:#2e353a;stroke-linecap:round;stroke-linejoin:round"></line><line x1="315.64" y1="249.07" x2="359.71" y2="249.07" style="fill:none;stroke:#2e353a;stroke-linecap:round;stroke-linejoin:round"></line><line x1="315.64" y1="254.76" x2="359.71" y2="254.76" style="fill:none;stroke:#2e353a;stroke-linecap:round;stroke-linejoin:round"></line><line x1="315.64" y1="260.46" x2="359.71" y2="260.46" style="fill:none;stroke:#2e353a;stroke-linecap:round;stroke-linejoin:round"></line><line x1="315.64" y1="266.15" x2="359.71" y2="266.15" style="fill:none;stroke:#2e353a;stroke-linecap:round;stroke-linejoin:round"></line><line x1="315.64" y1="271.84" x2="359.71" y2="271.84" style="fill:none;stroke:#2e353a;stroke-linecap:round;stroke-linejoin:round"></line><line x1="315.64" y1="277.53" x2="359.71" y2="277.53" style="fill:none;stroke:#2e353a;stroke-linecap:round;stroke-linejoin:round"></line><line x1="315.64" y1="186.91" x2="359.71" y2="186.91" style="fill:none;stroke:#2e353a;stroke-linecap:round;stroke-linejoin:round"></line><line x1="315.64" y1="192.6" x2="359.71" y2="192.6" style="fill:none;stroke:#2e353a;stroke-linecap:round;stroke-linejoin:round"></line><line x1="315.64" y1="198.29" x2="359.71" y2="198.29" style="fill:none;stroke:#2e353a;stroke-linecap:round;stroke-linejoin:round"></line><line x1="315.64" y1="203.98" x2="359.71" y2="203.98" style="fill:none;stroke:#2e353a;stroke-linecap:round;stroke-linejoin:round"></line><line x1="315.64" y1="209.68" x2="359.71" y2="209.68" style="fill:none;stroke:#2e353a;stroke-linecap:round;stroke-linejoin:round"></line><line x1="315.64" y1="215.37" x2="359.71" y2="215.37" style="fill:none;stroke:#2e353a;stroke-linecap:round;stroke-linejoin:round"></line><line x1="315.64" y1="221.06" x2="359.71" y2="221.06" style="fill:none;stroke:#2e353a;stroke-linecap:round;stroke-linejoin:round"></line><line x1="315.64" y1="226.75" x2="359.71" y2="226.75" style="fill:none;stroke:#2e353a;stroke-linecap:round;stroke-linejoin:round"></line><line x1="367.26" y1="231.99" x2="411.34" y2="231.99" style="fill:none;stroke:#2e353a;stroke-linecap:round;stroke-linejoin:round"></line><line x1="367.26" y1="237.69" x2="411.34" y2="237.69" style="fill:none;stroke:#2e353a;stroke-linecap:round;stroke-linejoin:round"></line><line x1="367.26" y1="243.38" x2="411.34" y2="243.38" style="fill:none;stroke:#2e353a;stroke-linecap:round;stroke-linejoin:round"></line><line x1="367.26" y1="249.07" x2="411.34" y2="249.07" style="fill:none;stroke:#2e353a;stroke-linecap:round;stroke-linejoin:round"></line><line x1="367.26" y1="254.76" x2="411.34" y2="254.76" style="fill:none;stroke:#2e353a;stroke-linecap:round;stroke-linejoin:round"></line><line x1="367.26" y1="260.46" x2="411.34" y2="260.46" style="fill:none;stroke:#2e353a;stroke-linecap:round;stroke-linejoin:round"></line><line x1="367.26" y1="266.15" x2="411.34" y2="266.15" style="fill:none;stroke:#2e353a;stroke-linecap:round;stroke-linejoin:round"></line><line x1="367.26" y1="271.84" x2="411.34" y2="271.84" style="fill:none;stroke:#2e353a;stroke-linecap:round;stroke-linejoin:round"></line><line x1="367.26" y1="277.53" x2="411.34" y2="277.53" style="fill:none;stroke:#2e353a;stroke-linecap:round;stroke-linejoin:round"></line><path d="M293.28,196a6.81,6.81,0,0,0,.34-2.09c0-2.59-2.62-2.74-5.21-2.74h-.64v-.61H299v.61c-2.93,0-3.95,1.87-4.9,4.64l-6,17.91c-.46,1.33-.84,2.32-2.25,2.32h-.11L280.5,198.9l-4.94,14.79c-.46,1.33-.84,2.32-2.24,2.32h-.12l-7.68-24.87h-2.7v-.61h9.89v.61h-2.82l5.71,19.62h.23l4.29-13.08-2-6.54h-2.7v-.61h9.88v.61h-2.81l5.7,19.62h.23Z" style="fill:#17816E"></path><rect x="366.4" y="184.86" width="45.36" height="41" style="fill:#17816E;stroke:#2e353a;stroke-linecap:round;stroke-linejoin:round"></rect><path d="M411.76,202a29.34,29.34,0,0,0-4.53.64c-6.89,1.5-8.69,11.39-16.48,11.39-6.9,0-7.49-9.29-17.38-10.49a10.89,10.89,0,0,0-7,1.24v21.09h45.36Z" style="fill:#2e353a;stroke:#2e353a;stroke-linecap:round;stroke-linejoin:round"></path><path d="M381.46,194.24a5.09,5.09,0,1,1-5.09-5.09A5.09,5.09,0,0,1,381.46,194.24Z" style="fill:#fff;stroke:#2e353a;stroke-linecap:round;stroke-linejoin:round"></path></g><g id="freepik--Character--inject-1--inject-154"><ellipse cx="142.77" cy="421.02" rx="70.48" ry="8" style="fill:#17816E"></ellipse><ellipse cx="142.77" cy="421.02" rx="70.48" ry="8" style="fill:#fff;opacity:0.5"></ellipse><path d="M183.58,191.77s-5.56,2-6.43,7.6-10.81,3.51-10.81,3.51,0-16.95,2.63-19.87S183.58,191.77,183.58,191.77Z" style="fill:#fff;stroke:#2e353a;stroke-miterlimit:10"></path><path d="M186.5,169.28s1.75,7.3,2.63,7.89,3.5,1.75,3.21,2.62A23.47,23.47,0,0,1,190,183.3s.5,7.56-.38,8.43-2.54,1.5-6,1.5-7.6-1.16-8.77-2.92l-2.34-3.5s-2,0-2-2.92-1.46-6.72,2-10.82S183.28,166.94,186.5,169.28Z" style="fill:#fff;stroke:#2e353a;stroke-miterlimit:10"></path><path d="M187,178.38c.12.79,0,1.46-.31,1.51s-.61-.57-.73-1.35,0-1.47.3-1.51S186.86,177.59,187,178.38Z" style="fill:#2e353a"></path><path d="M184,176s1.06-2.76,3-1.7" style="fill:none;stroke:#2e353a;stroke-linecap:round;stroke-linejoin:round"></path><path d="M165.75,196.45s2.63-1.46,7.6.58,10.52,5,11.39,5.26,2.34,1.17.3,1.76a44.41,44.41,0,0,1-7.6,1.16c-1.17,0-7.6-3.21-9.93-3.21H164S163.42,197.33,165.75,196.45Z" style="fill:#17816E;stroke:#2e353a;stroke-miterlimit:10"></path><path d="M181.24,207a36.64,36.64,0,0,0-13.44-6.14c-7.89-1.75-15.19-.29-20.16,1.17s-9.35,2.63-11.4,5-23.66,31.84-28.92,39.73-9.16,27-9.16,27a4,4,0,0,0,2.92,1.76c1.75,0,1.86-3.32,1.86-3.32a20.4,20.4,0,0,0,4.67-3.5c2.34-2.34,5.26-15.78,9.06-19s26-23.37,26-23.37,4.38,11.69,4.38,16.36-1.75,7.89-6.42,16.36-9.06,12.86-11.4,21.92-4.09,21-4.09,21S115.79,334.06,114,339s-14.61,16.07-17,24.54S88.62,403,85.7,406.23s-8.77,4.38-12.86,8.77-3.21,5.55,1.75,5.26S84.82,417.63,88,417s5-.29,5.85-3.5-2-4.39.29-9.94,17.82-38,24.54-47.33,13.44-20.45,16.07-26.59,11.4-27.76,12.27-30.39.88-3.5,2-.58S157.28,332,157,339.32s-6.43,19.87-3.8,28.34,10.23,30.68,11.39,36.82-1.16,10.22,0,12,12.28,3.5,15.2,3.8,10.52,1.16,11.1-.88-5.26-2.34-9.06-6.43c-3.14-3.38-8.18-8.47-9.93-16.07S167.8,363.28,169,356s2.63-28.05,2.92-31.56,3.21-17.82,1.17-31.85S169,257.81,169,257.81s1.75-11.11,2.33-12,7.31-9.94,7.6-13.44a45.17,45.17,0,0,0-.58-8.77s20.74-6.43,32.14-10.52,36.86-23.19,39.49-25.53c1.18-1,.36-3.34,1.51-4.6,1.43-1.57,2.53-2.88,2.53-2.88l-1.75-2.92s-13.44,6.72-25.71,13.73A224,224,0,0,1,202,203.17C197.89,204.92,182.11,207,181.24,207Z" style="fill:#fff;stroke:#2e353a;stroke-miterlimit:10"></path><path d="M88.68,407.45c-2.59,0-6.48,2.08-6.48,2.08l.69-1.11c-3,1.85-7,3.34-10,6.58-4.09,4.38-3.21,5.55,1.75,5.26S84.82,417.63,88,417s5-.29,5.85-3.5c.56-2.08-.45-3.31-.61-5.41A17.44,17.44,0,0,0,88.68,407.45Z" style="fill:#17816E;stroke:#2e353a;stroke-miterlimit:10"></path><path d="M93.84,413.67a18.78,18.78,0,0,0-7.75-.77,61.07,61.07,0,0,0-14.55,3.59c-2.51,3.16-1.29,4,3,3.77,5-.3,10.23-2.63,13.44-3.22S93,416.73,93.84,413.67Z" style="fill:#fff;stroke:#2e353a;stroke-miterlimit:10"></path><path d="M93,415.45c-1-.33-3.27-.75-8.17-.22a44.89,44.89,0,0,0-14.48,4.1c.29.84,1.75,1.07,4.28.93,5-.3,10.23-2.63,13.44-3.22C90.38,416.61,92,416.65,93,415.45Z" style="fill:#fff;stroke:#2e353a;stroke-miterlimit:10"></path><path d="M107.5,376l-5.5.72s-7.25,18-9.75,24.5S88.68,411,86.09,412.9c-2.07,1.47-10.59,2.25-15.22,4.53-1.52,2.38-.15,3.05,3.72,2.83,5-.3,10.23-2.63,13.44-3.22s5-.29,5.85-3.5-2-4.39.29-9.94C95.55,400.33,101.48,387.74,107.5,376Z" style="fill:#17816E;opacity:0.5;mix-blend-mode:multiply"></path><path d="M181.82,413c-1.28-1.38-2.87-3-4.43-5a6.8,6.8,0,0,0-2.13,3.17s-6.74-1-9.07-2.33a5,5,0,0,0-1.27-.5c0,4.06-1.24,6.84-.34,8.21,1.17,1.75,12.28,3.5,15.2,3.8s10.52,1.16,11.1-.88S185.62,417,181.82,413Z" style="fill:#17816E;stroke:#2e353a;stroke-miterlimit:10"></path><path d="M190.88,419.38a.93.93,0,0,0-.1-.75c-3.18.74-7.9,0-14.48-1.33l-12-2.41a2.78,2.78,0,0,0,.32,1.57c1.17,1.75,12.28,3.5,15.2,3.8S190.3,421.42,190.88,419.38Z" style="fill:#fff;stroke:#2e353a;stroke-miterlimit:10"></path><path d="M181.82,413c-3.14-3.38-8.18-8.47-9.93-16.07a163.57,163.57,0,0,1-2.36-18.18l-3.65,2s2,17.53,4,22.54,13.53,12.52,15,15.52a2.37,2.37,0,0,1,.14,1.88c2.78.1,5.49-.1,5.83-1.29C191.46,417.33,185.62,417,181.82,413Z" style="fill:#17816E;opacity:0.5;mix-blend-mode:multiply"></path><path d="M139.83,211a13.71,13.71,0,0,0,8.52,10c7.51,3,20,1,26.54-3.51s2.55-12.25,2.55-12.25l-3.05-4.28S158.36,215.46,139.83,211Z" style="fill:#17816E;opacity:0.5;mix-blend-mode:multiply"></path><path d="M107.61,268.62c2.34-2.34,5.26-15.78,9.06-19,3.54-3,23-20.68,25.69-23.09l-2.53-5.06a128,128,0,0,0-16,15c-7.52,8.52-16.53,14-16,19s-4.84,16.6-4.84,16.6A20.4,20.4,0,0,0,107.61,268.62Z" style="fill:#17816E;opacity:0.5;mix-blend-mode:multiply"></path><path d="M200.93,214s7.52-9.52,6-8-5.5,7-12.52,9-23.54,7.51-26,9-11,0-8.51,2.51a26.36,26.36,0,0,1,5,8.51c.51,1.5-1.5,5-2,8s-2.92,10.93,0,13a21.93,21.93,0,0,0,6.16,2.45c0-.43-.06-.67-.06-.67s1.75-11.11,2.33-12,7.31-9.94,7.6-13.44a45.17,45.17,0,0,0-.58-8.77s20.74-6.43,32.14-10.52,36.86-23.19,39.49-25.53c1.18-1,.36-3.34,1.51-4.6,0,0-15.47,9.45-27,18.47A78.48,78.48,0,0,1,200.93,214Z" style="fill:#17816E;opacity:0.5;mix-blend-mode:multiply"></path><line x1="178.32" y1="223.62" x2="168.38" y2="227.42" style="fill:none;stroke:#2e353a;stroke-linecap:round;stroke-linejoin:round"></line><line x1="175.98" y1="224.79" x2="168.38" y2="232.68" style="fill:none;stroke:#2e353a;stroke-linecap:round;stroke-linejoin:round"></line><line x1="142.67" y1="226.25" x2="138.22" y2="216.53" style="fill:none;stroke:#2e353a;stroke-linecap:round;stroke-linejoin:round"></line><path d="M190.25,167.58a51.67,51.67,0,0,1-8.85,7.89c-5.16,3.57-7.93,1.79-7.12,8.46s6.46,16.88,1.54,24.84-14.19,14.08-30.33,7.2-18.21-24-11.08-30.73,13.25-7.2,16.72-12.63,1.17-14.56,10.21-17.71,16.74-.27,19.06-.55,2-5.54,9.26-3.77S197.29,165,190.25,167.58Z" style="fill:#2e353a;stroke:#2e353a;stroke-miterlimit:10"></path><path d="M189.42,156.48s6.45-.25,5.71,4.22-2.24,4.47-9.94,6.21-16.14,2-17.87,9.43,3.47,19.37,3,28.31-6,12.17-11.92,12.91" style="fill:none;stroke:#fff;stroke-linecap:round;stroke-linejoin:round;stroke-width:0.5px"></path><path d="M174.77,179.32s-5.47,3.48-5.22,15.4" style="fill:none;stroke:#fff;stroke-linecap:round;stroke-linejoin:round;stroke-width:0.5px"></path><path d="M184.45,163.18s-9.68-4.22-16.14,1.24-4.47,12.42-6.95,19.87-8.94,19.12-18.63,21.85-12.66-10.68-8.44-12.66,8.69,1,7,5" style="fill:none;stroke:#fff;stroke-linecap:round;stroke-linejoin:round;stroke-width:0.5px"></path><path d="M100.28,283.82s.6,4.59.2,6.19l-.4,1.6s-1.2,1-1.4-7.19C98.68,284.42,99.48,282.62,100.28,283.82Z" style="fill:#fff;stroke:#2e353a;stroke-linecap:round;stroke-linejoin:round"></path><path d="M99.08,286.22s.6,4.59.2,6.19l-.4,1.6s-1.19,1-1.39-7.19C97.49,286.82,98.29,285,99.08,286.22Z" style="fill:#fff;stroke:#2e353a;stroke-linecap:round;stroke-linejoin:round"></path><path d="M98.09,287.82s.59,4.59.2,6.19l-.4,1.59s-1.2,1-1.4-7.19C96.49,288.41,97.29,286.62,98.09,287.82Z" style="fill:#fff;stroke:#2e353a;stroke-linecap:round;stroke-linejoin:round"></path><path d="M102.08,275a22.93,22.93,0,0,1,3.19,5c1,2.39,2.6,4.39,3.8,5s1.79,1.4-.2,1.4-2.4-1.8-3.6-2.2a16.77,16.77,0,0,0-3.79-.4,12.76,12.76,0,0,0-2.8,3.6c-.59,1.59-1.39,2-1.39,4.39s-.6,6-1.2,4.19a19.92,19.92,0,0,1-.8-7.79c.4-2.19,2-11.78,2.2-12.57a18.77,18.77,0,0,1,.67-2S99.88,275.64,102.08,275Z" style="fill:#fff;stroke:#2e353a;stroke-linecap:round;stroke-linejoin:round"></path><path d="M101.48,283.82a4.77,4.77,0,0,0,.4-3.79" style="fill:none;stroke:#2e353a;stroke-linecap:round;stroke-linejoin:round"></path><path d="M143.38,253.92c-.78,1.47-1.69,3.12-2.75,5.05-4.68,8.48-9.06,12.86-11.4,21.92s-4.09,21-4.09,21S115.79,334.06,114,339s-14.61,16.07-17,24.54c-.78,2.84-2,8.22-3.37,14.22a10.69,10.69,0,0,1,11.38,3c4.92-9.79,10.32-19.91,13.61-24.49,6.72-9.35,13.44-20.45,16.07-26.59s11.4-27.76,12.27-30.39.88-3.5,2-.58S157.28,332,157,339.32s-6.43,19.87-3.8,28.34c1.4,4.51,4.21,12.91,6.7,20.71A41.71,41.71,0,0,0,170.37,387c-1.27-10.79-2.24-25.73-1.4-31,1.17-7.31,2.63-28.05,2.92-31.56s3.21-17.82,1.17-31.85S169,257.81,169,257.81,156.55,252.56,143.38,253.92Z" style="fill:#2e353a;stroke:#2e353a;stroke-miterlimit:10"></path><line x1="147.77" y1="298.05" x2="140.84" y2="292.79" style="fill:none;stroke:#fff;stroke-linecap:round;stroke-linejoin:round;stroke-width:0.5px"></line><path d="M165.8,258.12s3.32,17.19,4.71,31.34-1.94,41.6-1.39,48.53-3.05,16.91-3.32,26.07a209.31,209.31,0,0,0,1.11,22.46" style="fill:none;stroke:#fff;stroke-linecap:round;stroke-linejoin:round;stroke-width:0.5px"></path><path d="M95.64,377.37s4.43-17.2,9.15-24.41a114.64,114.64,0,0,1,8.32-11.37" style="fill:none;stroke:#fff;stroke-linecap:round;stroke-linejoin:round;stroke-width:0.5px"></path><path d="M280.18,176.81c.28-.14.14-.7,0-1.19a4.31,4.31,0,0,0-.77-.59l-10.3-2.43s0-.17,2.29-.46,5.4.66,6.55.84c2.79.46,2-1.16,2-1.16s-7-2.34-8.47-2.34-4.79.46-4.79.46,2.74-2.8,2.16-4.26-4.09,2.63-7,4.38-9.6,7.11-9.6,7.11l1.72,3.12h2.83c2.85,0,3.41-.84,4.85-1.15l.69-.15.09,0,5.31-.51s2.08.77,3.24,1.29a12.84,12.84,0,0,0,4.54.78c1.43,0-4.79-2.59-4.79-2.59s3.63,1,5.18,1.29a5.3,5.3,0,0,0,3.63-.64c.91-.52-1.94-1.56-3.63-1.69a19.13,19.13,0,0,1-3.43-.77c.11,0-1.09-.53-1-.53C273.18,175.64,279.67,177.08,280.18,176.81Z" style="fill:none;stroke:#2e353a;stroke-linecap:round;stroke-linejoin:round"></path><path d="M271.49,175.64a17.39,17.39,0,0,0-3-.87" style="fill:none;stroke:#2e353a;stroke-linecap:round;stroke-linejoin:round"></path><path d="M270.72,178a12,12,0,0,0-2.58-1.31" style="fill:none;stroke:#2e353a;stroke-linecap:round;stroke-linejoin:round"></path><path d="M144.22,230.69l.12-.21-.57-1.15Z" style="fill:#17816E;opacity:0.5;mix-blend-mode:multiply"></path></g></svg>