<svg xmlns="http://www.w3.org/2000/svg" width="578" height="572" fill="none"><path fill="url(#a)" fill-rule="evenodd" d="M530 217C530 97.154 432.846 0 313 0S96 97.154 96 217v355h434V217Z" clip-rule="evenodd"/><g filter="url(#b)"><path fill="#fff" d="M555.06 191.244h-126c-14.5 0-19.526-.5-19.026-9 .4-6.8 8.5-7.667 13-8h13c1-3.167 6.2-16.144 13-15.744 6.8.4 10.526 7.411 11.526 10.244.5-8 10.5-33.5 33-30.5 18 2.4 23.167 18 23.5 25.5 1.667-3.833 7.4-11 17-9s13 13.833 13.5 19.5h7.5c3.834-.333 11.7.8 12.5 8 .8 7.2-8 9-12.5 9Z"/></g><g filter="url(#c)"><path fill="#fff" d="M193.153 280H34.066c-18.308 0-24.655-.629-24.024-11.325.505-8.557 10.732-9.648 16.414-10.067H42.87c1.263-3.985 5.544-13.716 14.13-13.213 8.586.503 15.575 2.727 16.837 6.292.632-10.067 13.258-42.155 41.666-38.38 22.727 3.02 29.25 22.65 29.671 32.088 2.105-4.824 9.344-13.842 21.464-11.325 12.121 2.517 16.414 17.407 17.046 24.538h9.469c4.84-.42 14.772 1.007 15.783 10.067 1.01 9.06-10.101 11.325-15.783 11.325Z"/></g><defs><filter id="b" width="177.611" height="73.244" x="400" y="130" color-interpolation-filters="sRGB" filterUnits="userSpaceOnUse"><feFlood flood-opacity="0" result="BackgroundImageFix"/><feColorMatrix in="SourceAlpha" result="hardAlpha" values="0 0 0 0 0 0 0 0 0 0 0 0 0 0 0 0 0 0 127 0"/><feOffset dy="2"/><feGaussianBlur stdDeviation="5"/><feComposite in2="hardAlpha" operator="out"/><feColorMatrix values="0 0 0 0 0 0 0 0 0 0 0 0 0 0 0 0 0 0 0.1 0"/><feBlend in2="BackgroundImageFix" result="effect1_dropShadow_0_1"/><feBlend in="SourceGraphic" in2="effect1_dropShadow_0_1" result="shape"/></filter><filter id="c" width="219" height="87" x="0" y="205" color-interpolation-filters="sRGB" filterUnits="userSpaceOnUse"><feFlood flood-opacity="0" result="BackgroundImageFix"/><feColorMatrix in="SourceAlpha" result="hardAlpha" values="0 0 0 0 0 0 0 0 0 0 0 0 0 0 0 0 0 0 127 0"/><feOffset dy="2"/><feGaussianBlur stdDeviation="5"/><feComposite in2="hardAlpha" operator="out"/><feColorMatrix values="0 0 0 0 0 0 0 0 0 0 0 0 0 0 0 0 0 0 0.1 0"/><feBlend in2="BackgroundImageFix" result="effect1_dropShadow_0_1"/><feBlend in="SourceGraphic" in2="effect1_dropShadow_0_1" result="shape"/></filter><linearGradient id="a" x1="313" x2="313" y1="0" y2="572" gradientUnits="userSpaceOnUse"><stop stop-color="#CCE4FF"/><stop offset="1" stop-color="#CBE3FF" stop-opacity="0"/></linearGradient></defs></svg>