<svg xmlns="http://www.w3.org/2000/svg" xmlns:xlink="http://www.w3.org/1999/xlink" xml:space="preserve" id="Layer_1" x="0" y="0" style="enable-background:new 0 0 2048 1326.83" version="1.1" viewBox="0 0 2048 1326.83"><style>.st0{fill:#00a7b9}.st1{fill:#a7dce0}.st6{fill:#7d5f54}.st12{fill:#ffce03}</style><path d="M1251.81 584.63s197.83-18.03 273.1-15.03c75.27 3 341.96-97.19 390.51-153.76s50.28-27.99 50.28-27.99-28.55 164.56-145.29 212.38-56.89 23.14-56.89 23.14 125.61 8.71 187.62-28.38c62.01-37.09 16.56 30.67 16.56 30.67s-125.25 113.05-195.61 94.89c-70.35-18.16 46.57 35.44 70.35 18.16s-8.53 63.1-96.19 46.17-94.51-4.54-94.51-4.54l78.33 16.23s-294.71 277.56-448.19 22.28-30.07-234.22-30.07-234.22zm-455.62 0s-197.83-18.03-273.1-15.03c-75.27 3-341.96-97.19-390.51-153.76S82.3 387.85 82.3 387.85s28.55 164.56 145.29 212.38 56.89 23.14 56.89 23.14-125.61 8.71-187.62-28.38C34.85 557.9 80.3 625.66 80.3 625.66s125.25 113.05 195.61 94.89c70.35-18.16-46.57 35.44-70.35 18.16s8.53 63.1 96.19 46.17 94.51-4.54 94.51-4.54l-78.33 16.23s294.71 277.56 448.19 22.28 30.07-234.22 30.07-234.22z" class="st0"/><g id="XMLID_44_"><path id="XMLID_46_" d="m1240.39 185.22-8.66-119.28-76.8 91.68z" class="st1"/><path id="XMLID_45_" d="m1248.28 200.6-8.66-119.28-76.8 91.68z" class="st1"/></g><path id="body_7_" d="M1354.67 845.92c0-222.64-143.36-403.12-324.07-403.12S700.28 623.28 700.28 845.92s146.49 403.12 327.2 403.12c180.7 0 327.19-180.48 327.19-403.12z" class="st1"/><g id="XMLID_25_"><path id="XMLID_27_" d="m796.17 185.22 8.65-119.28 76.8 91.68z" class="st1"/><path id="XMLID_26_" d="m788.28 200.6 8.65-119.28 76.8 91.68z" class="st1"/></g><defs><path id="head_8_" d="M1356.45 398.75c0 178.25-139.84 322.75-332.2 322.75-201.25 0-322.2-144.5-322.2-322.75S822.99 76 1024.25 76c192.36.01 332.2 144.51 332.2 322.75z"/></defs><use xlink:href="#head_8_" style="overflow:visible;fill:#a7dce0"/><clipPath id="head_00000075846544513050603320000011765045566523128737_"><use xlink:href="#head_8_" style="overflow:visible"/></clipPath><path id="XMLID_43_" d="M1030.54 566.81s-298.8-13.83-298.8-271.14c.65-211.75 96.09-213.04 150.68-217.96 53.72 0 112.98 19.34 141.72 81.33 28.58-62.92 84.58-81.91 138.77-81.91 64.31 0 163.86 5.13 163.86 216.97-.01 262.19-296.23 272.71-296.23 272.71z" style="clip-path:url(#head_00000075846544513050603320000011765045566523128737_);fill:#00a7b9"/><path id="XMLID_42_" d="M1030.4 541.38s-266.82-11.45-266.82-224.47c.58-175.3 85.81-192.79 134.55-196.86 47.97 0 100.89 32.43 126.55 83.75 25.52-52.09 75.53-84.23 123.92-84.23 57.42 0 146.32 20.67 146.32 196.04 0 217.06-264.52 225.77-264.52 225.77z" style="clip-path:url(#head_00000075846544513050603320000011765045566523128737_);fill:#a7dce0"/><g id="Eye_Shadow_5_" style="clip-path:url(#head_00000075846544513050603320000011765045566523128737_)"><path id="XMLID_41_" d="M1038.7 344.53c13.75-74.39 26.12-101.17 104.9-139.33 35.61-17.25 85.53-24.23 150.91-.78 18.27 6.55 21.14 35.52 21.14 35.52s-93.21 3.81-146.82 14.86c-74.12 15.28-117.58 97.48-117.58 97.48s-13.15-4.49-12.55-7.75z" class="st0"/><path id="XMLID_40_" d="M1016.56 344.53c-13.75-74.39-26.12-101.17-104.9-139.33-35.61-17.25-93.77-13.72-149.14-.78-19.12 4.47-16.74 36.01-16.74 36.01s87.04 3.33 140.65 14.38c74.12 15.28 117.58 97.48 117.58 97.48s13.16-4.5 12.55-7.76z" class="st0"/></g><path d="M1099.63 281.94s31.19-33.53 83.39-29.51c31.23 2.4 72.97-12.1 78.98-11.29 6.01.82-22.19 63.68-62.52 51.83-57.72-16.96-99.85-11.03-99.85-11.03zm-136.08-3.3s-31.19-33.53-83.39-29.51c-31.23 2.4-72.97-12.1-78.98-11.29-6.01.82 22.19 63.68 62.52 51.83 57.72-16.97 99.85-11.03 99.85-11.03z" style="clip-path:url(#head_00000075846544513050603320000011765045566523128737_);fill:#231f20"/><path id="XMLID_20_" d="m903.28 824.29 49.96 43.26 49.96-43.26z" class="st0"/><path id="XMLID_19_" d="m1045.1 824.29 49.96 43.26 49.96-43.26z" class="st0"/><path id="XMLID_18_" d="m903.28 1031.4 49.96 43.27 49.96-43.27z" class="st0"/><path id="XMLID_17_" d="m1045.1 1031.4 49.96 43.27 49.96-43.27z" class="st0"/><path id="XMLID_16_" d="m845.58 927.84 49.96 43.27 49.96-43.27z" class="st0"/><path id="XMLID_15_" d="m1104.97 927.84 49.96 43.27 49.96-43.27z" class="st0"/><path id="XMLID_14_" d="m974.19 927.84 49.96 43.27 49.96-43.27z" class="st0"/><g id="XMLID_9_"><path id="XMLID_13_" d="M982.85 1236.45c0 12.23-15.27 0-33.62 0s-33.62 12.23-33.62 0 4.52-38.87 32.05-38.64c34.41.3 35.19 26.41 35.19 38.64z" class="st6"/><ellipse id="XMLID_12_" cx="926.72" cy="1236.45" class="st6" rx="11.11" ry="24.44"/><ellipse id="XMLID_11_" cx="949.23" cy="1236.45" class="st6" rx="11.11" ry="24.44"/><ellipse id="XMLID_10_" cx="971.74" cy="1236.45" class="st6" rx="11.11" ry="24.44"/></g><g id="XMLID_4_"><path id="XMLID_8_" d="M1141.35 1236.45c0 12.23-15.27 0-33.62 0-18.35 0-33.62 12.23-33.62 0s4.52-38.87 32.05-38.64c34.41.3 35.19 26.41 35.19 38.64z" class="st6"/><ellipse id="XMLID_7_" cx="1085.22" cy="1236.45" class="st6" rx="11.11" ry="24.44"/><ellipse id="XMLID_6_" cx="1107.73" cy="1236.45" class="st6" rx="11.11" ry="24.44"/><ellipse id="XMLID_5_" cx="1130.24" cy="1236.45" class="st6" rx="11.11" ry="24.44"/></g><g id="XMLID_21_"><g id="XMLID_24_"><path id="XMLID_51_" d="M876.37 389.89c-76.73 0-139.16-62.43-139.16-139.16s62.43-139.16 139.16-139.16 139.16 62.43 139.16 139.16-62.43 139.16-139.16 139.16zm0-261.8c-67.62 0-122.64 55.01-122.64 122.64s55.01 122.64 122.64 122.64S999 318.35 999 250.73s-55.01-122.64-122.63-122.64z"/></g><g id="XMLID_23_"><path id="XMLID_48_" d="M1180.81 386.58c-76.73 0-139.16-62.43-139.16-139.16s62.43-139.16 139.16-139.16c76.73 0 139.16 62.43 139.16 139.16s-62.43 139.16-139.16 139.16zm0-261.79c-67.62 0-122.64 55.01-122.64 122.64s55.01 122.64 122.64 122.64c67.62 0 122.64-55.01 122.64-122.64s-55.02-122.64-122.64-122.64z"/></g><g id="XMLID_22_"><path id="XMLID_47_" d="M1007.27 248.41h42.64v16.52h-42.64z"/></g></g><path d="m984.34 336.25 24.96 21.15c10.91 9.24 25.21 8.84 35.79-1.01l24.4-22.72-42.01-104.18-43.14 106.76z" style="fill:#f5e00a"/><path d="m984.34 343.3 24.96 15.79c10.91 6.9 25.21 6.6 35.79-.76l24.4-16.96-42.01-77.78-43.14 79.71z" style="fill:#f3c714"/><path d="M659.72 574.1S830.71 934 903.27 1017.89c120.87 139.73 315.75 154.88 315.75 154.88s33.53-24.2 29.26-52.2S659.72 574.1 659.72 574.1z" style="fill:#074422"/><defs><path id="SVGID_1_" d="M656.18 566.7s171.85 364.36 308.78 461.31 276.54 129.62 276.54 129.62 148.75-194.18 100.64-200.82c-43.61-6.01-161.78-77.49-283.96-159.31-153.05-102.49-294.42-228.57-306.9-230.8-56-10.04-95.1 0-95.1 0z"/></defs><use xlink:href="#SVGID_1_" style="overflow:visible;fill:#7b1316"/><clipPath id="SVGID_00000168095073135279412940000006676153524214772118_"><use xlink:href="#SVGID_1_" style="overflow:visible"/></clipPath><path d="M724.34 557.39s171.2 175.81 394.78 325.16c120.66 80.6 250.89 113 250.89 113M659.72 569.02s93.72 221.78 251.37 408.87c95.46 113.29 344.33 186.51 344.33 186.51" style="clip-path:url(#SVGID_00000168095073135279412940000006676153524214772118_);fill:none;stroke:#ffce03;stroke-width:10.1769;stroke-miterlimit:10"/><path d="M710.74 555.45s229.1 232.56 351.77 312.1c159.72 103.56 282.1 139.45 282.1 139.45" style="clip-path:url(#SVGID_00000168095073135279412940000006676153524214772118_);fill:none;stroke:#ffce03;stroke-width:3.3923;stroke-miterlimit:10"/><path d="M647.66 562.24s6.22-12.61 37.34-13.65c31.11-1.04 75.71 13.65 75.71 13.65l19.9 21.02s-45.63-6.82-66.47 0c-20.84 6.82-44.69 18.23-44.69 18.23l-21.79-39.25zm101.7 71.22c.05-1.96-1.56-3.08-3.41-2.68-1.52.33-2.93 1.38-4.08 2.39-1.44 1.27-2.44 2.84-2.71 4.76-.28 2.07.15 4.15.7 6.14 1.15 4.11 2.67 8.17 5.32 11.56 2.54 3.25 6.22 5.53 10.34 6.03 4.23.51 9.68-1.75 10.34-6.45.13-.91-.22-1.82-1.18-2.09-.95-.26-1.76.32-2.09 1.18-.04.11-.08.21-.12.32.01-.03.09-.2 0-.02-.08.18-.17.35-.26.52-.2.37-.42.71-.67 1.05-.16.23.14-.17-.04.05-.05.06-.1.13-.16.19-.13.15-.26.29-.39.43a14.535 14.535 0 0 1-.96.89c-.09.07-.18.13-.27.2-.14.1-.28.19-.42.28-.38.24-.77.46-1.17.66-.08.04-.15.07-.23.11-.03.02-.35.16-.18.09.15-.06-.11.04-.11.05-.11.04-.21.08-.32.12-.4.15-.81.27-1.22.38-.39.1-.78.18-1.17.25-.08.01-.17.03-.25.04.08-.01.29-.03-.06 0-.23.02-.45.04-.68.05-.4.02-.8.02-1.19 0-.2-.01-.4-.02-.59-.04l-.25-.03c.29.03-.1-.02-.15-.02-1.86-.31-3.37-.89-4.93-1.81-3.19-1.88-5.65-4.75-7.5-7.98-2.1-3.68-3.43-7.71-4.72-11.73-.67-2.1-1.74-4.68-.86-6.88-.01.04-.09.19 0 .02.06-.13.13-.25.21-.37.04-.07.09-.14.14-.21.07-.09.06-.09-.01.01.04-.04.07-.09.11-.13.16-.16.31-.32.48-.47-.18.15.26-.17.34-.22.09-.06.19-.11.29-.16-.16.08-.07.02.04-.02l.31-.09c.29-.11-.08-.02.09-.03.08-.01.16-.01.23-.01.05 0 .45.05.24.01-.19-.04.06.03.08.03.47.15-.26-.16.19.07 1.94 1 3.55-1.74 1.71-2.93-4.9-3.16-11.11-5-16.89-3.51-4.9 1.26-8.91 5.28-10.01 10.26-.6 2.73-.29 5.6 1.19 8 .44.71 1.34 1.04 2.12.69.73-.32 1.27-1.19.98-2-1.19-3.39-2.46-6.88-2.81-10.49-.16-1.64-.18-3.33.14-4.95.29-1.42.68-2.43 1.36-3.6.34-.6.75-1.19 1.06-1.56.45-.54.95-1.04 1.49-1.5.79-.66 1.89-1.26 3-1.54.16-.04.33-.08.5-.11-.03.01.51-.07.28-.05-.24.03.32-.02.29-.02.17-.01.35-.01.52-.01.78 0 1.03.05 1.85.26 1.44.38 2.41.85 3.72 1.46 3.05 1.44 6.3 2.99 9.73 1.98a1.717 1.717 0 0 0 1.01-2.49c-.51-.94-.63-2.15-.38-3.19.19-.8.29-1.03.75-1.71.01-.01.32-.41.13-.19.11-.13.22-.25.33-.37.12-.12.24-.23.36-.34.15-.13.17-.14.05-.04.07-.05.14-.09.21-.14.14-.08.29-.17.43-.25.07-.04.15-.08.22-.11-.15.06-.14.05.05-.02.32-.11.63-.19.95-.26.47-.11-.28-.01.2-.03.17-.01.33-.02.5-.02.17 0 .33 0 .5.01l.33.03c-.15-.02-.16-.02-.04 0 1.43.27 2.19.67 3.1 1.8.11-.89.23-1.78.34-2.66-2.87 1.91-4.53 4.98-4.94 8.36-.41 3.35.66 6.65 2.94 9.12.34.37.7.73 1.04 1.11.33.36.62.69.81.96.14.19.26.39.37.6.04.08.08.15.12.23-.11-.24.02.09.03.14.02.08.04.16.06.23-.06-.3 0 .02-.01.11-.02.2.02-.02.02-.05-.03.17-.09.33-.15.49-.32.86.35 1.86 1.18 2.09.95.26 1.77-.32 2.09-1.18.72-1.96-.28-3.81-1.5-5.3-.54-.66-1.15-1.26-1.73-1.89-.13-.15-.27-.3-.4-.45l-.15-.18c.05.06.16.23-.01-.03-.2-.31-.4-.61-.57-.93l-.21-.42c-.14-.3-.04-.09-.01-.02-.03-.07-.06-.14-.08-.22-.12-.34-.23-.69-.32-1.04l-.12-.53c-.02-.1-.07-.46-.04-.17-.05-.39-.07-.78-.08-1.17 0-.34.01-.68.04-1.02.01-.1.05-.47.01-.17.03-.21.07-.41.11-.62a11.953 11.953 0 0 1 .42-1.51c.03-.07.06-.15.08-.22.1-.27-.17.35.04-.1.16-.35.34-.7.54-1.04.11-.18.22-.35.34-.52.05-.07.34-.44.15-.22a9.075 9.075 0 0 1 1.26-1.27c.21-.17-.19.13.03-.02.11-.07.21-.15.32-.22.98-.65 1.05-1.78.34-2.66-2.41-3.02-7.29-3.76-10.49-1.6-3.36 2.27-4.45 6.97-2.53 10.52.34-.83.68-1.66 1.01-2.49-.17.05-.34.1-.51.14-.01 0-.57.09-.23.05-.34.04-.68.05-1.02.03-.17-.01-.34-.02-.51-.04.35.04-.2-.04-.22-.04-.4-.08-.79-.18-1.17-.3-.72-.23-1.23-.44-1.77-.68-.68-.3-1.35-.63-2.02-.94-2.94-1.37-5.98-2.52-9.25-1.76-3.05.71-5.57 2.88-7.27 5.43-1.9 2.84-2.65 6.24-2.53 9.63.15 4.42 1.57 8.65 3.02 12.78 1.03-.44 2.07-.87 3.1-1.31-.14-.23-.28-.46-.4-.7-.05-.1-.09-.19-.14-.29.12.26.01.02-.01-.03-.18-.5-.3-.99-.41-1.51-.07-.32-.02-.09-.01-.01-.02-.13-.03-.26-.04-.39a8.193 8.193 0 0 1 0-1.41c.01-.13.02-.26.04-.39-.03.31.01-.08.03-.18.08-.47.2-.94.34-1.4.06-.21.13-.41.21-.61-.01.03.19-.46.1-.25-.06.14.12-.26.15-.32.21-.44.45-.87.71-1.29.13-.21.27-.41.41-.61.06-.09.13-.18.2-.27-.18.24.11-.13.15-.17.32-.38.66-.74 1.02-1.08.2-.19.41-.36.62-.54.03-.03.25-.19.05-.04.13-.1.27-.19.4-.29.98-.67 1.75-1.01 2.79-1.33 2.27-.69 4.73-.72 7.01-.27 2.86.57 5.41 1.69 7.86 3.27.57-.98 1.14-1.95 1.71-2.93-2.12-1.09-4.52-.46-6.18 1.17-1.92 1.87-2.2 4.53-1.79 7.06.39 2.45 1.34 4.87 2.14 7.22.8 2.35 1.68 4.67 2.74 6.91 1.98 4.16 4.72 7.92 8.47 10.65 3.52 2.56 7.83 3.83 12.16 3.16 4.5-.71 8.54-3.65 10.15-7.95l-3.27-.9c-.05.35-.13.69-.25 1.03.1-.28-.11.23-.11.23-.08.16-.18.3-.27.45-.21.35-.92.99-1.3 1.24-1.22.8-2.48 1.1-3.91 1.09-2.89-.01-5.79-1.51-7.89-3.64-2.35-2.39-3.81-5.55-4.86-8.69-.55-1.63-1.07-3.29-1.38-4.98a8.87 8.87 0 0 1-.16-2.11c.03-.64.17-1.32.48-1.86.1-.17.2-.33.32-.48-.25.36.11-.11.16-.18.23-.26.48-.5.74-.73.12-.1.23-.21.35-.3.08-.07.16-.13.24-.2-.14.11-.13.1.03-.02.29-.2.58-.41.89-.59.12-.07.25-.14.38-.21.08-.04.63-.27.2-.11.11-.04.23-.09.34-.12.07-.02.14-.04.22-.06.19-.04.14-.03-.15.01.01-.04.26.02.27 0-.06.14-.6-.18-.71-.29l-.17-.23c.08.15.06.09-.07-.18.04.17.04.12-.01-.15v.24c-.02.92.8 1.7 1.7 1.7.95.03 1.69-.75 1.71-1.67zm30.01 64.14.18-.51c.03-.09.17-.38-.02.03a13.711 13.711 0 0 1 1.32-2.33c.04-.06.41-.53.09-.13.07-.09.15-.19.23-.28.19-.23.39-.45.6-.67.41-.44.86-.83 1.31-1.22.45-.39-.36.25.12-.1.1-.07.19-.14.29-.21.24-.17.5-.34.75-.49.54-.33 1.1-.6 1.67-.88.32-.16-.49.18.05-.02.11-.04.22-.09.34-.13.28-.1.56-.19.85-.28.29-.08.58-.16.87-.22.12-.03.23-.05.35-.07.06-.01.73-.12.41-.07-.36.05.23-.02.24-.02l.36-.03c.3-.02.6-.03.9-.02.15 0 .3.02.44.02.33-.01-.5-.13.04 0l.34.09c-.25-.12-.27-.13-.05-.02.17.11.19.12.05.03-.09-.11-.43-.3-.12-.06l-.09-.18c.01.06.03.12.04.18l-.03-.21c.01.13.01.26 0 .39l-.03.39c.05-.45-.01-.01-.03.1-.04.19-.07.37-.11.56l-.27 1.27c-.67 3.11-1.48 6.2-2.41 9.24a114.11 114.11 0 0 1-3.57 9.99c-.35.85.23 2.07 1.01 2.48.89.47 1.92.34 2.66-.34 1.72-1.57 3.44-3.15 5.17-4.72.42-.39.85-.77 1.27-1.16.2-.18.4-.37.6-.55.08-.07.16-.13.23-.2.17-.15-.18.1.14-.11.2-.13.43-.24.62-.38.18-.14 0-.01-.07.01.12-.05.25-.07.37-.11-.04.02-.36 0-.12.02.27.02-.11-.03-.12-.04.19.18.21.02.01-.02.18.03.18.11-.02-.02.26.17.09.1 0-.03.05.08.1.15.14.23.08.15.26.62.13.23.17.51.34 1.02.48 1.54.13.51.24 1.02.33 1.54.02.1.1.75.07.41l.09.89a25.148 25.148 0 0 1-.1 4.7c-.01.11-.03.23-.04.34-.01.05-.07.51-.03.27.03-.21-.02.16-.02.16-.03.19-.06.38-.09.56-.71 4.31-2.11 8.45-3.29 12.64-1.05 3.75-1.84 7.64-1.9 11.54-.06 4.33.9 8.81 3.54 12.33.69.92 1.93 1.48 3.01.79.91-.58 1.53-2.02.79-3.01-.57-.76-1.08-1.58-1.5-2.44-.06-.11-.11-.23-.16-.34-.01-.03-.15-.32-.04-.08.09.21-.13-.34-.17-.43-.18-.47-.33-.95-.46-1.43-.12-.42-.22-.85-.3-1.29-.05-.25-.09-.5-.13-.75-.01-.04-.05-.35-.01-.09.04.31-.03-.22-.03-.28-.1-.96-.15-1.93-.13-2.9.01-.99.07-1.97.18-2.95.02-.23.05-.46.08-.69.03-.26-.01.05-.01.09l.06-.4c.08-.53.17-1.05.27-1.58.37-1.96.87-3.9 1.43-5.81 1.32-4.52 2.73-9.01 3.32-13.7.3-2.37.29-4.71-.04-7.07-.3-2.17-.83-4.99-2.67-6.4-1.22-.94-2.78-1.16-4.23-.59-1.39.55-2.46 1.54-3.55 2.53-2.05 1.88-4.11 3.76-6.16 5.63 1.22.71 2.45 1.43 3.67 2.14 2.68-6.55 4.76-13.34 6.2-20.27.4-1.92.75-4.01-.69-5.61-1.22-1.35-3.14-1.56-4.86-1.45-2.88.18-5.73 1.15-8.1 2.81-2.85 2-5 4.74-6.14 8.04-.38 1.09.43 2.45 1.53 2.7 1.19.29 2.27-.35 2.67-1.52zm47.73-1.17c-.17.04-.34.09-.51.12-.1.02-.68.1-.11.03-.35.04-.71.07-1.06.08-.73.02-1.46-.02-2.18-.08-1.38-.11-2.75-.3-4.14-.3-3.23-.01-6.33 1.31-7.68 4.42-1.26 2.91-1.11 6.38-.74 9.48.37 3.09 1.08 6.1 2.13 9.03 2.06 5.77 5.09 11.12 8.17 16.39 1.56 2.67 3.14 5.33 4.63 8.04.75 1.36 1.47 2.73 2.16 4.12.32.65.63 1.3.93 1.95.14.3.27.6.4.89l.24.54.15.36c-.09-.22-.09-.22.01.02.6 1.48 1.14 2.97 1.52 4.52.19.77.34 1.55.47 2.34.09.59-.03-.32.01.05.02.21.05.42.07.63.04.42.06.84.07 1.26.01.76-.02 1.53-.11 2.29.06-.5.02-.18 0-.07-.04.22-.08.45-.13.67-.09.39-.19.77-.32 1.15-.04.11-.07.21-.11.32-.04.11-.08.21-.12.31.11-.27.12-.29.02-.06-.18.35-.35.7-.56 1.04-.06.1-.12.19-.18.28-.06.09-.53.66-.16.24-.27.31-.54.61-.83.89-.83.8-.86 2.32 0 3.11.89.82 2.22.85 3.11 0 4.5-4.3 4.36-11.11 2.75-16.67-.85-2.92-2.15-5.73-3.5-8.45-1.36-2.73-2.86-5.39-4.39-8.02-3.04-5.23-6.23-10.39-8.7-15.92-.13-.29-.26-.59-.38-.88.2.46-.05-.13-.08-.18-.07-.18-.14-.35-.22-.53-.28-.71-.55-1.42-.8-2.14-.48-1.37-.89-2.76-1.23-4.18-.16-.67-.3-1.35-.42-2.04l-.15-.93c-.1-.63.05.46-.02-.17a29.644 29.644 0 0 1-.23-5.18c.02-.39.05-.77.1-1.16-.07.52.03-.11.04-.18.04-.22.09-.44.15-.65.04-.15.1-.3.14-.46.09-.24.08-.24-.02 0 .05-.11.1-.23.16-.34.09-.17.19-.32.28-.48.23-.41-.2.15.12-.15.13-.12.26-.25.38-.37.19-.16.17-.15-.06.03l.27-.18c.14-.09.28-.15.42-.23.38-.22-.39.11.06-.02.28-.08.8-.34 1.09-.27-.28-.07-.33.03-.09.01.22-.02.45-.04.67-.05 3.26-.12 6.45.83 9.68-.02 1.11-.29 1.9-1.58 1.53-2.7-.37-1.16-1.51-1.86-2.7-1.55z" class="st12"/><path d="m824.43 731.66 8.03 1.5c.59.11 1.16.09 1.69-.22.46-.27.89-.79 1.01-1.31.25-1.08-.33-2.48-1.53-2.7l-8.03-1.5c-.59-.11-1.16-.09-1.69.22-.46.27-.89.79-1.01 1.31-.25 1.07.32 2.47 1.53 2.7zm92.24 109.2c-.04.4.13-.6 0-.08-.03.12-.05.23-.08.35-.09.32-.2.63-.31.94-.03.09-.07.17-.1.26-.13.35.21-.45.04-.11-.07.15-.14.31-.21.46-.19.4-.39.8-.6 1.19-.96 1.79-2.07 3.5-3.26 5.15-.31.43-.62.85-.94 1.27-.09.12-.18.23-.26.34.3-.4 0-.01-.05.06-.18.23-.36.45-.54.68-.68.84-1.38 1.66-2.12 2.45-.67.73-1.37 1.43-2.11 2.1-.32.29-.64.56-.97.83-.14.11-.28.34.05-.03-.06.07-.18.13-.25.19-.16.12-.33.24-.5.35-.28.19-.57.36-.87.51-.07.04-.15.07-.23.11-.3.16.49-.16.17-.07-.14.04-.28.1-.42.14-.07.02-.14.03-.2.05-.24.07-.21-.11.26-.03-.07-.01-.24 0-.31.01s-.44-.02.13.03c-.21-.02-.42-.07-.62-.1-.41-.08-.81-.18-1.21-.3-.78-.23-1.26-.42-1.85-.7-.76-.36-1.49-.77-2.2-1.22-1.41-.89-2.51-1.73-3.71-2.71-4.98-4.05-10.02-8.31-12.71-14.11l-.24-.54c.14.33-.1-.27-.1-.27-.12-.31-.23-.62-.33-.93-.25-.75-.45-1.52-.61-2.3-.04-.19-.08-.39-.11-.58.01.05-.09-.59-.05-.33.04.27-.04-.37-.04-.33-.02-.2-.04-.39-.05-.59a16.614 16.614 0 0 1 .04-2.92c.05-.61-.04.21.02-.15.05-.35.12-.7.19-1.04.17-.75.39-1.49.69-2.2-.15.35.11-.23.12-.24.07-.14.14-.29.22-.43.17-.31.35-.62.54-.92.09-.14.19-.28.29-.43.28-.41-.18.16.04-.05.24-.24.45-.53.7-.77.19-.19.39-.37.59-.54.05-.04.47-.38.11-.1.13-.1.26-.19.39-.28.53-.37 1.09-.69 1.68-.97.06-.03.56-.24.13-.06l.3-.12c.3-.11.61-.21.92-.3.26-.07.52-.14.78-.19l.47-.09c.22-.03.21-.03-.04 0l.32-.03c.57-.05 1.15-.06 1.73-.02.16.01.31.03.46.04-.43-.04-.15-.02-.06 0 .35.07.7.14 1.05.24.25.07.49.16.73.25-.45-.17.02.02.1.05.14.07.27.14.41.21.23.13.44.27.65.41.43.27-.28-.26.1.08.16.14.31.29.47.43 1.63 1.41 3.85-.2 4.77-1.68.71-1.14.97-2.59.82-3.91-.41-3.46-3.21-5.45-6.23-6.66-3.06-1.23-6.37-2.05-9.6-2.7-3.46-.7-7.01-1.13-10.54-1.02-6.48.2-12.79 2.2-17.54 6.72-4.01 3.81-6.89 9.3-6.62 14.94.07 1.43.32 2.87.77 4.23.31.92 1.15 1.52 2.13 1.39.94-.13 1.7-.94 1.69-1.91-.07-6.57-.14-13.14-.22-19.71-.03-3.04-.16-6.1-.06-9.15a21.706 21.706 0 0 1 .16-2.15c-.04.26.06-.38.05-.33.06-.36.14-.71.23-1.06.07-.28.16-.57.25-.84.05-.15.11-.31.17-.46.13-.33-.21.38.07-.16.14-.26.27-.52.42-.77.09-.14.18-.27.27-.41.33-.49-.21.21.15-.2.19-.22.38-.43.59-.63.08-.08.17-.15.25-.23-.01.01.42-.34.2-.17-.22.17.22-.15.21-.15.09-.06.19-.12.28-.18.26-.16.53-.31.81-.45.13-.06.25-.12.38-.18-.34.15-.06.03.01 0 .27-.09.54-.19.81-.27.56-.17 1.13-.28 1.7-.38.56-.1-.24.02.1-.02.15-.01.3-.03.44-.05l.81-.06c.63-.03 1.27-.03 1.9 0 .54.02 1.09.06 1.63.12.15.02.3.03.45.05.1.01.49.07.1.01.3.04.6.09.9.14 2.67.45 5.31 1.1 7.88 1.94 1.27.41 2.53.87 3.77 1.37.6.24.83.34 1.52.65.66.3 1.31.6 1.95.92 5.48 2.72 10.15 6.06 14.41 10.32l2.75-2.75c-4.04-3.66-7.09-7.67-9.54-12.56-.6-1.21-1.04-2.19-1.46-3.27-.44-1.14-.8-2.31-1.17-3.48-.01-.04-.01-.09-.03-.14-.08-.3.03.49.03.26 0-.12-.02-.24-.03-.36-.01-.33 0-.65.02-.98.01-.16.03-.31.04-.47l.03-.27c.03-.27-.09.52-.02.12.07-.4.13-.8.21-1.19.36-1.76.89-3.48 1.53-5.16.08-.22.17-.44.26-.66.04-.09.07-.17.11-.26.18-.43-.13.28 0 .01.21-.43.39-.87.6-1.3.35-.71.73-1.41 1.17-2.07.1-.16.21-.31.32-.46.31-.44-.25.28.08-.11.21-.24.41-.48.65-.69.04-.04.09-.07.13-.11.24-.23-.42.26-.13.1.09-.05.17-.11.26-.16.05-.03.15-.05.19-.1-.03.03-.48.14-.27.12.05 0 .11-.03.16-.04.34-.07-.46-.01-.26.03s.45.01.66.03c-.36-.03.04.01.13.02a6.967 6.967 0 0 1 1.33.39c-.08-.03-.29-.14.05.03.17.08.33.17.5.26 1.16.64 1.78 1.21 2.77 2.23 2.18 2.26 3.92 4.78 5.7 7.4 1.9 2.8 3.64 5.7 5.23 8.68.73-.95 1.46-1.9 2.2-2.86-2.08-.63-3.76-1.53-5.85-2.38-1.79-.73-3.74-1.31-5.69-1.21-3.41.17-7.31 2.11-7.9 5.82-.39 2.48.72 4.63 1.89 6.74 1.02 1.85 1.99 3.85 2.72 5.67.8 2 1.47 4.05 2.02 6.13.28 1.06.52 2.13.73 3.2.1.52.2 1.04.28 1.56.02.1.03.19.05.29.05.33-.02-.26.01.08.03.27.05.53.05.8 0 .23 0 .46-.03.69.04-.31-.05.15-.07.24-.09.35-.05.16-.01.07-.04.09-.09.17-.14.25-.15.27.17-.17-.03.05-.08.09-.17.18-.26.26-.03.03-.33.27-.16.14.15-.12-.1.06-.11.07-.19.12-.37.24-.56.35-.4.24-.8.46-1.18.72-1.4.94-2.58 2.19-3.4 3.67-1.62 2.93-1.87 6.42-1.19 9.65.7 3.33 2.55 6.34 5.18 8.5 3.01 2.48 6.67 4 10.47 4.78 1.96.4 3.96.64 5.95.75 1.91.11 4.1.27 5.8-.78 2.26-1.39 2.3-3.91 2.28-6.28l-.06-7.02-.03-3.57c-.01-1.02-.89-1.99-1.94-1.94-1.05.05-1.95.85-1.94 1.94.02 2.22.04 4.44.05 6.65l.03 3.33c-.04.57-.04 1.11-.03 1.64v.6c0 .13-.01.27-.02.4 0 .11-.03.3 0 .08-.03.19-.08.39-.14.57.11-.34-.19.34-.1.19.09-.15-.06.06-.09.08.03-.01.24-.16.05-.04-.07.05-.15.09-.22.13-.44.25.17-.04-.1.04-.17.05-.35.09-.52.13-.22.05.03.01.06 0-.12.02-.25.03-.37.03-.43.03-.87.03-1.3.01-.88-.02-1.75-.07-2.62-.14-.42-.04-.85-.08-1.27-.13-.09-.01-.56-.07-.26-.03a29.445 29.445 0 0 1-5.78-1.34c-.39-.14-.78-.28-1.17-.44.3.12-.25-.11-.32-.15-.2-.09-.4-.19-.6-.29-.76-.38-1.51-.81-2.21-1.28-.69-.47-1.03-.73-1.75-1.42-.29-.27-.57-.56-.83-.86l-.36-.42c-.02-.03-.18-.24-.04-.05.14.19-.06-.08-.08-.12a12.99 12.99 0 0 1-1.29-2.26c-.15-.33-.02-.04.01.03-.03-.07-.06-.15-.09-.22-.13-.35-.25-.7-.36-1.05-.1-.33-.18-.66-.26-1l-.09-.47c-.03-.16-.09-.69-.05-.27-.07-.7-.12-1.4-.09-2.11.01-.34.05-.67.08-1-.03.35-.01.1.02-.09.03-.2.07-.4.12-.6.07-.32.16-.64.26-.95.05-.14.1-.28.15-.43.03-.07.05-.14.08-.21-.09.24-.09.19.01-.02.14-.29.28-.58.45-.86.08-.13.15-.25.24-.38.07-.1.43-.56.13-.21.19-.23.38-.46.59-.67.12-.13.25-.25.38-.36.11-.1.44-.36.14-.13 1.48-1.12 3.31-1.75 4.21-3.51 1.01-1.97.59-4.2.2-6.27-.38-2-.87-3.99-1.48-5.93-1.25-4-3.02-7.73-5-11.41-.44-.81-.8-1.54-.92-2.33.02.17-.01-.18-.01-.17 0-.11-.01-.21 0-.32 0-.11.01-.22.02-.32 0 .08-.09.4 0 .06l.12-.43c.01-.04.09-.29.01-.04-.09.26.07-.14.09-.17.07-.13.15-.25.23-.37.18-.3-.19.18.06-.07.12-.12.24-.25.36-.37.12-.11.45-.31.13-.12.29-.18.56-.36.86-.52.14-.07.53-.21.18-.09.18-.06.35-.13.53-.18.34-.1.67-.17 1.02-.25.09-.02.38-.04-.04 0 .08-.01.16-.02.24-.02.19-.01.37-.03.56-.03.35-.01.69.03 1.03.05.23.01-.11-.01-.13-.02.14.03.29.05.43.08.25.05.49.11.74.17 1.93.51 3.35 1.26 5.19 2.04.99.42 1.98.83 3.01 1.14 1.69.51 2.97-1.41 2.19-2.86a93.664 93.664 0 0 0-4.97-8.29c-1.78-2.65-3.66-5.3-5.76-7.7-1.84-2.1-4.18-4.12-6.98-4.74-1.22-.27-2.38-.35-3.53.16-.64.29-1.21.78-1.69 1.29-1.22 1.33-2.11 2.95-2.85 4.59-.86 1.91-1.58 3.88-2.12 5.9-.43 1.64-.81 3.39-.8 5.09 0 .87.19 1.68.45 2.5.46 1.46 1.02 2.89 1.62 4.3 2.56 5.98 6.44 11.4 11.26 15.76.78.7 1.98.77 2.75 0 .74-.74.75-2 0-2.75-8.09-8.07-18.61-13.74-29.84-15.94-4.92-.97-10.89-1.51-15.16 1.69-5.19 3.9-4.56 10.73-4.5 16.51.08 7.65.17 15.3.25 22.95 1.27-.17 2.55-.34 3.82-.52-.16-.47-.29-.94-.4-1.43-.05-.22-.09-.45-.13-.68-.01-.06-.06-.42-.03-.16.04.27-.02-.2-.03-.25-.09-.96-.06-1.92.02-2.88.05-.54-.05.26.01-.07.02-.11.03-.22.05-.34.04-.22.08-.45.13-.67.11-.5.24-1 .4-1.49.14-.44.3-.87.47-1.3.11-.28-.12.26.01-.01.05-.11.09-.21.14-.32a20.344 20.344 0 0 1 1.98-3.32c.07-.1.14-.19.21-.28.19-.24-.17.21.02-.03.15-.18.3-.37.45-.55a21.69 21.69 0 0 1 2.2-2.22c.18-.16.36-.31.55-.46.09-.08.19-.15.28-.22-.21.17 0 0 .1-.08a21.32 21.32 0 0 1 3.91-2.3c.06-.03.34-.15.02-.01.11-.05.22-.09.33-.13.33-.13.67-.25 1-.37 1.19-.4 2.4-.72 3.63-.96 1.2-.23 2.11-.33 3.42-.41 1.26-.07 2.52-.07 3.77-.01 2.59.12 4.74.45 7.28.99 2.47.53 4.92 1.21 7.33 1.99.57.19 1.14.38 1.69.61.33.14-.4-.2.15.07.14.07.28.13.43.2.25.13.5.26.74.4.26.16.53.32.77.51-.07-.06-.23-.21.03.04.13.13.27.25.4.38.09.09.17.18.25.27.22.25-.02-.05.09.12.12.19.23.39.34.59-.19-.34-.06-.17-.03-.05.04.14.09.28.12.43.02.1.03.2.06.29-.12-.45-.01-.07 0 .07.01.22-.02.44-.01.67.01.28.12-.45 0-.01-.03.12-.05.23-.09.35-.03.09-.07.18-.09.27-.05.21.18-.31 0-.01-.04.07-.1.16-.14.24-.17.36.26-.23-.02.05l-.19.19c-.25.28.3-.14-.04.03-.08.04-.17.09-.24.13.26-.15.17-.07-.07 0 .63.17 1.26.33 1.89.5-5.3-5.09-14.25-2.92-18.2 2.74-2.27 3.25-2.93 7.47-2.42 11.33.54 4.14 2.25 7.95 4.76 11.27 2.55 3.37 5.63 6.22 8.87 8.93 3.25 2.72 6.62 5.51 10.72 6.85 1.39.45 2.96.85 4.42.46.94-.25 1.83-.75 2.61-1.31 2.07-1.46 3.85-3.3 5.49-5.22a60.53 60.53 0 0 0 5.1-6.9c1.17-1.86 2.36-3.87 2.97-6 .13-.46.2-.93.25-1.41.1-1.02-.96-1.99-1.94-1.94-1.16.11-1.86.91-1.96 2zm28.93 51.03c1.58-3.21 3.21-5.55 5.56-7.93 1.13-1.14 2.43-2.27 3.37-2.95.39-.28.79-.56 1.2-.81.18-.11.36-.23.55-.32-.08.04-.35.16.06-.01.51-.21-.07-.02-.09-.01.13-.09.55.15.08-.01-.45-.16-.07.05.06.06-.23-.02-.58-.24-.14-.01-.53-.28-.16-.09.14.17.47.42-.13-.34.17.23.15.29.32.58.49.86.02.04.26.55.09.16-.17-.38.09.26.12.33.59 1.67.86 3.46 1.14 5.19.56 3.48.78 7.58.67 11.36-.13 4.52-.68 8.5-1.74 12.89-.47 1.93.61 4.21 2.66 4.68 2.08.47 4.03-.63 4.68-2.66.83-2.6 1.74-4.59 3.26-7.08.37-.6.75-1.18 1.15-1.75.2-.29.4-.57.61-.85.47-.63-.55.66.3-.39.4-.49.8-.97 1.22-1.44.21-.24.44-.45.65-.69.31-.27.37-.33.18-.19s-.12.09.22-.13c-.65.06-.82.11-1.39-.25.38.24.31.29.11.05.22.28.4.62.57.93.69 1.25.95 1.91 1.4 3.33.9 2.83 1.16 4.91 1.31 7.64.56 10.64-1.96 21.29 1.07 31.76 1.62 5.61 4.74 10.54 9.62 13.83 1.7 1.15 4.21.33 5.2-1.36 1.09-1.87.34-4.05-1.36-5.2-.29-.19-.58-.39-.85-.6.56.43-.03-.04-.16-.16-.47-.41-.91-.84-1.33-1.29-.15-.16-.3-.33-.45-.5-.06-.08-.72-.95-.24-.28-.39-.55-.76-1.1-1.1-1.68-.29-.49-.55-.98-.8-1.49-.1-.2-.19-.41-.29-.62-.47-1 .23.7-.14-.36-.43-1.21-.83-2.41-1.13-3.66-.28-1.15-.49-2.32-.66-3.5.12.84-.03-.33-.04-.41-.03-.24-.05-.48-.07-.72-.07-.72-.12-1.44-.15-2.16-.13-2.68-.04-5.36.11-8.04.35-6.28.78-12.51-.18-18.76-.83-5.42-4.1-16.32-11.67-13.61-3.45 1.23-5.95 5.07-7.85 8.01-1.92 2.97-3.39 6.24-4.47 9.61 2.45.67 4.89 1.35 7.34 2.02 2.28-9.45 2.59-19.19.99-28.76-.67-4.01-1.76-8.6-5.44-10.95-4.54-2.9-9.07.39-12.52 3.37-3.6 3.1-6.58 7.01-8.67 11.26-.91 1.84-.5 4.12 1.36 5.2 1.69.99 4.31.5 5.22-1.35zm57.95-17.83c-8.43 7.31-10.02 19.52-7.85 29.91 2.47 11.86 9.5 22.12 13.17 33.39.98 3.03 1.81 6.4 2.05 9.26.13 1.61.11 3.2.05 4.82-.05 1.17.18-.61-.06.53-.08.38-.15.76-.26 1.13-.07.24-.14.5-.24.72.34-.79-.65.94-.15.29-1.25 1.62-1.58 3.8 0 5.38 1.31 1.31 4.12 1.63 5.38 0 4.02-5.2 3.35-12.3 2.12-18.4-1.25-6.2-3.79-12.08-6.43-17.79-2.46-5.32-4.94-10.26-6.74-15.72-.47-1.42-.89-2.86-1.24-4.32-.17-.73-.33-1.46-.47-2.2-.06-.3-.11-.59-.16-.89-.02-.11-.17-1.26-.09-.53-.29-2.49-.29-4.96-.06-7.45.11-1.19-.07.42.03-.28.07-.43.14-.86.22-1.28a27.053 27.053 0 0 1 1.08-3.91c.08-.23.17-.46.26-.69.31-.81-.17.28.19-.43.6-1.2 1.25-2.33 2-3.44.64-.95-.46.48.29-.38.24-.27.47-.55.72-.82.5-.54 1.03-1.04 1.59-1.52 1.55-1.35 1.38-4 0-5.38-1.56-1.54-3.84-1.35-5.4 0z" class="st12"/><path d="M1005.08 918.97c3.23 1.82 7.23 2.18 10.76 1.02 3.45-1.13 6.68-3.52 8.2-6.89.43-.96.67-1.88.38-2.93-.24-.88-.93-1.84-1.75-2.27-1.66-.88-4.33-.57-5.2 1.36-.13.29-.27.58-.44.86-.1.17-.34.72-.52.8.17-.07.64-.79.16-.23-.09.11-.19.21-.29.32-.22.23-.45.45-.69.65-.12.1-.56.45-.02.03.54-.42.1-.08-.04.01-.26.18-.53.35-.81.51-.16.09-.67.46-.86.43.08.01.98-.37.34-.15-.17.06-.33.12-.49.18-.59.19-1.18.3-1.78.42 1.35-.28.28-.05-.12-.03a10 10 0 0 1-.95-.01c-.14-.01-.29-.03-.43-.03-.46-.03 1.02.17.41.06-.34-.07-.68-.13-1.01-.23-.28-.08-.54-.2-.82-.28 1.05.32.59.26.27.1a6.74 6.74 0 0 1-.46-.25c-1.73-.98-4.23-.47-5.2 1.36-.96 1.78-.49 4.14 1.36 5.19zm140.64 100.39c-.15.2-.3.41-.45.61-.04.05-.26.34-.1.13a41.35 41.35 0 0 1-1.11 1.36 49.195 49.195 0 0 1-7.21 6.92c.3-.24-.3.22-.35.27-.21.16-.42.31-.63.46-.48.34-.96.68-1.45 1-.94.62-1.91 1.2-2.9 1.74-.47.25-.95.5-1.44.73-.23.11-.45.21-.68.31-.11.05-.23.1-.34.15.42-.19-.14.06-.18.07-.95.38-1.92.71-2.91.96-.48.12-.97.23-1.45.32l-.34.06c-.07.01-.44.07-.15.03.34-.05-.22.02-.23.03-.14.02-.28.03-.42.04-1 .08-2 .05-3-.04a102.835 102.835 0 0 1-3.54-.4c-.17-.02-.34-.05-.51-.07-.27-.04-.55-.08-.82-.13-.61-.1-1.22-.2-1.83-.32-2.31-.45-4.61-1.04-6.82-1.86-.29-.11-.57-.22-.85-.33-.05-.02-.43-.18-.22-.09s-.17-.08-.21-.1c-.58-.26-1.16-.54-1.73-.84-1.01-.53-1.99-1.13-2.92-1.8-.05-.04-.67-.5-.39-.28-.23-.18-.45-.36-.68-.55-.4-.34-.78-.7-1.15-1.07-.35-.35-.68-.72-1-1.1-.08-.1-.48-.61-.22-.26-.18-.23-.35-.47-.52-.71-.57-.82-1.07-1.69-1.51-2.58-.1-.21-.2-.42-.3-.64-.23-.51.09.26-.03-.06-.04-.11-.09-.22-.13-.33a18.6 18.6 0 0 1-.5-1.49c-.13-.47-.25-.95-.35-1.43-.04-.22-.08-.45-.12-.68-.07-.4 0-.02 0 .05-.02-.17-.04-.34-.05-.51-.09-.96-.07-1.91.01-2.86.03-.4 0-.01-.01.06.02-.14.04-.27.07-.41a12.448 12.448 0 0 1 .55-2.09l.15-.39a16.839 16.839 0 0 1 .27-.57c.24-.46.5-.89.8-1.32 1.3-1.87 3.03-3.72 3.38-6.06.2-1.37 0-2.74-.81-3.89-.86-1.21-2.08-1.89-3.43-2.44-4.92-2-10.57-3.46-15.9-2.76-9.1 1.2-16.26 9.05-17.16 18.11-.1 1-.1 2-.01 3 1.31-.35 2.61-.71 3.92-1.06-3.36-6.19-6.71-12.39-10.07-18.58-.38-.71-.77-1.42-1.14-2.14-.41-.82-.69-1.41-.95-2.09-.26-.7-.48-1.41-.63-2.14-.03-.14-.06-.29-.08-.43.07.4-.03-.31-.03-.31-.03-.44-.03-.88-.01-1.32.02-.46-.04.07.04-.28.08-.37.2-.07-.09.16.05-.04.11-.21.15-.27.25-.45-.33.32-.05.06.08-.08.16-.17.25-.25.05-.05.12-.09.17-.15.18-.19-.24.18-.25.19.25-.08.53-.36.76-.49.15-.08.29-.16.44-.23.09-.04.62-.27.23-.11-.39.16.21-.08.31-.12l.6-.21c.77-.25 1.56-.45 2.35-.62.88-.19 1.77-.29 2.66-.46-.68.13.07-.01.24-.03.22-.03.45-.05.67-.07.5-.05 1-.1 1.5-.13 1.94-.14 3.89-.19 5.83-.12.87.03 1.74.08 2.6.16.32.03.81.19 1.13.13-.4.08-.43-.06-.13-.02l.21.03c.2.03.4.07.6.1.68.13 1.34.29 1.99.52.53.18-.4-.21-.06-.03.27.15.55.28.83.43.88.46 1.76.92 2.63 1.38l10.53 5.52c.93.49 2.06.31 2.71-.54.58-.75.66-2.11-.16-2.76a42.03 42.03 0 0 1-6.77-6.66c-.1-.13-.21-.26-.31-.39-.03-.04-.24-.31-.04-.05-.22-.29-.44-.59-.66-.88-.74-1.03-1.44-2.09-2.09-3.18-.65-1.09-1.25-2.21-1.8-3.36-.13-.27-.26-.54-.38-.82-.07-.15-.14-.3-.2-.46-.04-.08-.21-.48-.06-.14-.25-.58-.48-1.18-.69-1.77-.46-1.25-.86-2.52-1.18-3.8a30.94 30.94 0 0 1-.57-2.77 14.33 14.33 0 0 1-.11-.95c-.13-1.36-.12-2.71 0-4.07.01-.06.05-.41.01-.07.02-.14.04-.28.07-.42.06-.35.13-.69.22-1.04.17-.68.38-1.37.66-2.02-.04.09-.14.29.05-.09.06-.13.13-.26.2-.39a10.805 10.805 0 0 1 .83-1.35c.06-.09.32-.39.05-.07.11-.14.23-.27.35-.41.36-.4.74-.77 1.14-1.12.09-.08.18-.15.27-.23-.33.27-.02.02.07-.05.26-.19.53-.37.81-.53.23-.13.46-.26.69-.38.13-.07.26-.13.39-.19-.07.03-.39.15-.02.01.54-.2 1.09-.37 1.65-.48.11-.02.22-.04.34-.06-.48.08-.09.02.03.01.25-.02.51-.03.76-.02.12 0 1 .09.46.01.28.04.56.1.84.18.27.07.53.16.79.26.35.14-.41-.22.16.08.12.07.25.12.37.19.3.17.6.35.89.54a10.01 10.01 0 0 1 .58.42c1.09.87 2.1 1.84 3.12 2.8 4.98 4.65 9.77 9.5 14.37 14.53l2.04-3.51c-5.04-1.58-10.43-2.93-15.42-.47-1.99.98-3.76 2.64-4.64 4.7-1 2.34-1.02 4.93-.12 7.32.91 2.43 2.4 4.52 4.07 6.5.76.9 1.56 1.74 2.36 2.61.37.4.72.81 1.07 1.22l.26.32c.03.03.29.37.16.19-.14-.18.12.17.15.2.1.14.21.28.31.42.67.95 1.26 1.95 1.76 3 .18.38.06.13.02.04.05.12.1.24.14.37.1.27.19.55.27.83.07.24.13.49.18.74.02.12.04.25.07.37.05.25-.02-.33 0 .08.01.24.03.49.02.73 0 .13-.08.8 0 .34-.04.27-.1.54-.18.8-.03.12-.09.23-.11.35-.05.22.13-.24-.04.11-.12.24-.24.47-.39.7l-.24.36c-.25.35-.13.16-.07.09-.41.51-.85.99-1.26 1.5-5.42 6.84-3.08 16.41 2.27 22.54 6.28 7.2 16.59 8.84 25.61 9.47 4.16.29 8.31.54 12.45-.1 3.72-.58 7.47-2.09 9.67-5.29.55-.8.94-1.71 1.22-2.64.32-1.05-.38-2.34-1.47-2.59-1.14-.26-2.24.34-2.59 1.47-.06.2-.13.39-.2.58-.04.12-.18.32.04-.09-.05.09-.08.18-.13.27-.17.35-.38.67-.6.99-.22.33.07-.07.07-.08-.01.04-.14.17-.18.22-.12.14-.25.28-.39.41-.13.13-.27.26-.42.39-.05.05-.12.09-.16.14-.17.18.34-.24.03-.02-.65.46-1.33.81-2.04 1.16.49-.24-.06.02-.2.08-.19.07-.39.14-.58.21-.42.14-.85.26-1.29.37-.39.1-.79.18-1.18.26-.21.04-.43.08-.64.11-.11.02-.22.03-.32.05-.41.06.26-.02-.01 0-.88.06-1.75.17-2.64.21-1.87.07-3.74-.03-5.61-.13-2.24-.12-4.48-.27-6.7-.51-.28-.03-.56-.06-.83-.1-.14-.02-.28-.03-.42-.05-.35-.04.29.04-.06-.01-.55-.08-1.1-.16-1.65-.25-1.13-.19-2.25-.41-3.36-.68-1.07-.26-2.12-.56-3.16-.92-.48-.17-.97-.34-1.44-.53-.13-.05-.25-.1-.38-.15-.32-.13.25.11-.06-.03-.28-.12-.56-.25-.84-.38-.99-.47-1.95-1-2.87-1.59a15.067 15.067 0 0 1-1.25-.87c.21.17-.07-.06-.12-.1-.2-.16-.39-.32-.58-.49-.68-.6-1.31-1.25-1.9-1.94-.15-.17-.29-.35-.43-.53.26.32-.05-.07-.14-.19-.29-.39-.56-.79-.82-1.2-.48-.77-.91-1.57-1.29-2.39-.05-.1-.09-.21-.14-.31.03.07.16.4.02.04l-.24-.63a17.343 17.343 0 0 1-.72-2.56c-.04-.19-.07-.38-.1-.57-.02-.11-.03-.22-.05-.32-.05-.27.04.4 0-.01-.07-.86-.12-1.71-.06-2.57.01-.21.04-.42.06-.63.04-.39 0 .02-.01.09.02-.1.03-.21.05-.31.07-.42.17-.83.28-1.23.12-.41.26-.8.41-1.2-.17.44.04-.08.11-.23.09-.19.19-.38.3-.57.21-.38.45-.75.7-1.1.06-.09.13-.18.2-.27-.06.08-.24.29.05-.04l.63-.75c.88-1.04 1.61-2.07 2.1-3.35.8-2.08.6-4.49-.14-6.56-.82-2.29-2.13-4.29-3.65-6.17-1.4-1.75-3.04-3.29-4.43-5.05.17.22-.2-.27-.25-.33-.17-.23-.33-.46-.49-.69-.33-.48-.64-.98-.92-1.5l-.33-.63c-.06-.12-.11-.24-.17-.36-.14-.31.1.27-.02-.05-.2-.51-.37-1.03-.49-1.57-.03-.12-.05-.25-.07-.37-.01-.03-.04-.34-.02-.09.03.27 0-.13-.01-.19-.01-.13-.01-.25-.01-.38 0-.25.02-.5.03-.75.01-.24-.01.05-.01.09.04-.19.07-.38.12-.57.06-.26.16-.5.24-.76-.01.03-.15.31-.04.09.05-.11.1-.21.16-.32.11-.21.23-.41.36-.6.03-.05.24-.36.09-.14-.16.22.16-.19.17-.2.29-.33.62-.62.95-.91.23-.2-.27.17 0 .01.1-.06.19-.14.29-.2.22-.15.46-.29.69-.41.21-.11.43-.22.65-.32-.37.18.13-.05.25-.09.48-.17.98-.31 1.48-.42.13-.03.81-.13.33-.07.26-.03.52-.05.77-.07.63-.04 1.27-.03 1.9.02.71.05.92.08 1.56.2.63.11 1.25.25 1.87.41 1.24.31 2.46.69 3.68 1.08.85.27 1.95-.17 2.37-.97.45-.85.33-1.83-.33-2.55-4.34-4.73-8.84-9.31-13.51-13.71-2.3-2.17-4.59-4.58-7.56-5.8-2.4-.99-5.17-.91-7.56.05-2.59 1.04-4.75 2.8-6.31 5.11-1.67 2.47-2.38 5.55-2.49 8.49-.21 5.79 1.82 11.7 4.45 16.79 2.84 5.49 6.88 10.4 11.75 14.22l2.55-3.3c-3.29-1.73-6.58-3.45-9.88-5.18-2.01-1.05-4-2.36-6.23-2.89-3.62-.86-7.52-.88-11.22-.67-3.87.22-7.96.67-11.52 2.32-1.36.63-2.64 1.61-3.24 3.02-.58 1.38-.45 3.02-.24 4.47.26 1.74.92 3.38 1.67 4.96.84 1.79 1.83 3.51 2.77 5.25.99 1.82 1.97 3.64 2.96 5.47 1.97 3.64 3.95 7.29 5.92 10.93.42.78 1.52 1.24 2.37.97.83-.27 1.63-1.09 1.54-2.03-.09-1.03-.09-2.06.02-3.09.01-.07.05-.44.01-.16-.03.28.01-.09.02-.16.04-.26.09-.52.14-.78.11-.52.24-1.03.39-1.54.14-.45.29-.89.46-1.33.04-.11.09-.22.13-.33-.16.39-.04.09 0 .02.13-.27.25-.53.38-.8.46-.89.98-1.75 1.57-2.57.07-.1.14-.19.21-.28-.25.34-.01.02.05-.06.15-.18.3-.36.46-.54.35-.4.72-.79 1.1-1.16.36-.35.73-.68 1.12-1 .09-.08.18-.15.27-.22-.06.05-.32.24-.01.01.24-.17.48-.35.72-.51.83-.56 1.71-1.04 2.61-1.45.36-.17.06-.02-.02 0 .11-.04.22-.09.33-.13l.75-.27a14.838 14.838 0 0 1 2.23-.55c.06-.01.47-.07.27-.05-.21.03.26-.03.3-.03a20.903 20.903 0 0 1 5.77.21c2.64.47 5.22 1.27 7.74 2.19.12.04.23.09.35.13.05.02.42.17.18.07s.12.06.18.08c.14.07.28.14.41.21.14.08.61.46.32.19.09.08.17.17.26.25.04.04.08.09.12.13-.14-.19-.15-.18-.01.02.04 0 .2.45.02-.02.04.11.07.22.1.33.05.15-.01.33.01-.07 0 .1 0 .23.01.33.02.37.01.04.03-.06-.02.11-.04.22-.07.33-.03.11-.06.22-.1.33-.03.08-.26.55-.06.17-1.02 1.92-2.55 3.51-3.54 5.44-1.97 3.86-2.06 8.4-.76 12.49 1.36 4.29 4.04 7.95 7.61 10.67 3.85 2.92 8.52 4.63 13.21 5.64 2.41.52 4.85.86 7.29 1.13 2.26.25 4.39.32 6.64-.05 4.32-.72 8.41-2.83 11.97-5.31 3.7-2.57 7.09-5.64 9.97-9.1.7-.84 1.38-1.71 2.02-2.6.65-.89.18-2.38-.75-2.88-1.02-.63-2.11-.25-2.8.7zm41.17 36.83c-.27-.72-.5-1.46-.66-2.22-.03-.16-.05-.33-.09-.49-.17-.59.03.8.02.19-.01-.38-.06-.77-.07-1.15-.01-.38 0-.77.02-1.15.02-.46.02-1.2-.01-.32.03-.79.32-1.67.54-2.42.11-.37.25-.73.38-1.1.03-.1.26-.61.03-.09-.25.55.05-.1.12-.23.35-.69.72-1.37 1.15-2.01.23-.34.76-.93.2-.31.26-.29.5-.59.76-.87s.54-.55.82-.81c.26-.24 1.17-.89.39-.36.59-.4 1.18-.8 1.82-1.12.2-.1.4-.19.6-.29.4-.2-.13.07-.18.08.57-.14 1.11-.38 1.7-.47-.86.13.86.12.41.03-.46-.09.24.09.26.1-.64-.42-.16-.05-.02.04-.05-.03-.53-.51-.2-.17.16.16.32.33.49.49.34.31-.11-.13-.15-.2.11.21.26.4.37.6.08.14.57 1.22.4.78-.17-.46.22.67.28.85.33 1.03.59 2.09.85 3.14a92.04 92.04 0 0 1 1.39 6.6c.45 2.62.65 4.17.88 6.96.22 2.64.32 5.29.32 7.94 0 2.18 1.67 4.01 3.8 4.3 2.02.27 4.37-.99 4.8-3.14.28-1.37.61-2.73 1.01-4.07.19-.63.4-1.26.62-1.89.1-.28.2-.55.3-.83.08-.21.52-1.32.44-1.12-.22.52.36-.8.31-.69.12-.27.25-.53.38-.8.32-.66.66-1.32 1.02-1.96.66-1.19 1.4-2.32 2.15-3.47.37-.56-.68.68.12-.1.65-.63.05-.01-.06.01.1-.06.21-.12.31-.17-.2.16-.43.24-.68.23l-.27.03c.5.01.42-.02-.23-.08.31.06.57.3-.14-.12.02.01.98.52.41.19-.54-.32.31.29.36.34.15.15.84.98.28.24.3.4.57.84.81 1.28.07.13.59 1.26.19.29.1.25.19.51.28.76.5 1.43.9 2.88 1.25 4.35 2.53 10.61 2.3 21.92 8.43 31.39 3.22 4.98 7.8 9.02 13.61 10.59 2.21.6 4.86-.74 5.38-3.06.52-2.3-.69-4.74-3.06-5.38-.57-.15-1.13-.34-1.69-.54-1.08-.39.76.44-.24-.12-.2-.11-.42-.21-.62-.32-.51-.28-1-.58-1.48-.9-.19-.13-.38-.27-.57-.4.88.63-.31-.28-.47-.42-.8-.71-1.49-1.5-2.2-2.29-.79-.88.49.72-.2-.24-.14-.19-.28-.39-.42-.59-.41-.6-.8-1.21-1.17-1.83-.62-1.06-1.15-2.15-1.66-3.26-.08-.17-.29-.78.01.03-.13-.34-.27-.68-.4-1.03-.21-.57-.41-1.15-.59-1.73-.9-2.86-1.46-5.82-1.94-8.78-.97-5.96-1.55-12.07-3.56-17.8-1.1-3.15-2.89-6.2-5.79-8.01-3.17-1.99-7.12-1.63-9.87.91-2.43 2.25-4.13 5.76-5.47 8.75-1.49 3.32-2.66 6.72-3.38 10.29 2.87.39 5.73.78 8.6 1.16 0-5.61-.5-11.21-1.43-16.75-.45-2.69-1.02-5.36-1.71-8.01-.58-2.23-1.24-4.6-2.55-6.53-1.82-2.69-4.48-4.39-7.77-4.58-2.66-.15-5.42.83-7.69 2.14-3.95 2.28-6.77 5.94-8.49 10.11-1.79 4.33-2.04 9.52-.37 13.93.81 2.13 2.99 3.83 5.38 3.06 2.13-.68 3.97-3.1 3.1-5.39zm59.91-35.63c-4.04-1.13-8.39.3-11.31 3.25-3.01 3.05-4.19 7.45-4.12 11.64.11 7.05 2.94 13.89 6.88 19.64 3.97 5.78 8.91 10.78 13.93 15.65 2.51 2.44 5.06 4.84 7.43 7.41 1.26 1.36 2.47 2.77 3.63 4.22.13.17.27.34.4.5-.06-.07-.33-.43-.03-.04.26.34.51.68.77 1.03.59.8 1.15 1.62 1.69 2.45 1.11 1.69 2.12 3.45 2.99 5.27.09.19.18.37.26.56.03.07.37.82.19.41-.18-.42.08.2.09.23.1.25.2.5.29.76.35.94.66 1.9.92 2.87.24.9.39 1.81.59 2.72.15.68-.06-.68.01.01.02.26.06.52.08.79.04.46.06.92.08 1.38.02.93-.02 1.85-.09 2.78-.07.86-.02.22.01.03-.04.27-.08.53-.13.8-.1.54-.22 1.07-.36 1.6-.56 2.22.72 4.85 3.06 5.38 2.27.52 4.78-.68 5.38-3.06 3.76-14.91-5.59-28.71-15.54-38.89-4.59-4.7-9.52-9.06-13.89-13.99a64.34 64.34 0 0 1-1.52-1.77c-.25-.3-.49-.6-.74-.9-.07-.08-.86-1.09-.27-.32-.93-1.21-1.81-2.45-2.63-3.74-.8-1.27-1.55-2.57-2.21-3.92-.16-.33-.31-.68-.48-1.01-.53-1.11.3.83-.14-.32-.31-.81-.61-1.62-.86-2.46-.26-.84-.47-1.68-.65-2.54-.08-.37-.14-.74-.21-1.11-.08-.51-.08-.5-.01.03l-.09-.79c-.09-.97-.13-1.95-.07-2.93.01-.1.17-1.45.02-.49.09-.54.21-1.08.36-1.61.02-.08.51-1.31.14-.49.22-.49.5-.94.79-1.38-.54.83.08-.06.23-.21.17-.17.34-.33.52-.49-.42.31-.43.32-.03.04.31-.18.61-.36.93-.53-.92.49.35-.06.61-.14 1.08-.31-.9.04.21.01.5.03.46.01-.13-.06.23.04.46.1.68.17 2.2.62 4.86-.76 5.38-3.06.54-2.31-.69-4.72-3.04-5.38z" class="st12"/><path d="M1258.1 1065.27c.8-1.6 1.74-3.1 2.83-4.52-.23.3-.46.59-.68.89 1.37-1.76 2.95-3.34 4.71-4.71-.3.23-.59.46-.89.68.44-.34.89-.67 1.35-.98.95-.65 1.7-1.48 2.01-2.62.29-1.05.16-2.44-.44-3.37-.6-.93-1.5-1.76-2.62-2.01-1.1-.25-2.41-.22-3.37.44-4.38 3-8.08 7-10.46 11.77-.53 1.06-.76 2.2-.44 3.37.28 1.02 1.06 2.12 2.01 2.62 1.02.54 2.25.81 3.37.44 1.05-.33 2.11-.99 2.62-2z" class="st12"/></svg>