<svg xmlns="http://www.w3.org/2000/svg" viewBox="0 0 500 500"><g id="freepik--Rocket--inject-72"><path d="M306.85,450.33a23.3,23.3,0,0,0-20.07-4,14.75,14.75,0,0,0-18.22-15.86,21,21,0,1,0-41.29.14,13.06,13.06,0,0,0-13.82,18.84c-4-1.11-8.1.48-11.45,2.88-5.59,4-6.88,9.61-5.17,17.71l118.87-.26C315.81,462.69,312.43,454.67,306.85,450.33Z" style="fill:#e0e0e0"></path><path d="M400.2,450.33a23.28,23.28,0,0,0-20.06-4,14.76,14.76,0,0,0-18.23-15.86,21,21,0,1,0-41.28.14,13.06,13.06,0,0,0-13.82,18.84c-4-1.11-8.11.48-11.46,2.88-5.58,4-6.92,9.35-5.2,17.45l118.91.08C409.17,462.77,405.79,454.67,400.2,450.33Z" style="fill:#e0e0e0"></path><path d="M345.35,163.19a5.53,5.53,0,0,0-8.7-.26c-4,4.82-9.19,13.22-9.19,24.16V321.18h24.6s1.54-116.41,1.54-134.09A40.2,40.2,0,0,0,345.35,163.19Z" style="fill:#F26C9F"></path><path d="M345.35,163.19s.7.85,1.85,2.6a40.87,40.87,0,0,1,4.12,8.17,38.32,38.32,0,0,1,2.4,14.29c-.05,5.68-.12,12.15-.19,19.33-.3,28.73-.73,68.68-1.22,113.6v.25H327.2v-.25c0-47.43.06-90.05.08-120.82,0-3.84,0-7.5,0-11,0-1.73,0-3.42.13-5.05a34.34,34.34,0,0,1,.7-4.69,39.38,39.38,0,0,1,6.45-14.18c.62-.88,1.25-1.67,1.85-2.41a5.64,5.64,0,0,1,2.08-1.67,5.56,5.56,0,0,1,4.11-.22,5.36,5.36,0,0,1,2.17,1.34,5.11,5.11,0,0,1,.56.67s-.19-.23-.6-.63a5.28,5.28,0,0,0-2.16-1.29,5.55,5.55,0,0,0-4,.26c-1.53.66-2.56,2.37-3.83,4.06a39.15,39.15,0,0,0-6.33,14.13,32.31,32.31,0,0,0-.68,4.65c-.14,1.62-.12,3.3-.11,5,0,3.46,0,7.12,0,11,0,30.77.05,73.39.08,120.82l-.25-.26h24.6l-.26.25c.55-44.91,1-84.86,1.39-113.59.1-7.18.18-13.65.26-19.33A38.44,38.44,0,0,0,351.14,174a42.27,42.27,0,0,0-4-8.18c-.55-.89-1-1.54-1.31-2Z" style="fill:#263238"></path><path d="M353.19,188.26c0,.14-5.6.25-12.5.25s-12.5-.11-12.5-.25,5.6-.26,12.5-.26S353.19,188.11,353.19,188.26Z" style="fill:#263238"></path><path d="M353.19,219.39c0,.14-5.6.25-12.5.25s-12.5-.11-12.5-.25,5.6-.26,12.5-.26S353.19,219.25,353.19,219.39Z" style="fill:#263238"></path><path d="M353.19,250.52c0,.14-5.6.26-12.5.26s-12.5-.12-12.5-.26,5.6-.25,12.5-.25S353.19,250.38,353.19,250.52Z" style="fill:#263238"></path><path d="M353.19,281.65c0,.15-5.6.26-12.5.26s-12.5-.11-12.5-.26,5.6-.25,12.5-.25S353.19,281.51,353.19,281.65Z" style="fill:#263238"></path><path d="M349.46,247.86a.57.57,0,0,0,.59.55.55.55,0,1,0,0-1.1A.57.57,0,0,0,349.46,247.86Z" style="fill:#263238"></path><path d="M339.53,247.86a.57.57,0,0,0,.59.55.55.55,0,1,0,0-1.1A.57.57,0,0,0,339.53,247.86Z" style="fill:#263238"></path><path d="M329.6,247.86a.58.58,0,0,0,.6.55.55.55,0,1,0,0-1.1A.58.58,0,0,0,329.6,247.86Z" style="fill:#263238"></path><path d="M349.46,278.49a.57.57,0,0,0,.59.55.58.58,0,0,0,.6-.55.57.57,0,0,0-.6-.55A.56.56,0,0,0,349.46,278.49Z" style="fill:#263238"></path><path d="M339.53,278.49a.57.57,0,0,0,.59.55.58.58,0,0,0,.6-.55.57.57,0,0,0-.6-.55A.56.56,0,0,0,339.53,278.49Z" style="fill:#263238"></path><path d="M329.6,278.49a.58.58,0,0,0,.6.55.57.57,0,0,0,.59-.55.56.56,0,0,0-.59-.55A.57.57,0,0,0,329.6,278.49Z" style="fill:#263238"></path><ellipse cx="350.05" cy="215.42" rx="0.6" ry="0.61" style="fill:#263238"></ellipse><path d="M339.53,215.42a.6.6,0,0,0,.59.61.61.61,0,0,0,0-1.22A.6.6,0,0,0,339.53,215.42Z" style="fill:#263238"></path><ellipse cx="330.2" cy="215.42" rx="0.6" ry="0.61" style="fill:#263238"></ellipse><rect x="348.02" y="191.25" width="1.66" height="3.47" transform="translate(697.69 385.98) rotate(180)" style="fill:#263238"></rect><rect x="344.46" y="191.25" width="1.66" height="3.47" transform="translate(690.57 385.98) rotate(180)" style="fill:#263238"></rect><rect x="331.2" y="371.54" width="16.09" height="30.77" transform="translate(678.5 773.86) rotate(180)" style="fill:#455a64"></rect><path d="M351.9,408h0a6.26,6.26,0,0,0-2.26-4.9l-2.34-2.26-16.1.19-1.42,1.27a6.74,6.74,0,0,0-2.55,4.57v.23Z" style="fill:#455a64"></path><rect x="325.27" y="407.12" width="28.27" height="2.84" rx="1.37" transform="translate(678.81 817.08) rotate(180)" style="fill:#455a64"></rect><rect x="328.91" y="375.69" width="20.68" height="2.17" rx="1.04" style="fill:#455a64"></rect><path d="M348.54,377.86c0,.06-4.16.1-9.29.1s-9.29,0-9.29-.1,4.16-.11,9.29-.11S348.54,377.8,348.54,377.86Z" style="fill:#263238"></path><path d="M348.54,375.69c0,.06-4.16.11-9.29.11s-9.29-.05-9.29-.11,4.16-.1,9.29-.1S348.54,375.64,348.54,375.69Z" style="fill:#263238"></path><rect x="328.91" y="381.28" width="20.68" height="2.17" rx="1.04" style="fill:#455a64"></rect><path d="M348.54,383.44c0,.06-4.16.11-9.29.11s-9.29-.05-9.29-.11,4.16-.1,9.29-.1S348.54,383.39,348.54,383.44Z" style="fill:#263238"></path><path d="M348.54,381.28c0,.06-4.16.1-9.29.1s-9.29,0-9.29-.1,4.16-.11,9.29-.11S348.54,381.22,348.54,381.28Z" style="fill:#263238"></path><rect x="328.91" y="386.86" width="20.68" height="2.17" rx="1.04" style="fill:#455a64"></rect><path d="M348.54,389c0,.06-4.16.1-9.29.1s-9.29,0-9.29-.1,4.16-.11,9.29-.11S348.54,389,348.54,389Z" style="fill:#263238"></path><path d="M348.54,386.86c0,.06-4.16.11-9.29.11s-9.29-.05-9.29-.11,4.16-.1,9.29-.1S348.54,386.81,348.54,386.86Z" style="fill:#263238"></path><rect x="328.91" y="392.45" width="20.68" height="2.17" rx="1.04" style="fill:#455a64"></rect><path d="M348.54,394.61c0,.06-4.16.11-9.29.11s-9.29-.05-9.29-.11,4.16-.1,9.29-.1S348.54,394.56,348.54,394.61Z" style="fill:#263238"></path><path d="M348.54,392.45c0,.06-4.16.1-9.29.1s-9.29,0-9.29-.1,4.16-.11,9.29-.11S348.54,392.39,348.54,392.45Z" style="fill:#263238"></path><rect x="328.91" y="398.03" width="20.68" height="2.17" rx="1.04" style="fill:#455a64"></rect><path d="M348.54,400.2c0,.06-4.16.1-9.29.1s-9.29,0-9.29-.1,4.16-.1,9.29-.1S348.54,400.14,348.54,400.2Z" style="fill:#263238"></path><path d="M348.54,398c0,.06-4.16.11-9.29.11S330,398.09,330,398s4.16-.1,9.29-.1S348.54,398,348.54,398Z" style="fill:#263238"></path><path d="M243.14,162.62a5.53,5.53,0,0,1,8.7-.26c4,4.81,9.19,13.22,9.19,24.16V320.6h-24.6s-1.54-116.4-1.54-134.08A40.17,40.17,0,0,1,243.14,162.62Z" style="fill:#F26C9F"></path><path d="M243.14,162.62a31.43,31.43,0,0,0-1.85,2.59,41.44,41.44,0,0,0-4.12,8.17,38.4,38.4,0,0,0-2.4,14.29c0,5.68.11,12.16.18,19.34.31,28.73.74,68.68,1.22,113.6v.25h25.11v-.26c0-47.42-.06-90-.08-120.81,0-3.84,0-7.5,0-11,0-1.73,0-3.42-.13-5.05a33,33,0,0,0-.71-4.7,39.16,39.16,0,0,0-6.44-14.17c-.62-.88-1.25-1.68-1.85-2.41a5.72,5.72,0,0,0-2.08-1.67,5.56,5.56,0,0,0-4.11-.22A5.25,5.25,0,0,0,243.7,162a5.11,5.11,0,0,0-.56.67s.19-.23.6-.63a5.28,5.28,0,0,1,2.16-1.29,5.5,5.5,0,0,1,4,.26c1.52.66,2.56,2.36,3.83,4.06a39.27,39.27,0,0,1,6.33,14.12,32.66,32.66,0,0,1,.68,4.66c.14,1.62.11,3.29.11,5,0,3.46,0,7.12,0,11,0,30.77,0,73.39-.07,120.81l.25-.25h-24.6l.25.25c-.55-44.91-1-84.86-1.38-113.59-.1-7.18-.19-13.66-.26-19.34a38.39,38.39,0,0,1,2.3-14.22,42.27,42.27,0,0,1,4-8.18c.55-.89,1-1.54,1.31-2S243.14,162.62,243.14,162.62Z" style="fill:#263238"></path><path d="M235.3,187.68c0,.14,5.6.26,12.5.26s12.5-.12,12.5-.26-5.6-.25-12.5-.25S235.3,187.54,235.3,187.68Z" style="fill:#263238"></path><path d="M235.3,218.82c0,.14,5.6.25,12.5.25s12.5-.11,12.5-.25-5.6-.26-12.5-.26S235.3,218.67,235.3,218.82Z" style="fill:#263238"></path><path d="M235.3,250c0,.14,5.6.25,12.5.25s12.5-.11,12.5-.25-5.6-.26-12.5-.26S235.3,249.81,235.3,250Z" style="fill:#263238"></path><path d="M235.3,281.08c0,.14,5.6.26,12.5.26s12.5-.12,12.5-.26-5.6-.25-12.5-.25S235.3,280.94,235.3,281.08Z" style="fill:#263238"></path><path d="M283.82,101.1c5.35-4,12.9-3.33,18.13,1,15.56,12.93,23.23,32.28,23.23,47.6V322.93H263.87S260,174.47,260,149.71C260,134.67,270.18,111.39,283.82,101.1Z" style="fill:#e0e0e0"></path><path d="M283.82,101.1s-.31.23-.9.71a28.34,28.34,0,0,0-2.55,2.21,54.47,54.47,0,0,0-8.29,10,78.2,78.2,0,0,0-4.69,8.2,76.25,76.25,0,0,0-4.31,10.41,63.52,63.52,0,0,0-2.91,12.66c-.06.58-.15,1.15-.18,1.74s-.05,1.17-.08,1.77c-.07,1.19,0,2.38,0,3.6,0,2.44.05,4.94.08,7.5.62,41,2,98.22,3.65,163v.25h61.81v-.26c0-34.66,0-67.45,0-97.14,0-14.85,0-28.91,0-42.06q0-9.85,0-19,0-4.56,0-8.94c0-2.92,0-5.76-.09-8.55a59.91,59.91,0,0,0-3.06-15.56,65.68,65.68,0,0,0-5.9-12.83,65,65,0,0,0-14.63-17.07,16.1,16.1,0,0,0-7.48-3.26,14.68,14.68,0,0,0-6,.35,14.22,14.22,0,0,0-3.37,1.49l-1,.73,1.05-.69A14.66,14.66,0,0,1,288.25,99a14.5,14.5,0,0,1,5.92-.3,15.93,15.93,0,0,1,7.39,3.26,65.39,65.39,0,0,1,14.52,17,66.43,66.43,0,0,1,5.83,12.8,59.38,59.38,0,0,1,3,15.48c0,44.51,0,106.35,0,175.66l.26-.25H263.87l.25.25c-1.65-64.82-3.11-122-3.82-163q0-3.85-.09-7.5c0-1.21-.06-2.42,0-3.6,0-.59,0-1.17.07-1.75s.12-1.16.18-1.73a62.42,62.42,0,0,1,2.86-12.6,75.65,75.65,0,0,1,4.26-10.4,80.49,80.49,0,0,1,4.64-8.2,55.94,55.94,0,0,1,8.21-10,32.12,32.12,0,0,1,2.51-2.23Z" style="fill:#263238"></path><path d="M296.16,103.38s23.6,19,23.8,44.36v67.72H309.84l.62-59s1.29-11.21-4.8-30.91A120.41,120.41,0,0,0,296.16,103.38Z" style="fill:#fff"></path><path d="M261.22,156.47c0,.14,14.06.25,31.41.25s31.41-.11,31.41-.25-14.06-.26-31.41-.26S261.22,156.33,261.22,156.47Z" style="fill:#263238"></path><path d="M261.22,180c0,.15,14.06.26,31.41.26S324,180.18,324,180s-14.06-.25-31.41-.25S261.22,179.89,261.22,180Z" style="fill:#263238"></path><path d="M261.22,203.6c0,.14,14.06.26,31.41.26s31.41-.12,31.41-.26-14.06-.25-31.41-.25S261.22,203.46,261.22,203.6Z" style="fill:#263238"></path><path d="M261.22,227.17c0,.14,14.06.26,31.41.26s31.41-.12,31.41-.26-14.06-.25-31.41-.25S261.22,227,261.22,227.17Z" style="fill:#263238"></path><polygon points="369 369.02 369 338.76 328.08 298.63 310.65 244.02 310.65 377.14 369 369.02" style="fill:#f5f5f5"></polygon><polygon points="369 359.03 310.66 366.79 310.66 377.14 369 369.02 369 359.03" style="fill:#F26C9F"></polygon><path d="M369,369s-.36,0-1.05.12l-3.05.4-11.67,1.57L310.63,377l.22.19c0-29.05,0-67.5.06-109.55V244l-.5.07c6.26,19.59,12.16,38,17.46,54.6l0,.06,0,0,41,40.07,0-.1c0,9.54.06,17.09.08,22.27,0,2.58,0,4.57,0,5.93,0,.67,0,1.18,0,1.54s0,.53,0,.53a4.9,4.9,0,0,0,0-.51c0-.35,0-.85,0-1.51,0-1.35,0-3.33,0-5.9,0-5.2.05-12.77.08-22.35v-.06l0,0-40.86-40.19.06.09c-5.29-16.6-11.16-35-17.41-54.62l-.49-1.55v25.2c0,42.05,0,80.5.06,109.55v.22l.22,0,42.68-6L365,369.63l3-.44Z" style="fill:#263238"></path><rect x="239.49" y="371.54" width="16.09" height="30.77" transform="translate(495.06 773.86) rotate(180)" style="fill:#455a64"></rect><path d="M260.18,408h0a6.28,6.28,0,0,0-2.25-4.9l-2.35-2.26-16.09.19-1.42,1.27a6.72,6.72,0,0,0-2.56,4.57v.23Z" style="fill:#455a64"></path><rect x="233.55" y="407.12" width="28.27" height="2.84" rx="1.37" transform="translate(495.37 817.08) rotate(180)" style="fill:#455a64"></rect><path d="M252.64,355.84a1.37,1.37,0,1,0,1.37-1.37A1.36,1.36,0,0,0,252.64,355.84Z" style="fill:#ebebeb"></path><path d="M274.09,228.07c.1-8.32,4.68-15.68,9.32-22.87a21.15,21.15,0,0,1,5.37-5.95,6.23,6.23,0,0,1,7.26,0,21.76,21.76,0,0,1,5.3,5.93c4.63,7.19,9.22,14.55,9.31,22.87.11,9.75,0,149.07,0,149.07H274.09S274,237.82,274.09,228.07Z" style="fill:#f5f5f5"></path><path d="M282.15,206.71a25.46,25.46,0,0,1,6.12-7.19,6.81,6.81,0,0,1,8.28,0,25.88,25.88,0,0,1,6,7.16,70.12,70.12,0,0,1,7.26,15.42L274.93,222A67.42,67.42,0,0,1,282.15,206.71Z" style="fill:#F26C9F"></path><path d="M274.93,222c0,.14,7.82.28,17.46.31s17.45-.06,17.45-.2-7.81-.28-17.45-.31S274.93,221.88,274.93,222Z" style="fill:#263238"></path><path d="M305.07,219a.66.66,0,1,0,.66-.66A.66.66,0,0,0,305.07,219Z" style="fill:#263238"></path><path d="M298.76,219a.67.67,0,0,0,1.33,0,.67.67,0,0,0-1.33,0Z" style="fill:#263238"></path><path d="M292.45,219a.67.67,0,1,0,.67-.66A.66.66,0,0,0,292.45,219Z" style="fill:#263238"></path><circle cx="286.81" cy="218.98" r="0.66" style="fill:#263238"></circle><path d="M279.84,219a.66.66,0,0,0,1.32,0,.66.66,0,1,0-1.32,0Z" style="fill:#263238"></path><path d="M274.09,228.07s0,.25,0,.73,0,1.21,0,2.15c0,1.9,0,4.69,0,8.31,0,7.25,0,17.81-.07,31.05,0,26.52-.06,63.78-.09,106.83v.25h37.06V358.48c0-28.21,0-55.09,0-79.53,0-12.22,0-23.84,0-34.71,0-5.43,0-10.68,0-15.72a30.7,30.7,0,0,0-3.75-14c-1.05-2.07-2.2-4-3.36-5.89s-2.27-3.7-3.53-5.38a19.31,19.31,0,0,0-4.31-4.3,6.41,6.41,0,0,0-5.59-.69,7.49,7.49,0,0,0-2.35,1.4,18.21,18.21,0,0,0-1.9,1.81,27.94,27.94,0,0,0-3,4c-1.69,2.65-3.21,5.09-4.44,7.37a36.32,36.32,0,0,0-4.19,11.11c-.12.67-.21,1.27-.25,1.78s-.09.95-.1,1.3c0,.7,0,1,0,1s0-.35.08-1a12.35,12.35,0,0,1,.12-1.29c0-.51.15-1.1.27-1.77a36.82,36.82,0,0,1,4.26-11c1.24-2.27,2.77-4.7,4.48-7.34a27.58,27.58,0,0,1,2.95-3.9,18.62,18.62,0,0,1,1.88-1.77,7.05,7.05,0,0,1,2.27-1.35,6.14,6.14,0,0,1,5.33.67,18.92,18.92,0,0,1,4.22,4.25c1.23,1.65,2.33,3.51,3.5,5.36s2.29,3.81,3.33,5.87a30.44,30.44,0,0,1,3.68,13.8q0,7.56,0,15.73c0,10.87,0,22.48,0,34.7,0,24.44,0,51.32,0,79.53v18.66l.25-.25H274.09l.25.25c0-43.05-.07-80.31-.09-106.82,0-13.25-.06-23.8-.07-31.06,0-3.62,0-6.41,0-8.31,0-.94,0-1.65,0-2.15S274.09,228.07,274.09,228.07Z" style="fill:#263238"></path><path d="M292.84,236.41a9.42,9.42,0,0,1,9.42,9.42H283.42A9.42,9.42,0,0,1,292.84,236.41Z" style="fill:#455a64"></path><polygon points="215.7 369.02 215.7 338.76 256.61 298.63 274.05 244.02 274.05 377.14 215.7 369.02" style="fill:#f5f5f5"></polygon><polygon points="274.09 377.14 274.05 368.09 215.7 360.7 215.7 369.02 274.09 377.14" style="fill:#F26C9F"></polygon><path d="M215.7,369l1,.16,3,.44,11.61,1.66,42.68,6,.22,0v-.22c0-29.05,0-67.5.06-109.55v-25.2l-.5,1.55-17.4,54.62.06-.09c-16.35,16.07-30.33,29.82-40.86,40.19l0,0v.06c0,9.58.06,17.15.08,22.35,0,2.57,0,4.55,0,5.9,0,.66,0,1.16,0,1.51s0,.51,0,.51,0-.19,0-.53V367c0-1.36,0-3.35,0-5.93,0-5.18,0-12.73.08-22.27l0,.1,41-40.07,0,0,0-.06c5.3-16.59,11.19-35,17.46-54.6l-.5-.07v23.57c0,42.05,0,80.5.06,109.55l.22-.19-42.6-5.83-11.66-1.57-3.05-.4C216.07,369.06,215.7,369,215.7,369Z" style="fill:#263238"></path><g style="opacity:0.30000000000000004"><path d="M265.5,375.73V354.47s.67-7.47,6.12-9.35V257.75L274.05,244V377.35Z"></path></g><path d="M274.44,274.1c0,.15,8,.26,17.93.26s17.94-.11,17.94-.26-8-.25-17.94-.25S274.44,274,274.44,274.1Z" style="fill:#263238"></path><path d="M274.44,312.73c0,.14,8,.26,17.93.26s17.94-.12,17.94-.26-8-.26-17.94-.26S274.44,312.59,274.44,312.73Z" style="fill:#263238"></path><g style="opacity:0.30000000000000004"><path d="M291.61,236.49l7.81,9.34h-5.37l-6.24-8A11.68,11.68,0,0,1,291.61,236.49Z" style="fill:#fff"></path></g><rect x="237.19" y="375.69" width="20.68" height="2.17" rx="1.04" style="fill:#455a64"></rect><path d="M256.82,377.86c0,.06-4.16.1-9.29.1s-9.29,0-9.29-.1,4.16-.11,9.29-.11S256.82,377.8,256.82,377.86Z" style="fill:#263238"></path><path d="M256.82,375.69c0,.06-4.16.11-9.29.11s-9.29-.05-9.29-.11,4.16-.1,9.29-.1S256.82,375.64,256.82,375.69Z" style="fill:#263238"></path><rect x="237.19" y="381.28" width="20.68" height="2.17" rx="1.04" style="fill:#455a64"></rect><path d="M256.82,383.44c0,.06-4.16.11-9.29.11s-9.29-.05-9.29-.11,4.16-.1,9.29-.1S256.82,383.39,256.82,383.44Z" style="fill:#263238"></path><path d="M256.82,381.28c0,.06-4.16.1-9.29.1s-9.29,0-9.29-.1,4.16-.11,9.29-.11S256.82,381.22,256.82,381.28Z" style="fill:#263238"></path><rect x="237.19" y="386.86" width="20.68" height="2.17" rx="1.04" style="fill:#455a64"></rect><path d="M256.82,389c0,.06-4.16.1-9.29.1s-9.29,0-9.29-.1,4.16-.11,9.29-.11S256.82,389,256.82,389Z" style="fill:#263238"></path><path d="M256.82,386.86c0,.06-4.16.11-9.29.11s-9.29-.05-9.29-.11,4.16-.1,9.29-.1S256.82,386.81,256.82,386.86Z" style="fill:#263238"></path><rect x="237.19" y="392.45" width="20.68" height="2.17" rx="1.04" style="fill:#455a64"></rect><path d="M256.82,394.61c0,.06-4.16.11-9.29.11s-9.29-.05-9.29-.11,4.16-.1,9.29-.1S256.82,394.56,256.82,394.61Z" style="fill:#263238"></path><path d="M256.82,392.45c0,.06-4.16.1-9.29.1s-9.29,0-9.29-.1,4.16-.11,9.29-.11S256.82,392.39,256.82,392.45Z" style="fill:#263238"></path><rect x="237.19" y="398.03" width="20.68" height="2.17" rx="1.04" style="fill:#455a64"></rect><path d="M256.82,400.2c0,.06-4.16.1-9.29.1s-9.29,0-9.29-.1,4.16-.1,9.29-.1S256.82,400.14,256.82,400.2Z" style="fill:#263238"></path><path d="M256.82,398c0,.06-4.16.11-9.29.11s-9.29-.05-9.29-.11,4.16-.1,9.29-.1S256.82,398,256.82,398Z" style="fill:#263238"></path><polygon points="274.44 352.85 269.77 363.19 269.77 410.6 291.1 410.6 291.1 352.85 274.44 352.85" style="fill:#f5f5f5"></polygon><polygon points="310.16 352.85 314.83 363.19 314.83 410.6 293.5 410.6 293.5 352.85 310.16 352.85" style="fill:#f5f5f5"></polygon><polyline points="274.44 352.85 269.77 363.19 269.77 410.6 291.1 410.6 291.1 377.39" style="fill:#f5f5f5"></polyline><path d="M291.1,377.39a2.83,2.83,0,0,1,0,.63l0,1.81c0,1.62,0,3.92.07,6.82,0,5.89.05,14.18.09,24v.24h-.24l-21.33,0h-.26V408.5c0-18.59.08-35.07.11-45.31v-.06c1.49-3.24,2.68-5.8,3.51-7.6l.94-2,.26-.51c.06-.12.09-.17.1-.17l-.06.18-.22.53-.87,2-3.38,7.65,0-.06c0,10.24.06,26.72.1,45.31v2.1l-.26-.26,21.33,0-.23.24c0-9.77.07-18.06.09-24,0-2.9.05-5.2.07-6.82l0-1.81C291.08,377.61,291.09,377.39,291.1,377.39Z" style="fill:#263238"></path><polyline points="310.16 352.85 314.83 363.19 314.83 410.6 293.5 410.6 293.5 377.39" style="fill:#f5f5f5"></polyline><path d="M293.5,377.39s0,.22,0,.63l0,1.81c0,1.62,0,3.92.07,6.82,0,5.89.06,14.18.09,24l-.23-.24,21.33,0-.26.26v-2.1c0-18.59.08-35.07.1-45.31l0,.06-3.38-7.65-.87-2-.22-.53-.06-.18s0,0,.1.17l.26.51c.23.48.54,1.15,1,2,.82,1.8,2,4.36,3.5,7.6v.06c0,10.24.07,26.72.11,45.31v2.36h-.26l-21.33,0h-.24v-.24c0-9.77.07-18.06.1-24,0-2.9.05-5.2.06-6.82,0-.77,0-1.37,0-1.81A2.83,2.83,0,0,1,293.5,377.39Z" style="fill:#263238"></path><circle cx="281.05" cy="310.07" r="0.61" style="fill:#263238"></circle><circle cx="293.22" cy="310.07" r="0.61" style="fill:#263238"></circle><circle cx="305.38" cy="310.07" r="0.61" style="fill:#263238"></circle><path d="M281.66,350.7a.61.61,0,1,1-.61-.61A.61.61,0,0,1,281.66,350.7Z" style="fill:#263238"></path><circle cx="293.22" cy="350.41" r="0.61" style="fill:#263238"></circle><circle cx="305.38" cy="351.02" r="0.61" style="fill:#263238"></circle><path d="M281.66,270.68a.61.61,0,0,1-1.22,0,.61.61,0,1,1,1.22,0Z" style="fill:#263238"></path><path d="M239,247.29a.6.6,0,1,1-.59-.55A.57.57,0,0,1,239,247.29Z" style="fill:#263238"></path><path d="M249,247.29a.58.58,0,0,1-.6.55.57.57,0,0,1-.59-.55.56.56,0,0,1,.59-.55A.57.57,0,0,1,249,247.29Z" style="fill:#263238"></path><path d="M258.89,247.29a.6.6,0,0,1-1.2,0,.6.6,0,0,1,1.2,0Z" style="fill:#263238"></path><path d="M239,277.92a.6.6,0,1,1-.59-.55A.57.57,0,0,1,239,277.92Z" style="fill:#263238"></path><path d="M249,277.92a.58.58,0,0,1-.6.55.57.57,0,0,1-.59-.55.56.56,0,0,1,.59-.55A.57.57,0,0,1,249,277.92Z" style="fill:#263238"></path><path d="M258.89,277.92a.6.6,0,0,1-1.2,0,.6.6,0,0,1,1.2,0Z" style="fill:#263238"></path><ellipse cx="238.44" cy="214.85" rx="0.6" ry="0.61" style="fill:#263238"></ellipse><path d="M249,214.85a.6.6,0,0,1-.6.61.6.6,0,0,1-.59-.61.6.6,0,0,1,.59-.62A.61.61,0,0,1,249,214.85Z" style="fill:#263238"></path><ellipse cx="258.29" cy="214.85" rx="0.6" ry="0.61" style="fill:#263238"></ellipse><path d="M293.83,270.68a.61.61,0,0,1-.61.61.61.61,0,0,1-.62-.61.62.62,0,0,1,.62-.62A.61.61,0,0,1,293.83,270.68Z" style="fill:#263238"></path><path d="M306,270.68a.61.61,0,0,1-.62.61.61.61,0,0,1-.61-.61.61.61,0,0,1,.61-.62A.62.62,0,0,1,306,270.68Z" style="fill:#263238"></path><path d="M274.44,353.49c0,.14,8,.25,17.93.25s17.94-.11,17.94-.25-8-.26-17.94-.26S274.44,353.35,274.44,353.49Z" style="fill:#263238"></path><path d="M291.1,377.27c0,.15-4.76.26-10.64.26s-10.64-.11-10.64-.26,4.76-.26,10.64-.26S291.1,377.13,291.1,377.27Z" style="fill:#263238"></path><path d="M291.1,383.44c0,.15-4.76.26-10.64.26s-10.64-.11-10.64-.26,4.76-.26,10.64-.26S291.1,383.3,291.1,383.44Z" style="fill:#263238"></path><path d="M291.1,389.61a104.69,104.69,0,0,1-10.64.27,104.69,104.69,0,0,1-10.64-.27c0-.14,4.76-.26,10.64-.26S291.1,389.47,291.1,389.61Z" style="fill:#263238"></path><path d="M291.1,395.79c0,.14-4.76.26-10.64.26s-10.64-.12-10.64-.26,4.76-.26,10.64-.26S291.1,395.64,291.1,395.79Z" style="fill:#263238"></path><path d="M291.1,402c0,.14-4.76.26-10.64.26s-10.64-.12-10.64-.26,4.76-.26,10.64-.26S291.1,401.81,291.1,402Z" style="fill:#263238"></path><path d="M314.65,377.27c0,.15-4.77.26-10.64.26s-10.65-.11-10.65-.26S298.13,377,304,377,314.65,377.13,314.65,377.27Z" style="fill:#263238"></path><path d="M314.65,383.44c0,.15-4.77.26-10.64.26s-10.65-.11-10.65-.26,4.77-.26,10.65-.26S314.65,383.3,314.65,383.44Z" style="fill:#263238"></path><path d="M314.65,389.61a104.85,104.85,0,0,1-10.64.27,105,105,0,0,1-10.65-.27c0-.14,4.77-.26,10.65-.26S314.65,389.47,314.65,389.61Z" style="fill:#263238"></path><path d="M314.65,395.79c0,.14-4.77.26-10.64.26s-10.65-.12-10.65-.26,4.77-.26,10.65-.26S314.65,395.64,314.65,395.79Z" style="fill:#263238"></path><path d="M314.65,402c0,.14-4.77.26-10.64.26s-10.65-.12-10.65-.26,4.77-.26,10.65-.26S314.65,401.81,314.65,402Z" style="fill:#263238"></path><rect x="238.81" y="190.68" width="1.66" height="3.47" style="fill:#263238"></rect><rect x="242.37" y="190.68" width="1.66" height="3.47" style="fill:#263238"></rect><circle cx="248.3" cy="340.97" r="5.7" style="fill:#F26C9F"></circle><rect x="323.07" y="340.97" width="21.93" height="5.7" style="fill:#F26C9F"></rect></g><g id="freepik--Structure--inject-72"><rect x="418.33" y="245.97" width="5.51" height="223.88" style="fill:#455a64"></rect><rect x="458.57" y="245.97" width="5.51" height="223.97" style="fill:#455a64"></rect><rect x="418.33" y="245.97" width="45.75" height="5.14" style="fill:#455a64"></rect><polygon points="420.21 450.03 419.5 449.33 460.12 408.71 419.87 408.71 460.11 368.9 419.95 368.9 460.19 324.95 419.95 324.95 460.12 284.78 419.77 284.78 460.99 248.17 461.66 248.92 422.4 283.78 462.53 283.78 422.36 323.95 462.46 323.95 422.22 367.9 462.54 367.9 422.3 407.71 462.53 407.71 420.21 450.03" style="fill:#455a64"></polygon><rect x="390.26" y="286.51" width="1.55" height="58.14" transform="translate(75.45 706.61) rotate(-90)" style="fill:#455a64"></rect><rect x="390.26" y="275.22" width="1.55" height="58.14" transform="translate(86.74 695.32) rotate(-90)" style="fill:#455a64"></rect><rect x="356.26" y="309.22" width="12.84" height="1.44" transform="translate(52.74 672.62) rotate(-90)" style="fill:#455a64"></rect><polygon points="373.21 316.9 362.3 304.62 363.05 303.96 372.21 314.27 372.21 303.08 383.48 314.36 383.48 303.16 395.81 314.45 395.81 303.08 406.98 314.37 406.98 303.08 419.47 315.57 418.76 316.28 407.98 305.5 407.98 316.8 396.81 305.51 396.81 316.72 384.48 305.43 384.48 316.77 373.21 305.5 373.21 316.9" style="fill:#455a64"></polygon><rect x="390.26" y="357.29" width="1.55" height="58.14" transform="translate(4.67 777.39) rotate(-90)" style="fill:#455a64"></rect><rect x="390.26" y="346" width="1.55" height="58.14" transform="translate(15.96 766.1) rotate(-90)" style="fill:#455a64"></rect><rect x="356.26" y="379.99" width="12.84" height="1.44" transform="translate(-18.04 743.39) rotate(-90)" style="fill:#455a64"></rect><polygon points="373.21 387.68 362.3 375.4 363.05 374.74 372.21 385.05 372.21 373.86 383.48 385.13 383.48 373.93 395.81 385.23 395.81 373.85 406.98 385.14 406.98 373.86 419.47 386.35 418.76 387.06 407.98 376.28 407.98 387.58 396.81 376.29 396.81 387.5 384.48 376.2 384.48 387.55 373.21 376.28 373.21 387.68" style="fill:#455a64"></polygon></g><g id="freepik--Character--inject-72"><path d="M125.16,175a12.26,12.26,0,0,0-2.41-4.34,5.75,5.75,0,0,0-4.41-2,3.83,3.83,0,0,0-3.56,3l-1.24.31c2.23,1.58,3.37,4.28,4.13,6.91s.54,5,2,7.36c1.44-1.57,3.14-3.24,3.46-5.35a6,6,0,0,1,.21,4.22,6,6,0,0,0,2.71-4.63A12.48,12.48,0,0,0,125.16,175Z" style="fill:#263238"></path><path d="M116.54,169.77c-.62-5.76-7.77-7.28-12.4-7.63a18.41,18.41,0,0,0-12.79,4.46,37.64,37.64,0,0,0-8.47,10.7l3.3.8a2.15,2.15,0,0,0-2.36,1.24,5.85,5.85,0,0,0-.4,2.79,44,44,0,0,0,.65,6.79c1.11,5.86,4,11.23,6.88,16.49,1.33-4.32,1-9,.47-13.46a8.32,8.32,0,0,1,.37-4.73,6.28,6.28,0,0,1,3.33-2.71c1.35-.57,2.8-.9,4.15-1.48a12.15,12.15,0,0,0,6.58-6.86Z" style="fill:#263238"></path><path d="M90.28,182.8l-1.57,33.82c-.27,5.75.51,14.25,9.63,14.26h0c7.9-.59,10.24-8,10.49-13.34.11-2.55.22-4.67.24-4.93,0,0,8.65-.41,9.67-8.9.49-4.11.81-12.64,1-20.37a15.94,15.94,0,0,0-14.23-16.25l-.82-.09C95.8,166.57,90.46,173.89,90.28,182.8Z" style="fill:#ffbf9d"></path><path d="M109.07,212.61a20.67,20.67,0,0,1-10.72-4.46s2,6.5,10.61,6.64Z" style="fill:#ff9a6c"></path><path d="M108.32,196.39a8.39,8.39,0,0,1,2.16-.16c.34,0,.66,0,.74-.25a1.77,1.77,0,0,0-.12-1c-.22-.84-.46-1.72-.71-2.64a43,43,0,0,1-1.5-6.89,45,45,0,0,1,2,6.75c.23.93.46,1.81.67,2.66a1.89,1.89,0,0,1,0,1.33.84.84,0,0,1-.6.43,2.21,2.21,0,0,1-.57,0A9,9,0,0,1,108.32,196.39Z" style="fill:#263238"></path><path d="M90.3,189.17c-.14-.08-5.66-2.35-6.1,3.48s5.51,5.07,5.53,4.9S90.3,189.17,90.3,189.17Z" style="fill:#ffbf9d"></path><path d="M88.12,195.21s-.11.06-.29.13a1.07,1.07,0,0,1-.76,0,2.52,2.52,0,0,1-1-2.35,3.3,3.3,0,0,1,.39-1.43,1.18,1.18,0,0,1,.82-.72.51.51,0,0,1,.58.32c.07.17,0,.28,0,.3s.14-.09.11-.34a.74.74,0,0,0-.2-.38.81.81,0,0,0-.56-.19,1.42,1.42,0,0,0-1.12.83,3.41,3.41,0,0,0-.48,1.59A2.67,2.67,0,0,0,87,195.57a1.12,1.12,0,0,0,.94-.09C88.1,195.35,88.14,195.22,88.12,195.21Z" style="fill:#ff9a6c"></path><path d="M116.41,172.77c1.33-3.44-1.4-5.4-4.22-7.77a9.16,9.16,0,0,0-10.34-.83,38.11,38.11,0,0,0-4.43,3.72c-1.49,1.23-3.37,2.23-5.28,1.92a6.91,6.91,0,0,0,7.59,2.08,17.45,17.45,0,0,1-8.87,4.56,6.28,6.28,0,0,0,8-.31,17.53,17.53,0,0,1-5,6.88c-.37.31-.79.71-.7,1.19s.66.7,1.15.78a8.11,8.11,0,0,0,7.6-3.08c1.86-2.48,3.19-5.18,4.91-7.75.82-1.22,3.23-3.25,5-3.12,1.45.11,4.14.9,4.67,2.26" style="fill:#263238"></path><path d="M103.63,168.21a1.7,1.7,0,0,0-1.17-.81c-3.14-.9-6.58.69-8.71,3.16s-3.18,5.69-4,8.86a17.08,17.08,0,0,0-.56,7.86l1.33,2.24a5.69,5.69,0,0,1,.43,2.26c.1.77.59,1.64,1.37,1.62a1.57,1.57,0,0,0,1.23-1.06c.68-1.59.2-3.5.94-5.06a12.35,12.35,0,0,1,2.24-2.62,17,17,0,0,0,2.91-5.35l3.8-9.6A1.94,1.94,0,0,0,103.63,168.21Z" style="fill:#263238"></path><path d="M116.41,172.77c1.33-3.44-1.4-5.4-4.22-7.77a9.16,9.16,0,0,0-10.34-.83,38.11,38.11,0,0,0-4.43,3.72c-1.49,1.23-3.37,2.23-5.28,1.92a6.91,6.91,0,0,0,7.59,2.08,17.45,17.45,0,0,1-8.87,4.56,6.28,6.28,0,0,0,8-.31,17.53,17.53,0,0,1-5,6.88c-.37.31-.79.71-.7,1.19s.66.7,1.15.78a8.11,8.11,0,0,0,7.6-3.08c1.86-2.48,3.19-5.18,4.91-7.75.82-1.22,3.23-3.25,5-3.12,1.45.11,4.14.9,4.67,2.26" style="fill:#263238"></path><path d="M98.19,169.93s.3-.06.81-.21a7.49,7.49,0,0,0,2-1c.79-.53,1.64-1.3,2.66-2.08a10.13,10.13,0,0,1,1.73-1.07,5.85,5.85,0,0,1,2.14-.52,7.21,7.21,0,0,1,4,1.16,10.38,10.38,0,0,1,2.52,2.3,16.33,16.33,0,0,1,1.31,1.89,3.24,3.24,0,0,1,.39.74c-.06,0-.66-1-1.9-2.46a10.54,10.54,0,0,0-2.5-2.18,7,7,0,0,0-3.84-1.08,6.63,6.63,0,0,0-3.68,1.49c-1,.75-1.89,1.51-2.72,2a6.46,6.46,0,0,1-2.11.93A2.15,2.15,0,0,1,98.19,169.93Z" style="fill:#455a64"></path><path d="M102,175.39s.65-.68,1.56-1.88c.47-.6,1-1.33,1.68-2.08a8,8,0,0,1,2.62-2,6.62,6.62,0,0,1,3.27-.55,6.18,6.18,0,0,1,2.57.82,6.31,6.31,0,0,1,1.43,1.13,1.86,1.86,0,0,1,.39.54,10,10,0,0,0-1.94-1.44,6.38,6.38,0,0,0-5.57-.17,7.94,7.94,0,0,0-2.52,1.92c-.68.72-1.23,1.44-1.73,2a16.13,16.13,0,0,1-1.23,1.32C102.2,175.27,102,175.41,102,175.39Z" style="fill:#455a64"></path><path d="M121.83,176.92a8.1,8.1,0,0,1-.46-1.29,8.26,8.26,0,0,0-1.63-2.79,5.41,5.41,0,0,0-2.74-1.61c-.81-.19-1.34-.11-1.34-.18a2.46,2.46,0,0,1,1.39-.08,5.22,5.22,0,0,1,3,1.62,7.25,7.25,0,0,1,1.6,3A3.76,3.76,0,0,1,121.83,176.92Z" style="fill:#455a64"></path><path d="M96.89,184.37l-.25,0a6.1,6.1,0,0,1-.75,0,7.1,7.1,0,0,1-2.73-.7,3.62,3.62,0,0,1-1.61-1.25,1.17,1.17,0,0,1,0-1.21,1.72,1.72,0,0,1,1.09-.68c.42-.12.87-.16,1.3-.26a7.53,7.53,0,0,0,1.31-.4,8.15,8.15,0,0,0,2.48-1.6l.16.25a4.75,4.75,0,0,1-5.37-1.37l-.15-.19.23-.08a10.58,10.58,0,0,0,4.23-2.85l.18.29a6.5,6.5,0,0,1-6.27-1.79l-.18-.19-.21-.23.3-.07a6.14,6.14,0,0,0,2.66-1.56,21.12,21.12,0,0,0,2-2.33,17.39,17.39,0,0,1,2-2.24,12.53,12.53,0,0,1,17.74,1,8.55,8.55,0,0,1,1.42,2,17.46,17.46,0,0,0-1.53-1.91,12.92,12.92,0,0,0-5.58-3.45,12,12,0,0,0-4.52-.47,12.6,12.6,0,0,0-5,1.51,13.22,13.22,0,0,0-4.3,3.83,20.53,20.53,0,0,1-2,2.38,6.37,6.37,0,0,1-2.81,1.64l.1-.29.17.18A6.12,6.12,0,0,0,96.88,174l.59-.15-.41.45a10.92,10.92,0,0,1-4.39,2.93l.08-.27a4.42,4.42,0,0,0,5,1.31l.78-.33-.62.58a8.19,8.19,0,0,1-2.58,1.63,7.82,7.82,0,0,1-1.36.41c-.45.09-.89.13-1.29.23a1.56,1.56,0,0,0-1,.57.93.93,0,0,0,0,1,3.57,3.57,0,0,0,1.51,1.21,7.33,7.33,0,0,0,2.66.76C96.54,184.38,96.89,184.35,96.89,184.37Z" style="fill:#455a64"></path><path d="M116.32,190.5a1.22,1.22,0,0,1-1.23,1.18,1.17,1.17,0,0,1-1.21-1.15,1.23,1.23,0,0,1,1.23-1.19A1.17,1.17,0,0,1,116.32,190.5Z" style="fill:#263238"></path><path d="M117.5,186.22c-.16.16-1.06-.56-2.37-.62s-2.3.57-2.43.4.09-.35.53-.64a3.36,3.36,0,0,1,2-.52,3.19,3.19,0,0,1,1.87.7C117.45,185.86,117.58,186.16,117.5,186.22Z" style="fill:#263238"></path><path d="M105,190.5a1.22,1.22,0,0,1-1.23,1.18,1.17,1.17,0,0,1-1.21-1.15,1.23,1.23,0,0,1,1.23-1.19A1.17,1.17,0,0,1,105,190.5Z" style="fill:#263238"></path><path d="M104.62,186c-.16.15-1.05-.57-2.36-.62s-2.3.56-2.44.4.1-.36.53-.65a3.39,3.39,0,0,1,2-.51,3.23,3.23,0,0,1,1.87.69C104.57,185.64,104.7,185.93,104.62,186Z" style="fill:#263238"></path><path d="M105.22,181.91c-.2.33-1.45-.08-3-.17s-2.85.08-3-.27c-.06-.16.22-.46.77-.7a5,5,0,0,1,2.32-.36,4.86,4.86,0,0,1,2.25.69C105.07,181.43,105.3,181.75,105.22,181.91Z" style="fill:#263238"></path><path d="M117.72,182.37c-.28.29-1.34-.05-2.63-.1s-2.38.14-2.62-.18c-.11-.15.07-.45.56-.72a4.25,4.25,0,0,1,2.14-.43,4,4,0,0,1,2.08.66C117.7,181.92,117.84,182.23,117.72,182.37Z" style="fill:#263238"></path><path d="M104.79,197.09c.2,0,.21,1.33,1.36,2.27s2.59.8,2.6,1-.32.26-.92.28a3.38,3.38,0,0,1-2.17-.75,2.88,2.88,0,0,1-1-1.91C104.55,197.41,104.7,197.08,104.79,197.09Z" style="fill:#263238"></path><path d="M109.51,443.94l-.64,16.81s16.88,6.3,17.06,9.41l-32.64-.06-.08-26.24Z" style="fill:#263238"></path><path d="M98.78,459.32a1.32,1.32,0,0,0-.92,1.51,1.28,1.28,0,0,0,1.5.93,1.41,1.41,0,0,0,1-1.61,1.33,1.33,0,0,0-1.67-.79" style="fill:#e0e0e0"></path><path d="M93.29,470.1l.1-2.65,31.26,1.06s1.45.63,1.28,1.65Z" style="fill:#455a64"></path><path d="M109.4,460.59c0,.16-.8.23-1.59.74s-1.2,1.18-1.35,1.11.1-1,1.06-1.58S109.44,460.44,109.4,460.59Z" style="fill:#fff"></path><path d="M112.82,462c0,.15-.65.42-1.19,1.1s-.7,1.38-.86,1.37-.26-.9.43-1.73S112.82,461.86,112.82,462Z" style="fill:#fff"></path><path d="M114.76,466.11c-.15,0-.37-.76,0-1.63s1.15-1.22,1.22-1.09-.4.6-.72,1.32S114.92,466.1,114.76,466.11Z" style="fill:#fff"></path><path d="M109.12,456.74c-.06.14-.79-.08-1.7,0s-1.6.34-1.68.21.59-.71,1.65-.76S109.2,456.61,109.12,456.74Z" style="fill:#fff"></path><path d="M69.55,441.65l-1.76,20.28L71,478.37a2.07,2.07,0,0,1-1.78,2.47h0a2,2,0,0,1-1.79-.65C64.53,477,53.88,465.3,54.1,463.82c.24-1.71.44-21.51.44-21.51Z" style="fill:#263238"></path><path d="M69.23,480.84,54.18,462.45l0,.86a3.11,3.11,0,0,0,.61,2.08c1.19,1.6,4.58,5.94,12.63,14.79a2.07,2.07,0,0,0,1.86.66Z" style="fill:#455a64"></path><g style="opacity:0.6000000000000001"><path d="M58.77,456.16a1.26,1.26,0,0,1,.24,1.67,1.21,1.21,0,0,1-1.65.25,1.34,1.34,0,0,1-.24-1.77,1.26,1.26,0,0,1,1.74-.07" style="fill:#fff"></path></g><path d="M65.16,471.67A6.23,6.23,0,0,1,67,470.2a6.22,6.22,0,0,1,2.37-.29c0-.05-.23-.23-.7-.32a3.25,3.25,0,0,0-1.84.2A3.21,3.21,0,0,0,65.42,471C65.16,471.35,65.11,471.65,65.16,471.67Z" style="fill:#fff"></path><path d="M66.43,474.48a19.57,19.57,0,0,1,1.85-.76,16.72,16.72,0,0,1,2-.12,2.28,2.28,0,0,0-2.1-.31C67,473.56,66.33,474.42,66.43,474.48Z" style="fill:#fff"></path><path d="M62.69,468a20.85,20.85,0,0,1,2.78-1.36,19.32,19.32,0,0,1,3.06-.51A5.67,5.67,0,0,0,62.69,468Z" style="fill:#fff"></path><path d="M62.71,461.8c0,.13,1.2-.27,2.66-.23s2.6.47,2.65.34a4.11,4.11,0,0,0-2.64-.79A4,4,0,0,0,62.71,461.8Z" style="fill:#fff"></path><path d="M63.08,455.84a9.84,9.84,0,0,1,2.76-.32,10.53,10.53,0,0,1,2.65.85s-.17-.31-.62-.61a4.57,4.57,0,0,0-4.07-.4C63.3,455.57,63.05,455.79,63.08,455.84Z" style="fill:#fff"></path><path d="M65.88,454.38a1.79,1.79,0,0,0,.08-.76,5.32,5.32,0,0,0-.49-2.05,2.34,2.34,0,0,0-.94-1.2.83.83,0,0,0-1,.13,1.29,1.29,0,0,0-.38.89,2.94,2.94,0,0,0,2.4,2.89,3.42,3.42,0,0,0,3.47-1.57,1.23,1.23,0,0,0,.12-1,.83.83,0,0,0-.84-.49,2.88,2.88,0,0,0-1.38.61,6.08,6.08,0,0,0-1.49,1.49c-.28.41-.38.67-.35.68a9.25,9.25,0,0,1,2-1.91,2.73,2.73,0,0,1,1.22-.5.43.43,0,0,1,.45.26.78.78,0,0,1-.12.64,3.05,3.05,0,0,1-3,1.33,2.55,2.55,0,0,1-2.07-2.42,1,1,0,0,1,.24-.64.45.45,0,0,1,.52-.07,2.11,2.11,0,0,1,.82,1A7.92,7.92,0,0,1,65.88,454.38Z" style="fill:#fff"></path><path d="M125.24,302.22s.18,6.6-.72,18.28C124.18,325,111.22,453,111.22,453H90.64l5.79-117.45-1.69.36S84.93,386,84,394.06c-.82,7.29-11.72,60.27-11.72,60.27l-18.82.21,6-70.05,7-67.22,2.63-19.57Z" style="fill:#263238"></path><polygon points="130.27 267.97 155.78 272.7 156.82 274.22 155.29 283.34 125.43 281.96 130.27 267.97" style="fill:#ffbf9d"></polygon><path d="M154.17,285.06c2.09.69,4.4,1.54,4.4,1.54l2.09.65a2.35,2.35,0,0,1-.3.33,1.59,1.59,0,0,0-.49.66,1.31,1.31,0,0,0,.67,1.32,3.23,3.23,0,0,0,3.15.26,3.14,3.14,0,0,0,1.72-2.49,2.23,2.23,0,0,0,.54-.72c.9-1.85-.61-4.43-.61-4.43l.77.13s2,1.27,1.59,5.23a2.47,2.47,0,0,0,.42,1.69,1.24,1.24,0,0,0,.89.57c1,.08,1.27-.58,1.57-3s-.23-4.95-1.44-6.11a15.7,15.7,0,0,0-1.75-1.52s6.94.73,7.38.76c1.28.08,2.38-.42,2.51-1.26.09-.55-.2-1.29-1.69-1.44-1.28-.12-14.37-3.33-14.37-3.33l-4.5-1a6.68,6.68,0,0,0-2.23-.13l-4.18-.23L149,280.7l1.47,1.46A6.81,6.81,0,0,0,154.17,285.06Z" style="fill:#ffbf9d"></path><polygon points="156.01 289.47 156.28 291.22 157.76 290.18 168.12 264.52 166.37 263.82 156.01 289.47" style="fill:#263238"></polygon><path d="M165.32,282.09a3.09,3.09,0,0,1,1.29.58,2.43,2.43,0,0,1,.77,1.3,5.87,5.87,0,0,1,.1,1.9,10,10,0,0,0,0,2,3.16,3.16,0,0,0,.6,1.53,1.21,1.21,0,0,0,1,.49c.27,0,.4-.08.39-.09s-.14,0-.39,0a1.14,1.14,0,0,1-.84-.5,3.18,3.18,0,0,1-.5-1.44,10.4,10.4,0,0,1,0-1.92,5.9,5.9,0,0,0-.13-2,2.52,2.52,0,0,0-.9-1.38,2.27,2.27,0,0,0-1-.44C165.46,282.05,165.32,282.07,165.32,282.09Z" style="fill:#ff9a6c"></path><path d="M175.27,279.91a8.2,8.2,0,0,0-1.38-.15l-3.33-.29-3.33-.34a9.55,9.55,0,0,0-1.38-.11,6,6,0,0,0,1.36.3c.85.15,2,.3,3.32.42s2.49.19,3.35.21A6.12,6.12,0,0,0,175.27,279.91Z" style="fill:#ff9a6c"></path><path d="M163.61,283.5a1.83,1.83,0,0,0,.12.42,1.26,1.26,0,0,1,0,1.07.69.69,0,0,1-.61.3,3.38,3.38,0,0,1-.89-.15,1.59,1.59,0,0,0-1.11.06,1.31,1.31,0,0,0-.64,1,1.49,1.49,0,0,0,.37,1.13,1.92,1.92,0,0,0,.92.61,6.07,6.07,0,0,0,1.78.15,4,4,0,0,0,1.18-.24c.26-.12.37-.24.36-.25a3.93,3.93,0,0,0-.4.14,3.67,3.67,0,0,1-1.15.15,6.75,6.75,0,0,1-1.7-.19,1.52,1.52,0,0,1-1.09-1.47,1.08,1.08,0,0,1,.5-.79,1.32,1.32,0,0,1,.92-.05,4,4,0,0,0,1,.13.84.84,0,0,0,.76-.43,1.35,1.35,0,0,0,0-1.21C163.71,283.62,163.63,283.49,163.61,283.5Z" style="fill:#ff9a6c"></path><path d="M156.82,282a1.15,1.15,0,0,0,.05-.66,2.6,2.6,0,0,0-.75-1.53L156,280A7.66,7.66,0,0,0,157,280a5.9,5.9,0,0,0,3-1.15,15,15,0,0,1-3.06.87,7.65,7.65,0,0,1-.91.08h-.32l.23.21a2.76,2.76,0,0,1,.76,1.37A5,5,0,0,0,156.82,282Z" style="fill:#ff9a6c"></path><path d="M168.63,283.29c0-.06-.55.15-.87.74a1.24,1.24,0,0,0-.15,1.13c.08,0,.11-.49.4-1S168.67,283.36,168.63,283.29Z" style="fill:#ff9a6c"></path><path d="M113.4,219.3c6.11,1.41,14.39,6.51,17.33,12,2.24,4.19,2.75,16.3,2.42,34.53,0,1.71,3.32.34,2.74,4l-11.34,14.25-9-15.58-38.65-8.62-6.61-36.35S109.66,218.44,113.4,219.3Z" style="fill:#e0e0e0"></path><path d="M155.86,274.35a1.85,1.85,0,0,0,.81,2c.61.45,1.36.69,2,1.1,1.91,1.23,2.65,3.82,4.62,4.95.27.16.66.27.87,0s.09-.56,0-.83c-1-2.29-2-4.59-3-6.89" style="fill:#ffbf9d"></path><path d="M160.89,274.71s.17.24.41.71.56,1.15.95,2l1.37,3,.4.87a1.5,1.5,0,0,1,.21,1.1.64.64,0,0,1-.6.38,1.45,1.45,0,0,1-.6-.17,4.77,4.77,0,0,1-.89-.66,28.37,28.37,0,0,1-2.52-3.18,5.62,5.62,0,0,0-1.23-1.17c-.45-.29-.92-.49-1.34-.73a2.68,2.68,0,0,1-1.49-1.67c-.11-.56.09-.84.1-.82a2.56,2.56,0,0,0,.06.78,2.6,2.6,0,0,0,1.47,1.45,14.83,14.83,0,0,1,1.39.69,5.69,5.69,0,0,1,1.34,1.22,36.33,36.33,0,0,0,2.5,3.12,5.64,5.64,0,0,0,.81.6c.27.15.56.16.61,0s-.07-.49-.2-.78-.25-.59-.38-.88l-1.28-3c-.36-.86-.65-1.57-.84-2.06A4,4,0,0,1,160.89,274.71Z" style="fill:#ff9a6c"></path><path d="M127.77,271.68a14.73,14.73,0,0,0,1.5-1.82,15,15,0,0,0,1.48-1.82,7.54,7.54,0,0,0-3,3.64Z" style="fill:#263238"></path><path d="M70.26,223.54l15.49-7.47,3.11-6.14,17.93,8.48,2-3,3.58,3.6,4.1,1.34L126,237.15l0,35.92,2.42,27c.83,3.87-1.82,7.12-3.43,8.9h0l-13.53-.42-9.21-.73-33.93-4.08h0a9.75,9.75,0,0,1-1.87-7.4L71,267.33Z" style="fill:#e0e0e0"></path><path d="M107.8,312a1.1,1.1,0,0,1,0-.24c0-.19,0-.43,0-.71,0-.67,0-1.58,0-2.73,0-2.41-.08-5.82-.14-10-.14-8.5-.32-20.17-.52-33.06s-.35-24.62-.37-33.08c0-4.23,0-7.66,0-10,0-1.15,0-2.06,0-2.73,0-.29,0-.52,0-.71a1.1,1.1,0,0,1,0-.24.75.75,0,0,1,0,.24c0,.19,0,.42,0,.71,0,.67,0,1.58.05,2.72,0,2.42.08,5.83.14,10,.13,8.5.32,20.17.52,33.07s.35,24.6.37,33.07c0,4.23,0,7.66,0,10,0,1.15,0,2.06-.05,2.73,0,.28,0,.52,0,.71A.75.75,0,0,1,107.8,312Z" style="fill:#263238"></path><path d="M51.06,270.82c1-4.46,7.86-31.61,8.55-34.81,1.84-8.58,10.65-12.47,10.65-12.47l6.54,22.74-6.44,28.26,1.89.52-4.93,19.41a74.89,74.89,0,0,1-9.44-3.56C53.24,288.67,48.05,284.83,51.06,270.82Z" style="fill:#e0e0e0"></path><path d="M62.43,292.81a7.5,7.5,0,0,1,1.46.41l3.9,1.3-.25.14c.59-2.68,1.41-6.22,2.32-10.07.79-3.24,1.52-6.23,2.13-8.77v.07a1.34,1.34,0,0,0-.72-1,2.24,2.24,0,0,0-1.19-.3,3.1,3.1,0,0,0-1.85.88c-.87.81-1.26,1.4-1.31,1.36s.06-.17.25-.44a7.33,7.33,0,0,1,.89-1.1,3.25,3.25,0,0,1,2-1,2.51,2.51,0,0,1,1.41.3,1.74,1.74,0,0,1,.94,1.33v.07l-2,8.79c-.92,3.85-1.78,7.38-2.45,10l-.06.22-.2-.08-3.84-1.46A6.86,6.86,0,0,1,62.43,292.81Z" style="fill:#263238"></path><path d="M77.5,246.55c.14,0-1.19,6.33-3,14.05s-3.34,14-3.48,13.93,1.19-6.32,3-14S77.36,246.52,77.5,246.55Z" style="fill:#263238"></path><path d="M68.16,225.37a7.31,7.31,0,0,1,2.45,1,14.06,14.06,0,0,1,6.89,10.35,7,7,0,0,1,0,2.65c-.09,0-.06-1-.35-2.59a15.13,15.13,0,0,0-6.73-10.09C69.07,225.82,68.13,225.45,68.16,225.37Z" style="fill:#263238"></path><path d="M85.75,216.07s.14,0,.39.12.63.25,1.1.47c1,.42,2.29,1.09,3.92,2,3.28,1.72,7.6,4.49,12.7,6.85h0l-.35.13c1-2.4,2-4.69,3-6.8l.2-.47.23.45c1.13,2.2,2.15,4.2,3,5.9h-.33c.94-1.71,1.59-3.17,2-4.17s.63-1.58.67-1.57a6.45,6.45,0,0,1-.48,1.65,39.18,39.18,0,0,1-1.9,4.27l-.17.32-.17-.32c-.9-1.69-2-3.67-3.12-5.85h.44c-.91,2.11-1.91,4.41-2.94,6.82l-.11.24-.24-.11h0c-5.15-2.39-9.43-5.2-12.66-7-1.6-.91-2.91-1.63-3.83-2.11A12.1,12.1,0,0,1,85.75,216.07Z" style="fill:#263238"></path><path d="M126.88,236.94c.14,0-.16,8.66-.68,19.33s-1,19.31-1.19,19.3.16-8.66.67-19.33S126.73,236.94,126.88,236.94Z" style="fill:#263238"></path><polygon points="105.7 226.87 99.71 285.29 107.8 300.81 116.54 286.77 108.74 226.49 105.7 226.87" style="fill:#F26C9F"></polygon><polygon points="104.72 224.22 105.7 226.87 108.74 226.49 109.04 223.83 107.3 220.53 106.15 220.89 104.72 224.22" style="fill:#F26C9F"></polygon><path d="M148.93,262.41l-12.66,32.18a1.85,1.85,0,0,1-1.67,1l-35.07-.77a1.75,1.75,0,0,1-1.74-2L109,261a1.85,1.85,0,0,1,1.85-1.52l36.51.38A1.74,1.74,0,0,1,148.93,262.41Z" style="fill:#263238"></path><path d="M92.65,283.34s3.49-3,4.36-3.78,3.83-3.37,5.36-3.4l1.53,0-.74,4.05s11.74-3.72,13.69-2.11-1.44,2.53-3.19,3.05-7.37,2.4-7.37,2.4,14.76-4.07,16.06-2.65-1.15,2.19-1.15,2.19l-9.33,5.47-1.07.62-.91,1.63s-3.64,3.42-5,3.27-11.59-.36-11.59-.36Z" style="fill:#ffbf9d"></path><path d="M104.9,288.22a11.86,11.86,0,0,1,2.22-1.07c1.4-.59,3.37-1.34,5.59-2s4.28-1.17,5.77-1.47a13.43,13.43,0,0,1,2.44-.36,17.17,17.17,0,0,1-2.37.65c-1.48.37-3.5.9-5.71,1.58s-4.19,1.38-5.61,1.9A16.43,16.43,0,0,1,104.9,288.22Z" style="fill:#ff9a6c"></path><path d="M106.71,290.8a6.31,6.31,0,0,1,2-1.12,6.51,6.51,0,0,1,2.2-.72,6.4,6.4,0,0,1-2,1.11A6.67,6.67,0,0,1,106.71,290.8Z" style="fill:#ff9a6c"></path><polygon points="95.2 283.29 72.49 275.84 69.03 291.16 95.61 293.74 95.2 283.29" style="fill:#ffbf9d"></polygon></g></svg>