<svg xmlns="http://www.w3.org/2000/svg" viewBox="0 0 500 500"><g id="freepik--speech-bubble--inject-560"><path d="M138.09,103.56,139.78,94A28.85,28.85,0,1,1,194,82a28.87,28.87,0,0,1-47.77,20.09h0Z" style="fill:#fff"></path><path d="M138.09,103.56l.52-.08,1.56-.25,6.1-1s.07,0,.06-.08,0,0,0,0h0l-.11.09a28.59,28.59,0,0,0,17,7.08c.78.06,1.57,0,2.38,0a17.07,17.07,0,0,0,2.46-.14,28.67,28.67,0,0,0,10.16-2.91,29.23,29.23,0,0,0,15-18.41,29.49,29.49,0,0,0,.33-13.43,26.64,26.64,0,0,0-.91-3.37,16.54,16.54,0,0,0-.64-1.65c-.23-.54-.42-1.1-.7-1.62a28.94,28.94,0,0,0-1.77-3.11c-.33-.49-.65-1-1-1.49l-1.14-1.41a29,29,0,0,0-24-10.31,29,29,0,0,0-20.73,10.64,28.88,28.88,0,0,0-5,9.12,31.54,31.54,0,0,0-1.15,4.65,38.65,38.65,0,0,0-.34,4.45,28.58,28.58,0,0,0,3.49,13.76v0c-.53,3.11-.93,5.5-1.21,7.13l-.3,1.81c-.07.4-.1.6-.1.6s0-.22.13-.63.19-1,.34-1.82c.29-1.61.73-4,1.29-7.06,0,0,0,0,0,0a28.71,28.71,0,0,1-3.39-13.68,38.11,38.11,0,0,1,.36-4.42A29.92,29.92,0,0,1,138,71.29a28.7,28.7,0,0,1,5-9,28.81,28.81,0,0,1,20.53-10.49A28.73,28.73,0,0,1,187.16,62l1.13,1.39c.34.48.66,1,1,1.47A28.23,28.23,0,0,1,191,67.92c.27.51.46,1.07.69,1.6a17.1,17.1,0,0,1,.63,1.63,26,26,0,0,1,.9,3.33,29.36,29.36,0,0,1-.31,13.27A28.93,28.93,0,0,1,178.08,106,28.53,28.53,0,0,1,168,108.9a18.22,18.22,0,0,1-2.43.15c-.8,0-1.59,0-2.36,0a28.55,28.55,0,0,1-16.93-7,.08.08,0,0,0-.1,0,.06.06,0,0,0,0,.09h0l.05-.11-6,1.1-1.57.29Z" style="fill:#263238"></path><path d="M170.77,76.59l-2,0-4.28-6.19.08-4s-3.1-.25-2.84,5-.1,3.92-.1,3.92-6.6-.1-7.16.46c-.4.41-.7,7-.84,10.51a3.85,3.85,0,0,0,2.65,3.93,2.56,2.56,0,0,0,.71.11c1.65,0,10.08-1.15,10.08-1.15l3.47.07Z" style="fill:#F26C9F"></path><polygon points="176.54 75.59 175.05 89.32 171.6 89.25 171.86 75.78 176.54 75.59" style="fill:#F26C9F"></polygon></g><g id="freepik--light-bulbs--inject-560"><path d="M265.9,399.8A34.57,34.57,0,1,0,270.15,458l7.69,4.12,14.33-26.69s-4.23-2.48-8.05-4.61A34.55,34.55,0,0,0,265.9,399.8Z" style="fill:#F26C9F"></path><path d="M283.6,451c-10.25-5.3-20.12-11.3-30.49-16.34-4.49-2.18-11.7-6.3-15.94-1.7-2.32,2.52-1.22,5.87.84,8.15a15.94,15.94,0,0,0,7.63,4.52A16.18,16.18,0,0,0,262,440.9a16.38,16.38,0,0,0,3.38-16.31c-2-5.31-6.87-10-12.66-10.71-2.45-.28-5.36.28-6.87,2.42-1.84,2.61-.52,5.68,1.45,7.75,2.32,2.44,5.49,4.23,8.33,6,3.19,2,6.45,3.92,9.73,5.8,6.54,3.76,13.17,7.37,19.64,11.26a1.25,1.25,0,0,0,1.26-2.16c-9.92-6-20.24-11.26-30-17.47a48.46,48.46,0,0,1-6.32-4.39c-1.69-1.49-3.94-4.6-1.07-6.19,4.27-2.37,10,1.69,12.34,5.06a13.77,13.77,0,0,1-12,21.71,14.53,14.53,0,0,1-7.31-2.53c-1.89-1.3-5.1-4.43-2.69-6.69,2.26-2.1,5.74-.7,8.17.3,1.91.78,3.78,1.68,5.63,2.59,10,4.94,19.48,10.68,29.36,15.79,1.42.74,2.69-1.42,1.26-2.16Z" style="fill:#fff"></path><g id="freepik--2ggvdetif--inject-560"><path d="M297.32,463a9.58,9.58,0,0,1,2.48-.92,2,2,0,0,0,1.44-1.05l2.87-5.38a2,2,0,0,0,0-1.93,3.79,3.79,0,0,1-.45-2.6Z" style="fill:#e0e0e0"></path></g><path d="M279.23,460.82c.11.06,9.18,3.31,12.64,4.55a4.47,4.47,0,0,0,4.23-.59,4.18,4.18,0,0,0,1.16-1.35l6.3-11.76s1.64-3.07-.42-5.07-11.52-8.9-11.52-8.9Z" style="fill:#e0e0e0"></path><rect x="284.07" y="454.48" width="24.56" height="1.39" rx="0.66" transform="translate(-244.66 503.39) rotate(-62.03)" style="fill:#e0e0e0"></rect><path d="M302.41,445.25a.74.74,0,0,0,0-.5.68.68,0,0,0-.41-.41.61.61,0,0,0-.73.16c-.61,1.1-1.45,2.77-2.53,4.8-2.15,4.07-5.11,9.67-8.39,15.86a.58.58,0,0,0,0,.53.54.54,0,0,0,.18.19.66.66,0,0,0,.26.11.53.53,0,0,0,.49-.15,3.4,3.4,0,0,0,.31-.52l1.18-2.23c.78-1.45,1.53-2.86,2.24-4.2l3.81-7.12,2.58-4.78.71-1.3.19-.33.07-.11s0,0-.05.12l-.17.34-.67,1.32c-.61,1.15-1.46,2.79-2.52,4.82s-2.35,4.45-3.77,7.14c-.71,1.34-1.45,2.75-2.23,4.21-.38.73-.78,1.47-1.18,2.22l-.15.29a1,1,0,0,1-.19.29.79.79,0,0,1-.7.21.89.89,0,0,1-.33-.14.77.77,0,0,1-.26-.28.76.76,0,0,1,0-.73l8.45-15.84c1.1-2,1.95-3.66,2.61-4.78a.68.68,0,0,1,.82-.16.69.69,0,0,1,.42.46A.61.61,0,0,1,302.41,445.25Z" style="fill:#263238"></path><rect x="280.93" y="453.07" width="25.54" height="1.39" rx="0.66" transform="translate(-244.81 500.3) rotate(-62.03)" style="fill:#e0e0e0"></rect><path d="M300,443.4a.7.7,0,0,0,0-.52.69.69,0,0,0-.44-.41.62.62,0,0,0-.73.23c-.63,1.2-1.52,2.9-2.63,5-2.23,4.23-5.31,10.05-8.71,16.48a.55.55,0,0,0,0,.54.64.64,0,0,0,.2.2.82.82,0,0,0,.27.1.59.59,0,0,0,.5-.2c.1-.16.2-.39.31-.57.41-.78.82-1.56,1.23-2.31q1.2-2.28,2.33-4.37c1.48-2.78,2.82-5.28,3.95-7.39l2.68-5,.74-1.34c.08-.15.15-.26.2-.35s.07-.12.07-.11a.67.67,0,0,1-.05.12l-.18.36-.7,1.37c-.63,1.19-1.52,2.9-2.62,5l-3.91,7.42L290.22,462,289,464.35c-.12.2-.19.39-.34.6a.77.77,0,0,1-.69.29.82.82,0,0,1-.36-.13.8.8,0,0,1-.28-.27.76.76,0,0,1,0-.76l8.77-16.45c1.13-2.11,2-3.8,2.69-5a.74.74,0,0,1,1.29.22A.59.59,0,0,1,300,443.4Z" style="fill:#263238"></path><rect x="277.98" y="451.65" width="26.17" height="1.39" rx="0.66" transform="translate(-244.96 497.22) rotate(-62.03)" style="fill:#e0e0e0"></rect><path d="M297.5,441.7a.67.67,0,0,0-.44-.93.62.62,0,0,0-.74.28l-2.68,5.12L284.72,463a.54.54,0,0,0,0,.55.51.51,0,0,0,.21.2.51.51,0,0,0,.28.09.54.54,0,0,0,.49-.24c.1-.17.21-.39.32-.59.42-.8.84-1.59,1.26-2.36l2.38-4.48,4-7.56c1.16-2.14,2.09-3.88,2.75-5.1l.76-1.37.2-.36a.86.86,0,0,1,.07-.12s0,.05-.05.13l-.18.37c-.17.33-.42.8-.72,1.4-.64,1.22-1.56,3-2.68,5.12l-4,7.59c-.75,1.43-1.55,2.93-2.37,4.48l-1.26,2.37c-.11.2-.2.39-.33.61a.79.79,0,0,1-.69.34,1.07,1.07,0,0,1-.37-.12.86.86,0,0,1-.29-.28.76.76,0,0,1,0-.77l9-16.84c1.16-2.14,2.09-3.88,2.75-5.1a.7.7,0,0,1,.83-.3.73.73,0,0,1,.48.46A.56.56,0,0,1,297.5,441.7Z" style="fill:#263238"></path><rect x="274.83" y="450.23" width="27.18" height="1.39" rx="0.66" transform="translate(-245.12 494.13) rotate(-62.03)" style="fill:#e0e0e0"></rect><path d="M295.1,439.84a.8.8,0,0,0,0-.54.79.79,0,0,0-.5-.41.63.63,0,0,0-.73.36c-.67,1.27-1.61,3.09-2.78,5.32l-9.26,17.5a.55.55,0,0,0,0,.57.67.67,0,0,0,.52.27.56.56,0,0,0,.48-.29l.33-.63c.45-.83.88-1.65,1.31-2.45L287,454.9c1.58-3,3-5.62,4.2-7.85l2.85-5.29.78-1.43c.09-.15.16-.27.21-.37s.07-.12.08-.12L295,440l-.19.38-.75,1.45-2.78,5.32c-1.18,2.25-2.59,4.91-4.15,7.87-.79,1.48-1.61,3-2.46,4.65-.43.8-.87,1.62-1.31,2.46l-.33.62a.79.79,0,0,1-.68.42A.77.77,0,0,1,282,463a.8.8,0,0,1-.32-.26.77.77,0,0,1,0-.8L291,444.5l2.85-5.29a.7.7,0,0,1,.83-.38.77.77,0,0,1,.52.45.63.63,0,0,1,0,.43A.5.5,0,0,1,295.1,439.84Z" style="fill:#263238"></path><path d="M270.4,459.9c.22.12,5.62,2.39,8.39,3.55a3.57,3.57,0,0,0,3.14-.17l1.42-.78,12.18-22.73-.14-1.6a3.6,3.6,0,0,0-1.63-2.73l-7.85-4.86Z" style="fill:#F26C9F"></path><g style="opacity:0.30000000000000004"><path d="M291.87,465a33.9,33.9,0,0,0,4.16-6.5c1-1.94,2.1-3.82,3.18-6,.8-1.56,1.48-3,2.24-4.59a4.93,4.93,0,0,0,.57-2Z"></path></g><g style="opacity:0.30000000000000004"><path d="M288.78,464.37a39.27,39.27,0,0,0,4.44-7c1.11-2.09,2.26-4.12,3.44-6.41.86-1.68,1.6-3.25,2.42-4.95a5.59,5.59,0,0,0,.65-2.13Z"></path></g><g style="opacity:0.30000000000000004"><path d="M286.16,463a39.54,39.54,0,0,0,4.44-7c1.11-2.1,2.26-4.12,3.43-6.42.86-1.68,1.6-3.25,2.43-4.94a5.55,5.55,0,0,0,.64-2.14Z"></path></g><g style="opacity:0.30000000000000004"><path d="M283.53,461.55a38.83,38.83,0,0,0,4.44-7c1.11-2.1,2.26-4.12,3.44-6.41.86-1.68,1.6-3.26,2.42-4.95a5.58,5.58,0,0,0,.65-2.14Z"></path></g><g style="opacity:0.30000000000000004"><path d="M270.4,459.9c.22.12,5.62,2.39,8.39,3.55a3.57,3.57,0,0,0,3.14-.17l1.42-.78,12.18-22.73-.14-1.6a3.6,3.6,0,0,0-1.63-2.73l-7.85-4.86Z"></path></g><path d="M294.56,436.59c.06,0-3.16,6.13-7.17,13.63s-7.32,13.56-7.38,13.53,3.16-6.14,7.18-13.64S294.51,436.56,294.56,436.59Z" style="fill:#263238"></path><path d="M285.91,430.58c.06,0-3.4,6.67-7.73,14.83s-7.89,14.76-7.95,14.73,3.4-6.67,7.73-14.84S285.85,430.55,285.91,430.58Z" style="fill:#263238"></path><g style="opacity:0.30000000000000004"><path d="M220.35,422.59c-1.6.4-3.63,2.06-3.14,7.82A36.55,36.55,0,0,0,232,457.26a11.1,11.1,0,0,0,4.14,2.09,4.71,4.71,0,0,0,4.35-1.09c1.75-1.8,1.12-4.92-.5-6.84s-4-3-6-4.5a20.37,20.37,0,0,1-8.3-16.42c0-2.16.33-4.52-.91-6.28A4.24,4.24,0,0,0,220.35,422.59Z" style="fill:#fff"></path></g><g style="opacity:0.30000000000000004"><path d="M276.27,424.06c1.15-.62,2.38-2.31.86-6.65a29.09,29.09,0,0,0-16.7-17.76,8.88,8.88,0,0,0-3.61-.78,3.76,3.76,0,0,0-3.13,1.7c-1,1.73.12,4,1.75,5.17s3.66,1.55,5.52,2.28a16.22,16.22,0,0,1,9.66,11c.41,1.66.64,3.54,1.95,4.66A3.38,3.38,0,0,0,276.27,424.06Z" style="fill:#fff"></path></g><path d="M417.91,460.05a43.85,43.85,0,1,0-64.58-36.24l-9.74,5.24,18.22,33.84s5.58-2.74,10.5-5.29A43.82,43.82,0,0,0,417.91,460.05Z" style="fill:#F26C9F"></path><path d="M351.32,442.62c12.56-7,25.59-13.18,38-20.46,2.58-1.52,5.15-3.08,7.57-4.84,3.09-2.25,6.17-5.3,5.92-9.45s-3.59-6.19-7.41-6a18.6,18.6,0,0,0-10.14,3.85,20.36,20.36,0,0,0-8.16,19.48,20.6,20.6,0,0,0,13.71,16.26c7,2.23,15.92.55,20.9-5.07,2.25-2.54,4-6.51,2.11-9.75s-5.88-3.48-9.18-2.75c-3.54.78-6.95,2.46-10.25,3.93-3.85,1.71-7.64,3.54-11.42,5.41-7.74,3.84-15.39,7.87-23.14,11.71q-2.61,1.31-5.25,2.56c-1.45.69-.18,2.85,1.27,2.16,13.53-6.45,26.6-13.86,40.32-19.91a47.44,47.44,0,0,1,9.3-3.49c2.84-.59,6.82-.07,6.63,3.69-.17,3.45-3.25,6.13-6,7.68a18.72,18.72,0,0,1-9.72,2.27,17.79,17.79,0,0,1-12.44-29.59,18.31,18.31,0,0,1,8.27-5.34c2.89-.87,7.66-1.28,8.12,2.77.43,3.76-3,6.36-5.77,8.24-2.09,1.45-4.27,2.77-6.46,4.06-11.25,6.6-23,12.32-34.47,18.52l-3.53,1.94a1.25,1.25,0,0,0,1.26,2.16Z" style="fill:#fff"></path><g id="freepik--2ggvdetif--inject-560"><path d="M329.05,449.06a11.77,11.77,0,0,1-.77,3.26,2.6,2.6,0,0,0,.11,2.26l3.68,6.81a2.59,2.59,0,0,0,2,1.36,4.88,4.88,0,0,1,3.07,1.35Z" style="fill:#e0e0e0"></path></g><path d="M344,431.47c-.14.07-9.92,7.38-13.66,10.18a5.7,5.7,0,0,0-2.33,4.89,5.22,5.22,0,0,0,.62,2.17l8,14.89s2.1,3.89,5.66,3.1c3.75-.82,17.47-6,17.47-6Z" style="fill:#e0e0e0"></path><rect x="337.14" y="437.95" width="1.77" height="31.14" rx="0.84" transform="translate(-175.65 216.7) rotate(-28.55)" style="fill:#e0e0e0"></rect><path d="M344.29,466.88a1,1,0,0,0,.5.38.93.93,0,0,0,.73-.14.8.8,0,0,0,.34-.89c-.74-1.42-1.92-3.48-3.31-6l-10.92-20a.71.71,0,0,0-.55-.36.66.66,0,0,0-.34.06,1,1,0,0,0-.3.19.69.69,0,0,0-.18.63,3.64,3.64,0,0,0,.34.69l1.53,2.81c1,1.84,2,3.62,2.88,5.31l4.86,9,3.26,6.08c.37.71.66,1.27.87,1.66l.22.44.07.15s0,0-.09-.14-.15-.24-.25-.42l-.92-1.63-3.34-6c-1.4-2.56-3.07-5.6-4.91-9q-1.39-2.54-2.9-5.3l-1.53-2.81-.19-.35a1.48,1.48,0,0,1-.18-.42,1,1,0,0,1,.26-.88,1.4,1.4,0,0,1,.39-.26,1,1,0,0,1,1.25.44l10.85,20c1.37,2.57,2.51,4.62,3.24,6.1a1,1,0,0,1-1.2,1.11A.73.73,0,0,1,344.29,466.88Z" style="fill:#263238"></path><rect x="340.49" y="435.52" width="1.77" height="32.39" rx="0.84" transform="translate(-174.38 218.08) rotate(-28.55)" style="fill:#e0e0e0"></rect><path d="M347.93,465.62a.91.91,0,0,0,.53.38.88.88,0,0,0,.75-.17.81.81,0,0,0,.27-.94L346,458.62c-2.91-5.33-6.91-12.66-11.34-20.75a.68.68,0,0,0-.58-.36.65.65,0,0,0-.34.07.85.85,0,0,0-.3.21.68.68,0,0,0-.13.67c.09.21.26.49.38.72l1.59,2.92q1.54,2.88,3,5.52l5,9.35c1.42,2.66,2.58,4.81,3.39,6.32l.9,1.72.23.46c.05.1.08.15.07.15l-.09-.14-.26-.44-.95-1.7-3.47-6.27c-1.45-2.66-3.18-5.82-5.1-9.32l-3-5.51-1.59-2.92c-.13-.26-.27-.46-.4-.77a1,1,0,0,1,.18-.94,1.08,1.08,0,0,1,.39-.29,1,1,0,0,1,.48-.1,1,1,0,0,1,.82.51l11.27,20.79c1.43,2.67,2.59,4.81,3.38,6.33a.89.89,0,0,1-.32,1,1,1,0,0,1-.81.16A.75.75,0,0,1,347.93,465.62Z" style="fill:#263238"></path><path d="M351.47,464.17l-15.06-27.68a.84.84,0,0,1,.34-1.14l.08,0a.84.84,0,0,1,1.13.33L353,463.32a.83.83,0,0,1-.33,1.14l-.08,0A.85.85,0,0,1,351.47,464.17Z" style="fill:#e0e0e0"></path><path d="M351.47,464.17a1,1,0,0,0,.54.38.89.89,0,0,0,.76-.2.79.79,0,0,0,.22-1L349.45,457l-11.61-21.24a.71.71,0,0,0-.6-.36.85.85,0,0,0-.35.08.75.75,0,0,0-.39.92c.12.23.27.5.41.75l1.62,3,3.06,5.65,5.18,9.57c1.46,2.72,2.64,4.92,3.46,6.47l.93,1.76.24.46c.05.11.08.16.07.17l-.1-.15c-.06-.12-.15-.26-.26-.45l-1-1.74-3.55-6.42-5.23-9.55-3.08-5.64-1.62-3c-.14-.26-.28-.49-.42-.78a1,1,0,0,1,.13-1,1.24,1.24,0,0,1,.38-.31,1.08,1.08,0,0,1,.5-.12,1,1,0,0,1,.84.52l11.53,21.28,3.47,6.47a.88.88,0,0,1-.27,1.09.94.94,0,0,1-.82.19A.77.77,0,0,1,351.47,464.17Z" style="fill:#263238"></path><rect x="347.18" y="430.87" width="1.77" height="34.47" rx="0.84" transform="translate(-171.83 220.84) rotate(-28.55)" style="fill:#e0e0e0"></rect><path d="M355.12,462.92a1,1,0,0,0,.57.39.9.9,0,0,0,.78-.24.79.79,0,0,0,.13-1l-3.68-6.67-12-22a.7.7,0,0,0-.62-.36.86.86,0,0,0-.65.36.71.71,0,0,0,0,.72c.15.26.29.53.43.79l1.68,3.1c1.11,2,2.17,4,3.18,5.86l5.37,9.93,3.6,6.7c.41.79.74,1.4,1,1.83l.24.48c.05.11.08.17.07.17l-.1-.15c-.06-.12-.15-.27-.27-.47-.24-.43-.57-1-1-1.8-.87-1.59-2.13-3.86-3.67-6.67s-3.39-6.17-5.43-9.9c-1-1.86-2.08-3.82-3.19-5.85-.55-1-1.12-2.05-1.69-3.1l-.43-.79a1,1,0,0,1,.42-1.35,1.08,1.08,0,0,1,.5-.15,1,1,0,0,1,.88.52l12,22.07,3.6,6.71a.91.91,0,0,1-.18,1.15,1,1,0,0,1-.84.23.83.83,0,0,1-.46-.29A.6.6,0,0,1,355.12,462.92Z" style="fill:#263238"></path><path d="M351.18,422.76c-.27.15-6.45,4.28-9.63,6.4a4.55,4.55,0,0,0-2,3.44l-.17,2,15.53,28.78,1.78,1a4.57,4.57,0,0,0,4,.19l10.64-4.9Z" style="fill:#F26C9F"></path><g style="opacity:0.30000000000000004"><path d="M330.79,441.93a42.79,42.79,0,0,0,4,8.93c1.34,2.46,2.57,4.9,4.07,7.54,1.09,1.93,2.16,3.68,3.3,5.58a6,6,0,0,0,1.71,2Z"></path></g><g style="opacity:0.30000000000000004"><path d="M333.6,439.09a49.37,49.37,0,0,0,4.32,9.6c1.44,2.65,2.77,5.28,4.38,8.13,1.18,2.08,2.32,4,3.54,6a7.16,7.16,0,0,0,1.81,2.18Z"></path></g><g style="opacity:0.30000000000000004"><path d="M336.92,437.29a49.24,49.24,0,0,0,4.33,9.61c1.44,2.64,2.77,5.28,4.38,8.12,1.17,2.09,2.32,4,3.53,6a7.16,7.16,0,0,0,1.81,2.18Z"></path></g><g style="opacity:0.30000000000000004"><path d="M340.25,435.5a49.45,49.45,0,0,0,4.32,9.61c1.44,2.64,2.77,5.27,4.38,8.12,1.18,2.09,2.32,4,3.54,6a6.69,6.69,0,0,0,1.81,2.17Z"></path></g><g style="opacity:0.30000000000000004"><path d="M351.18,422.76c-.27.15-6.45,4.28-9.63,6.4a4.55,4.55,0,0,0-2,3.44l-.17,2,15.53,28.78,1.78,1a4.57,4.57,0,0,0,4,.19l10.64-4.9Z"></path></g><path d="M358.94,464.63c-.07,0-4.28-7.63-9.4-17.12s-9.22-17.23-9.15-17.27,4.28,7.63,9.4,17.13S359,464.59,358.94,464.63Z" style="fill:#263238"></path><path d="M371.35,459.69c-.08,0-4.68-8.27-10.29-18.56s-10.09-18.67-10-18.72,4.68,8.27,10.29,18.56S371.43,459.64,371.35,459.69Z" style="fill:#263238"></path><g style="opacity:0.30000000000000004"><path d="M425.67,395.92c.7-2,.35-5.29-6.08-8.8a46.39,46.39,0,0,0-38.72-3.19,14.13,14.13,0,0,0-5.11,2.92,6,6,0,0,0-1.89,5.36c.68,3.11,4.43,4.64,7.59,4.26s6-2.08,9-3.2A25.86,25.86,0,0,1,413.6,396c2.26,1.52,4.54,3.51,7.28,3.43A5.38,5.38,0,0,0,425.67,395.92Z" style="fill:#fff"></path></g><g style="opacity:0.30000000000000004"><path d="M385,454c-.15,1.66.78,4.14,6.43,5.57a36.9,36.9,0,0,0,30.47-5.25,11.24,11.24,0,0,0,3.36-3.26,4.79,4.79,0,0,0,.38-4.5c-1.14-2.27-4.33-2.7-6.69-1.78s-4.2,2.79-6.27,4.25a20.57,20.57,0,0,1-18.4,2.52c-2-.72-4.2-1.8-6.28-1.19A4.25,4.25,0,0,0,385,454Z" style="fill:#fff"></path></g></g><g id="freepik--character-2--inject-560"><polygon points="354.35 428.26 350.44 461.97 335.67 459.72 334.68 426.5 354.35 428.26" style="fill:#ffbf9d"></polygon><path d="M335.62,453s9.91,8.41,15.44,2.23l1.09,3.29,4.34,23.15a3,3,0,0,1-1.93,3.51,2.82,2.82,0,0,1-3-.83c-4-4.52-18.65-21.23-18.35-23.32l.45-5.56a2.82,2.82,0,0,1,1.95-2.47Z" style="fill:#455a64"></path><g style="opacity:0.6000000000000001"><path d="M354,485.33l-20.69-26.19-.08,1.21a3.46,3.46,0,0,0,.87,2.77c1.64,2.65,6.26,8.64,17.34,21.26a2.82,2.82,0,0,0,2.56.95Z" style="fill:#fff"></path></g><g style="opacity:0.6000000000000001"><path d="M336.89,455.77a1.81,1.81,0,0,1,.32,2.36,1.66,1.66,0,0,1-2.28.34,1.93,1.93,0,0,1-.33-2.51,1.71,1.71,0,0,1,2.41-.08" style="fill:#fff"></path></g><path d="M348.46,472.31c.16.09.89-1.37,2.61-2.05s3.23-.22,3.28-.4-.32-.32-1-.46a4.35,4.35,0,0,0-2.54.27,4.47,4.47,0,0,0-2,1.62C348.47,471.86,348.39,472.28,348.46,472.31Z" style="fill:#263238"></path><path d="M350.21,476.3c.12.14,1.08-.73,2.56-1.05s2.71,0,2.77-.16-1.22-.85-2.9-.46S350.06,476.22,350.21,476.3Z" style="fill:#263238"></path><path d="M345.07,467.1c.12.15,1.6-1.19,3.86-1.89s4.21-.5,4.23-.69-2-.7-4.42.08S344.94,467,345.07,467.1Z" style="fill:#263238"></path><path d="M345.06,460.16c.06.17,1.66-.37,3.68-.3s3.59.69,3.66.52-1.47-1.1-3.64-1.15S345,460,345.06,460.16Z" style="fill:#263238"></path><path d="M349.89,459.89a2.42,2.42,0,0,0-.08-1.09,7.8,7.8,0,0,0-1.15-2.74,3.3,3.3,0,0,0-1.58-1.44,1.12,1.12,0,0,0-1.26.41,2,2,0,0,0-.3,1.34,4.12,4.12,0,0,0,4,3.44,4.7,4.7,0,0,0,4.33-3,1.72,1.72,0,0,0-.07-1.4,1.14,1.14,0,0,0-1.25-.48,4,4,0,0,0-1.74,1.19,8.61,8.61,0,0,0-1.66,2.44,2.76,2.76,0,0,0-.32,1,13.65,13.65,0,0,1,2.29-3.15,3.65,3.65,0,0,1,1.53-1,.6.6,0,0,1,.69.25,1.17,1.17,0,0,1,0,.92,4.18,4.18,0,0,1-3.78,2.59,3.59,3.59,0,0,1-3.42-2.87,1.46,1.46,0,0,1,.17-.95.63.63,0,0,1,.7-.23,2.93,2.93,0,0,1,1.35,1.19A11.32,11.32,0,0,1,349.89,459.89Z" style="fill:#263238"></path><path d="M295.82,454.82c.34-.52,3.44-11.8,3.44-11.8l-19.12-5.2-2.72,16.25Z" style="fill:#ffbf9d"></path><path d="M277.59,450.87l0,1.3s-21,8.58-21.31,12.75l41.59.3-.47-14.55C291.17,453.64,284.7,453.93,277.59,450.87Z" style="fill:#455a64"></path><g style="opacity:0.6000000000000001"><path d="M293.13,455.29a1.81,1.81,0,0,1,1.17,2,1.64,1.64,0,0,1-1.92,1.23,1.91,1.91,0,0,1-1.22-2.18,1.67,1.67,0,0,1,2.13-1" style="fill:#fff"></path></g><g style="opacity:0.6000000000000001"><path d="M297.85,465.22l-.12-3.5-39.82,1s-1.85.83-1.65,2.2Z" style="fill:#fff"></path></g><path d="M277.43,452.29c0,.22,1,.32,2,1s1.52,1.6,1.71,1.52-.11-1.32-1.33-2.14S277.38,452.1,277.43,452.29Z" style="fill:#263238"></path><path d="M273.05,454.16c-.05.2.83.57,1.51,1.48s.88,1.87,1.08,1.86.34-1.22-.53-2.33S273.06,454,273.05,454.16Z" style="fill:#263238"></path><path d="M270.54,459.63c.18,0,.47-1,0-2.19S269,455.79,269,456s.5.81.9,1.77S270.34,459.6,270.54,459.63Z" style="fill:#263238"></path><path d="M312.07,243.34s-13.85,55-22.77,109.52c-7.33,44.87-13.51,93.29-13.51,93.29l24.54,1.43s14.74-54.13,25-94.14c9.46-36.9,19.19-57.26,19.19-57.26l3.66-54.62Z" style="fill:#263238"></path><path d="M368.4,241.56s19,25.62,17.36,52.37c-.95,16-31.41,152.39-31.41,152.39H332l7.39-145.9-10.09-57.76Z" style="fill:#263238"></path><path d="M338.05,274.14c.14,0,.4,11.44.58,25.55s.21,25.57.06,25.57-.4-11.44-.58-25.56S337.91,274.14,338.05,274.14Z" style="fill:#455a64"></path><path d="M277.21,144.5l3.42,12.61,1.34,2.16s.84,6.94.83,8.41-2.4,9-2.4,9l3.83,7.09-12.08,3.79s-2.8-6.44-3.64-7.2-1.36-2.82-1.49-4.2-1.38-9.58-1.38-9.58-4.66-9.27-2.45-9.58a7.86,7.86,0,0,1,1.64.13s2.77,6.08,3.61,6.25l1.23-.61s-1.89-9.15-1.91-10.84.4-2.85,1.71-3c0,0,.95.45,1,.89s1.88,10.61,2.45,10.46.36-1.08.36-1.08-2.5-12.37-2.3-13.06a1.9,1.9,0,0,1,2.05-1.54l2.08,6.83s-.81-5.69.16-6.64A1.59,1.59,0,0,1,277.21,144.5Z" style="fill:#ffbf9d"></path><path d="M273,171.65c.1,0,.1-1.05.6-2.7a10.53,10.53,0,0,1,4-5.44l.17-.12,0-.19c-.15-.9-.31-1.85-.47-2.83v-.06l0-.06c-.18-.3-.37-.65-.55-1a10.93,10.93,0,0,1-1.13-3.64,3.93,3.93,0,0,1,.12-1.66,1.21,1.21,0,0,1,1-.86l-.2-.08c1.33,1.44,2.44,2.62,3.23,3.43a7.59,7.59,0,0,0,1.3,1.23,7.87,7.87,0,0,0-1.07-1.43c-.73-.87-1.78-2.11-3.07-3.58l-.08-.1h-.11a1.73,1.73,0,0,0-1.49,1.18,4.44,4.44,0,0,0-.19,1.92,11.37,11.37,0,0,0,1.17,3.86c.19.37.38.73.59,1.07l0-.12c.17,1,.33,1.93.49,2.83l.14-.3a10.39,10.39,0,0,0-4.07,5.85,8.59,8.59,0,0,0-.29,2.06C273,171.39,273,171.65,273,171.65Z" style="fill:#ff9a6c"></path><path d="M273.63,161.67c0-.16-1.87.25-3.85,1.4s-3.26,2.5-3.15,2.62,1.54-1,3.46-2.08S273.69,161.84,273.63,161.67Z" style="fill:#ff9a6c"></path><path d="M310.23,172.61a3.55,3.55,0,0,0-.1.79c-.05.59-.1,1.35-.17,2.29-.15,2-.26,4.86-.33,8.42-.13,7.11.2,16.94.91,27.77s1.33,20.62,1.46,27.73c.08,3.55.11,6.42.08,8.41,0,.94,0,1.7,0,2.29a3.57,3.57,0,0,0,0,.8,4,4,0,0,0,.08-.8c0-.59.07-1.35.11-2.29.1-2,.14-4.86.12-8.42,0-7.12-.57-16.94-1.28-27.76s-1.11-20.63-1.09-27.73c0-3.55.05-6.43.13-8.41,0-.94,0-1.7.05-2.29A3.8,3.8,0,0,0,310.23,172.61Z" style="fill:#263238"></path><path d="M323,92.31a17.94,17.94,0,0,0-6.66,15.19c.22,2.79,1,6-.82,8.1s-5.33,2.05-7,4.22c-2,2.55-.33,6.35-1.05,9.53a6.45,6.45,0,0,1-6.86,4.79,25.16,25.16,0,0,0,12.48,5.42l3.49-4.49c-1.32,1.57-1,4.08.31,5.68a10.59,10.59,0,0,0,5.22,3.1,32,32,0,0,0,28-4.55Z" style="fill:#263238"></path><path d="M375.44,117c-.7-2.14-1.87-4.12-2.34-6.32-1-4.73,1.29-10-1-14.3-1.64-3-5.11-4.51-8.4-5.53s-6.82-1.87-9.27-4.28c-1.8-1.77-2.82-4.21-4.61-6-2.56-2.53-6.33-3.38-9.92-3.6a21.46,21.46,0,0,0-10.81,1.75A11.83,11.83,0,0,0,322.43,87c-.29,1.77-.07,3.64-.63,5.35-.61,1.88-2.09,3.34-3,5.1a9.46,9.46,0,0,0,2.37,11.35l25.3,32.68c5.31,2,18.19-.42,22.3-4.34S377.2,122.35,375.44,117Z" style="fill:#263238"></path><path d="M358.64,97.47l-22.75-7.64c-7.37-1.36-13,7.41-14.06,14.83-1.15,8.24-2.24,18.35-1.74,24.61,1,12.58,10.43,14.89,10.43,14.89s-.14,1.82-.43,6.34l-.4,8.85c.35,3.47-2.93,12.82,0,14,13.29,5.29,26.19-12.05,28.92-16a.31.31,0,0,0-.37-.46c-1.1.42-2.74-.95-2.77-1l6.7-53.71A4.39,4.39,0,0,0,358.64,97.47Z" style="fill:#ffbf9d"></path><path d="M324.68,116.08a1.6,1.6,0,0,0,1.41,1.73,1.53,1.53,0,0,0,1.75-1.31,1.59,1.59,0,0,0-1.41-1.73A1.52,1.52,0,0,0,324.68,116.08Z" style="fill:#263238"></path><path d="M341.11,117.05a1.6,1.6,0,0,0,1.41,1.73,1.53,1.53,0,0,0,1.75-1.31,1.59,1.59,0,0,0-1.41-1.73A1.52,1.52,0,0,0,341.11,117.05Z" style="fill:#263238"></path><path d="M322.85,110.82c.17.3,1.65-.64,3.51-.37s3.05,1.54,3.29,1.31,0-.61-.54-1.2a4.33,4.33,0,0,0-2.58-1.37,4.27,4.27,0,0,0-2.85.63C323,110.25,322.76,110.69,322.85,110.82Z" style="fill:#263238"></path><path d="M339.52,112.2c.22.27,1.68-.79,3.68-.7s3.41,1.21,3.64,1-.1-.59-.72-1.12a4.86,4.86,0,0,0-2.9-1.09,4.74,4.74,0,0,0-2.94.89C339.65,111.62,339.41,112.08,339.52,112.2Z" style="fill:#263238"></path><path d="M333.26,124a11.45,11.45,0,0,0-2.75-.72c-.43-.08-.84-.2-.89-.5a2.25,2.25,0,0,1,.39-1.28c.5-1,1-2.1,1.55-3.23,2.17-4.61,3.77-8.42,3.58-8.5s-2.09,3.58-4.25,8.19l-1.5,3.26a2.58,2.58,0,0,0-.36,1.7,1.11,1.11,0,0,0,.67.7,3.42,3.42,0,0,0,.74.16A11.39,11.39,0,0,0,333.26,124Z" style="fill:#263238"></path><path d="M330.52,144.17a31.66,31.66,0,0,0,17-3.17s-4.85,8.41-17.2,6.29Z" style="fill:#ff9a6c"></path><path d="M338.88,128.18c-.24-.4-.16-1.09-.56-1.33a2.26,2.26,0,0,0-1.81.14,10.6,10.6,0,0,0-2.36,1.26c-.5.54-.32,1.08-.07,1.78h0c.19.72,1.3,1.28,2,1.41a3.34,3.34,0,0,0,2.1-.62,1.85,1.85,0,0,0,.88-1.53A1.77,1.77,0,0,0,338.88,128.18Z" style="fill:#ff9a6c"></path><path d="M339.67,105.49c.14.48,1.86.39,3.86.78s3.58,1.08,3.88.68c.13-.19-.12-.65-.74-1.16a6.6,6.6,0,0,0-2.82-1.23,6.48,6.48,0,0,0-3.07.12C340,104.92,339.62,105.26,339.67,105.49Z" style="fill:#263238"></path><path d="M323.9,104.55c.32.41,1.7.11,3.33.22s3,.49,3.32.11c.16-.19,0-.6-.6-1a5.39,5.39,0,0,0-5.36-.27C324,104,323.77,104.35,323.9,104.55Z" style="fill:#263238"></path><path d="M363.67,99.26c-1.15-1.77-3.21-2.67-5.18-3.43a114.11,114.11,0,0,0-26.34-6.71c-1.13,1.85-.09,4.36,1.6,5.71s3.87,1.88,5.9,2.63,4.1,1.93,4.94,3.92.13,4.64.91,6.8c1.34,3.73,6.54,4.93,7.86,8.66,1,2.82-.63,5.82-1,8.79a10.68,10.68,0,0,0,10.5,12.17q.93-16,1.85-32.05C364.8,103.53,364.88,101.13,363.67,99.26Z" style="fill:#263238"></path><path d="M385.19,126.25c-1.68-1.51-3.8-2.82-4.47-5-1-3.15,1.55-6.86-.08-9.73-1.49-2.62-5.87-2.48-7.25-5.16-1.08-2.09.16-3.93-.25-5.77s-3-3.44-4.88-3.22l-14.59,21.14c-1.35,7.1-2.72,10.87-1.19,15,.83,2.28,1.92,4.5,2.25,6.9s-.29,5.13-2.25,6.55c8.72.68,16.9-3.88,24.45-8.3l8-4.67a5.85,5.85,0,0,0,2.19-1.83C388.3,130.26,386.88,127.76,385.19,126.25Z" style="fill:#263238"></path><path d="M377.15,136.56a3.87,3.87,0,0,1-.93.18,8.08,8.08,0,0,1-2.72-.19,8.46,8.46,0,0,1-3.79-2,8.25,8.25,0,0,1-2.49-5.1,8.59,8.59,0,0,1,.28-3.35,14,14,0,0,1,1.62-3.24,12.87,12.87,0,0,0,1.67-3.36,4.33,4.33,0,0,0-.46-3.7c-.8-1.06-2.27-1.32-3.64-1.88a4,4,0,0,1-1.86-1.37,3.91,3.91,0,0,1-.6-2.29c0-1.6.7-3.06,1-4.55a5,5,0,0,0,0-2.22,3.13,3.13,0,0,0-1.26-1.77,8.67,8.67,0,0,0-4.42-1.18,9.42,9.42,0,0,1-4.49-1.32A8.51,8.51,0,0,1,352,95.84a14,14,0,0,1-1.14-4.18,19,19,0,0,0-.85-3.92,8.84,8.84,0,0,0-2.05-3.1,10.09,10.09,0,0,0-6-2.73,10,10,0,0,0-5.4,1.13,11.92,11.92,0,0,0-3.36,2.56,16.32,16.32,0,0,0-2.08,3,.77.77,0,0,1,.08-.22,5.74,5.74,0,0,1,.31-.64A11,11,0,0,1,333,85.46a12,12,0,0,1,3.38-2.68,10.09,10.09,0,0,1,11.86,1.56,9.08,9.08,0,0,1,2.18,3.24,20.32,20.32,0,0,1,.9,4,13.56,13.56,0,0,0,1.1,4,8.09,8.09,0,0,0,2.91,3.13,8.9,8.9,0,0,0,4.28,1.24,9.19,9.19,0,0,1,4.66,1.27,3.64,3.64,0,0,1,1.46,2.06,5.62,5.62,0,0,1,0,2.45c-.32,1.58-1,3-1,4.46a3.35,3.35,0,0,0,.51,2,3.54,3.54,0,0,0,1.64,1.21c.65.27,1.35.46,2,.75a4.06,4.06,0,0,1,1.8,1.29,4.74,4.74,0,0,1,.52,4.09,13,13,0,0,1-1.74,3.47,13.13,13.13,0,0,0-1.6,3.14,8.17,8.17,0,0,0-.31,3.19,8,8,0,0,0,2.34,4.93,8.29,8.29,0,0,0,3.64,2.06A9.3,9.3,0,0,0,377.15,136.56Z" style="fill:#455a64"></path><path d="M388.79,121.53a1.83,1.83,0,0,1,.28.71,3.09,3.09,0,0,1-.37,2.17,3.26,3.26,0,0,1-1.12,1.17,3.51,3.51,0,0,1-1.86.5,4.37,4.37,0,0,1-3.82-2.43,5.86,5.86,0,0,1-.62-2.66,8.17,8.17,0,0,1,.61-2.88c.69-1.89,1.95-3.73,2-5.94a4,4,0,0,0-1-3,4.41,4.41,0,0,0-3.17-1,10.53,10.53,0,0,1-3.77-.39,3.27,3.27,0,0,1-1.56-1.31,4.68,4.68,0,0,1-.63-1.92,14.94,14.94,0,0,1,.31-3.88,8.48,8.48,0,0,0-.2-3.59,9,9,0,0,0-4.06-5.33,12.75,12.75,0,0,0-6-1.38,18,18,0,0,1-5.52-.87,11.55,11.55,0,0,1-3.91-2.46,11.26,11.26,0,0,1-2.14-2.75,8.16,8.16,0,0,1-1-2.77,16,16,0,0,0,1.21,2.67,11.68,11.68,0,0,0,2.16,2.64,11.41,11.41,0,0,0,3.84,2.33,17.76,17.76,0,0,0,5.42.79A13.26,13.26,0,0,1,370,91.35a9.57,9.57,0,0,1,4.3,5.6,9,9,0,0,1,.22,3.8,15.41,15.41,0,0,0-.31,3.75,3.27,3.27,0,0,0,1.88,2.83,10.66,10.66,0,0,0,3.59.36,4.89,4.89,0,0,1,3.51,1.14,4.47,4.47,0,0,1,1.14,3.35,8.64,8.64,0,0,1-.8,3.25c-.43,1-.9,1.91-1.26,2.83a7.79,7.79,0,0,0-.61,2.73,5.46,5.46,0,0,0,.55,2.5,4.07,4.07,0,0,0,3.51,2.3,3.15,3.15,0,0,0,1.73-.42,3.19,3.19,0,0,0,1.07-1.06,3.13,3.13,0,0,0,.44-2C388.9,121.77,388.76,121.54,388.79,121.53Z" style="fill:#263238"></path><path d="M296.84,126.74a3.46,3.46,0,0,0,0,2.28,3,3,0,0,0,1.82,1.84,3.15,3.15,0,0,0,3.2-.87,3,3,0,0,0,.75-1.83,6.2,6.2,0,0,0-.34-2.21c-.46-1.48-1.4-3.08-1.26-5a7,7,0,0,1,2.65-5,8.24,8.24,0,0,1,2.72-1.43,12.11,12.11,0,0,1,3.11-.45,16.35,16.35,0,0,0,3-.31,4.05,4.05,0,0,0,2.34-1.46,4.9,4.9,0,0,0,.85-2.58,9.74,9.74,0,0,0-.22-2.7,20.53,20.53,0,0,1-.79-5.1,7.77,7.77,0,0,1,1.56-4.24,10.12,10.12,0,0,1,2.85-2.4,18.92,18.92,0,0,0,2.27-1.57,5.84,5.84,0,0,0,1.43-1.84s0,.06,0,.16a2.61,2.61,0,0,1-.17.42,4.77,4.77,0,0,1-1.09,1.41,17.81,17.81,0,0,1-2.25,1.66,9.75,9.75,0,0,0-2.71,2.38,7.41,7.41,0,0,0-1.42,4,20.35,20.35,0,0,0,.82,5,10.44,10.44,0,0,1,.25,2.82,5.54,5.54,0,0,1-.93,2.84,4.56,4.56,0,0,1-2.63,1.66,17.29,17.29,0,0,1-3.11.33,11.67,11.67,0,0,0-3,.42,7.78,7.78,0,0,0-2.55,1.34,6.57,6.57,0,0,0-2.5,4.68c-.16,1.76.72,3.3,1.2,4.85a6.5,6.5,0,0,1,.32,2.37,3.26,3.26,0,0,1-.88,2,3.44,3.44,0,0,1-3.56.9,3.19,3.19,0,0,1-1.9-2,3.28,3.28,0,0,1-.09-1.78A2,2,0,0,1,296.84,126.74Z" style="fill:#263238"></path><path d="M335.89,131.36a4.55,4.55,0,0,0,1.61-.31,2.44,2.44,0,0,0,1.17-1.2,2.55,2.55,0,0,0,0-2,1.42,1.42,0,0,0-.64-.73c-.25-.13-.53,0-.87.11l-1.73.69a6.35,6.35,0,0,1-1.66.51,5.48,5.48,0,0,1,1.51-.85l1.69-.79a1.51,1.51,0,0,1,1.26-.14,1.92,1.92,0,0,1,.91,1,2.86,2.86,0,0,1,0,2.43,2.64,2.64,0,0,1-1.46,1.34C336.55,131.78,335.85,131.4,335.89,131.36Z" style="fill:#263238"></path><path d="M345.86,121.42a1.83,1.83,0,0,0-.79-.33,15.56,15.56,0,0,0-1.75-.07,9,9,0,0,0-1.45.18,3.55,3.55,0,0,0-1.32.58,1,1,0,0,0-.41.6.77.77,0,0,0,.25.61,1.52,1.52,0,0,0,.61.3,6,6,0,0,0,2.32,0,8,8,0,0,0,2.16-.48,1.55,1.55,0,0,0,.48-.28.7.7,0,0,0,.26-.47A.74.74,0,0,0,345.86,121.42Z" style="fill:#ff9a6c"></path><path d="M325.91,121.19a1.07,1.07,0,0,0-.46-.46,7,7,0,0,0-1.19-.37,5.15,5.15,0,0,0-1-.08,2.13,2.13,0,0,0-1.05.34,1,1,0,0,0-.43.5.93.93,0,0,0,0,.64,1,1,0,0,0,.35.4,3.11,3.11,0,0,0,1.58.44,4.32,4.32,0,0,0,1.6-.09,1.2,1.2,0,0,0,.4-.18.82.82,0,0,0,.3-.42A.84.84,0,0,0,325.91,121.19Z" style="fill:#ff9a6c"></path><path d="M328.83,148.15,325.32,154,313.79,158S303,178.05,303.49,189s3.34,16.77,3.34,16.77l-.52,15S303,234,305.07,238.52a16.4,16.4,0,0,0,6,6.75l49.37.62s7.65-.42,9.72-6.33-4.94-46.41-4.94-46.41L376,165.39l-17.44-9.51-3.18-8.41-20.86,5.32Z" style="fill:#455a64"></path><path d="M285.68,180l4.55,16.81L299,166.65a13.82,13.82,0,0,1,8.08-8L325.32,154l-20.11,64.27-1.76,4.52a12.09,12.09,0,0,1-6.14,6.16c-7.34,3.31-16.6-.36-18.53-8.17l-10.13-36.13Z" style="fill:#455a64"></path><path d="M305.07,238.52s-.07-.09-.18-.3a3.23,3.23,0,0,1-.39-1,12.74,12.74,0,0,1-.37-3.9,67.69,67.69,0,0,1,2.12-13.63v.06c0-3.72-.09-7.82-.14-12.16l0,.11a35,35,0,0,1-1.43-3.45c-.45-1.13-.72-2.31-1.05-3.45s-.5-2.29-.62-3.43a35.25,35.25,0,0,1-.29-6.59,36.28,36.28,0,0,1,2.24-10.9,33.43,33.43,0,0,1,3.4-6.68c.48-.74.93-1.28,1.2-1.65A4,4,0,0,1,310,171a3,3,0,0,1-.37.61c-.24.39-.66.94-1.11,1.7a36.34,36.34,0,0,0-3.23,6.7,37.21,37.21,0,0,0-2.1,10.79,34.36,34.36,0,0,0,.32,6.5c.11,1.12.39,2.24.62,3.38s.59,2.28,1,3.39a35.42,35.42,0,0,0,1.41,3.4l0,.06v.06c0,4.34.07,8.44.09,12.16v.06a72.27,72.27,0,0,0-2.29,13.52,13.63,13.63,0,0,0,.23,3.85,3.8,3.8,0,0,0,.31,1A1.4,1.4,0,0,1,305.07,238.52Z" style="fill:#263238"></path><path d="M353.78,203a3.84,3.84,0,0,1-.91.6,8.26,8.26,0,0,1-1.13.59,14,14,0,0,1-1.56.67,21.94,21.94,0,0,1-4.26,1.13,23.65,23.65,0,0,1-10.7-.77,21.79,21.79,0,0,1-4.06-1.73,14.93,14.93,0,0,1-1.45-.88,9.68,9.68,0,0,1-1-.74,4.17,4.17,0,0,1-.81-.72c.06-.09,1.26.9,3.46,2a24.71,24.71,0,0,0,4,1.59,27.34,27.34,0,0,0,5.2.95,26.72,26.72,0,0,0,5.29-.2,24,24,0,0,0,4.21-1C352.4,203.67,353.73,202.87,353.78,203Z" style="fill:#263238"></path><path d="M399.89,139.78c-.14,0,1.21-10.55,3-23.53s3.38-23.47,3.52-23.45-1.2,10.55-3,23.52S400,139.8,399.89,139.78Z" style="fill:#263238"></path><path d="M413.86,148.52c-.11-.09,8.07-10.27,18.26-22.72s18.55-22.48,18.66-22.39-8.06,10.26-18.26,22.72S414,148.61,413.86,148.52Z" style="fill:#263238"></path><path d="M429.49,158.94c-.05-.13,8.12-3.07,18.25-6.56s18.37-6.2,18.42-6.07-8.12,3.08-18.25,6.56S429.54,159.08,429.49,158.94Z" style="fill:#263238"></path><path d="M396,172.51c-3.74-6.5-10.6-13-10.6-13l-11,38.51,28.69,23.39-20,21,6,14.12s2.56-1.72,6.39-4.48c.9-.65,4.26.39,5.28-.37,11.36-8.36,26.81-24.38,27.81-32.14C430.29,206.27,402.15,183.18,396,172.51Z" style="fill:#455a64"></path><path d="M419.35,221c-.06.07-.84-.58-2.29-1.28a12.65,12.65,0,0,0-12,.48c-1.39.81-2.11,1.52-2.18,1.45s.14-.22.46-.55a10.22,10.22,0,0,1,1.53-1.22,12,12,0,0,1,12.34-.49,9.94,9.94,0,0,1,1.61,1.09C419.2,220.76,419.37,221,419.35,221Z" style="fill:#263238"></path><path d="M417.3,199.76a52.21,52.21,0,1,0-81.94,32.55l-2.45,12.94,44.95,8.52s1.65-7.21,3-13.68A52.18,52.18,0,0,0,417.3,199.76Z" style="fill:#F26C9F"></path><path d="M351,248.39c2.91-16.78,6.94-33.34,9.52-50.18.52-3.41,1-6.85,1.24-10.3.32-4.73,0-10.08-4.19-13.13s-8.72-.85-11.3,3a22.87,22.87,0,0,0-3.51,12.86A23.8,23.8,0,0,0,356.18,212a24.12,24.12,0,0,0,25-2.45c6.69-5.23,11.37-15,8.94-23.52-1.05-3.64-3.72-7.33-7.85-7.4s-7,3.68-8.55,7.17a82.38,82.38,0,0,0-3.86,12.3c-1.27,4.77-2.39,9.57-3.47,14.39-2.22,9.9-4.2,19.86-6.42,29.77q-.73,3.27-1.52,6.54c-.38,1.56,2,2.23,2.41.66,4.19-17.38,7.14-35.07,11.85-52.33,1-3.73,1.92-7.71,3.69-11.17,1.48-2.9,4.56-6.36,8.09-4.16,3.14,2,3.87,6.41,3.67,9.79A22,22,0,0,1,384,203a21.42,21.42,0,0,1-38.1-7.26,22.36,22.36,0,0,1,.31-12c1.06-3.4,3.86-9.17,8.34-7.76,4.83,1.52,5,7.57,4.7,11.69-.2,3-.59,6.06-1,9.07-2.32,15.53-5.89,30.84-8.79,46.27-.29,1.56-.58,3.12-.85,4.68s2.14,2.25,2.41.67Z" style="fill:#fff"></path><g id="freepik--2ggvdetif--inject-560"><path d="M340.51,273.7a14.22,14.22,0,0,1,2.44,3.16,3.07,3.07,0,0,0,2.17,1.59l9.05,1.7a3.08,3.08,0,0,0,2.79-.86,5.75,5.75,0,0,1,3.54-1.82Z" style="fill:#e0e0e0"></path></g><path d="M335.46,246.66c0,.18-.6,14.71-.81,20.26a6.76,6.76,0,0,0,2.77,5.83,6.23,6.23,0,0,0,2.47,1.05l19.79,3.73s5.17,1,7.12-2.9c2.05-4.09,7.59-20.63,7.59-20.63Z" style="fill:#e0e0e0"></path><rect x="350.3" y="250.2" width="2.11" height="37.08" rx="1" transform="translate(23.18 565.36) rotate(-79.52)" style="fill:#e0e0e0"></rect><path d="M368.42,273a1.14,1.14,0,0,0,.72-.18,1,1,0,0,0,.41-.78.93.93,0,0,0-.56-1c-1.87-.38-4.66-.84-8.06-1.46l-26.66-4.88a.81.81,0,0,0-.75.24.94.94,0,0,0-.2.35,1.55,1.55,0,0,0-.05.42.84.84,0,0,0,.45.64,4.86,4.86,0,0,0,.89.21l3.74.69,7.08,1.32,12,2.25,8.07,1.55,2.19.44.56.12a.91.91,0,0,1,.2.05.6.6,0,0,1-.2,0l-.58-.09-2.2-.37-8.08-1.44-12-2.18-7.08-1.3-3.74-.69-.48-.09a1.82,1.82,0,0,1-.51-.15,1.16,1.16,0,0,1-.62-.9,1.64,1.64,0,0,1,.05-.55,1.18,1.18,0,0,1,.28-.5,1.19,1.19,0,0,1,1.06-.34l26.64,5c3.41.66,6.16,1.14,8.08,1.58a1.14,1.14,0,0,1,.13,1.93A.85.85,0,0,1,368.42,273Z" style="fill:#263238"></path><rect x="351.14" y="245.01" width="2.11" height="38.57" rx="1" transform="translate(28.25 562.54) rotate(-79.52)" style="fill:#e0e0e0"></rect><path d="M370,268.66a1.21,1.21,0,0,0,.74-.21,1.06,1.06,0,0,0,.4-.82.94.94,0,0,0-.67-.95l-8.39-1.51-27.69-5.07a.82.82,0,0,0-.77.27.73.73,0,0,0-.19.37,1.12,1.12,0,0,0,0,.44.81.81,0,0,0,.52.61c.26.08.64.13,1,.2l3.88.72,7.35,1.37,12.44,2.34,8.38,1.6,2.28.45.59.13a.63.63,0,0,1,.2.06l-.21,0-.6-.1-2.28-.39-8.4-1.5-12.45-2.26L338.69,263l-3.88-.72c-.34-.07-.64-.1-1-.21a1.17,1.17,0,0,1-.73-.87,1.35,1.35,0,0,1,0-.57,1.15,1.15,0,0,1,.26-.53,1.18,1.18,0,0,1,1.09-.37l27.67,5.17c3.54.67,6.4,1.21,8.39,1.61a1.05,1.05,0,0,1,.73,1.09,1.12,1.12,0,0,1-.46.87A.91.91,0,0,1,370,268.66Z" style="fill:#263238"></path><path d="M371.29,264.29l-36.89-6.82a1,1,0,0,1-.8-1.17l0-.1a1,1,0,0,1,1.16-.8l36.89,6.82a1,1,0,0,1,.8,1.16l0,.11A1,1,0,0,1,371.29,264.29Z" style="fill:#e0e0e0"></path><path d="M371.29,264.29a1.1,1.1,0,0,0,.76-.21,1.06,1.06,0,0,0,.39-.85,1,1,0,0,0-.74-.94l-8.6-1.53-28.35-5.2a.84.84,0,0,0-1,.67,1,1,0,0,0,0,.45.83.83,0,0,0,.56.6l1,.19,4,.74,7.52,1.4L359.57,262l8.58,1.64,2.33.47.61.13.2.05-.21,0-.61-.1-2.34-.4-8.6-1.53-12.75-2.32-7.52-1.39-4-.73c-.35-.07-.66-.11-1-.2a1.16,1.16,0,0,1-.79-.84,1.21,1.21,0,0,1,1.36-1.53l28.34,5.29,8.58,1.65a1,1,0,0,1,.81,1.06,1.13,1.13,0,0,1-.45.9A.86.86,0,0,1,371.29,264.29Z" style="fill:#263238"></path><rect x="352.82" y="234.87" width="2.11" height="41.04" rx="1" transform="translate(38.37 556.91) rotate(-79.52)" style="fill:#e0e0e0"></rect><path d="M372.88,260a1.12,1.12,0,0,0,.78-.23,1.13,1.13,0,0,0,.37-.9,1,1,0,0,0-.86-.89l-8.92-1.6L334.84,251a.84.84,0,0,0-.8.31,1,1,0,0,0-.16.87.84.84,0,0,0,.65.56l1.05.2,4.13.76,7.8,1.46,13.21,2.48,8.9,1.7,2.42.48.63.13a.64.64,0,0,1,.21.06l-.22,0-.63-.1-2.43-.42-8.92-1.6-13.22-2.4L339.65,254l-4.13-.76-1-.19a1.2,1.2,0,0,1-.91-.79,1.31,1.31,0,0,1,0-.62,1.25,1.25,0,0,1,.24-.57,1.18,1.18,0,0,1,1.14-.43l29.38,5.49,8.91,1.7a1.08,1.08,0,0,1,.93,1,1.17,1.17,0,0,1-.42.95,1,1,0,0,1-.61.21A.61.61,0,0,1,372.88,260Z" style="fill:#263238"></path><path d="M332.78,233.51c-.07.37-.89,9.18-1.31,13.7a5.49,5.49,0,0,0,1.67,4.45l1.78,1.69,38.26,7.21,2.23-.91a5.46,5.46,0,0,0,3.2-3.59l3.44-13.51Z" style="fill:#F26C9F"></path><g style="opacity:0.30000000000000004"><path d="M335.21,266.74a51,51,0,0,0,11.24,3c3.27.6,6.46,1.3,10,1.89,2.61.44,5,.76,7.63,1.13a7.21,7.21,0,0,0,3.14-.08Z"></path></g><g style="opacity:0.30000000000000004"><path d="M334.69,262a59,59,0,0,0,12.13,3.2c3.52.65,7,1.39,10.8,2,2.81.48,5.41.83,8.22,1.25a8.32,8.32,0,0,0,3.37,0Z"></path></g><g style="opacity:0.30000000000000004"><path d="M335.53,257.6a58.7,58.7,0,0,0,12.12,3.2c3.53.65,7,1.39,10.8,2,2.81.48,5.41.83,8.23,1.25a8.34,8.34,0,0,0,3.37,0Z"></path></g><g style="opacity:0.30000000000000004"><path d="M336.36,253.18a58.79,58.79,0,0,0,12.13,3.2c3.52.65,7,1.4,10.79,2,2.82.48,5.42.83,8.23,1.25a8.32,8.32,0,0,0,3.37,0Z"></path></g><g style="opacity:0.30000000000000004"><path d="M332.78,233.51c-.07.37-.89,9.18-1.31,13.7a5.49,5.49,0,0,0,1.67,4.45l1.78,1.69,38.26,7.21,2.23-.91a5.46,5.46,0,0,0,3.2-3.59l3.44-13.51Z"></path></g><path d="M377.32,257.73c0,.09-10.26-1.76-22.89-4.14s-22.84-4.39-22.83-4.48,10.27,1.76,22.9,4.14S377.34,257.64,377.32,257.73Z" style="fill:#263238"></path><path d="M382.05,242.55c0,.1-11.15-1.87-24.87-4.4s-24.84-4.67-24.82-4.78,11.15,1.87,24.87,4.4S382.07,242.44,382.05,242.55Z" style="fill:#263238"></path><g style="opacity:0.30000000000000004"><path d="M363.8,144.5c-1.31-2.13-4.63-4.29-12.7-1a55.25,55.25,0,0,0-32,33.42,16.82,16.82,0,0,0-1.13,6.92,7.16,7.16,0,0,0,3.54,5.76c3.39,1.7,7.61-.62,9.63-3.82s2.57-7.1,3.77-10.69A30.77,30.77,0,0,1,354.8,155.7c3.12-.95,6.66-1.57,8.63-4.15A6.39,6.39,0,0,0,363.8,144.5Z" style="fill:#fff"></path></g><g style="opacity:0.30000000000000004"><path d="M387.05,225.7c1.43,1.38,4.42,2.38,10-1.78a43.92,43.92,0,0,0,18-32.11,13.3,13.3,0,0,0-.5-5.55,5.67,5.67,0,0,0-3.88-3.73c-2.94-.64-5.74,2-6.66,4.86s-.56,6-.77,9a24.53,24.53,0,0,1-11.45,18.91c-2.21,1.35-4.82,2.53-5.83,4.92A5.1,5.1,0,0,0,387.05,225.7Z" style="fill:#fff"></path></g><path d="M382.2,244.18s-5.92-2.67-7.82-2.92-8.08-.08-10.49-1.15a1.59,1.59,0,0,0,.26,2.72,17.86,17.86,0,0,0,6.79,2.51c1.6.13,1.35,1.32.35,1.92s-8.45,3.54-8.45,3.54-8.93,2.06-9.47,3.12a1.61,1.61,0,0,0,1.1,2.27c.57.07,8.38-1,8.38-1l3.86-1.29s-11.83,4.83-12.32,6a1.39,1.39,0,0,0,1,2c.71.24,5.91-1.94,5.91-1.94l7.2-2.46-12.64,6.65s-1.11.78-.65,1.74,2.18.83,2.18.83L371,261s-7.42,3.49-7.53,4.18c-.15.92.34,1.42,1,1.33,1.36-.18,8.16-3.09,8.16-3.09l12.61-6.13,3.3-1.37-5-12.51Z" style="fill:#ffbf9d"></path></g><g id="freepik--character-1--inject-560"><path d="M196.62,145.73l8.67-4.64c.61-1.71,6.15-7.38,7.48-8.92.9-1,1.86-2.06,2.4-2.61a.57.57,0,0,1,.88.05,3.41,3.41,0,0,1,.49,3.14c-.71,2.32-3,6.27-2.7,6s21.16-1.54,21.57-.35c.8,2.36-1,2.32-1,2.32l-9.39,1.75s-.72.39.37.77,11.2.44,11.36,2.14-.1,2.26-1.59,2.38-9.55-.23-10.06.05,10.33,3.25,9.1,5.56-2,1.5-4.48.63-6.66-2.61-7.13-2.09,7.66,7,7.56,7.65-.2,2-1.54,1.65-6.11-4.42-8-4.91-10.75-1.87-11.21-1.48l-8.47,4Z" style="fill:#ae7461"></path><path d="M209.52,149.67s.22-.13.58-.33a4.51,4.51,0,0,0,1.26-1.24,12.34,12.34,0,0,0,2-5.54,4.43,4.43,0,0,0-.38-2.82l-.09-.14.06-.12c.75-1.45,1.51-2.59,2-3.43a9.68,9.68,0,0,1,.78-1.33,4.1,4.1,0,0,1-.52,1.46c-.4.9-1.11,2.08-1.8,3.51l0-.26a4.73,4.73,0,0,1,.52,3.19,11.57,11.57,0,0,1-2.24,5.7,4.18,4.18,0,0,1-1.46,1.2C209.77,149.68,209.52,149.7,209.52,149.67Z" style="fill:#6f4439"></path><polygon points="196.06 143.85 200.98 141.99 209.07 157.59 202.68 160.21 196.06 143.85" style="fill:#e0e0e0"></polygon><path d="M123.34,133.1c1,0,41.35,20.37,38.86,19l1.58.66,32.07-9.63L204,161.39S179.22,174.25,173.65,177c-4,2-4.82,2-10.22,1.63C160.24,178.48,136,171,136,171Z" style="fill:#455a64"></path><path d="M168.18,171.51a13,13,0,0,1-1-2.64c-.54-1.65-1.21-4-1.8-6.57s-1-5-1.18-6.72a12.86,12.86,0,0,1-.19-2.82,19.48,19.48,0,0,1,.56,2.77c.3,1.71.74,4.07,1.32,6.65s1.19,4.91,1.65,6.59A18.86,18.86,0,0,1,168.18,171.51Z" style="fill:#263238"></path><path d="M80.61,102.32a84.4,84.4,0,0,1-4.22-14.11A29.73,29.73,0,0,1,77,73.63c.23-.71,2.27-5.47,3-5.42.53,0-.68,4.45-.39,4.9,2.71,4.29,3.6,9.55,3.37,14.63a66.31,66.31,0,0,1-2.42,14.58" style="fill:#263238"></path><path d="M82.19,128.49l-1.8-44.61c-.84-12.29,4.67-23.33,17-23.83l1.34,0a21.83,21.83,0,0,1,21.41,20.45c.68,10.71,1.29,22.61,1.12,28.36C120.89,120.7,109,122.33,109,122.33s.5,8.58.59,12c0,0-1.25.91-12.27,1.3S82.19,128.49,82.19,128.49Z" style="fill:#ae7461"></path><path d="M109,122.33a28.54,28.54,0,0,1-15.32-4.82s3.6,8.67,15.42,7.81Z" style="fill:#6f4439"></path><path d="M114.83,91.82a1.68,1.68,0,0,1-1.66,1.67,1.6,1.6,0,0,1-1.71-1.55,1.7,1.7,0,0,1,1.66-1.68A1.62,1.62,0,0,1,114.83,91.82Z" style="fill:#263238"></path><path d="M98,91.82a1.68,1.68,0,0,1-1.66,1.67,1.61,1.61,0,0,1-1.71-1.55,1.7,1.7,0,0,1,1.66-1.68A1.62,1.62,0,0,1,98,91.82Z" style="fill:#263238"></path><path d="M117.13,87c-.21.22-1.47-.75-3.29-.78s-3.17.86-3.36.64.13-.5.71-.91a4.71,4.71,0,0,1,2.7-.78,4.47,4.47,0,0,1,2.62.9C117.06,86.54,117.24,86.94,117.13,87Z" style="fill:#263238"></path><path d="M99.64,87.5c-.21.22-1.48-.75-3.3-.78s-3.16.86-3.35.64.12-.5.71-.91a4.67,4.67,0,0,1,2.69-.78,4.47,4.47,0,0,1,2.62.9C99.56,87,99.74,87.41,99.64,87.5Z" style="fill:#263238"></path><path d="M106.06,101.35a12.64,12.64,0,0,1,3-.48c.46,0,.9-.12,1-.44a2.39,2.39,0,0,0-.29-1.38c-.42-1.13-.85-2.31-1.31-3.56-1.82-5.06-3.13-9.22-2.92-9.29s1.84,4,3.66,9c.44,1.25.86,2.44,1.25,3.58a2.65,2.65,0,0,1,.21,1.82,1.16,1.16,0,0,1-.77.67,3.41,3.41,0,0,1-.79.09A11.16,11.16,0,0,1,106.06,101.35Z" style="fill:#263238"></path><path d="M99.65,81c-.22.48-2,.08-4.16.15s-3.91.49-4.16,0c-.1-.22.24-.66,1-1.07a6.9,6.9,0,0,1,3.16-.8,7,7,0,0,1,3.18.67C99.39,80.36,99.75,80.79,99.65,81Z" style="fill:#263238"></path><path d="M117.85,80.23c-.28.49-1.79.38-3.51.73s-3.1,1-3.52.61c-.19-.18,0-.63.5-1.15a5.54,5.54,0,0,1,2.7-1.28,5.43,5.43,0,0,1,3,.21C117.68,79.63,118,80,117.85,80.23Z" style="fill:#263238"></path><path d="M81.2,92.57c-.2-.09-8.08-2.54-8,5.55s8.21,6.3,8.22,6.07S81.2,92.57,81.2,92.57Z" style="fill:#ae7461"></path><path d="M78.81,101.19s-.14.1-.37.22a1.44,1.44,0,0,1-1.06,0c-.86-.3-1.6-1.65-1.66-3.1a4.74,4.74,0,0,1,.37-2,1.62,1.62,0,0,1,1-1.09.71.71,0,0,1,.84.37c.11.23.06.39.11.4s.17-.14.1-.47a.93.93,0,0,0-.33-.5,1.06,1.06,0,0,0-.78-.2,2,2,0,0,0-1.45,1.28,4.72,4.72,0,0,0-.46,2.26c.08,1.63.93,3.14,2.11,3.46a1.48,1.48,0,0,0,1.28-.23C78.8,101.39,78.84,101.21,78.81,101.19Z" style="fill:#6f4439"></path><path d="M114.58,67.43c1.3-.75-2.73-4.9-6-6.28-4.92-2.1-12.37-3.28-16.83-1.91C86.41,60.9,82,63.69,79.4,68.67A31.73,31.73,0,0,0,76.2,85a9.69,9.69,0,0,0,1.26,4.92c1.17,1.76,3.36,2.84,3.33,5.31a3.38,3.38,0,0,0,.89,2.45c1.52,1.54,3.3,0,4.09-1.49,1.71-3.21,1.82-7,1.89-10.63A23.82,23.82,0,0,0,87,77.87c-.43-1.34-1.09-2.6-1.45-4a4.89,4.89,0,0,1,.48-4,5.32,5.32,0,0,1,.64-.68A8.45,8.45,0,0,1,95,67.39c4.59,1.51,12.42,3.73,14.42,2.14,2.87-2.29,3.54-3.76,3.54-3.76Z" style="fill:#263238"></path><path d="M100.53,102.4a.92.92,0,0,0-.56-.17.81.81,0,0,0-.54.51,3.94,3.94,0,0,0,3.66,5.72,3.91,3.91,0,0,0,3.37-3.11C104.5,104.23,102.48,103.52,100.53,102.4Z" style="fill:#6f4439"></path><path d="M103.8,108.34a2.82,2.82,0,0,1-2.41,0,3.69,3.69,0,0,1-2-1.79,3.94,3.94,0,0,1-.1-3.3,2.69,2.69,0,0,1,.49-.78,1.21,1.21,0,0,1,.93-.39,2.09,2.09,0,0,1,.83.31l.65.37,2.26,1.29a11.81,11.81,0,0,1,2,1.3,10,10,0,0,1-2.19-1L102,103.18a5.21,5.21,0,0,0-1.29-.59c-.36,0-.71.39-.91.87a3.59,3.59,0,0,0,.06,2.88,3.44,3.44,0,0,0,1.72,1.66A5.28,5.28,0,0,0,103.8,108.34Z" style="fill:#263238"></path><path d="M104.43,426.56l-1.08,24.69s24.74,9.39,25,14l-48-.37.11-38.54Z" style="fill:#455a64"></path><path d="M88.54,449.06a2,2,0,0,0-1.37,2.22,1.88,1.88,0,0,0,2.19,1.38,2,2,0,0,0,1.44-2.36,2,2,0,0,0-2.44-1.18" style="fill:#e0e0e0"></path><g style="opacity:0.6000000000000001"><path d="M80.38,464.85l.16-3.89,45.92,1.82s2.13.94,1.87,2.44Z" style="fill:#fff"></path></g><path d="M104.13,451c0,.24-1.18.33-2.34,1.08s-1.78,1.72-2,1.63.14-1.45,1.56-2.32S104.19,450.8,104.13,451Z" style="fill:#263238"></path><path d="M109.15,453.13c0,.23-1,.62-1.77,1.6s-1,2-1.28,2-.37-1.34.65-2.54S109.14,452.91,109.15,453.13Z" style="fill:#263238"></path><path d="M112,459.17c-.22.05-.53-1.12.08-2.4s1.71-1.78,1.8-1.58-.58.87-1.07,1.93S112.19,459.15,112,459.17Z" style="fill:#263238"></path><path d="M103.75,445.36c-.1.21-1.17-.12-2.49,0s-2.36.49-2.48.29.88-1,2.44-1.11S103.87,445.17,103.75,445.36Z" style="fill:#263238"></path><path d="M178.94,426.56l-1.08,24.69s24.74,9.39,25,14l-48-.37.1-38.54Z" style="fill:#455a64"></path><path d="M163.05,449.06a2,2,0,0,0-1.37,2.22,1.88,1.88,0,0,0,2.19,1.38,2.07,2.07,0,0,0,1.44-2.36,2,2,0,0,0-2.44-1.18" style="fill:#e0e0e0"></path><g style="opacity:0.6000000000000001"><path d="M154.89,464.85l.16-3.89L201,462.78s2.12.94,1.87,2.44Z" style="fill:#fff"></path></g><path d="M178.64,451c0,.24-1.18.33-2.34,1.08s-1.78,1.72-2,1.63.14-1.45,1.56-2.32S178.69,450.8,178.64,451Z" style="fill:#263238"></path><path d="M183.65,453.13c0,.23-1,.62-1.77,1.6s-1,2-1.27,2-.37-1.34.65-2.54S183.65,452.91,183.65,453.13Z" style="fill:#263238"></path><path d="M186.46,459.17c-.21.05-.53-1.12.08-2.4s1.71-1.78,1.81-1.58-.58.87-1.07,1.93S186.7,459.15,186.46,459.17Z" style="fill:#263238"></path><path d="M178.26,445.36c-.1.21-1.17-.12-2.49,0s-2.36.49-2.48.29.87-1,2.43-1.11S178.38,445.17,178.26,445.36Z" style="fill:#263238"></path><path d="M82.23,252.24s1.85,75.57,0,84.79-4.91,47.31-4.91,75.57,1.19,34.7,1.19,34.7h27.43s1.9-53.73,10.37-84.81c7.86-28.87,16.92-72.77,16.92-91.82v-25.8H84.69Z" style="fill:#263238"></path><path d="M148.59,244.87s28.78,79.87,30.63,103.22,1.93,99.21,1.93,99.21H152.74L149,355.67,127.09,296.3V244.87Z" style="fill:#263238"></path><path d="M133.23,287.88a12.88,12.88,0,0,1-.35,2.17l-1.14,5.89c-1,5.11-2.29,11.91-3.72,19.43s-2.85,14.45-4,19.39c-.55,2.48-1,4.47-1.39,5.84a11.41,11.41,0,0,1-.65,2.11,12.72,12.72,0,0,1,.35-2.17c.3-1.54.69-3.51,1.15-5.89l3.72-19.43c1.47-7.59,2.85-14.45,3.95-19.39.54-2.48,1-4.47,1.38-5.84A11.69,11.69,0,0,1,133.23,287.88Z" style="fill:#455a64"></path><path d="M159.49,280.14h6.08s1.4-21.07-2.12-35.27-21.46-76-21.46-76L123.34,133.1l-11.89-1.91,35,117.4Z" style="fill:#455a64"></path><path d="M122.05,145.94S155.76,232.69,158.8,247s4.63,33.15,4.63,33.15h-3.94L144,242.5s-14-61-13.31-60.84S122.05,145.94,122.05,145.94Z" style="opacity:0.30000000000000004"></path><path d="M144.88,178.83a7.77,7.77,0,0,1-.47-1.43c-.25-.93-.63-2.27-1.12-3.93-1-3.3-2.44-7.84-4.4-12.71a128.24,128.24,0,0,0-5.67-12.21c-.81-1.52-1.49-2.73-2-3.58a7.88,7.88,0,0,1-.7-1.33,8.2,8.2,0,0,1,.87,1.23c.53.81,1.26,2,2.12,3.51a103,103,0,0,1,5.82,12.18,113.33,113.33,0,0,1,4.27,12.81c.45,1.67.78,3,1,4A8.61,8.61,0,0,1,144.88,178.83Z" style="fill:#263238"></path><path d="M78,129.92l1.65-10.45L109,132.64v-6.4l13,21.64,26.54,80.48c.56,1.5,2.41,6.25,1.83,9.73a10.43,10.43,0,0,1-4.9,7.18h0l-27.82,3.6L88.32,143Z" style="fill:#e0e0e0"></path><path d="M82.89,287.88s39.28,4.41,47.33,1.2a13.59,13.59,0,0,0,8.43-11.41s3.94-27.9,3.66-34a121.11,121.11,0,0,0-2.55-16.93L82.82,283Z" style="opacity:0.30000000000000004"></path><path d="M112.47,142s13.43,45.7,13.31,46,14.89,46.81,14.89,46.81l3-14-20.86-69.67L114.36,141Z" style="fill:#F26C9F"></path><path d="M69.31,134.18C55.53,142.57,54.82,155.6,61,170.51c1,2.48,3,6.74,4.32,9.62,5.93,12.59,18.22,33.15,18.22,38,0,11.31-10.13,63.82-10.13,63.82s54.92,6.67,59.87,1.48,8.77-37.54,7.18-52c-1.76-16-10-43-13.32-53-2-6-8.64-21-16.54-30.83a90.39,90.39,0,0,0-20.83-18.87L78,121l-2.41,8.11A42.17,42.17,0,0,1,69.31,134.18Z" style="fill:#455a64"></path><polygon points="90.59 247.96 95.33 238.38 128.41 238.97 124.73 248.87 90.59 247.96" style="fill:#455a64"></polygon><path d="M90.59,248a6.43,6.43,0,0,1,.73,0h2l7.21.09c6.11.08,14.56.21,24.26.45l-.37.25c1.11-3,2.29-6.2,3.5-9.47.06-.15.11-.3.17-.44l.36.53c-13.32-.24-25.22-.5-33.09-.72l.23-.14c-1.49,2.87-2.7,5.19-3.57,6.89-.41.76-.74,1.39-1,1.89a4.65,4.65,0,0,1-.39.68,4,4,0,0,1,.26-.62c.23-.49.51-1.11.86-1.87.84-1.77,2-4.19,3.39-7.2l.06-.14h.17c7.87.06,19.77.21,33.09.44H129l-.19.52c-.05.15-.11.3-.17.45-1.21,3.26-2.4,6.44-3.52,9.45l-.09.26h-.28c-9.88-.28-18.5-.61-24.57-.85l-7.08-.3L91.2,248A3.42,3.42,0,0,1,90.59,248Z" style="fill:#263238"></path><path d="M112.68,150.4c-.1.18-8.49-4.42-18.72-10.29s-18.45-10.78-18.34-11,8.49,4.42,18.73,10.29S112.79,150.21,112.68,150.4Z" style="fill:#263238"></path><path d="M124.13,222.65c0,.21-8-.12-17.81-.75s-17.76-1.31-17.75-1.53,8,.12,17.8.75S124.14,222.43,124.13,222.65Z" style="fill:#263238"></path><polygon points="93.25 248.01 92.66 250.91 126.93 251.88 128.41 238.97 124.73 248.87 93.25 248.01" style="opacity:0.30000000000000004"></polygon><polygon points="108.32 138.97 108.68 139.36 112.47 142.03 114.36 140.96 113.13 136.77 109.13 133.78 108.32 138.97" style="fill:#F26C9F"></polygon><path d="M113.43,133.78a17.93,17.93,0,0,1,.85,3.62l.12.64-.55-.39c-1.32-.93-3-2.16-4.94-3.57l.59-.24-.57,3.72c-.12.78-.24,1.54-.36,2.27l-.08.51-.47-.22c-2.87-1.42-5.39-2.69-7.18-3.63a14.44,14.44,0,0,1-2.8-1.64,14.57,14.57,0,0,1,3,1.18c1.85.82,4.41,2,7.3,3.39l-.55.29c.11-.73.23-1.49.35-2.27.21-1.29.41-2.54.6-3.72l.1-.62.5.38c1.89,1.44,3.55,2.73,4.81,3.74l-.42.26A18.76,18.76,0,0,1,113.43,133.78Z" style="fill:#263238"></path><path d="M180.56,185.24l11.54.55a62.6,62.6,0,0,1,9.81-8.31c1.46-.82,3-1.58,3.85-2a.76.76,0,0,1,1,.41,3.86,3.86,0,0,1-.57,3.74c-1.71,2.33-5.37,4.52-4,6.39s27.32,5.56,27.18,8.54-2,2.23-2,2.23l-11.94-1.72s-1,.16.15,1,13.32,4.9,12.89,6.89-.95,2.51-2.79,2.05-11.41-4-12.13-3.9,11.24,7.74,8.91,9.87-3,.9-5.64-1.06-7.05-5.57-7.81-5.16,6.63,11,6.29,11.61-1,2.22-2.47,1.26-5.72-7.4-7.84-8.7-12.26-6.34-13-6.08l-12.39-.28Z" style="fill:#ae7461"></path><polygon points="179.62 183.67 181.74 205.04 190.97 204.61 190.29 184.72 179.62 183.67" style="fill:#e0e0e0"></polygon><path d="M61.24,146.66c0,.11,0,.22-.05.33a29.64,29.64,0,0,0,14.06,29.8c16,9.67,42.27,25.91,44.73,26.94,5.45,2.27,12.3,3.76,17,3.35,6.67-.59,47.47-1.1,47.47-1.1L183,183.67l-50.48-6.87s-49.13-39.53-50.14-39.88" style="fill:#455a64"></path><path d="M82.35,136.92s.34.2,1,.65,1.53,1.13,2.71,2c2.36,1.82,5.8,4.51,10.18,8,8.76,6.93,21.29,16.91,36.42,29l-.11,0L183,183.42l.21,0v.21c.48,7.16,1,14.66,1.5,22.32v.27h-.27l-7.53.11c-10,.15-19.77.31-29.2.55l-7,.22c-1.16.06-2.31.1-3.45.19a23.37,23.37,0,0,1-3.45,0,45,45,0,0,1-13-3,19,19,0,0,1-2.93-1.44l-2.75-1.61-5.37-3.22-10.21-6.21L81.29,180.66l-4.1-2.49-2-1.2-1.89-1.24A29.86,29.86,0,0,1,67.27,170a31.5,31.5,0,0,1-3.81-6.19,31.82,31.82,0,0,1-2-5.79,28.93,28.93,0,0,1-.62-8.41c.06-1,.2-1.69.25-2.18a5.56,5.56,0,0,1,.13-.74s0,.25-.08.74-.15,1.23-.2,2.19a29.37,29.37,0,0,0,.72,8.36,29.84,29.84,0,0,0,5.82,11.84,29.81,29.81,0,0,0,6,5.67l1.87,1.22,2,1.19,4.11,2.48,18.33,11.14L110,197.67l5.36,3.2,2.76,1.6a17.66,17.66,0,0,0,2.86,1.41,44.7,44.7,0,0,0,12.85,3,23.84,23.84,0,0,0,3.38,0c1.15-.09,2.31-.14,3.46-.19l7-.23c9.43-.25,19.2-.41,29.2-.56l7.53-.11-.25.28c-.51-7.66-1-15.16-1.49-22.32l.22.24L132.46,177h-.06l0,0-36.3-29.19L86,139.72l-2.67-2.1c-.3-.24-.54-.4-.69-.52A2.87,2.87,0,0,1,82.35,136.92Z" style="fill:#263238"></path><path d="M129.79,189.55a5,5,0,0,1-.38-1.85,14.82,14.82,0,0,1,.33-4.55,14.44,14.44,0,0,1,1.69-4.23,5.12,5.12,0,0,1,1.16-1.5,27.93,27.93,0,0,0-2.35,5.85A28.62,28.62,0,0,0,129.79,189.55Z" style="fill:#263238"></path></g></svg>