<svg xmlns="http://www.w3.org/2000/svg" viewBox="0 0 500 500"><g id="freepik--speech-bubbles-2--inject-620"><path d="M393.55,253.45l4.31-7.34a27.1,27.1,0,1,1,4.72,8.49h0Z" style="fill:#fff"></path><path d="M393.55,253.45l.55.1,1.71.24,6.76.94a.12.12,0,0,0,.13-.1.17.17,0,0,0,0-.07h0l-.2.12a26.92,26.92,0,0,0,10.75,8,26.42,26.42,0,0,0,8.49,1.94,26.89,26.89,0,0,0,9.77-1.12,27.23,27.23,0,0,0,16-39,26.9,26.9,0,0,0-8.83-9.7,27.59,27.59,0,0,0-11.74-4.41,27.3,27.3,0,0,0-30.28,22.49,26.93,26.93,0,0,0,1.1,13.31v-.09c-1.37,2.4-2.43,4.25-3.17,5.53l-.79,1.4c-.18.31-.25.46-.25.46s.11-.16.31-.48l.85-1.41,3.25-5.39a.1.1,0,0,0,0-.09,26.93,26.93,0,0,1,17.36-34.15,26.62,26.62,0,0,1,11.54-1.06,27.33,27.33,0,0,1,11.5,4.33,26.46,26.46,0,0,1,8.65,9.52,26.79,26.79,0,0,1-25.26,39.48,26.33,26.33,0,0,1-8.38-1.86,27.08,27.08,0,0,1-10.71-7.82.12.12,0,0,0-.17,0,.12.12,0,0,0,0,.14h0l.12-.16-6.69-.79-1.75-.2Z" style="fill:#263238"></path><path d="M414.46,231.9h4.11a3.49,3.49,0,0,1,3.59-3.51,3.33,3.33,0,0,1,3.23,2.12,3.67,3.67,0,0,1-.3,3.33c-.69,1.15-2.22,2.2-5,1.71v9.28h4.07v-5.44a7.94,7.94,0,0,0,5.71-7.76c0-6-5.4-7.41-7.71-7.41C420.4,224.22,414.38,224.64,414.46,231.9Z" style="fill:#263238"></path><rect x="420.08" y="246.74" width="4.13" height="3.86" style="fill:#263238"></rect><path d="M452.11,305.63a23.63,23.63,0,1,0-38.49,22.53,3,3,0,0,0,.35.27l0,0a27.41,27.41,0,0,0,18.9,4.74,21,21,0,0,0,6.24-1.74A23.66,23.66,0,0,0,452.11,305.63Z" style="fill:#fff"></path><path d="M452.11,305.63a2.61,2.61,0,0,1,.08.37c.05.27.12.64.2,1.11a23.52,23.52,0,0,1,.23,4.31,24.1,24.1,0,0,1-5.88,14.52,24,24,0,0,1-3.91,3.56,22.71,22.71,0,0,1-5,2.76,25.17,25.17,0,0,1-12.51,1,27.81,27.81,0,0,1-6.56-2,26.64,26.64,0,0,1-3.15-1.6c-.52-.29-1-.62-1.53-.95a10,10,0,0,1-1.42-1.17,23.47,23.47,0,0,1-7.14-13,22.39,22.39,0,0,1-.16-7.61,26.45,26.45,0,0,1,.78-3.66l.62-1.74c.19-.58.5-1.12.74-1.68a23.74,23.74,0,0,1,4-5.92l.59-.65.64-.59c.43-.39.83-.8,1.28-1.15a23.63,23.63,0,0,1,2.79-1.94,23.23,23.23,0,0,1,12.07-3.35,21.53,21.53,0,0,1,2.92.16c.95.1,1.87.34,2.78.5s1.75.5,2.58.8,1.63.63,2.37,1a24.21,24.21,0,0,1,7.19,5.5,25.75,25.75,0,0,1,2.21,3,21.14,21.14,0,0,1,1.5,2.74,8.16,8.16,0,0,1,.51,1.22c.15.39.28.76.4,1.1a12,12,0,0,1,.5,1.76c.11.46.19.82.26,1.09a2.73,2.73,0,0,1,.07.38,1.91,1.91,0,0,1-.12-.37c-.08-.26-.18-.62-.31-1.08a11.49,11.49,0,0,0-.55-1.73c-.12-.33-.26-.69-.41-1.08a7.82,7.82,0,0,0-.54-1.2,20,20,0,0,0-1.52-2.7,25.5,25.5,0,0,0-2.22-2.94,24.31,24.31,0,0,0-7.13-5.36c-.73-.39-1.55-.65-2.34-1s-1.68-.51-2.55-.77-1.79-.39-2.73-.47a19.43,19.43,0,0,0-2.87-.15A23,23,0,0,0,417,290.11a24.63,24.63,0,0,0-2.72,1.9c-.44.35-.83.76-1.25,1.14l-.63.58-.57.64a23,23,0,0,0-3.89,5.8,16.14,16.14,0,0,0-.72,1.65l-.6,1.7a24.28,24.28,0,0,0-.77,3.58,22,22,0,0,0,.16,7.45,23,23,0,0,0,7,12.7,9.51,9.51,0,0,0,1.36,1.12c.49.32,1,.65,1.49.94a30.14,30.14,0,0,0,3.1,1.58,28.28,28.28,0,0,0,6.44,1.93,24.74,24.74,0,0,0,12.28-1,22.77,22.77,0,0,0,5-2.67A23.74,23.74,0,0,0,451,318a25.22,25.22,0,0,0,1.4-6.62,26.47,26.47,0,0,0-.13-4.29l-.15-1.11A1.81,1.81,0,0,1,452.11,305.63Z" style="fill:#263238"></path><path d="M421.19,305.93h3.59a3.06,3.06,0,0,1,3.14-3.07,2.89,2.89,0,0,1,2.81,1.86,3.22,3.22,0,0,1-.25,2.91c-.61,1-2,1.92-4.37,1.49v8.1h3.55v-4.74a6.94,6.94,0,0,0,5-6.78c0-5.26-4.72-6.48-6.73-6.48C426.38,299.22,421.12,299.59,421.19,305.93Z" style="fill:#263238"></path><rect x="426.1" y="318.89" width="3.61" height="3.37" style="fill:#263238"></rect><path d="M401.1,310a4.79,4.79,0,1,1-4.78-4.78A4.78,4.78,0,0,1,401.1,310Z" style="fill:#fff"></path><path d="M401.1,310c-.05,0,0-.42-.25-1.14a4.77,4.77,0,0,0-1.75-2.51,4.56,4.56,0,1,0,0,7.31,4.77,4.77,0,0,0,1.75-2.51c.21-.72.2-1.15.25-1.15s0,.11,0,.31a3.66,3.66,0,0,1-.09.89,4.73,4.73,0,0,1-1.73,2.75,4.92,4.92,0,0,1-4.71.77,5,5,0,0,1,0-9.43,4.92,4.92,0,0,1,4.71.77,4.73,4.73,0,0,1,1.73,2.75,3.61,3.61,0,0,1,.09.89C401.13,309.87,401.12,310,401.1,310Z" style="fill:#263238"></path><path d="M407.74,175.29a24.36,24.36,0,1,0-39.68,23.24l.36.28,0,0a28.22,28.22,0,0,0,19.48,4.89,21.51,21.51,0,0,0,6.44-1.8A24.4,24.4,0,0,0,407.74,175.29Z" style="fill:#fff"></path><path d="M407.74,175.29a2.08,2.08,0,0,1,.09.39c.05.28.11.66.2,1.14a24.07,24.07,0,0,1,.23,4.44,24.83,24.83,0,0,1-6.06,15,25.89,25.89,0,0,1-4,3.67,24,24,0,0,1-5.19,2.84,25.9,25.9,0,0,1-12.9,1.06,29,29,0,0,1-6.76-2,30.06,30.06,0,0,1-3.25-1.65c-.53-.31-1.05-.64-1.57-1a10.66,10.66,0,0,1-1.46-1.19,24.26,24.26,0,0,1-7.37-13.39,23.23,23.23,0,0,1-.16-7.84,25.29,25.29,0,0,1,.81-3.77l.63-1.8c.2-.6.51-1.15.76-1.73a24.3,24.3,0,0,1,4.11-6.1l.6-.67.66-.61c.45-.4.86-.83,1.33-1.19a24.2,24.2,0,0,1,2.87-2,23.94,23.94,0,0,1,12.44-3.45,22.87,22.87,0,0,1,3,.17c1,.1,1.93.35,2.86.51s1.81.51,2.67.83,1.68.65,2.44,1.06a25.13,25.13,0,0,1,7.41,5.67,26.13,26.13,0,0,1,2.28,3.08,20.7,20.7,0,0,1,1.54,2.83,8.47,8.47,0,0,1,.54,1.27c.14.4.28.77.41,1.13a11.43,11.43,0,0,1,.51,1.81c.12.47.2.85.27,1.12a3,3,0,0,1,.07.39,2.3,2.3,0,0,1-.13-.37c-.07-.28-.18-.65-.31-1.12a12.44,12.44,0,0,0-.56-1.78c-.13-.35-.28-.72-.43-1.12a8.28,8.28,0,0,0-.55-1.24,21.24,21.24,0,0,0-1.57-2.78,26,26,0,0,0-2.29-3,24.94,24.94,0,0,0-7.35-5.53c-.76-.4-1.6-.67-2.42-1s-1.73-.53-2.62-.8-1.85-.4-2.82-.49a22.23,22.23,0,0,0-3-.15,23.66,23.66,0,0,0-12.2,3.43,24,24,0,0,0-2.8,2c-.46.36-.86.78-1.3,1.17l-.64.6-.59.66a23.76,23.76,0,0,0-4,6c-.24.57-.55,1.11-.74,1.7s-.41,1.17-.62,1.76a25.49,25.49,0,0,0-.79,3.69,22.55,22.55,0,0,0,.17,7.68,23.71,23.71,0,0,0,7.19,13.1,10.68,10.68,0,0,0,1.4,1.15c.51.34,1,.67,1.54,1a27.52,27.52,0,0,0,3.2,1.63,28.06,28.06,0,0,0,6.64,2,25.58,25.58,0,0,0,12.67-1,24,24,0,0,0,5.1-2.76,24.78,24.78,0,0,0,4-3.6,24.52,24.52,0,0,0,4.7-7.9,25.35,25.35,0,0,0,1.44-6.83,26.89,26.89,0,0,0-.13-4.42c-.07-.48-.12-.86-.16-1.14A2,2,0,0,1,407.74,175.29Z" style="fill:#263238"></path><path d="M375.86,175.61h3.71a3.15,3.15,0,0,1,3.23-3.17,3,3,0,0,1,2.9,1.91,3.32,3.32,0,0,1-.26,3c-.63,1-2,2-4.5,1.54v8.35h3.66v-4.89a7.16,7.16,0,0,0,5.14-7c0-5.41-4.86-6.67-6.94-6.67C381.21,168.69,375.79,169.07,375.86,175.61Z" style="fill:#263238"></path><rect x="380.93" y="188.97" width="3.72" height="3.47" style="fill:#263238"></rect><path d="M367.55,208.1a4.93,4.93,0,1,1-4.93-4.94A4.93,4.93,0,0,1,367.55,208.1Z" style="fill:#fff"></path><path d="M367.55,208.1c-.05,0,0-.44-.25-1.18a4.93,4.93,0,0,0-1.81-2.6,4.71,4.71,0,1,0,0,7.55,5,5,0,0,0,1.81-2.59c.21-.74.2-1.19.25-1.18s0,.1,0,.31a3.43,3.43,0,0,1-.1.91,4.86,4.86,0,0,1-1.78,2.84,5.06,5.06,0,0,1-4.85.79,5.15,5.15,0,0,1,0-9.71,5.09,5.09,0,0,1,4.85.79,4.89,4.89,0,0,1,1.78,2.84,3.43,3.43,0,0,1,.1.91C367.58,208,367.57,208.1,367.55,208.1Z" style="fill:#263238"></path></g><g id="freepik--speech-bubbles-1--inject-620"><path d="M172.51,133.93h-67a17.49,17.49,0,0,0-17.49,17.48v33.07A17.49,17.49,0,0,0,105.55,202h49.8l8.6,14.26L172,202h.51A17.48,17.48,0,0,0,190,184.48V151.41A17.48,17.48,0,0,0,172.51,133.93Z" style="fill:#fff"></path><path d="M172.51,133.93s.14,0,.41,0l1.23,0c.54,0,1.2.15,2,.28a17.92,17.92,0,0,1,2.66.78,17.37,17.37,0,0,1,6.39,4.2,18.56,18.56,0,0,1,2.88,3.94,17.57,17.57,0,0,1,1.78,5.22,33.24,33.24,0,0,1,.29,6.14c0,2.14,0,4.38,0,6.71,0,4.67,0,9.72,0,15.1q0,4,0,8.33a17.89,17.89,0,0,1-2.29,8.51,18.67,18.67,0,0,1-2.78,3.7,18,18,0,0,1-3.74,2.89,16.7,16.7,0,0,1-4.47,1.83,18,18,0,0,1-2.43.46c-.82.07-1.66.12-2.48.12l.2-.12c-2.53,4.51-5.25,9.32-8,14.27l-.21.36-.21-.35c-2.73-4.51-5.64-9.33-8.61-14.26l.21.12h-50a18.09,18.09,0,0,1-8.08-2.05,17.76,17.76,0,0,1-9.22-12.89l-.15-1-.05-1c0-.67,0-1.33,0-2v-3.93c0-2.6,0-5.18,0-7.74v-15c0-1.22,0-2.43,0-3.63a33.5,33.5,0,0,1,.13-3.61,17.41,17.41,0,0,1,2.21-6.73,17.78,17.78,0,0,1,10.43-8.22c.53-.13,1.06-.29,1.59-.39l1.61-.23c1.08-.07,2.15-.11,3.19-.09h6.16l11.58,0,35,.08,9.51,0,2.47,0c.56,0,.84,0,.84,0l-.84,0-2.47,0-9.51.05-35,.08-11.58,0h-7.74l-1.57.08-1.57.23c-.52.1-1,.26-1.55.38a17.26,17.26,0,0,0-12.3,14.59A34.8,34.8,0,0,0,88.3,153v3.63q0,7.32,0,15c0,2.56,0,5.14,0,7.74v3.93c0,.66,0,1.32,0,2l0,1,.15,1a17.23,17.23,0,0,0,9,12.52,17.64,17.64,0,0,0,7.83,2h50.14l.08.12,8.59,14.27h-.42c2.8-4.94,5.52-9.75,8.06-14.26l.07-.11H172c.83,0,1.63,0,2.43-.11a16.67,16.67,0,0,0,2.36-.45,16.23,16.23,0,0,0,4.37-1.77,17.7,17.7,0,0,0,3.65-2.82,18.12,18.12,0,0,0,2.72-3.6,17.39,17.39,0,0,0,2.25-8.31c0-2.85,0-5.63,0-8.32,0-5.38,0-10.43,0-15.1,0-2.33,0-4.57,0-6.71a33.44,33.44,0,0,0-.26-6.09,17,17,0,0,0-4.55-9.06,17.18,17.18,0,0,0-6.29-4.22,20.4,20.4,0,0,0-2.62-.81c-.78-.13-1.44-.25-2-.31l-1.22-.08Z" style="fill:#263238"></path><path d="M176,151.89c0,.15-16.56.26-37,.26s-37-.11-37-.26,16.56-.26,37-.26S176,151.75,176,151.89Z" style="fill:#263238"></path><path d="M176,159.92c0,.14-16.56.26-37,.26s-37-.12-37-.26,16.56-.26,37-.26S176,159.77,176,159.92Z" style="fill:#263238"></path><path d="M176,167.94c0,.15-16.56.26-37,.26s-37-.11-37-.26,16.56-.26,37-.26S176,167.8,176,167.94Z" style="fill:#263238"></path><path d="M176,176c0,.14-16.56.26-37,.26s-37-.12-37-.26,16.56-.26,37-.26S176,175.83,176,176Z" style="fill:#263238"></path><path d="M176,184c0,.15-16.56.27-37,.27s-37-.12-37-.27,16.56-.26,37-.26S176,183.85,176,184Z" style="fill:#263238"></path><path d="M224.69,70.12H149.12a13.18,13.18,0,0,0-13.18,13.17v26.58a13.18,13.18,0,0,0,13.18,13.18h54.11l8.6,14.26,8-14.26h4.81a13.18,13.18,0,0,0,13.18-13.18V83.29A13.18,13.18,0,0,0,224.69,70.12Z" style="fill:#fff"></path><path d="M224.69,70.12s.45,0,1.33,0a13.94,13.94,0,0,1,3.78.92,13.32,13.32,0,0,1,5,3.68A14.35,14.35,0,0,1,237,78.14a13.44,13.44,0,0,1,1,4.42c.09,6.37.06,14.09.09,23,0,1.1,0,2.23,0,3.38a18.31,18.31,0,0,1-.25,3.51,13.3,13.3,0,0,1-3.28,6.5,12.94,12.94,0,0,1-3,2.43,12.48,12.48,0,0,1-3.63,1.5,14.5,14.5,0,0,1-2,.35c-.67,0-1.35.08-2,.07h-4.06l.19-.11-8,14.27-.2.35-.21-.34c-2.73-4.52-5.63-9.33-8.62-14.26l.22.12H149.51a13.49,13.49,0,0,1-7.47-2,13.3,13.3,0,0,1-5.07-5.7,15.21,15.21,0,0,1-1.28-7.4V93.64q0-3.57,0-7c0-1.17,0-2.32,0-3.47a13.24,13.24,0,0,1,.5-3.44,13.52,13.52,0,0,1,3.4-5.85,14,14,0,0,1,5.66-3.38,13.63,13.63,0,0,1,3.21-.53c1.08-.06,2.11,0,3.16,0h6.16l22.45,0,32.52.09,8.84,0,2.3,0c.52,0,.78,0,.78,0l-.78,0-2.3,0-8.84,0-32.52.08-22.45,0h-6.16a20.82,20.82,0,0,0-6.24.55A13.36,13.36,0,0,0,140,74.16a13.08,13.08,0,0,0-3.28,5.65c-.64,2.14-.46,4.45-.48,6.78v7q0,7.13,0,14.54a22.35,22.35,0,0,0,.16,3.67,12.4,12.4,0,0,0,1.07,3.51,12.92,12.92,0,0,0,4.88,5.48,13.11,13.11,0,0,0,7.2,2h53.86l.07.12L212,137.19h-.41l8.06-14.26.07-.11h4.19c.68,0,1.33,0,2-.06a13.62,13.62,0,0,0,1.91-.33,11.94,11.94,0,0,0,3.51-1.45,12.41,12.41,0,0,0,2.89-2.34,12.9,12.9,0,0,0,3.2-6.31,17.18,17.18,0,0,0,.25-3.43c0-1.15,0-2.28,0-3.38,0-8.88.07-16.62,0-23a13.32,13.32,0,0,0-1-4.34,14.47,14.47,0,0,0-2.05-3.35,13.16,13.16,0,0,0-4.95-3.68A14.33,14.33,0,0,0,224.69,70.12Z" style="fill:#263238"></path><path d="M226,88.75c0,.14-16.56.26-37,.26s-37-.12-37-.26,16.56-.26,37-.26S226,88.61,226,88.75Z" style="fill:#263238"></path><path d="M226,96.77c0,.15-16.56.26-37,.26s-37-.11-37-.26,16.56-.26,37-.26S226,96.63,226,96.77Z" style="fill:#263238"></path><path d="M226,104.8c0,.14-16.56.26-37,.26s-37-.12-37-.26,16.56-.26,37-.26S226,104.66,226,104.8Z" style="fill:#263238"></path></g><g id="freepik--character-2--inject-620"><path d="M386,281.92c-.95-1.13-2.19-2.16-2.5-3.61s.38-2.78.68-4.17a8.51,8.51,0,0,0-5.35-9.49c-2.16-.74-4.93-.8-6-2.81s.29-4.29,1.09-6.38a12.77,12.77,0,0,0-.86-10.74,18.62,18.62,0,0,0-.91-2.16,16.84,16.84,0,0,0-14.45-9.3,11.74,11.74,0,0,0-8.91-9,10.34,10.34,0,0,0-1.08-4.68c-2.11-4.11-6.6-6.6-11.16-7.34a21.21,21.21,0,0,0-18.31,6.07c-2.52,2.59-4.56,6-8,7.16-3,1-6.32.1-9.47.51-4.22.55-7.84,3.55-10,7.21s-3.06,7.94-3.56,12.17c-.46,3.88-.76,8.14-3.45,11s-6.78,3.35-10,5.31c-6.14,3.7-8.13,12.85-4.08,18.76,1.29,1.89,3.15,3.62,3.3,5.9.13,2.08-1.21,3.93-1.84,5.92-1.62,5.12,2.57,11.21,7.93,11.52,2.71.15,5.61-.9,8,.31s3.31,4.11,4.85,6.32A11.6,11.6,0,0,0,306.09,314c2-1,3.88-2.59,6.09-2.44s3.95,2,6.12,2.45c2.85.55,5.55-1.54,7.24-3.89s2.87-5.13,5-7.06c2.83-2.52,6.81-3.14,10.4-4.38a29.63,29.63,0,0,0,13.17-9.27l-.35,20c3,0,4.7-1,5.8-2.57a8.25,8.25,0,0,0,2,1,9.13,9.13,0,0,0,9.88-3.09c1.15-1.54,1.87-3.51,3.5-4.51,1.43-.88,3.22-.81,4.87-1.11A10.57,10.57,0,0,0,386,281.92Z" style="fill:#263238"></path><path d="M318.94,235.23h0c-4.14,2.61-13.54,14.1-13.72,17.48l1,68.73c-.16,5.17-1,9.61,2,13.81h0c8.38,10,27.77,11.23,32.2,3a8,8,0,0,0,.71-1.66,15.89,15.89,0,0,0,.39-1.69,54.86,54.86,0,0,0,1-11.43c.58-6.72.78-9.48.78-9.41s14.36-1.31,18.67-19.59c2.15-9.1,2.8-24.22,2.94-36.61a20.34,20.34,0,0,0-1.47-7.1c-5.33-14.26-17.59-21.18-32.32-19.92C327.39,231.15,321.74,232.8,318.94,235.23Z" style="fill:#ffbf9d"></path><path d="M343.74,283.69c0-.14,1.61-.3,4.2-.44.66,0,1.29-.1,1.43-.54a3.29,3.29,0,0,0-.29-2c-.5-1.62-1-3.33-1.56-5.11-2.16-7.27-3.66-13.23-3.37-13.31s2.28,5.74,4.43,13q.78,2.69,1.48,5.13a3.82,3.82,0,0,1,.15,2.58,1.65,1.65,0,0,1-1.15.88,4,4,0,0,1-1.12.07C345.35,284,343.74,283.84,343.74,283.69Z" style="fill:#263238"></path><path d="M343.26,314.05A47.18,47.18,0,0,1,319,305.6s5.28,13.27,23.93,12.91Z" style="fill:#ff9a6c"></path><path d="M342.2,289.77a4.64,4.64,0,0,0-4-2,4.2,4.2,0,0,0-3,1.35,2.65,2.65,0,0,0-.43,3,3.11,3.11,0,0,0,3.28,1.1,9.61,9.61,0,0,0,3.41-1.71,3,3,0,0,0,.79-.7.85.85,0,0,0,.06-.95" style="fill:#ff9a6c"></path><path d="M336.09,284.9c.42,0,.22,2.78,2.45,4.93s5.2,2.05,5.19,2.44c0,.18-.7.49-2,.43a6.89,6.89,0,0,1-4.35-1.88,6.07,6.07,0,0,1-1.87-4.12C335.54,285.54,335.9,284.87,336.09,284.9Z" style="fill:#263238"></path><path d="M335.63,257.14c-.31.68-2.83.16-5.85.3s-5.51.77-5.86.12c-.16-.31.31-.93,1.34-1.53a10.18,10.18,0,0,1,8.92-.32C335.25,256.23,335.76,256.82,335.63,257.14Z" style="fill:#263238"></path><path d="M361.09,257.13c-.58.54-2.63-.21-5.15-.43s-4.69.05-5.14-.6c-.19-.31.19-.86,1.16-1.34a8.1,8.1,0,0,1,4.26-.64,8,8,0,0,1,4,1.47C361.1,256.25,361.35,256.87,361.09,257.13Z" style="fill:#263238"></path><path d="M308.94,276.6c.1-1.37-1.25-4.74-2.6-5.05-3.59-.84-10.16-1-10.91,8.19-1,12.61,11.85,11,11.91,10.67S308.6,281.36,308.94,276.6Z" style="fill:#ffbf9d"></path><path d="M303.87,285.33c-.05-.05-.23.13-.62.27a2.17,2.17,0,0,1-1.64-.1c-1.3-.59-2.25-2.8-2.12-5.08a7.23,7.23,0,0,1,.87-3.09,2.52,2.52,0,0,1,1.78-1.56,1.12,1.12,0,0,1,1.25.71c.14.37,0,.61.11.64s.28-.19.23-.72a1.47,1.47,0,0,0-.44-.83,1.66,1.66,0,0,0-1.19-.42,3.11,3.11,0,0,0-2.45,1.77,7.4,7.4,0,0,0-1,3.45c-.13,2.55,1,5,2.76,5.71a2.41,2.41,0,0,0,2-.17C303.82,285.63,303.91,285.35,303.87,285.33Z" style="fill:#ff9a6c"></path><path d="M303.88,252.71c0-.63-.23.59,0,0Z" style="fill:#455a64"></path><path d="M355.57,235c-4.69-3.16-8.55-6.81-20-6.83-8.85,0-15.33,5.14-22.3,11.22-9,7.81-14.63,20.55-10.86,31.82h0l3.77,1.47,3.57-8.65c6.16-13.4,19-24.67,32.8-25.33a28,28,0,0,1,3.82.06c9.14.92,18.51,17.56,18.51,17.56S366.57,242.42,355.57,235Z" style="fill:#F7CF2F"></path><path d="M306.19,272.63c.2,2.61.6,5,.8,7.59.09,1.11.37,2.46,1.43,2.76a1.88,1.88,0,0,0,2-1,5.36,5.36,0,0,0,.56-2.28c.78-7.93,1.44-14,2.22-21.91C310.89,261,308.55,266.47,306.19,272.63Z" style="fill:#263238"></path><path d="M304.1,292.51s.07.25-.09.66a2.54,2.54,0,0,1-1.32,1.3,3.59,3.59,0,0,1-2.73.07,3.91,3.91,0,0,1-2.39-2.35,4.1,4.1,0,0,1,.32-3.33,3.79,3.79,0,0,1,2.16-1.68,3.58,3.58,0,0,1,1.83-.1c.43.1.63.22.62.25a5.25,5.25,0,0,0-2.33.2,3.49,3.49,0,0,0-1.86,1.56,3.69,3.69,0,0,0-.25,2.93,3.51,3.51,0,0,0,2.06,2.07,3.32,3.32,0,0,0,2.42,0,2.5,2.5,0,0,0,1.28-1C304,292.74,304.05,292.5,304.1,292.51Z" style="fill:#e0e0e0"></path><path d="M330.68,241.87s10,2.75,13.35,1.7a10,10,0,0,0,5.45-4.08S341.74,236.07,330.68,241.87Z" style="fill:#263238"></path><path d="M386,267.47a12.43,12.43,0,0,0,1.05-1.27,6.87,6.87,0,0,0,1.06-4.33,8.13,8.13,0,0,0-3.4-5.72A12.33,12.33,0,0,0,376.5,254l-.44,0,.19-.4a23.7,23.7,0,0,0,2.35-6.82,12.59,12.59,0,0,0-.39-5.75,9.94,9.94,0,0,0-3-4.42,15,15,0,0,0-8.45-3.32,31.2,31.2,0,0,0-6.27.18l-1.71.22a2.45,2.45,0,0,1-.6.05,2.77,2.77,0,0,1,.59-.16c.38-.08,1-.19,1.69-.31a27.74,27.74,0,0,1,6.33-.34,15,15,0,0,1,8.73,3.32,10.31,10.31,0,0,1,3.17,4.62,12.83,12.83,0,0,1,.42,6,24.21,24.21,0,0,1-2.4,7l-.25-.37A12.71,12.71,0,0,1,385,255.8a8.4,8.4,0,0,1,3.46,6,6.85,6.85,0,0,1-1.24,4.45A4.15,4.15,0,0,1,386,267.47Z" style="fill:#263238"></path><path d="M282.49,288.74h-.27l-.8,0c-.71,0-1.75-.1-3.08-.25a20.76,20.76,0,0,1-4.77-1.09,11.53,11.53,0,0,1-5.24-3.79,12,12,0,0,1-1.91-7.57,42,42,0,0,1,.43-4.36,23.91,23.91,0,0,1,.95-4.56,8,8,0,0,1,2.84-4c1.44-1.06,3.32-1.12,5-1.1s3.51.07,4.9-.93a6.24,6.24,0,0,0,2.23-4.51,34.37,34.37,0,0,0-.2-5.36,28.15,28.15,0,0,1,.22-5.29,27.4,27.4,0,0,1,3.07-9.47,23.89,23.89,0,0,1,5.67-7,22,22,0,0,1,6.82-3.88,21.39,21.39,0,0,1,11.23-1,15.22,15.22,0,0,1,4,1.27l-.26-.07-.76-.26a20.7,20.7,0,0,0-3-.74,21.61,21.61,0,0,0-11.07,1.1,22,22,0,0,0-6.68,3.87,23.86,23.86,0,0,0-5.52,6.9,27.05,27.05,0,0,0-3,9.32,27.94,27.94,0,0,0-.21,5.19,36.11,36.11,0,0,1,.2,5.44,6.72,6.72,0,0,1-2.44,4.88,5.66,5.66,0,0,1-2.58.94,19.6,19.6,0,0,1-2.64.08,6.46,6.46,0,0,0-7.39,4.77,23.45,23.45,0,0,0-.95,4.47,41.52,41.52,0,0,0-.45,4.31,11.69,11.69,0,0,0,1.78,7.34,11.16,11.16,0,0,0,5.05,3.72,20.9,20.9,0,0,0,4.69,1.17c1.32.18,2.35.27,3.05.34l.8.08A.84.84,0,0,1,282.49,288.74Z" style="fill:#263238"></path><path d="M314.52,239.41a7.12,7.12,0,0,1-.81,1.13c-.27.34-.61.77-1,1.29s-.8,1.09-1.23,1.76a49.61,49.61,0,0,0-2.82,4.82,51.34,51.34,0,0,0-2.66,6.28,52.12,52.12,0,0,0-1.71,6.61,47.47,47.47,0,0,0-.69,5.53c-.07.8-.07,1.52-.1,2.15s0,1.18,0,1.62a6.93,6.93,0,0,1,0,1.39,7.91,7.91,0,0,1-.16-1.38c0-.45-.07-1-.07-1.63s0-1.36,0-2.16a42.77,42.77,0,0,1,.59-5.61,47.19,47.19,0,0,1,1.69-6.69,48.54,48.54,0,0,1,2.72-6.33,41.74,41.74,0,0,1,2.95-4.8c.44-.67.91-1.23,1.3-1.73a14.2,14.2,0,0,1,1.05-1.25A6.66,6.66,0,0,1,314.52,239.41Z" style="fill:#263238"></path><path d="M324.61,234.63a10.43,10.43,0,0,1-1.21,1.16c-.41.35-.9.79-1.44,1.34s-1.19,1.12-1.84,1.83a59.88,59.88,0,0,0-4.41,5.11,64.31,64.31,0,0,0-4.55,6.89,65.46,65.46,0,0,0-3.55,7.46,59.83,59.83,0,0,0-2.1,6.42c-.28.92-.44,1.78-.62,2.52s-.31,1.39-.41,1.92a11.85,11.85,0,0,1-.36,1.64,8.88,8.88,0,0,1,.17-1.67c.06-.54.16-1.2.31-1.95s.3-1.62.55-2.55a55.05,55.05,0,0,1,2-6.5,55.58,55.58,0,0,1,8.17-14.47,54.45,54.45,0,0,1,4.53-5.08c.67-.7,1.34-1.27,1.9-1.79s1.08-.94,1.5-1.28A10.55,10.55,0,0,1,324.61,234.63Z" style="fill:#263238"></path><path d="M289.25,294s-.08.08-.27.2a5,5,0,0,1-.86.48,8.39,8.39,0,0,1-3.68.79,10,10,0,0,1-5.68-1.78,10.84,10.84,0,0,1-4.21-6.61,12.55,12.55,0,0,1-.15-4.63,13.78,13.78,0,0,1,1.69-4.74,16.52,16.52,0,0,1,3.4-4.17,24.46,24.46,0,0,1,4.74-3.16,18.12,18.12,0,0,0,4.77-3.35,12.36,12.36,0,0,0,2.83-5.31,29.54,29.54,0,0,0,.89-6.29c.11-2.16.1-4.38.32-6.62a21.46,21.46,0,0,1,1.5-6.5,11.13,11.13,0,0,1,4.09-5,19.86,19.86,0,0,1,5.74-2.48c2-.56,3.9-1,5.73-1.56a16.83,16.83,0,0,0,5-2.34,7.17,7.17,0,0,0,1-.85,10.16,10.16,0,0,0,.91-.95,18,18,0,0,0,1.45-2.15,22.93,22.93,0,0,1,2.78-4.17,11.59,11.59,0,0,1,3.8-2.67,11,11,0,0,1,12.83,2.78,10.9,10.9,0,0,1,2,3.19,6.19,6.19,0,0,1,.4,1.25s-.14-.43-.5-1.21a11.26,11.26,0,0,0-2.07-3.1,11.39,11.39,0,0,0-4.94-3.1,11,11,0,0,0-7.6.53,11.35,11.35,0,0,0-3.65,2.6,23.28,23.28,0,0,0-2.7,4.12,18.12,18.12,0,0,1-1.48,2.21,9.78,9.78,0,0,1-.94,1,7.12,7.12,0,0,1-1.07.89,17.43,17.43,0,0,1-5.15,2.43c-1.86.59-3.8,1-5.74,1.58a19.5,19.5,0,0,0-5.59,2.42,10.68,10.68,0,0,0-3.91,4.8,20.94,20.94,0,0,0-1.45,6.34c-.22,2.21-.21,4.41-.32,6.59a30.22,30.22,0,0,1-.92,6.4,12.91,12.91,0,0,1-2.95,5.52,18.94,18.94,0,0,1-4.91,3.43,23.77,23.77,0,0,0-4.67,3.08,16.45,16.45,0,0,0-3.33,4,13.32,13.32,0,0,0-1.66,4.59,12.25,12.25,0,0,0,.11,4.49,10.55,10.55,0,0,0,4,6.45,9.81,9.81,0,0,0,5.51,1.82,8.69,8.69,0,0,0,3.64-.69C288.87,294.28,289.23,294,289.25,294Z" style="fill:#455a64"></path><path d="M358.18,271.85a2.49,2.49,0,0,1-2.39,2.52,2.38,2.38,0,0,1-2.58-2.24,2.5,2.5,0,0,1,2.4-2.52A2.38,2.38,0,0,1,358.18,271.85Z" style="fill:#263238"></path><path d="M360.29,264.25c-.31.33-2.2-1.06-4.88-1.05s-4.64,1.36-4.94,1c-.14-.15.17-.73,1-1.36a6.88,6.88,0,0,1,3.95-1.23,6.56,6.56,0,0,1,3.88,1.25C360.16,263.52,360.44,264.11,360.29,264.25Z" style="fill:#263238"></path><path d="M335,271.85a2.49,2.49,0,0,1-2.4,2.52,2.38,2.38,0,0,1-2.57-2.24,2.49,2.49,0,0,1,2.39-2.52A2.38,2.38,0,0,1,335,271.85Z" style="fill:#263238"></path><path d="M334.9,264.25c-.31.33-2.2-1.06-4.88-1.05s-4.64,1.36-4.93,1c-.14-.15.17-.73,1-1.36a6.91,6.91,0,0,1,3.95-1.23,6.6,6.6,0,0,1,3.89,1.25C334.77,263.52,335.05,264.11,334.9,264.25Z" style="fill:#263238"></path><path d="M380.39,348.17c-11.57-14.09-21.58-16.09-21.58-16.09l.07,50.25L395.78,429l15-38.41S388.23,357.71,380.39,348.17Z" style="fill:#F7CF2F"></path><path d="M342.42,328.1l16.54,4s8.54,49.53,5.44,62.34c-2.63,10.9-11.09,61.2-11.09,61.2h-102L285.5,357.5s.2-21.58-5.08-31.55c3.2-.77,14-2.76,23.33-4.51,0,0,6.2,7.74,20.8,10S342.42,328.1,342.42,328.1Z" style="fill:#F7CF2F"></path><path d="M362.67,369.59H298.6c-5.6,32.76-19.24,45.33-43.28,64.3l-4,21.77h102l5.92-34.21-.35-12.59Z" style="fill:#455a64"></path><path d="M282.88,325.47s-24.36,1.95-33.11,41.87c-4,18.06-9,39.22-10.39,53.44-1,10.32,2.65,24.58,12.56,26.94L270,450c8.05.12,13.57-6.41,15.26-13.42L288,425.46c1.94-13.62-8.43-14.8-14.26-14.68l12.82-50.7,2.49-24.54Z" style="fill:#F7CF2F"></path><path d="M366.12,359.42a3.72,3.72,0,0,1,.11.56l.24,1.61c0,.35.11.74.17,1.16s.09.9.14,1.4c.1,1,.23,2.13.28,3.4a85.68,85.68,0,0,1,.06,8.88A106.38,106.38,0,0,1,366,387.25c-.56,3.81-1.26,7.42-2,10.69s-1.42,6.18-2,8.64-1.13,4.42-1.5,5.78c-.18.66-.33,1.18-.44,1.57a2.19,2.19,0,0,1-.18.54,4.8,4.8,0,0,1,.11-.56l.36-1.58,1.39-5.82c.57-2.46,1.26-5.38,1.94-8.65s1.39-6.86,1.94-10.67,1-7.45,1.11-10.78.17-6.33,0-8.85c0-1.26-.13-2.4-.21-3.39,0-.5-.08-1-.11-1.4s-.1-.81-.14-1.16c-.07-.67-.13-1.21-.17-1.62A2.72,2.72,0,0,1,366.12,359.42Z" style="fill:#263238"></path><path d="M254.52,424.79a4.52,4.52,0,0,1,.19-1,16.62,16.62,0,0,1,.94-2.62A17.89,17.89,0,0,1,270,410.75a16.54,16.54,0,0,1,2.78-.09,4.74,4.74,0,0,1,1,.12c0,.09-1.46-.09-3.77.24a18.46,18.46,0,0,0-14.09,10.26A36.45,36.45,0,0,0,254.52,424.79Z" style="fill:#263238"></path><path d="M260.15,404.9a1.75,1.75,0,0,1,.59,0,11,11,0,0,1,1.61.07,18.31,18.31,0,0,1,5.14,1.29,18.82,18.82,0,0,1,4.56,2.7,12.34,12.34,0,0,1,1.2,1.08,2,2,0,0,1,.38.45c-.05.05-.66-.52-1.74-1.31a21.38,21.38,0,0,0-9.58-3.94C261,405,260.15,405,260.15,404.9Z" style="fill:#263238"></path><path d="M285.38,353.21a5,5,0,0,1-.06-1.07c0-.69-.05-1.68-.13-2.9A46.46,46.46,0,0,0,280.06,331c-.56-1.08-1.05-1.95-1.4-2.54a4.59,4.59,0,0,1-.5-.94,5.76,5.76,0,0,1,.63.86c.39.57.91,1.42,1.51,2.49a42,42,0,0,1,5.16,18.4c.05,1.23.05,2.22,0,2.91A6.19,6.19,0,0,1,285.38,353.21Z" style="fill:#263238"></path><g style="opacity:0.30000000000000004"><path d="M365,392.94c6.22-10.53,6.35-24.21.93-35.16a98.24,98.24,0,0,1-1.11,35.12"></path></g><path d="M280.69,445.61s-.42.51-1.33,1.26A12.09,12.09,0,0,1,274.9,449a23.74,23.74,0,0,1-7.34.65c-2.78-.2-5.85-.53-9-1a46.38,46.38,0,0,1-8.83-2,11.19,11.19,0,0,1-3.24-2.16,17.56,17.56,0,0,1-2.27-2.58,24,24,0,0,1-2.49-4.32c-.23-.55-.41-1-.52-1.26a2.09,2.09,0,0,0-.2-.44,2.43,2.43,0,0,0,.12.47c.09.3.25.73.46,1.29A21.72,21.72,0,0,0,244,442a16.79,16.79,0,0,0,2.27,2.65,11.31,11.31,0,0,0,3.32,2.26,44.41,44.41,0,0,0,8.91,2.09c3.21.48,6.28.79,9.08,1a23.58,23.58,0,0,0,7.44-.74,11.86,11.86,0,0,0,4.48-2.28,7.32,7.32,0,0,0,1-1A1.9,1.9,0,0,0,280.69,445.61Z" style="fill:#263238"></path><path d="M284.72,365.93c-.11,0-2.68,9.95-5.74,22.28s-5.47,22.35-5.36,22.37,2.67-9.94,5.74-22.28S284.82,366,284.72,365.93Z" style="fill:#263238"></path><path d="M287.82,422.23a3.76,3.76,0,0,0,.12-.82,13,13,0,0,0,.05-2.27A6.51,6.51,0,0,0,286.9,416a9.57,9.57,0,0,0-1.25-1.57,8.57,8.57,0,0,0-1.73-1.29,21.34,21.34,0,0,0-7.1-2.29,17.76,17.76,0,0,0-2.25-.2,2.59,2.59,0,0,0-.83,0c0,.06,1.18.11,3,.44a24,24,0,0,1,6.94,2.35,8,8,0,0,1,1.66,1.23,9.84,9.84,0,0,1,1.22,1.49,6.5,6.5,0,0,1,1.12,3,18.65,18.65,0,0,1,.07,2.23A3.63,3.63,0,0,0,287.82,422.23Z" style="fill:#263238"></path><path d="M337.1,420.83l-.05,0Z" style="fill:#ffbf9d"></path><path d="M336.83,421l-.1,0Z" style="fill:#ffbf9d"></path><path d="M337.05,420.85l-.22.11Z" style="fill:#ffbf9d"></path><path d="M337.19,420.78l-.09.05Z" style="fill:#ffbf9d"></path><path d="M360.08,441.81c-1.95-3.7-17.24-13.46-17.24-13.46l4.14-1,4.57,1.94a11.19,11.19,0,0,0,2,4.28c1.68,2.39,4.53-.09,4.53-.09l-1.93-9.25-9-5.44s-8.5,1.3-9.88,1.95l-3.62,3.32c-1.59,1.25-6.19,6.17-7.44,6.32s-40.72-8.73-40.72-8.73h0c-5.41,4.28-8.26,12.79-9.12,18.93,0,0-1,3,.08,4.66l48.45,3.8,10.26,2.83a72.4,72.4,0,0,0,8.43,2.9c3.42.72,5.72-.38,5.81-2.27s-2.56-2.1-2.56-2.1a52.49,52.49,0,0,1-6.6-2.9,11.53,11.53,0,0,1-3.72-4.09l3.66.44s7.78,5.4,10.7,7,3.5-1.32,3.74-2.21S345.8,439,345.8,439s8.53,5.26,10.07,6.59,3.81,1.72,4.3.83S362,445.51,360.08,441.81Z" style="fill:#ffbf9d"></path><path d="M336.73,421l-.08,0Z" style="fill:#ffbf9d"></path><path d="M336.6,421.07Z" style="fill:#ffbf9d"></path><path d="M336.65,421l0,0Z" style="fill:#ffbf9d"></path><path d="M318,442.66a2,2,0,0,1,0-.6,3.7,3.7,0,0,1,.05-.7,4.81,4.81,0,0,1,.16-.92,13,13,0,0,1,2.48-4.78,27.66,27.66,0,0,1,3.74-3.88,10.3,10.3,0,0,1,1.76-1.36,21.44,21.44,0,0,1-1.59,1.55,34.75,34.75,0,0,0-3.62,3.91,14.08,14.08,0,0,0-2.52,4.62C318,441.8,318.06,442.66,318,442.66Z" style="fill:#ff9a6c"></path><path d="M342.49,428.06a4.47,4.47,0,0,1-2.61-.23,4.41,4.41,0,0,1-2.22-1.39c.06-.09,1,.61,2.33,1.05S342.49,428,342.49,428.06Z" style="fill:#ff9a6c"></path><path d="M345,438.19a24.87,24.87,0,0,1-3.9-1.4,24,24,0,0,1-3.75-1.74,22.38,22.38,0,0,1,3.89,1.4A25,25,0,0,1,345,438.19Z" style="fill:#ff9a6c"></path><path d="M336.83,443.37a9.28,9.28,0,0,1-2-.71,8.73,8.73,0,0,1-1.94-.83,5,5,0,0,1,2.07.5A4.92,4.92,0,0,1,336.83,443.37Z" style="fill:#ff9a6c"></path><path d="M343.77,438.87a8.5,8.5,0,0,0-1.51,1.32,8.7,8.7,0,0,0-.87,1.8s-.09-.24,0-.63a3.23,3.23,0,0,1,1.79-2.35C343.51,438.85,343.76,438.83,343.77,438.87Z" style="fill:#ff9a6c"></path><path d="M347.36,433.21c.05.1-.62.46-1.06,1.23a11.75,11.75,0,0,0-.56,1.53,1.81,1.81,0,0,1,.25-1.71C346.5,433.38,347.34,433.12,347.36,433.21Z" style="fill:#ff9a6c"></path><path d="M346.14,423.11s-.18-.15-.29-.48a2.73,2.73,0,0,1,0-1.35,2.54,2.54,0,0,1,.65-1.18c.24-.25.44-.34.47-.3a7.07,7.07,0,0,0-.77,1.57A6.93,6.93,0,0,0,346.14,423.11Z" style="fill:#ff9a6c"></path><path d="M276,446.66a8.12,8.12,0,0,0,.06-1.11c0-.36,0-.79.05-1.3s.05-1.09.12-1.72a38.71,38.71,0,0,1,2.12-9.71,35.32,35.32,0,0,1,2.29-5c.45-.71.84-1.41,1.28-2l.62-.89.63-.78c1.6-2,2.84-3,2.78-3.06a5.76,5.76,0,0,0-.87.7,10.61,10.61,0,0,0-.95.9A17.17,17.17,0,0,0,282.9,424l-.64.78c-.22.28-.43.58-.65.88-.47.6-.87,1.31-1.33,2a33,33,0,0,0-2.35,5,35.61,35.61,0,0,0-2,9.82c-.06.64-.05,1.22-.07,1.73s0,.95,0,1.31A5.46,5.46,0,0,0,276,446.66Z" style="fill:#263238"></path><g style="opacity:0.30000000000000004"><path d="M309.51,376.34v1.32l-7.37.48-3.74-29.68s-1.58-10-2.61-13.63-5.4-10.88-5.4-10.88l3.24-.61L300,333.62Z"></path></g><path d="M310.48,376.3s-3.27-27.57-6.36-38.58-7.89-14.93-7.89-14.93l-4.75.89s4.73,5.75,6.55,15.89,5.25,37.06,5.25,37.06Z" style="fill:#455a64"></path><path d="M310.48,376.3l-.45,0-1.36.09-5.38.32h-.11l0-.11c-.69-5-1.74-12.57-3-21.81-.68-4.63-1.39-9.69-2.33-15a42.07,42.07,0,0,0-2.22-8,34.74,34.74,0,0,0-4-7.63l-.28-.36-.26-.35.41-.07,4.75-.9.13,0,.08.08a20.47,20.47,0,0,1,3.63,4.64,37.58,37.58,0,0,1,2.52,5.09,57.78,57.78,0,0,1,3,10.22c1.36,6.62,2.24,12.6,3,17.6s1.21,9,1.54,11.83c.16,1.37.27,2.44.36,3.21,0,.34.06.62.08.83s0,.29,0,.29a1.6,1.6,0,0,1-.06-.29c0-.21-.08-.48-.13-.82-.11-.76-.26-1.83-.45-3.19-.39-2.78-.94-6.81-1.7-11.81s-1.7-11-3.08-17.56a58,58,0,0,0-3-10.12,36.56,36.56,0,0,0-2.5-5,20.46,20.46,0,0,0-3.52-4.51l.22.05-4.75.9.15-.42.3.38a35,35,0,0,1,4.1,7.75,43.52,43.52,0,0,1,2.24,8.08c.92,5.35,1.62,10.4,2.26,15,1.28,9.27,2.22,16.86,2.82,21.84l-.12-.1,5.32-.18,1.39,0Z" style="fill:#263238"></path><path d="M358.81,332.08s1.1,30.13-2.67,45.58l-7.2-.23s5.35-37.47,4.64-46.81A10.68,10.68,0,0,1,358.81,332.08Z" style="fill:#455a64"></path><path d="M358.81,332.08s-.4-.25-1.26-.6a11.73,11.73,0,0,0-4-.75l.11-.12c.27,4.21-.24,10.79-1,18.87s-2,17.7-3.46,28l-.25-.3h.19l7,.23-.26.2a114.16,114.16,0,0,0,2.35-17.85c.35-5.48.48-10.39.54-14.49s.05-7.4,0-9.66c0-1.11,0-2,0-2.61s0-.89,0-.91a5,5,0,0,1,.08.91c0,.63.06,1.5.1,2.6.07,2.27.14,5.57.13,9.67s-.11,9-.44,14.52a110.86,110.86,0,0,1-2.29,17.94l-.05.2h-.21l-7-.23h-.47l0-.29c1.44-10.28,2.65-19.88,3.53-27.95s1.43-14.64,1.26-18.82v-.12h.12a11.17,11.17,0,0,1,4,.87,7.07,7.07,0,0,1,.93.5Z" style="fill:#263238"></path><path d="M351.3,373.29a2.15,2.15,0,1,0,2.15-2.16A2.15,2.15,0,0,0,351.3,373.29Z" style="fill:#e0e0e0"></path><path d="M353.45,375.47a2.18,2.18,0,1,1,2.18-2.18A2.19,2.19,0,0,1,353.45,375.47Zm0-4.31a2.13,2.13,0,1,0,2.13,2.13A2.13,2.13,0,0,0,353.45,371.16Z" style="fill:#263238"></path><circle cx="306.38" cy="372.57" r="2.15" style="fill:#e0e0e0"></circle><path d="M306.38,374.75a2.18,2.18,0,1,1,2.18-2.18A2.19,2.19,0,0,1,306.38,374.75Zm0-4.31a2.13,2.13,0,1,0,2.13,2.13A2.13,2.13,0,0,0,306.38,370.44Z" style="fill:#263238"></path><path d="M349.39,395.35a1.64,1.64,0,0,1,0,.33v1c0,.85,0,2.1-.16,3.71a28.17,28.17,0,0,1-1,5.81,19,19,0,0,1-3.8,6.81c-3.61,4.59-10.14,8.11-17.76,9.08a29,29,0,0,1-5.9.08,16.74,16.74,0,0,1-6-1.57,20.58,20.58,0,0,1-9.08-9,29.14,29.14,0,0,1-3.09-12.48,29.52,29.52,0,0,1,0-3.12,4.73,4.73,0,0,1,.4-1.55,2.4,2.4,0,0,1,1.17-1.16,7.4,7.4,0,0,1,3-.22l2.9.12,20.26.83,13.65.6,3.71.2,1,.06a1.14,1.14,0,0,1,.33,0h-1.3l-3.72-.09-13.66-.44-20.26-.73-2.89-.1a7.08,7.08,0,0,0-2.82.19,2.52,2.52,0,0,0-1.27,2.3,28.08,28.08,0,0,0,0,3.05,28.6,28.6,0,0,0,3,12.26,20.12,20.12,0,0,0,8.84,8.81,16.28,16.28,0,0,0,5.79,1.54,29.42,29.42,0,0,0,5.79-.06c7.52-.94,13.95-4.36,17.54-8.84a19.11,19.11,0,0,0,3.8-6.66,28.91,28.91,0,0,0,1.09-5.75c.15-1.6.21-2.85.26-3.7,0-.4,0-.72.05-1A1.68,1.68,0,0,1,349.39,395.35Z" style="fill:#263238"></path><g style="opacity:0.30000000000000004"><path d="M293.49,423.42a13.25,13.25,0,0,0-2.91-10.29,13.76,13.76,0,0,0-9.71-5,178.35,178.35,0,0,1,2.76-37.69l-10,40s13.92.19,14.19,11.79Z"></path></g><g style="opacity:0.30000000000000004"><path d="M304.12,271.12a56.47,56.47,0,0,1,8.37-23.1c.49-.77,1-1.74.55-2.53A1.65,1.65,0,0,0,311,245a4.29,4.29,0,0,0-1.66,1.59,31.69,31.69,0,0,0-5.11,24.24"></path></g><path d="M476.94,386.37,462.8,455.82H340a2.45,2.45,0,0,1-2.45-2.45h0a2.44,2.44,0,0,1,2.45-2.45h24.72l13.12-64.6a2.66,2.66,0,0,1,2.59-2.14l93.86-1A2.68,2.68,0,0,1,476.94,386.37Z" style="fill:#e0e0e0"></path><path d="M476.94,386.37a1.76,1.76,0,0,0,0-.21,2.48,2.48,0,0,0,0-.63,2.69,2.69,0,0,0-1.3-2,2.54,2.54,0,0,0-.81-.32,3.79,3.79,0,0,0-1-.06h-2.21l-5.53.05-35.48.34-24.74.24-13.86.15-7.27.07-3.72,0c-.31,0-.61,0-.95,0a2.88,2.88,0,0,0-2.29,1.69,4.2,4.2,0,0,0-.26.95l-.19.93c-.13.62-.25,1.25-.38,1.88-.26,1.25-.51,2.52-.77,3.79q-.78,3.81-1.57,7.73-1.59,7.82-3.26,16c-2.21,10.89-4.51,22.21-6.89,33.88l.17-.13H340.41a4.52,4.52,0,0,0-1,.05,2.64,2.64,0,0,0-1.61,1.08,2.64,2.64,0,0,0,.91,3.8,2.7,2.7,0,0,0,1.15.31h65.24l57.66,0h.1l0-.1c4.33-21.35,7.84-38.72,10.28-50.75L476,391.22c.32-1.58.56-2.79.72-3.62s.23-1.23.23-1.23l-.27,1.23-.75,3.61c-.66,3.18-1.62,7.85-2.86,13.86-2.47,12-6,29.39-10.39,50.73l.13-.11-57.66,0H339.92a2.38,2.38,0,0,1-1-.27,2.29,2.29,0,0,1-.79-3.31,2.28,2.28,0,0,1,1.4-.93,3.68,3.68,0,0,1,.89-.05h24.45l0-.13,6.88-33.89q1.65-8.16,3.24-16,.79-3.92,1.57-7.73c.25-1.27.51-2.54.76-3.79.13-.63.26-1.26.38-1.88l.19-.93a4.63,4.63,0,0,1,.24-.89,2.54,2.54,0,0,1,1.21-1.27,2.45,2.45,0,0,1,.85-.24c.28,0,.61,0,.92,0l3.71,0,7.27-.08L406,384l24.74-.29,35.48-.44,5.53-.07,2.21,0a4.87,4.87,0,0,1,.95.05,2.77,2.77,0,0,1,.79.31,2.69,2.69,0,0,1,1.3,2A3.39,3.39,0,0,1,476.94,386.37Z" style="fill:#263238"></path><path d="M420.36,418.15a4.06,4.06,0,1,0,4.05-4A4.05,4.05,0,0,0,420.36,418.15Z" style="fill:#fff"></path><path d="M476.83,386.93h-6.44l-17.56.09-57.92.41-8.38.07h-2.06a5.45,5.45,0,0,0-1.05.07,2.92,2.92,0,0,0-1,.4,2.86,2.86,0,0,0-1.24,1.69c-.16.68-.27,1.32-.41,2-1,5.23-2,10.28-3,15.09l-5,25.55c-1.42,7.26-2.58,13.15-3.38,17.23-.38,2-.69,3.6-.9,4.68-.09.53-.17.94-.22,1.22s-.07.42-.07.42,0-.14.1-.41l.26-1.21c.22-1.08.55-2.66,1-4.68.83-4.07,2-9.95,3.49-17.21s3.19-15.92,5.12-25.53c1-4.81,2-9.85,3-15.08.13-.65.26-1.33.4-2a2.55,2.55,0,0,1,2-1.85,5.27,5.27,0,0,1,1-.06l2.06,0,8.38-.06,57.92-.51,17.56-.19,4.77-.07,1.25,0Z" style="fill:#263238"></path></g><g id="freepik--character-1--inject-620"><path d="M277.54,202.76a8.12,8.12,0,0,0,9.61-13,8.44,8.44,0,0,0-.88-16A10.11,10.11,0,0,0,275.77,160a11.35,11.35,0,0,0-12.64-6A8.08,8.08,0,0,0,251,163.54" style="fill:#263238"></path><path d="M278.14,204.28a34.43,34.43,0,0,0-18.27-43l-1.62-.73c-18-6.89-33.89,4.55-40.28,22.72l-28,62.63h0l14.44,46.43,21.58-23,10.49-12.13s18,5,25.84-11.77C266.11,237.3,272.52,220,278.14,204.28Z" style="fill:#ae7461"></path><path d="M236.65,257.2a44.77,44.77,0,0,1-19.17-16.42s-1.76,13.92,15.74,20Z" style="fill:#6f4439"></path><path d="M266.81,217.61a2.64,2.64,0,0,1-3.42,1.38,2.52,2.52,0,0,1-1.5-3.29,2.65,2.65,0,0,1,3.42-1.38A2.53,2.53,0,0,1,266.81,217.61Z" style="fill:#263238"></path><path d="M270.8,210.89c-.44.18-1.65-2-4.24-3.15s-5.08-.73-5.22-1.17c-.07-.2.49-.63,1.59-.86a7.24,7.24,0,0,1,4.35.55,7,7,0,0,1,3.2,2.9C271,210.13,271,210.82,270.8,210.89Z" style="fill:#263238"></path><path d="M243,207.45a2.64,2.64,0,0,1-3.41,1.38,2.52,2.52,0,0,1-1.51-3.28,2.66,2.66,0,0,1,3.42-1.39A2.52,2.52,0,0,1,243,207.45Z" style="fill:#263238"></path><path d="M245.13,199.89c-.44.18-1.65-2-4.24-3.15s-5.08-.72-5.22-1.17c-.07-.2.49-.63,1.59-.86a7.24,7.24,0,0,1,4.35.55,7,7,0,0,1,3.2,2.9C245.33,199.13,245.34,199.82,245.13,199.89Z" style="fill:#263238"></path><path d="M245.87,223.33c0-.15,1.79.3,4.54,1.14.7.23,1.38.38,1.7,0a3.73,3.73,0,0,0,.44-2.16q.15-2.82.32-5.91c.51-8.4,1.21-15.18,1.55-15.15s.19,6.84-.33,15.24c-.15,2.06-.28,4-.41,5.91a4.24,4.24,0,0,1-.83,2.75,1.82,1.82,0,0,1-1.52.47,4.76,4.76,0,0,1-1.2-.35C247.44,224.21,245.81,223.49,245.87,223.33Z" style="fill:#263238"></path><path d="M249.89,191.43c-.63.5-2.53-1.21-5.22-2.53s-5.2-1.91-5.14-2.7c0-.37.79-.75,2-.83a9.07,9.07,0,0,1,4.49,1,8.76,8.76,0,0,1,3.41,3C250.07,190.38,250.19,191.19,249.89,191.43Z" style="fill:#263238"></path><path d="M275.25,201.87c-.81.34-2.67-1.24-5.23-2.42s-4.92-1.75-5.14-2.59c-.09-.4.52-.83,1.72-1a9.22,9.22,0,0,1,4.71,1,9,9,0,0,1,3.65,3.07C275.6,201,275.62,201.69,275.25,201.87Z" style="fill:#263238"></path><path d="M213.28,200.9a5,5,0,0,0-2.95-6.63c-3.28-1.12-7.58-.91-10.3,5.67-4.83,11.69,7.9,14.13,8.06,13.8S211.3,205.81,213.28,200.9Z" style="fill:#ae7461"></path><path d="M207.36,208.29s-.26.06-.67.08a2.25,2.25,0,0,1-1.54-.6c-1-1-1.27-3.35-.46-5.48a7.15,7.15,0,0,1,1.78-2.68,2.51,2.51,0,0,1,2.17-.93,1.11,1.11,0,0,1,1,1c0,.39-.15.6-.09.64s.33-.09.43-.61a1.38,1.38,0,0,0-.15-.92,1.68,1.68,0,0,0-1-.77,3.09,3.09,0,0,0-2.87.94,7.38,7.38,0,0,0-2,3c-.9,2.39-.61,5.09.88,6.28a2.37,2.37,0,0,0,2,.46C207.22,208.57,207.39,208.33,207.36,208.29Z" style="fill:#6f4439"></path><path d="M279.38,176a4.86,4.86,0,0,0,0-1,8.17,8.17,0,0,0-4.26-5.85,31.15,31.15,0,0,0-3.27-3.52,11,11,0,0,0-16.71-8.4l-1.52-.41A11.24,11.24,0,0,0,236,154.2a8.16,8.16,0,0,0-13.27,7c-2.61.25-5.31,1.51-6.43,3.87s0,5.36,2.29,6.07c-2.89,5.33-5.23,12.1-7.53,18-1.62,4.12,2.44,8.84,1.55,11.73-4.51,14.79,3.55,9.13,18.36-19,.39-.09.79-.2,1.21-.33.85-.27,1.31-.9,2.12-1.28s2,.3,2.93.83a8.06,8.06,0,0,0,10-1.82c.28,1.66,2.3,2.5,4,2.25s3.12-1.23,4.65-1.94,3.42-1.09,4.85-.19c.79.5,1.36,1.37,2.25,1.68,1.58.55,3.11-.89,4-2.29.76-1.17,1.58-2.54,2.8-3.08a9.31,9.31,0,0,1,3.3.48c.55.33,1.07.71,1.59,1a5.91,5.91,0,0,0,.79.41,9.3,9.3,0,0,1,.86.9c4,4.76,3.66,17.31,3.66,17.31C283.38,189.3,282.26,182.09,279.38,176Z" style="fill:#263238"></path><path d="M246.28,157.5s.08-.1.27-.25a7.83,7.83,0,0,1,.87-.59,9.47,9.47,0,0,1,9.46.08,9.78,9.78,0,0,1,4.39,5.84l-.34-.18a14.47,14.47,0,0,1,3.66-.83,10.87,10.87,0,0,1,8.21,2.48,8.45,8.45,0,0,1,3.07,6.29,7.56,7.56,0,0,1-1.42,4.53,5.44,5.44,0,0,1-.89,1c-.23.19-.35.28-.37.27s.48-.42,1.09-1.34a7.66,7.66,0,0,0,1.22-4.42,8.18,8.18,0,0,0-3-5.93,10.52,10.52,0,0,0-7.86-2.32,14.43,14.43,0,0,0-3.52.79l-.27.1-.07-.27a9.39,9.39,0,0,0-4.12-5.58,9.08,9.08,0,0,0-5.47-1.32,9.8,9.8,0,0,0-3.67,1C246.71,157.23,246.31,157.53,246.28,157.5Z" style="fill:#fff"></path><path d="M221,161.16s.06,0,.18-.12.31-.17.57-.28a7.06,7.06,0,0,1,2.39-.5,8,8,0,0,1,3.74.81,7.41,7.41,0,0,1,3.56,3.53l-.36,0a10,10,0,0,1,7.37-3.61,12.55,12.55,0,0,1,4.7.6,15.2,15.2,0,0,1,4.4,2.38,25.17,25.17,0,0,1,6.08,7.1l-.38-.05a11.25,11.25,0,0,1,7.65-3.1,10.81,10.81,0,0,1,6.23,1.95,11,11,0,0,1,3,3.1,8.28,8.28,0,0,1,.54,1c.11.24.16.37.14.37s-.26-.47-.82-1.29a11.34,11.34,0,0,0-3-2.93,10.61,10.61,0,0,0-6.05-1.79,10.91,10.91,0,0,0-7.32,3l-.22.21-.16-.26a25.22,25.22,0,0,0-6-6.95A15,15,0,0,0,243,162a12.16,12.16,0,0,0-4.51-.6,9.64,9.64,0,0,0-7.07,3.38l-.21.27-.14-.31a7.14,7.14,0,0,0-3.33-3.4,7.87,7.87,0,0,0-3.59-.87A8.75,8.75,0,0,0,221,161.16Z" style="fill:#fff"></path><path d="M270.26,175a3.67,3.67,0,0,1-.4.35,10,10,0,0,0-1,1.14c-.42.52-.9,1.2-1.48,2a7.81,7.81,0,0,1-2.41,2.33,2.63,2.63,0,0,1-2,.13,9.64,9.64,0,0,1-1.9-1,4.2,4.2,0,0,0-2-.74,5.7,5.7,0,0,0-2.26.54c-.76.32-1.52.73-2.31,1.11a8.72,8.72,0,0,1-2.55,1.06,5.91,5.91,0,0,1-2.91-.29,4.64,4.64,0,0,1-1.35-.72,2.17,2.17,0,0,1-.86-1.39l.45.12a7,7,0,0,1-3.78,2.59,8.81,8.81,0,0,1-4.8-.12,11,11,0,0,1-1.87-.77,4.28,4.28,0,0,0-1.68-.75,2.59,2.59,0,0,0-1.68.42,13,13,0,0,1-1.76.76,9.84,9.84,0,0,1-7.18.1,9.12,9.12,0,0,1-4.36-4.75,9.42,9.42,0,0,1-.54-5.52l.14.21a5,5,0,0,1-3.34-2.59,4.78,4.78,0,0,1,.46-5,4.24,4.24,0,0,1,.34-.39l.14-.12a5.6,5.6,0,0,0-1.13,2.37,4.5,4.5,0,0,0,.44,3,4.7,4.7,0,0,0,3.16,2.37l.18,0,0,.18a9.12,9.12,0,0,0,.58,5.28,8.75,8.75,0,0,0,4.16,4.49,9.47,9.47,0,0,0,6.82-.15,10.56,10.56,0,0,0,1.69-.74,3.12,3.12,0,0,1,2-.48,2.83,2.83,0,0,1,1,.32l.84.49a10.24,10.24,0,0,0,1.78.73,8.28,8.28,0,0,0,4.52.12,7,7,0,0,0,2-.92,7.12,7.12,0,0,0,1.53-1.47l.37-.47.08.59c.12.85,1,1.41,1.87,1.71a5.46,5.46,0,0,0,2.67.28,8.22,8.22,0,0,0,2.43-1c.79-.38,1.55-.78,2.34-1.1a6.16,6.16,0,0,1,2.45-.55,4.68,4.68,0,0,1,2.2.82,9.12,9.12,0,0,0,1.81,1,2.23,2.23,0,0,0,1.76-.08,7.66,7.66,0,0,0,2.35-2.19c.6-.76,1.1-1.42,1.55-1.93a8.53,8.53,0,0,1,1.11-1.1A2.2,2.2,0,0,1,270.26,175Z" style="fill:#455a64"></path><path d="M26,395.05s-5.16,13.76-7,17.46S19,456,19,456h117.7l1.66-35L81.69,386.83Z" style="fill:#263238"></path><path d="M276.11,339.33l46.33,8.74s-.88,20-.29,19.54-64.94-.61-64.94-.61Z" style="fill:#ae7461"></path><path d="M321.62,348l32.11,9.91,14.11,9.91L380.4,381.4s-.14,3.77-4.89,1.39a44.93,44.93,0,0,1-9.35-6.84l9.35,17.17s-3.77,3.77-6.84-1.67S361,379,361,379l-2.79-2.09s2.93,5.16,2.93,6.56-2.93,9.22-2.93,9.22L353.59,399a2.88,2.88,0,0,1-2.58-3.21,9.92,9.92,0,0,1,1.89-5l-5.59,4.89s-1.95-1.12-.28-4.75l2.1-2.23.69-3.49-1.67-2.66s-4.33.28-7.68-4.74-8.52-4-15.78-8.38-6.56-9.08-6.56-9.08Z" style="fill:#ae7461"></path><path d="M338.86,360.27a14.56,14.56,0,0,0,1.22,3.86,15.86,15.86,0,0,0,2.51,3.6,36.16,36.16,0,0,0,4,3.65,22.84,22.84,0,0,1,4.05,3.74,5.12,5.12,0,0,1,1,4.37,3.27,3.27,0,0,1-2.11,2.18,2.24,2.24,0,0,1-.83.09c-.19,0-.29-.05-.29-.07a5.08,5.08,0,0,0,1.06-.21,3.14,3.14,0,0,0,1.82-2.08,4.81,4.81,0,0,0-1-4,24.54,24.54,0,0,0-4-3.62,33.34,33.34,0,0,1-4-3.73,15.24,15.24,0,0,1-2.49-3.76,10.3,10.3,0,0,1-.85-2.91A3.14,3.14,0,0,1,338.86,360.27Z" style="fill:#6f4439"></path><path d="M365.86,375.19a3.09,3.09,0,0,1-.87-.38c-.54-.27-1.31-.68-2.26-1.21-1.89-1.05-4.47-2.57-7.25-4.34-2.23-1.41-4.25-2.77-5.85-3.89l.19,0c-1.44.44-2.62.79-3.45,1a5.7,5.7,0,0,1-1.32.3,6,6,0,0,1,1.24-.53l3.4-1.19.09,0,.09.06,5.88,3.79c2.79,1.77,5.33,3.33,7.17,4.46A28.55,28.55,0,0,1,365.86,375.19Z" style="fill:#6f4439"></path><path d="M358,375.74a4,4,0,0,1-2.56,1.61,4,4,0,0,1-3-.14c0-.16,1.35.05,2.89-.37S357.94,375.62,358,375.74Z" style="fill:#6f4439"></path><path d="M352.67,379a36.28,36.28,0,0,1,2.09,5.86,3.54,3.54,0,0,1-.28,2.51c-.32.7-.66,1.26-.9,1.76a8.35,8.35,0,0,0-.53,1.69,2.49,2.49,0,0,1,.19-1.84c.2-.54.53-1.13.8-1.8a3.15,3.15,0,0,0,.22-2.19A38.31,38.31,0,0,1,352.67,379Z" style="fill:#6f4439"></path><path d="M22.75,388.14l41.3-44.57s54.34-93.31,65.15-101.91c27-21.51,57.7-10.25,57.7-10.25l10.94-4.15,18.42,46.79s-6.83,10-7.51,12S126.15,412,126.15,412L96.89,453s-45.36-8.5-64.78-33.27C23.24,408.35,22.75,388.14,22.75,388.14Z" style="fill:#455a64"></path><path d="M220.83,273l6.06-5.17L227,283.6l10.47,14.8s-30.66,36.92-37,43.08-56.75,66-56.75,66-2.67,28.4-6.06,36.45-26.3,5.93-26.3,5.93l11.38-32.59,4.73-23.52L184.71,318l22.46-29.41Z" style="fill:#455a64"></path><path d="M205.5,323.68c0,.94,31.15,30.72,31.15,30.72s2.25,5.64,4.82,6.58,15.41,6.89,15.41,6.89L277,339s-10.17-9.4-13.06-11-9.84-9.66-9.84-9.66l-23.32-28-17.89,9.13Z" style="fill:#455a64"></path><path d="M207.17,288.63a1.37,1.37,0,0,1,.14-.28l.45-.78c.44-.72,1-1.72,1.78-3,1.59-2.6,3.82-6.25,6.54-10.67l.23.31-16.94,4.52-.25.07-.07-.25c-.57-2.18-1.17-4.45-1.78-6.77-2.9-11.13-5.52-21.2-7.43-28.55l-2.2-8.66-.57-2.37a6.3,6.3,0,0,1-.17-.83,4.88,4.88,0,0,1,.27.81c.17.58.39,1.35.67,2.33.57,2.09,1.37,5,2.35,8.63,1.95,7.34,4.63,17.39,7.58,28.51.61,2.32,1.21,4.59,1.78,6.77l-.31-.19,17-4.42.52-.14-.29.45c-2.77,4.39-5.06,8-6.69,10.57l-1.87,2.91-.51.75C207.25,288.55,207.18,288.64,207.17,288.63Z" style="fill:#263238"></path><path d="M227,283a3.43,3.43,0,0,1-.55.52l-1.62,1.36-5.85,4.75-.42.34.06-.54c.32-3,.69-6.51,1.09-10.26.12-1.09.24-2.17.35-3.2l.44.21c-3.6,3.42-6.79,6.41-9.08,8.54l-2.73,2.49a6.68,6.68,0,0,1-1,.86,7.2,7.2,0,0,1,.91-1l2.61-2.6c2.24-2.2,5.38-5.24,9-8.67l.51-.49-.08.7c-.11,1-.23,2.11-.35,3.21-.42,3.74-.82,7.24-1.16,10.25l-.36-.2,6-4.61,1.7-1.26A3,3,0,0,1,227,283Z" style="fill:#263238"></path><path d="M230.78,305.29s-.08.16-.27.43-.53.69-.87,1.15c-.77,1-1.9,2.43-3.3,4.18-2.82,3.51-6.77,8.3-11.25,13.5s-8.63,9.82-11.68,13.12c-1.52,1.65-2.76,3-3.64,3.89l-1,1a2.6,2.6,0,0,1-.38.34,1.63,1.63,0,0,1,.3-.41l.94-1.1,3.52-4c3-3.37,7.08-8,11.56-13.22s8.47-9.95,11.35-13.39l3.43-4.07,1-1.1A2.07,2.07,0,0,1,230.78,305.29Z" style="fill:#263238"></path><path d="M262.52,328.22a7.28,7.28,0,0,1-.77,1.15c-.52.73-1.3,1.76-2.28,3-2,2.51-4.77,5.9-8.08,9.46s-6.49,6.62-8.85,8.76c-1.18,1.07-2.15,1.92-2.84,2.49a8.28,8.28,0,0,1-1.09.85,6.7,6.7,0,0,1,1-1l2.72-2.61c2.29-2.21,5.41-5.29,8.72-8.84s6.14-6.9,8.18-9.34l2.4-2.9A7.28,7.28,0,0,1,262.52,328.22Z" style="fill:#263238"></path><path d="M106.69,440.31s.08-.15.25-.41l.75-1.16,2.94-4.42,10.9-16.2c9.22-13.68,22-32.52,36-53.44s26.54-39.94,34.87-54.18c4.29-7.05,8-12.6,10.81-16.27,1.38-1.85,2.51-3.25,3.29-4.17l.9-1.05a4,4,0,0,1,.32-.35l-.28.38-.85,1.08c-.76.95-1.86,2.37-3.22,4.23-2.74,3.7-6.41,9.27-10.65,16.34C184.46,325,171.91,344,158,365s-26.83,39.73-36.12,53.35l-11,16.11-3,4.37-.8,1.13C106.8,440.18,106.69,440.31,106.69,440.31Z" style="fill:#263238"></path><path d="M109,390.67s-.16-.09-.43-.3l-1.16-.94c-1-.82-2.42-2-4.15-3.58-3.45-3.08-8.1-7.49-13-12.63s-9-10-11.87-13.66c-1.44-1.81-2.58-3.3-3.35-4.34-.35-.49-.63-.89-.87-1.21s-.29-.43-.27-.45a2.65,2.65,0,0,1,.36.38c.25.31.56.69.95,1.15l3.47,4.24c2.94,3.56,7.11,8.4,12,13.54s9.44,9.56,12.83,12.7l4,3.71c.43.41.8.74,1.09,1A2.26,2.26,0,0,1,109,390.67Z" style="fill:#263238"></path><path d="M172.8,246.21c-.05,0-.44-.65-1.33-1.75a17.79,17.79,0,0,0-4.51-3.84,29.6,29.6,0,0,0-8.21-3.2A37.63,37.63,0,0,0,148,236.17a23.85,23.85,0,0,0-10.34,2.74,24.15,24.15,0,0,0-6.83,5.51,26.52,26.52,0,0,0-3.34,4.93c-.66,1.25-1,2-1,2a2,2,0,0,1,.17-.54c.14-.35.33-.87.65-1.51A23.54,23.54,0,0,1,148,235.65,36.69,36.69,0,0,1,158.87,237a29.23,29.23,0,0,1,8.29,3.34,17.07,17.07,0,0,1,4.47,4,13.22,13.22,0,0,1,.91,1.36A3.49,3.49,0,0,1,172.8,246.21Z" style="fill:#263238"></path><path d="M122.74,259.49s-1.76,61.83,0,91.13c.54,8.95,3.86,14.86,4.55,15.06,1.8.53,38.1-2.54,38.1-2.54s.29-11.09,3-15.26-4.28-2.42-4.28-2.42,15-76.21,13.12-90.24" style="fill:#455a64"></path><path d="M177.26,255.22s.1.6.18,1.75.07,2.86-.06,5.07c-.21,4.42-.88,10.85-2,18.88-2.19,16.07-6,38.58-11,64.59l-.31-.29a13.29,13.29,0,0,1,2.82-.37,4.22,4.22,0,0,1,1.47.21,1.59,1.59,0,0,1,.68.46,1.28,1.28,0,0,1,.26.83,3.37,3.37,0,0,1-.53,1.43c-.25.43-.47.8-.68,1.22a16.64,16.64,0,0,0-.94,2.65,54.46,54.46,0,0,0-1.51,11.5v.23l-.23,0L150,364.65c-4.47.34-8.88.67-13.24,1-2.18.14-4.34.28-6.5.35-.53,0-1.07,0-1.61,0a5.78,5.78,0,0,1-.83,0l-.43,0c-.11,0-.41-.17-.46-.26a11.67,11.67,0,0,1-1.62-2.83,37.06,37.06,0,0,1-2.76-12.16q-.15-3-.3-6c-.06-2-.13-4-.19-5.89-.38-15.54-.28-29.53-.15-41.27s.36-21.25.53-27.81c.1-3.27.18-5.82.23-7.56,0-.85.06-1.51.08-2s0-.67,0-.67,0,.23,0,.67,0,1.12,0,2c0,1.75-.07,4.29-.13,7.56-.11,6.57-.27,16.07-.36,27.81s-.14,25.73.26,41.25c.07,1.94.13,3.91.2,5.89s.2,4,.3,6a36.34,36.34,0,0,0,2.74,12,11.63,11.63,0,0,0,1.51,2.68.32.32,0,0,0,.1.09s0,0,.12,0l.36,0a6.68,6.68,0,0,0,.78,0c.53,0,1.06,0,1.6,0,2.14-.08,4.3-.22,6.48-.36,4.35-.28,8.76-.61,13.23-.95l15.46-1.25-.24.25a55.11,55.11,0,0,1,1.54-11.61,17.84,17.84,0,0,1,1-2.74,9.13,9.13,0,0,0,1.16-2.45.78.78,0,0,0-.61-.8,3.87,3.87,0,0,0-1.29-.18,13,13,0,0,0-2.7.35l-.37.09.07-.38c5-26,8.93-48.49,11.2-64.53,1.13-8,1.85-14.44,2.11-18.85.16-2.2.16-3.91.14-5.06,0-.57-.06-1-.07-1.3S177.26,255.22,177.26,255.22Z" style="fill:#263238"></path><path d="M165.29,345.84a8.93,8.93,0,0,1-1.57.32c-1,.17-2.49.39-4.32.61-3.66.45-8.73.91-14.34,1.15s-10.71.22-14.39.08c-1.84-.07-3.33-.15-4.35-.24a9.69,9.69,0,0,1-1.59-.18,9,9,0,0,1,1.6,0l4.35.07c3.67.05,8.75,0,14.36-.23s10.66-.64,14.32-1l4.33-.44A10.38,10.38,0,0,1,165.29,345.84Z" style="fill:#263238"></path><polygon points="127.29 365.68 148.63 455.54 169.98 455.54 164.01 363.4 127.29 365.68" style="fill:#ae7461"></polygon><path d="M168.08,442.83l21.28,3.72,19.15,5.79c1.78.61,2.91,1.63,2.2,3.86h0l-62.08-.66V444.75Z" style="fill:#ae7461"></path><path d="M202.12,456.11a11.07,11.07,0,0,0,0-1.22A3.08,3.08,0,0,0,200,452.6a24,24,0,0,0-4.89-.69l-6.09-.62c-4.32-.46-8.23-.9-11.06-1.24l-3.35-.44a5.3,5.3,0,0,1-1.22-.23,6.53,6.53,0,0,1,1.24,0l3.37.27c2.83.25,6.75.64,11.07,1.09l6.09.66,2.66.31a8.23,8.23,0,0,1,2.31.52,3.24,3.24,0,0,1,2.12,2.6,2.89,2.89,0,0,1-.05.94A1.43,1.43,0,0,1,202.12,456.11Z" style="fill:#6f4439"></path><g style="opacity:0.30000000000000004"><path d="M165.29,382.36l7.51-32.77V339.33l-2.82-1.8,6.6-67.22-12.44,75.15,1.5-.13c1.71-.14,3.84-.54,3.43,1.12l-2.34,5.14-2.6,13.61Z"></path></g><path d="M235.75,224.22c-2.37,2.48-3.07,6.05-1.1,8.86a5,5,0,0,0,7,.88,9,9,0,0,0,2.53-3.46C241.87,228.66,238.08,226.06,235.75,224.22Z" style="fill:#6f4439"></path><path d="M240.9,234.55a2.5,2.5,0,0,1-1,.37,5.45,5.45,0,0,1-2.88-.27,5.66,5.66,0,0,1-3.14-2.92,6.53,6.53,0,0,1-.12-5.23,8,8,0,0,1,1.46-2.4l.15-.17.19.14c2.43,1.8,4.55,3.39,6,4.55a20.74,20.74,0,0,1,2.35,1.92,18.77,18.77,0,0,1-2.54-1.66c-1.55-1.08-3.71-2.62-6.15-4.4l.34,0a7.6,7.6,0,0,0-1.36,2.25,6.14,6.14,0,0,0,.08,4.84,5.34,5.34,0,0,0,2.83,2.78,5.6,5.6,0,0,0,2.72.41C240.53,234.64,240.88,234.51,240.9,234.55Z" style="fill:#263238"></path></g></svg>