<svg xmlns="http://www.w3.org/2000/svg" viewBox="0 0 500 500"><g id="freepik--Plant--inject-268"><path d="M409.13,360.17c14.57,14.26,17,36.33,13.94,55.66-.08.44-.76.32-.76-.09,0-4.4.14-8.76.12-13.11-.08-.2-.14-.39-.22-.59-3.8-2.76-7.3-5.88-9.47-10.17-2.43-4.78-3.39-10.18-5.25-15.18-.17-.48.34-.34.67-.09,8.87,6.54,11.69,13.57,14.23,23a78.27,78.27,0,0,0-1.54-14.64c-1.91-8.92-5.7-17.76-12.11-24.38A.27.27,0,0,1,409.13,360.17Z" style="fill:#263238"></path><path d="M406.39,361.83c-2.51.09-4.08,4.09-6,5.26a1.89,1.89,0,0,1-2.77-.43c-1.94-2.71.72-6,3.22-7.9-1.79.73-3.27,2-5.2,2.39a1.81,1.81,0,0,1-2.34-1.41c-.85-3.68,3.77-5.32,6.94-5.4-1.54-1.06-5.94-4-3.6-5.4s7.54,2.72,9.23,4.09c2.47,2,5.43,5,5.54,8.16C411.53,364.86,408.32,362.6,406.39,361.83Z" style="fill:#F26C9F"></path><path d="M406.39,361.83c-2.51.09-4.08,4.09-6,5.26a1.89,1.89,0,0,1-2.77-.43c-1.94-2.71.72-6,3.22-7.9-1.79.73-3.27,2-5.2,2.39a1.81,1.81,0,0,1-2.34-1.41c-.85-3.68,3.77-5.32,6.94-5.4-1.54-1.06-5.94-4-3.6-5.4s7.54,2.72,9.23,4.09c2.47,2,5.43,5,5.54,8.16C411.53,364.86,408.32,362.6,406.39,361.83Z" style="opacity:0.1"></path><path d="M407.11,362.45c-3.2-1.46-9.36.64-9.88-.57-1.06-2.47,3.86-4.17,6.51-4.49-2.44-.67-7.13-1.72-7-4.08.18-2.88,7.19-.4,10.74,2.32,4.47,3.43,4.44,6.73,3.7,7.4C410.18,363.93,407.64,362.69,407.11,362.45Z" style="fill:#F26C9F"></path><path d="M442.31,358.76c-15.1,13.7-18.39,35.66-16.05,55.09.06.44.74.35.76-.07.16-4.39.2-8.76.38-13.1l.24-.58c3.91-2.61,7.52-5.6,9.85-9.8,2.61-4.69,3.77-10.05,5.82-15,.2-.47-.32-.35-.66-.12-9.11,6.2-12.2,13.12-15.1,22.42a79,79,0,0,1,2.1-14.57c2.25-8.84,6.37-17.53,13-23.9C442.93,358.91,442.57,358.51,442.31,358.76Z" style="fill:#263238"></path><path d="M445,360.52c2.5.18,3.92,4.24,5.83,5.49a1.88,1.88,0,0,0,2.78-.33c2-2.63-.49-6.06-2.91-8,1.75.8,3.18,2.15,5.09,2.59a1.81,1.81,0,0,0,2.4-1.32c1-3.64-3.57-5.46-6.73-5.66,1.58-1,6.09-3.74,3.8-5.26s-7.63,2.43-9.37,3.74c-2.55,1.91-5.62,4.8-5.85,7.94C439.73,363.35,443,361.22,445,360.52Z" style="fill:#F26C9F"></path><path d="M445,360.52c2.5.18,3.92,4.24,5.83,5.49a1.88,1.88,0,0,0,2.78-.33c2-2.63-.49-6.06-2.91-8,1.75.8,3.18,2.15,5.09,2.59a1.81,1.81,0,0,0,2.4-1.32c1-3.64-3.57-5.46-6.73-5.66,1.58-1,6.09-3.74,3.8-5.26s-7.63,2.43-9.37,3.74c-2.55,1.91-5.62,4.8-5.85,7.94C439.73,363.35,443,361.22,445,360.52Z" style="opacity:0.1"></path><path d="M444.23,361.11c3.26-1.33,9.33,1,9.9-.19,1.16-2.43-3.69-4.31-6.34-4.74,2.47-.57,7.2-1.45,7.14-3.81-.06-2.88-7.16-.67-10.81,1.91-4.6,3.26-4.7,6.56-4,7.25C441.11,362.48,443.7,361.33,444.23,361.11Z" style="fill:#F26C9F"></path><path d="M426.87,394.94a149.51,149.51,0,0,1-4.69,21.66.54.54,0,0,1-1.06-.21c1-6.68,2.8-13.23,3.79-19.91a99.8,99.8,0,0,0,1.16-20.43c-.63-11.25-3.69-23.21-11-32-.16-.2.18-.5.35-.31,14.69,17.14,12.36,38.15,12.34,40,2.08-7.09,4.23-15.22,12.1-22.45.34-.31.6-.16.55.37-1.41,13.16-5.07,20-12.7,27.06C427.47,390.81,427.2,392.89,426.87,394.94Z" style="fill:#263238"></path><path d="M414.91,346c-2.64-1.18-6.29,2.19-8.91,2.42a2.17,2.17,0,0,1-2.65-1.85c-.65-3.77,3.79-5.9,7.32-6.57-2.23-.14-4.41.45-6.59-.14a2.08,2.08,0,0,1-1.73-2.63c1-4.25,6.59-3.63,9.92-2.11-1.06-1.88-4.17-7.12-1-7.42s6.46,6.62,7.52,8.89c1.56,3.33,3.11,7.93,1.64,11.25C418.72,351.73,416.52,347.77,414.91,346Z" style="fill:#F26C9F"></path><path d="M414.91,346c-2.64-1.18-6.29,2.19-8.91,2.42a2.17,2.17,0,0,1-2.65-1.85c-.65-3.77,3.79-5.9,7.32-6.57-2.23-.14-4.41.45-6.59-.14a2.08,2.08,0,0,1-1.73-2.63c1-4.25,6.59-3.63,9.92-2.11-1.06-1.88-4.17-7.12-1-7.42s6.46,6.62,7.52,8.89c1.56,3.33,3.11,7.93,1.64,11.25C418.72,351.73,416.52,347.77,414.91,346Z" style="opacity:0.1"></path><path d="M415.35,347c-2.59-3.12-10-4.05-10-5.57.14-3.09,6.1-2.38,9-1.38-2.2-1.92-6.53-5.37-5.2-7.75,1.64-2.9,7.66,3.2,10,7.81,2.91,5.81,1.21,9.23.11,9.54C417.78,350.1,415.78,347.53,415.35,347Z" style="fill:#F26C9F"></path><path d="M436.53,398.9,443,448.42H403.58c.81-4.39,8.15-49.58,8.15-49.58Z" style="fill:#F26C9F"></path></g><g id="freepik--Device--inject-268"><path d="M374.66,58.3H202.35a17.59,17.59,0,0,0-17.43,17.76V430.77a17.61,17.61,0,0,0,17.43,17.76H374.66a17.62,17.62,0,0,0,17.45-17.76V76.06A17.6,17.6,0,0,0,374.66,58.3Zm6.55,361.5c0,9.34-7,16.89-15.62,16.89H211.44c-8.64,0-15.64-7.55-15.64-16.89V89.5c0-19,7-20,15.64-20h30.88c1.8,0,3.27,2,3.27,4.57v1.09c0,5.92,3.24,5.94,7.21,5.94h71.41c4,0,7.24,0,7.24-5.94V74.12c0-2.53,1.45-4.57,3.27-4.57h30.87c8.63,0,15.62,2.53,15.62,20Z" style="fill:#263238"></path><path d="M381.22,89.5V419.8c0,9.34-7,16.89-15.62,16.89H211.45c-8.64,0-15.64-7.55-15.64-16.89V89.5c0-19,7-20,15.64-20h30.88c1.8,0,3.27,2,3.27,4.57v1.09c0,5.92,3.24,5.94,7.21,5.94h71.41c4,0,7.24,0,7.24-5.94V74.12c0-2.53,1.45-4.57,3.27-4.57H365.6C374.23,69.55,381.22,72.08,381.22,89.5Z" style="fill:#fff"></path><path d="M381.22,89.51v30H195.81v-30c0-19,7-20,15.64-20h30.88c1.8,0,3.27,2,3.27,4.57v1.09c0,5.92,3.24,5.94,7.21,5.94h71.41c4,0,7.24,0,7.24-5.94V74.13c0-2.53,1.45-4.57,3.27-4.57H365.6C374.23,69.56,381.22,72.09,381.22,89.51Z" style="fill:#F26C9F"></path><path d="M298.25,73.47H278.77a1.21,1.21,0,0,1-1.2-1.21h0a1.2,1.2,0,0,1,1.2-1.2h19.48a1.2,1.2,0,0,1,1.2,1.2h0A1.2,1.2,0,0,1,298.25,73.47Z" style="fill:#fff"></path><rect x="207.9" y="97.8" width="16.09" height="10.2" style="fill:#fff"></rect><path d="M224,97.8c-.65.62-1.31,1.22-2,1.83l-2,1.79L218,103.26l-.06.06L216,104.93l-.09.07-.09-.07L214,103.31l-.06,0c-.7-.61-1.4-1.22-2.09-1.84l-2-1.79c-.65-.61-1.31-1.21-2-1.83.69.54,1.37,1.09,2,1.64s1.36,1.11,2,1.68,1.51,1.26,2.26,1.9h0l1.68,1.44,1.69-1.44h0l2.25-1.9,2-1.67Z" style="fill:#F26C9F"></path><path d="M214.27,103.25s0,0,0,0l-.26.21c-.4.34-.82.67-1.24,1s-1,.76-1.56,1.13-1.06.73-1.6,1.08-1.1.69-1.66,1c.48-.43,1-.83,1.5-1.22s1-.76,1.57-1.13,1.06-.73,1.6-1.08.88-.55,1.33-.81a3.07,3.07,0,0,1,.31-.17Z" style="fill:#F26C9F"></path><path d="M224,107.68c-.57-.31-1.12-.65-1.66-1s-1.08-.71-1.61-1.08-1.05-.74-1.56-1.13-.83-.64-1.23-1l-.26-.21,0,0h0l.31.18q.68.39,1.32.81c.55.35,1.08.71,1.61,1.08s1.05.74,1.56,1.13S223.46,107.25,224,107.68Z" style="fill:#F26C9F"></path><path d="M227.44,97.8A3.45,3.45,0,1,1,224,94.35,3.45,3.45,0,0,1,227.44,97.8Z" style="fill:#455a64"></path><path d="M225.13,98.49a.28.28,0,0,1-.28.27h0v.38a.28.28,0,0,1-.55,0v-.38h-1.56a.22.22,0,0,1-.17-.06.26.26,0,0,1,0-.38L224.31,96s0,0,0,0,0,0,0,0h0l0,0h.08s0,0,0,0h.16l0,0,0,0h0l0,0a0,0,0,0,0,0,0l0,0v0s0,0,0,0a0,0,0,0,1,0,0v0s0,0,0,0v2h0A.28.28,0,0,1,225.13,98.49Zm-.88-1.5-1,1.23h1Z" style="fill:#fff"></path><g id="freepik--u5Zjqx--inject-268"><path d="M237,76.68l-.3.3-.17.17a4.07,4.07,0,0,0-5.75,0l-.16-.17c-.1-.1-.2-.19-.29-.29h0l0,0,.38-.34a4.13,4.13,0,0,1,.87-.55,4.29,4.29,0,0,1,1.16-.39c.19,0,.38,0,.57-.08h.51l.39,0a4.22,4.22,0,0,1,1.06.26,4.69,4.69,0,0,1,.72.33,5.33,5.33,0,0,1,.69.48l.31.29Z" style="fill:#fff"></path><path d="M231.72,78.09l-.47-.47a3.27,3.27,0,0,1,1.91-1,3.36,3.36,0,0,1,2.89,1l-.47.47a2.73,2.73,0,0,0-1.93-.79A2.7,2.7,0,0,0,231.72,78.09Z" style="fill:#fff"></path><path d="M235.11,78.56c-.16.15-.32.31-.47.47a1.37,1.37,0,0,0-1-.41,1.35,1.35,0,0,0-1,.41l-.47-.47A2.06,2.06,0,0,1,235.11,78.56Z" style="fill:#fff"></path><path d="M234.07,79.45a.43.43,0,1,1-.42-.42A.42.42,0,0,1,234.07,79.45Z" style="fill:#fff"></path></g><path d="M207.9,77.58a1.23,1.23,0,1,1,1.23,1.23A1.23,1.23,0,0,1,207.9,77.58Z" style="fill:#fff"></path><path d="M211.77,77.58A1.23,1.23,0,1,1,213,78.81,1.23,1.23,0,0,1,211.77,77.58Z" style="fill:#fff"></path><path d="M215.64,77.58a1.23,1.23,0,1,1,1.23,1.23A1.23,1.23,0,0,1,215.64,77.58Z" style="fill:#fff"></path><path d="M219.51,77.58a1.23,1.23,0,1,1,1.23,1.23A1.23,1.23,0,0,1,219.51,77.58Z" style="fill:#fff"></path><path d="M223.38,77.58a1.23,1.23,0,1,1,1.23,1.23A1.23,1.23,0,0,1,223.38,77.58Z" style="fill:#fff"></path><path d="M367.3,80.27h-10V75.63h10Zm-9.49-.51h9V76.14h-9Z" style="fill:#fff"></path><rect x="358.13" y="76.42" width="6.45" height="3.06" style="fill:#fff"></rect><rect x="367.31" y="76.71" width="0.89" height="2.48" style="fill:#fff"></rect><path d="M272.56,99.78a.59.59,0,0,1,.6-.6.6.6,0,0,1,.61.6v6.41a.6.6,0,0,1-.61.6.59.59,0,0,1-.6-.6Z" style="fill:#fff"></path><path d="M277,106.19a.6.6,0,0,1-.59.6.59.59,0,0,1-.59-.6V99.87h0a.57.57,0,0,1,.23-.5.61.61,0,0,1,.83.13l3.51,4.86V99.87a.59.59,0,0,1,.59-.58.6.6,0,0,1,.6.58v6.32a.6.6,0,0,1-.6.6.61.61,0,0,1-.45-.22l0-.06L277,101.68Z" style="fill:#fff"></path><path d="M284.19,106.19V99.78a.6.6,0,0,1,.6-.6h1.54a2.07,2.07,0,0,1,2.07,2.06,2,2,0,0,1-.42,1.24,2.33,2.33,0,0,1-1.22,4.31h-1.93a0,0,0,0,1,0,0h0A.6.6,0,0,1,284.19,106.19Zm1.21-4.06h.93a.88.88,0,0,0,.86-.89.85.85,0,0,0-.86-.85h-.93Zm0,3.45h1.36a1.13,1.13,0,0,0,0-2.25H285.4Z" style="fill:#fff"></path><path d="M296.65,100.12a4,4,0,0,1,0,5.51,3.58,3.58,0,0,1-2.6,1.16,3.69,3.69,0,0,1-2.66-1.16,4.05,4.05,0,0,1,0-5.51A3.65,3.65,0,0,1,294.05,99,3.55,3.55,0,0,1,296.65,100.12Zm-.14,2.75a2.81,2.81,0,0,0-.74-1.9,2.32,2.32,0,0,0-1.72-.77,2.37,2.37,0,0,0-1.76.77,2.81,2.81,0,0,0-.74,1.9,2.77,2.77,0,0,0,.74,1.9,2.38,2.38,0,0,0,1.76.78,2.33,2.33,0,0,0,1.72-.78A2.77,2.77,0,0,0,296.51,102.87Z" style="fill:#fff"></path><path d="M304.8,100.21,302.73,103l2.07,2.82a.6.6,0,0,1-.13.83.59.59,0,0,1-.35.12.64.64,0,0,1-.49-.25L302,104l-1.84,2.51a.64.64,0,0,1-.48.25.55.55,0,0,1-.35-.12.6.6,0,0,1-.14-.83l2.07-2.82-2.07-2.81a.59.59,0,0,1,.14-.82.56.56,0,0,1,.83.13L302,102l1.82-2.5a.57.57,0,0,1,.84-.13A.59.59,0,0,1,304.8,100.21Z" style="fill:#fff"></path><path d="M355.68,106.73l-1.26,1-2.33-3.08-.85-1.13a2.15,2.15,0,0,0,.49-.27,2.08,2.08,0,0,0,.64-.84l.91,1.19Z" style="fill:#fff"></path><path d="M353.2,99.47a3.44,3.44,0,1,0-1.11,5.13,3,3,0,0,0,.48-.31,3.11,3.11,0,0,0,.71-.74A3.44,3.44,0,0,0,353.2,99.47Zm-1.47,3.73a2.15,2.15,0,0,1-.49.27,2.05,2.05,0,1,1,1.13-1.11A2.08,2.08,0,0,1,351.73,103.2Z" style="fill:#fff"></path><rect x="329.44" y="98.33" width="9.14" height="9.14" style="fill:#fff"></rect><rect x="333.51" y="100.03" width="1" height="5.75" style="fill:#F26C9F"></rect><rect x="333.51" y="100.03" width="1" height="5.75" transform="translate(231.1 436.91) rotate(-90)" style="fill:#F26C9F"></rect><path d="M367.3,98.92a.79.79,0,1,1-.79-.79A.79.79,0,0,1,367.3,98.92Z" style="fill:#fff"></path><path d="M367.3,103a.79.79,0,0,1-1.58,0,.79.79,0,1,1,1.58,0Z" style="fill:#fff"></path><path d="M367.3,107.12a.79.79,0,1,1-1.58,0,.79.79,0,0,1,1.58,0Z" style="fill:#fff"></path><rect x="195.81" y="119.47" width="185.4" height="28.63" style="fill:#ebebeb"></rect><path d="M226,139.32a6.38,6.38,0,0,1-1.88.78,6.48,6.48,0,1,1,1.88-.78Z" style="fill:#F26C9F"></path><path d="M224.51,133a2,2,0,1,1-2-2A2,2,0,0,1,224.51,133Z" style="fill:#fff"></path><path d="M226,138.5v.82a6.38,6.38,0,0,1-1.88.78,6.5,6.5,0,0,1-5-.78v-.82a3.42,3.42,0,0,1,6.84,0Z" style="fill:#fff"></path><polygon points="263.36 138.09 254.76 138.09 258.27 133.79 254.76 129.49 263.36 129.49 266.87 133.79 263.36 138.09" style="fill:#fff"></polygon><polygon points="241.26 129.49 242.66 132.32 245.78 132.77 243.52 134.98 244.06 138.09 241.26 136.62 238.47 138.09 239 134.98 236.74 132.77 239.86 132.32 241.26 129.49" style="fill:#F26C9F"></polygon><rect x="273.04" y="132.04" width="50.74" height="3.5" style="fill:#263238"></rect><rect x="344.69" y="132.04" width="19.89" height="3.5" style="fill:#455a64"></rect><path d="M226,168a6.38,6.38,0,0,1-1.88.78A6.48,6.48,0,1,1,226,168Z" style="fill:#455a64"></path><path d="M224.51,161.68a2,2,0,1,1-2-2A2,2,0,0,1,224.51,161.68Z" style="fill:#fff"></path><path d="M226,167.13V168a6.38,6.38,0,0,1-1.88.78,6.45,6.45,0,0,1-5-.78v-.82a3.42,3.42,0,0,1,6.84,0Z" style="fill:#fff"></path><polygon points="263.36 166.72 254.76 166.72 258.27 162.42 254.76 158.12 263.36 158.12 266.87 162.42 263.36 166.72" style="fill:#fff"></polygon><path d="M263.48,167h-9.25l3.72-4.55-3.72-4.55h9.25l3.71,4.55Zm-8.19-.5h8l3.3-4.05-3.3-4h-8l3.3,4Z" style="fill:#ebebeb"></path><polygon points="241.26 158.12 242.66 160.95 245.78 161.4 243.52 163.61 244.06 166.72 241.26 165.25 238.47 166.72 239 163.61 236.74 161.4 239.86 160.95 241.26 158.12" style="fill:#F26C9F"></polygon><rect x="273.04" y="160.67" width="50.74" height="3.5" style="fill:#263238"></rect><rect x="344.69" y="160.67" width="19.89" height="3.5" style="fill:#455a64"></rect><rect x="195.81" y="176.73" width="185.4" height="28.63" style="fill:#ebebeb"></rect><path d="M226,196.58a6.68,6.68,0,0,1-1.88.79,6.52,6.52,0,1,1,1.88-.79Z" style="fill:#F26C9F"></path><path d="M224.51,190.31a2,2,0,1,1-2-2A2,2,0,0,1,224.51,190.31Z" style="fill:#fff"></path><path d="M226,195.76v.82a6.68,6.68,0,0,1-1.88.79,6.46,6.46,0,0,1-5-.79v-.82a3.42,3.42,0,0,1,6.84,0Z" style="fill:#fff"></path><polygon points="263.36 195.35 254.76 195.35 258.27 191.05 254.76 186.75 263.36 186.75 266.87 191.05 263.36 195.35" style="fill:#fff"></polygon><polygon points="241.26 186.75 242.66 189.58 245.78 190.03 243.52 192.24 244.06 195.35 241.26 193.88 238.47 195.35 239 192.24 236.74 190.03 239.86 189.58 241.26 186.75" style="fill:#fff"></polygon><rect x="273.04" y="189.3" width="50.74" height="3.5" style="fill:#dbdbdb"></rect><rect x="344.69" y="189.3" width="19.89" height="3.5" style="fill:#c7c7c7"></rect><path d="M226,225.21a6.68,6.68,0,0,1-1.88.79,6.52,6.52,0,1,1,1.88-.79Z" style="fill:#a6a6a6"></path><path d="M224.51,218.94a2,2,0,1,1-2-2A2,2,0,0,1,224.51,218.94Z" style="fill:#fff"></path><path d="M226,224.4v.81a6.68,6.68,0,0,1-1.88.79,6.46,6.46,0,0,1-5-.79v-.81a3.42,3.42,0,1,1,6.84,0Z" style="fill:#fff"></path><polygon points="263.36 223.98 254.76 223.98 258.27 219.68 254.76 215.38 263.36 215.38 266.87 219.68 263.36 223.98" style="fill:#fff"></polygon><path d="M263.48,224.23h-9.25l3.72-4.55-3.72-4.55h9.25l3.71,4.55Zm-8.19-.5h8l3.3-4-3.3-4.05h-8l3.3,4.05Z" style="fill:#ebebeb"></path><polygon points="241.26 215.38 242.66 218.21 245.78 218.67 243.52 220.87 244.06 223.98 241.26 222.51 238.47 223.98 239 220.87 236.74 218.67 239.86 218.21 241.26 215.38" style="fill:#F26C9F"></polygon><rect x="273.04" y="217.93" width="50.74" height="3.5" style="fill:#dbdbdb"></rect><rect x="344.69" y="217.93" width="19.89" height="3.5" style="fill:#c7c7c7"></rect><rect x="195.81" y="234" width="185.4" height="28.63" style="fill:#ebebeb"></rect><path d="M226,253.84a6.68,6.68,0,0,1-1.88.79,6.52,6.52,0,1,1,1.88-.79Z" style="fill:#37474f"></path><path d="M224.51,247.57a2,2,0,1,1-2-2A2,2,0,0,1,224.51,247.57Z" style="fill:#fff"></path><path d="M226,253v.81a6.68,6.68,0,0,1-1.88.79,6.46,6.46,0,0,1-5-.79V253a3.42,3.42,0,0,1,6.84,0Z" style="fill:#fff"></path><polygon points="263.36 252.61 254.76 252.61 258.27 248.31 254.76 244.01 263.36 244.01 266.87 248.31 263.36 252.61" style="fill:#fff"></polygon><polygon points="241.26 244.01 242.66 246.84 245.78 247.3 243.52 249.5 244.06 252.61 241.26 251.14 238.47 252.61 239 249.5 236.74 247.3 239.86 246.84 241.26 244.01" style="fill:#F26C9F"></polygon><rect x="273.04" y="246.56" width="50.74" height="3.5" style="fill:#dbdbdb"></rect><rect x="344.69" y="246.56" width="19.89" height="3.5" style="fill:#c7c7c7"></rect><path d="M381.22,405.78v14a17.15,17.15,0,0,1-7.78,14.61H203.6a17.14,17.14,0,0,1-7.78-14.61v-14Z" style="fill:#ebebeb"></path><path d="M226,425.63a6.68,6.68,0,0,1-1.88.79,6.52,6.52,0,1,1,1.88-.79Z" style="fill:#F26C9F"></path><path d="M224.51,419.36a2,2,0,1,1-2-2A2,2,0,0,1,224.51,419.36Z" style="fill:#fff"></path><path d="M226,424.81v.82a6.68,6.68,0,0,1-1.88.79,6.5,6.5,0,0,1-5-.79v-.82a3.42,3.42,0,0,1,6.84,0Z" style="fill:#fff"></path><polygon points="263.36 424.4 254.76 424.4 258.27 420.1 254.76 415.8 263.36 415.8 266.87 420.1 263.36 424.4" style="fill:#fff"></polygon><polygon points="241.26 415.8 242.66 418.63 245.78 419.08 243.52 421.29 244.06 424.4 241.26 422.93 238.47 424.4 239 421.29 236.74 419.08 239.86 418.63 241.26 415.8" style="fill:#F26C9F"></polygon><rect x="273.04" y="418.35" width="50.74" height="3.5" style="fill:#dbdbdb"></rect><rect x="344.69" y="418.35" width="19.89" height="3.5" style="fill:#c7c7c7"></rect><path d="M226,282.47a6.51,6.51,0,0,1-9.74-4,6.51,6.51,0,1,1,9.74,4Z" style="fill:#263238"></path><path d="M224.51,276.2a2,2,0,1,1-2-2A2,2,0,0,1,224.51,276.2Z" style="fill:#fff"></path><path d="M226,281.66v.81a6.48,6.48,0,0,1-6.84,0v-.81a3.42,3.42,0,1,1,6.84,0Z" style="fill:#fff"></path><polygon points="263.36 281.24 254.76 281.24 258.27 276.94 254.76 272.64 263.36 272.64 266.87 276.94 263.36 281.24" style="fill:#fff"></polygon><path d="M263.48,281.49h-9.25l3.72-4.55-3.72-4.55h9.25l3.71,4.55Zm-8.19-.5h8l3.3-4.05-3.3-4.05h-8l3.3,4.05Z" style="fill:#ebebeb"></path><polygon points="241.26 272.64 242.66 275.47 245.78 275.93 243.52 278.13 244.06 281.24 241.26 279.77 238.47 281.24 239 278.13 236.74 275.93 239.86 275.47 241.26 272.64" style="fill:#fff"></polygon><path d="M244.39,281.7l-3.13-1.64-3.13,1.64.6-3.48-2.53-2.47,3.5-.5,1.56-3.17,1.56,3.17,3.5.5-2.53,2.47Zm-3.13-2.21,2.46,1.3-.47-2.75,2-1.94-2.76-.4-1.23-2.49L240,275.7l-2.75.4,2,1.94-.47,2.75Z" style="fill:#ebebeb"></path><rect x="273.04" y="275.19" width="50.74" height="3.5" style="fill:#dbdbdb"></rect><rect x="344.69" y="275.19" width="19.89" height="3.5" style="fill:#c7c7c7"></rect><rect x="195.81" y="291.26" width="185.4" height="28.63" style="fill:#ebebeb"></rect><path d="M226,311.11a6.66,6.66,0,0,1-1.88.78,6.5,6.5,0,1,1,4.78-7.86A6.52,6.52,0,0,1,226,311.11Z" style="fill:#F26C9F"></path><path d="M224.51,304.83a2,2,0,1,1-2-2A2,2,0,0,1,224.51,304.83Z" style="fill:#fff"></path><path d="M226,310.29v.82a6.66,6.66,0,0,1-1.88.78,6.46,6.46,0,0,1-5-.79v-.81a3.42,3.42,0,1,1,6.84,0Z" style="fill:#fff"></path><polygon points="263.36 309.88 254.76 309.88 258.27 305.57 254.76 301.27 263.36 301.27 266.87 305.57 263.36 309.88" style="fill:#fff"></polygon><polygon points="241.26 301.27 242.66 304.11 245.78 304.56 243.52 306.76 244.06 309.88 241.26 308.41 238.47 309.88 239 306.76 236.74 304.56 239.86 304.11 241.26 301.27" style="fill:#F26C9F"></polygon><rect x="273.04" y="303.83" width="50.74" height="3.5" style="fill:#263238"></rect><rect x="344.69" y="303.83" width="19.89" height="3.5" style="fill:#455a64"></rect><path d="M226,339.74a6.38,6.38,0,0,1-1.88.78,6.5,6.5,0,1,1,4.78-7.86A6.52,6.52,0,0,1,226,339.74Z" style="fill:#F26C9F"></path><path d="M224.51,333.46a2,2,0,1,1-2-2A2,2,0,0,1,224.51,333.46Z" style="fill:#fff"></path><path d="M226,338.92v.82a6.38,6.38,0,0,1-1.88.78,6.46,6.46,0,0,1-5-.79v-.81a3.42,3.42,0,1,1,6.84,0Z" style="fill:#fff"></path><polygon points="263.36 338.51 254.76 338.51 258.27 334.21 254.76 329.91 263.36 329.91 266.87 334.21 263.36 338.51" style="fill:#fff"></polygon><path d="M263.48,338.76h-9.25l3.72-4.55-3.72-4.55h9.25l3.71,4.55Zm-8.19-.5h8l3.3-4.05-3.3-4h-8l3.3,4Z" style="fill:#ebebeb"></path><polygon points="241.26 329.91 242.66 332.74 245.78 333.19 243.52 335.39 244.06 338.51 241.26 337.04 238.47 338.51 239 335.39 236.74 333.19 239.86 332.74 241.26 329.91" style="fill:#fff"></polygon><path d="M244.39,339l-3.13-1.64L238.13,339l.6-3.48L236.2,333l3.5-.51,1.56-3.17,1.56,3.17,3.5.51-2.53,2.46Zm-7.11-5.59,2,1.94-.47,2.74,2.46-1.3,2.46,1.3-.47-2.74,2-1.94-2.76-.41-1.23-2.49L240,333Z" style="fill:#ebebeb"></path><rect x="273.04" y="332.46" width="50.74" height="3.5" style="fill:#dbdbdb"></rect><rect x="344.69" y="332.46" width="19.89" height="3.5" style="fill:#c7c7c7"></rect><rect x="195.81" y="348.52" width="185.4" height="28.63" style="fill:#ebebeb"></rect><path d="M226,368.37a6.38,6.38,0,0,1-1.88.78,6.48,6.48,0,1,1,1.88-.78Z" style="fill:#455a64"></path><path d="M224.51,362.09a2,2,0,1,1-2-2A2,2,0,0,1,224.51,362.09Z" style="fill:#fff"></path><path d="M226,367.55v.82a6.38,6.38,0,0,1-1.88.78,6.5,6.5,0,0,1-5-.78v-.82a3.42,3.42,0,0,1,6.84,0Z" style="fill:#fff"></path><polygon points="263.36 367.14 254.76 367.14 258.27 362.84 254.76 358.54 263.36 358.54 266.87 362.84 263.36 367.14" style="fill:#fff"></polygon><polygon points="241.26 358.54 242.66 361.37 245.78 361.82 243.52 364.02 244.06 367.14 241.26 365.67 238.47 367.14 239 364.02 236.74 361.82 239.86 361.37 241.26 358.54" style="fill:#fff"></polygon><rect x="273.04" y="361.09" width="50.74" height="3.5" style="fill:#dbdbdb"></rect><rect x="344.69" y="361.09" width="19.89" height="3.5" style="fill:#c7c7c7"></rect><path d="M226,397a6.38,6.38,0,0,1-1.88.78A6.48,6.48,0,1,1,226,397Z" style="fill:#a6a6a6"></path><path d="M224.51,390.73a2,2,0,1,1-2-2A2,2,0,0,1,224.51,390.73Z" style="fill:#fff"></path><path d="M226,396.18V397a6.38,6.38,0,0,1-1.88.78,6.45,6.45,0,0,1-5-.78v-.82a3.42,3.42,0,0,1,6.84,0Z" style="fill:#fff"></path><polygon points="263.36 395.77 254.76 395.77 258.27 391.47 254.76 387.17 263.36 387.17 266.87 391.47 263.36 395.77" style="fill:#fff"></polygon><path d="M263.48,396h-9.25l3.72-4.55-3.72-4.55h9.25l3.71,4.55Zm-8.19-.5h8l3.3-4-3.3-4.05h-8l3.3,4.05Z" style="fill:#ebebeb"></path><polygon points="241.26 387.17 242.66 390 245.78 390.45 243.52 392.66 244.06 395.77 241.26 394.3 238.47 395.77 239 392.66 236.74 390.45 239.86 390 241.26 387.17" style="fill:#fff"></polygon><path d="M244.39,396.23l-3.13-1.65-3.13,1.65.6-3.49-2.53-2.46,3.5-.51,1.56-3.17,1.56,3.17,3.5.51-2.53,2.46ZM241.26,394l2.46,1.29-.47-2.74,2-1.94-2.76-.4-1.23-2.5-1.23,2.5-2.75.4,2,1.94-.47,2.74Z" style="fill:#ebebeb"></path><rect x="273.04" y="389.72" width="50.74" height="3.5" style="fill:#dbdbdb"></rect><rect x="344.69" y="389.72" width="19.89" height="3.5" style="fill:#c7c7c7"></rect></g><g id="freepik--Character--inject-268"><path d="M224.73,448.72H143.55c-9.71-34.06-17.52-60-17.52-60H203S212.51,414.41,224.73,448.72Z" style="fill:#37474f"></path><path d="M155.44,448.72h-1.67c-4.81-16.05-9.81-32-14.71-48.07-.07-.21.26-.31.34-.1,1,2.78,2,5.56,3,8.35C147.08,422.06,151.37,435.36,155.44,448.72Z" style="fill:#263238"></path><path d="M201.24,388.75c-.09,1.61-4.38,16.34-6.6,38.38-.81,8.13-1.73,15.78-2.71,21.59H84.2c-10.66-32.94,5.16-60,5.16-60S201.25,388.68,201.24,388.75Z" style="fill:#37474f"></path><path d="M179.71,425.23c.38,5.53.51,11.07.44,16.6a51,51,0,0,0-.06,6.89h-1.87c-.45-3.51,0-7.88,0-11.33-.06-14.29-1.88-28.42-4.08-42.52a.27.27,0,0,1,.52-.11A150.36,150.36,0,0,1,179.71,425.23Z" style="fill:#263238"></path><path d="M193.07,432.37c-.1,2.94-.9,10.77-3.21,16.35h-1.61c3.13-7.63,2.95-22.52,2.72-26-.65-10.2-1.44-19.78-3.17-30.52-.06-.34.5-.36.57-.05C191.42,405.11,193.49,419.07,193.07,432.37Z" style="fill:#263238"></path><path d="M90.85,403.05c-3.12,13.49-1.6,28,1.38,41.35.31,1.45.66,2.89,1,4.32H91.61c-4.41-18.61-5.76-37.87,2-55.92.1-.22.43,0,.34.19A69.17,69.17,0,0,0,90.85,403.05Z" style="fill:#263238"></path><path d="M269.7,192,252,248.34c-.71,1.64.06,3.06,1.7,3.15l29.48,1.68a4.75,4.75,0,0,0,4.26-2.8l17.66-56.3c.71-1.65-.06-3.06-1.7-3.15L274,189.24A4.75,4.75,0,0,0,269.7,192Z" style="fill:#37474f"></path><path d="M273.2,192.21l-17.66,56.3c-.71,1.64.06,3.05,1.71,3.15l29.47,1.68a4.78,4.78,0,0,0,4.27-2.8l17.65-56.31c.71-1.64-.05-3-1.7-3.14l-29.48-1.69A4.78,4.78,0,0,0,273.2,192.21Z" style="fill:#455a64"></path><path d="M281.13,195.28a2.51,2.51,0,1,1-2.3-2.7A2.51,2.51,0,0,1,281.13,195.28Z" style="fill:#263238"></path><path d="M169.73,273.11c14.33,36.61,48.72,85.19,64.2,86.41,7.36.59,20.4,3.22,30.63-4.61,22.32-17.08,42.29-51.26,47.22-71.25,1.76-7.11-32.22-25-37.78-19.49-13,12.92-28.85,38.91-31,38.61-7.88-1.12-37.18-29-57.61-48.59C160.59,230.39,164,258.52,169.73,273.11Z" style="fill:#eb9481"></path><path d="M315.1,246.54c-2.74-14.86-5.72-18.25-1.38-32,2.85-9-1.69-14.73-8.68-7.79-11.44,11.34-11.93,31.25-10.11,38.2Z" style="fill:#eb9481"></path><path d="M309.66,289.82s7.86-19.93,6.51-36c-.94-11.14-5.68-35.16-35.75-49.66-7.13-3.44-19.73-3.28-10.12,6.57,6.82,7,13.27,9.37,16.5,14.16,0,0-16,2.1-19.18,9.38a147.47,147.47,0,0,0-6.91,19.61,30.48,30.48,0,0,0,3.55,1.63s-2.75,6.91,1.82,17.27Z" style="fill:#eb9481"></path><path d="M313.58,243.28c-4.21-4.08-13.28-12.57-23.12-16.94-10.92-4.85-33.28-11.25-36.78-3.15-2.56,5.94,5.76,9.14,5.76,9.14s-9.8-.7-10.94,5.17c-1,5.35,5.54,7.44,5.54,7.44s-6,.6-6,5.95c0,6.43,12.59,4.12,18.21,10.65C267.49,263,313.58,243.28,313.58,243.28Z" style="fill:#eb9481"></path><path d="M287.26,238.74c-4.59-3.19-16.87-7.75-27.62-6.56-.25,0-.36.22-.13.24a117.75,117.75,0,0,1,27.71,6.42C287.28,238.87,287.31,238.77,287.26,238.74Z" style="fill:#263238"></path><path d="M282,249.63c-4.24-2.35-17.1-6.48-28-4.91-.24,0-.34.24-.11.26a125.47,125.47,0,0,1,28,4.75A.05.05,0,0,0,282,249.63Z" style="fill:#263238"></path><path d="M214.46,276.09,209,282.72l-1.13,1.38L186,310.52s-19.79-32.32-23.79-50.7c-2.39-11-.67-17.55,4.14-18.74a6.51,6.51,0,0,1,1.09-.16c3.11-.27,7.29,1.37,12.29,5.06C193.81,256.38,214.46,276.09,214.46,276.09Z" style="fill:#F26C9F"></path><path d="M213.24,275a37.84,37.84,0,0,1-1.85,4.85l3-3.6h0a.38.38,0,0,0,0-.13C214.3,275.94,213.89,275.55,213.24,275Zm-33.59-29a27.51,27.51,0,0,0-5.3,4.39A27,27,0,0,0,166.87,269a49.29,49.29,0,0,0,.36,5.57q.74,1.71,1.5,3.42c-.09-.74-.19-1.47-.29-2.22a38,38,0,0,1-.16-12.08,26.51,26.51,0,0,1,3.55-8.91,28.25,28.25,0,0,1,8.26-8.57c-.13-.08-.24-.17-.36-.26Z" style="fill:#fff"></path><path d="M181.75,299.53c1.18-2.78,13.33-19.47,23.45-30.07a.17.17,0,0,1,.26.23c-1,1.3-21,28.11-23.36,30.14C181.91,300,181.67,299.73,181.75,299.53Z" style="fill:#263238"></path><path d="M200,293.63l-14,16.88s-19.79-32.31-23.79-50.69c-2.76-12.68-.07-19.42,6.5-18.91Z" style="opacity:0.05"></path><path d="M204,393.19c-2.8,3-121.19,15.65-121.87,14.83-1.81-2.21,9.08-121.86,57.58-165.69,8.55-7.72,23.65-5.52,30.65-1.55,3.49,2,9.57,18.52,15.52,37.83C190.38,293.36,205.72,391.25,204,393.19Z" style="fill:#F26C9F"></path><path d="M204,393.19c-.62.67-7,1.83-16.53,3.21l-1.08.15c-4.82.69-10.38,1.43-16.38,2.18l-1.3.17c-17.13,2.15-37.56,4.45-54.28,6.21l-.54.05c-18,1.9-31.53,3.14-31.76,2.86s-.23-5.27.56-13.13c0-.33.07-.68.1-1,1.89-18.17,7.13-51.18,17.79-83.11.17-.52.35-1,.52-1.55a248.57,248.57,0,0,1,11.27-27.9c.13-.27.25-.53.39-.8a149.91,149.91,0,0,1,15.2-25.24c.2-.26.39-.51.6-.75a92,92,0,0,1,11.15-12.19,18.17,18.17,0,0,1,3.77-2.59c.31-.16.63-.31.95-.45a27.55,27.55,0,0,1,13.51-2l1.14.12a30.6,30.6,0,0,1,11.28,3.38c1.37.79,3.15,3.81,5.16,8.4.1.2.19.42.28.64,3,7,6.59,17.44,10.08,28.79,1.23,4,3.28,14.2,5.55,26.92l.15.86c.79,4.39,1.6,9.09,2.41,13.93.12.69.24,1.37.35,2.06,1.65,9.88,3.3,20.26,4.77,29.94.05.39.11.79.18,1.17,1.24,8.28,2.34,16,3.19,22.39.06.51.12,1,.19,1.5C203.8,386.59,204.38,392.72,204,393.19Z" style="fill:#F26C9F"></path><path d="M165.48,381.59a25.64,25.64,0,0,0-7.55-7A28.63,28.63,0,0,0,147.59,371c-3.82-.66-7.83-1-11.41-2.66-3.42-1.55-5.82-4.32-8.21-7.11-.63-.73-1.28-1.46-1.94-2.16.75-.51,1.51-1,2.29-1.51,4.49-2.76,9.45-4.84,13.6-8.12a20.53,20.53,0,0,0,7.44-11.67,24,24,0,0,0-1-13.7,26.76,26.76,0,0,0-8.42-11.19,36.23,36.23,0,0,0-27.29-7.08,40,40,0,0,0-11.58,3.38c-.17.52-.35,1-.52,1.55a37.59,37.59,0,0,1,5.52-2.25,36.8,36.8,0,0,1,27.75,1.95,28.94,28.94,0,0,1,10.51,8.88A23.29,23.29,0,0,1,148.6,332a20.38,20.38,0,0,1-3.67,12.64c-3,4.07-7.57,6.53-11.91,8.88-2.68,1.46-5.28,3-7.81,4.71a15.58,15.58,0,0,0-5.16-3.54,14.83,14.83,0,0,0-10-.06C103,357,98.81,363.83,98,371a28.21,28.21,0,0,0,1.36,11.84,53.13,53.13,0,0,1-9.79,7.9,30,30,0,0,1-6.84,3.12c0,.34-.07.69-.1,1,.43-.12.86-.25,1.28-.4,6.13-2.07,11.23-6.05,15.84-10.52a48.35,48.35,0,0,0,5,9.87,71.21,71.21,0,0,0,9.1,11.32l.54-.05a72.37,72.37,0,0,1-5.53-6.58,56,56,0,0,1-8.43-15.21c1.71-1.7,3.36-3.47,5-5.22,3.16-3.44,6.27-7,9.64-10.21a78.33,78.33,0,0,1,10.13-8.23c2.15,2.29,4,4.88,6.34,7a20.32,20.32,0,0,0,9.62,4.41c3.67.77,7.45,1.08,11.06,2.19a23.05,23.05,0,0,1,8.65,5,23.88,23.88,0,0,1,8,17.73,20.82,20.82,0,0,1-.23,2.95l1.3-.17A24.36,24.36,0,0,0,165.48,381.59Zm-45.79-19.31a99.15,99.15,0,0,0-10.63,10.17c-3,3.22-5.89,6.59-9,9.74a30,30,0,0,1-1.14-5.45c-.78-7,1.35-15,7.37-19.18a15.36,15.36,0,0,1,9.42-2.79,13.22,13.22,0,0,1,8.66,4.07C122.78,359.93,121.21,361.06,119.69,362.28Zm79.37-10c-3.46,2.77-6.75,5.79-10.62,8-5.57,3.18-13.23,4.87-18.3-.18a11.84,11.84,0,0,1-1-15.89c2-2.8,4.47-5.15,6.41-8a51.34,51.34,0,0,0,4.15-7.51,11.78,11.78,0,0,0,7.57-.27,14.09,14.09,0,0,0,7-6.12c-.11-.69-.23-1.37-.35-2.06a17.15,17.15,0,0,1-3,4.18,10.91,10.91,0,0,1-8.74,3.41,12.72,12.72,0,0,1-1.94-.35c.15-.31.29-.63.43-1,2.81-6.42,5.16-13.21,9.58-18.77a19,19,0,0,1,1.25-1.44l-.15-.86c-4.16,4.32-6.84,9.94-9.21,15.37-.93,2.13-1.84,4.27-2.83,6.39a15.53,15.53,0,0,1-5.88-3.76c-5.43-5.53-5.84-14.07-5.28-21.35.36-4.44,1-8.86,1.22-13.3a75.54,75.54,0,0,0-1-13.09,38,38,0,0,1-.16-12.08,26.51,26.51,0,0,1,3.55-8.91,27.06,27.06,0,0,1,3.92-5c-.09-.22-.18-.44-.28-.64-.38.36-.75.73-1.12,1.12A27,27,0,0,0,166.87,269c0,4.56.91,9.05,1.26,13.59a71.12,71.12,0,0,1-.67,14c-.93,8.09-1.76,17,2.46,24.36a17.17,17.17,0,0,0,8.87,7.52c-.47,1-.95,2-1.47,2.92a45.07,45.07,0,0,1-3.08,4.93c-1.07,1.46-2.27,2.82-3.45,4.19-2.17,2.53-4.38,5.29-5,8.63a13.06,13.06,0,0,0,1.26,8.42,12.47,12.47,0,0,0,6.17,5.88,15.15,15.15,0,0,0,10.14.27c6.26-1.83,11-6.24,15.93-10.22C199.17,353.11,199.11,352.71,199.06,352.32Zm3.56,25.06c-3.15-2.5-6.51-5-10.63-5.33a8.45,8.45,0,0,0-5.72,1.41A9.4,9.4,0,0,0,183,378a17.31,17.31,0,0,0,.45,12.31,20.54,20.54,0,0,0,4,6.14l-1.08.15a21.2,21.2,0,0,1-2.91-4,19.35,19.35,0,0,1-2.25-6.64c-.62-4.05,0-8.61,2.66-11.86,2.89-3.52,7.6-3.88,11.65-2.4a25.44,25.44,0,0,1,6.94,4.2C202.49,376.39,202.55,376.89,202.62,377.38ZM158,238.94c.36-.5.69-1,1-1.54l-1.14-.12a50.79,50.79,0,0,1-8.21,9.69l-.62.59a20.94,20.94,0,0,0-2.93-6.19,17.36,17.36,0,0,0-1.75-2.08c-.32.14-.64.29-.95.45a18.67,18.67,0,0,1,4.53,7.59c.1.33.19.66.28,1a31.74,31.74,0,0,1-9.36,6.42c-3.28,1.33-7.28,1.6-10.37-.22-.21.24-.4.49-.6.75a11.91,11.91,0,0,0,8.45,1.31c4.59-.87,8.51-3.9,11.94-6.91l.23-.2c1.44,6.18.9,12.7,1.87,19,1.11,7.17,4.55,14.42,2.78,21.76a12.63,12.63,0,0,1-4.43,7.31,10.35,10.35,0,0,1-9.49,1.14c-7.08-2.27-11.21-9-17.07-13.14a59.9,59.9,0,0,0-9.48-5c-.14.27-.26.53-.39.8,2,.95,4,1.84,5.82,2.85a31.12,31.12,0,0,1,4.1,2.59,47.76,47.76,0,0,1,4.32,3.84c2.71,2.64,5.37,5.45,8.67,7.38,3,1.75,6.59,2.86,10.07,2.19a10.8,10.8,0,0,0,7.11-5.3,17.7,17.7,0,0,0,2.28-8.86c0-4-1.09-8-2.06-11.87a59.76,59.76,0,0,1-1.31-6.25c-.26-1.86-.41-3.72-.52-5.59a105.23,105.23,0,0,0-.92-11.07c-.14-.85-.31-1.69-.51-2.53A58.57,58.57,0,0,0,158,238.94Z" style="fill:#fff"></path><path d="M128.19,259C108.7,299.57,82.61,400.39,78.78,415.21c-2.61,10.06,49.92,20.25,51.31,13.26,1.6-8,21.69-126,19.69-168.5C148.69,236.71,134.93,245,128.19,259Z" style="fill:#eb9481"></path><path d="M130.74,423.82c-.62,7.64-5,23.18-8.68,25.71s-23.87,3.09-34,3.63S75.75,451,75.73,447.47,97,442.18,97,442.18s-28,9.65-35.09,11.35-23.34,6.73-26,.93C34.63,451.84,39,448.9,39,448.9s-6.81,2.38-8.09-1c-1.46-3.85,3.93-6.29,3.93-6.29s-4.28,1.1-4.54-2.09c-.6-7.11,26.26-12,26.26-12s-20.18,11.17-21.15,5.39c-1.34-8,40.63-19.06,44.86-22.8a82,82,0,0,0,8.53-9.21Z" style="fill:#eb9481"></path><path d="M76,449.23a3.12,3.12,0,0,1,.82-2.77,8.87,8.87,0,0,1,2.39-1.73,33.21,33.21,0,0,1,5.71-2.19c3.95-1.23,8-2.16,12-3.43a49.44,49.44,0,0,0-12.46,2.07,22.86,22.86,0,0,0-5.86,2.6,8,8,0,0,0-2.38,2.27A3.25,3.25,0,0,0,76,449.23Z" style="fill:#263238"></path><path d="M39,448.9c2.89-.87,5.73-1.85,8.56-2.83s5.65-2,8.47-3l8.43-3.14c2.81-1,5.61-2.08,8.45-3.09a68.07,68.07,0,0,0-8.8,2.05c-2.9.82-5.74,1.82-8.57,2.84s-5.62,2.14-8.37,3.35S41.67,447.48,39,448.9Z" style="fill:#263238"></path><path d="M65.67,430.07a57.87,57.87,0,0,0-8.14,1.56,78.18,78.18,0,0,0-7.92,2.49A72.3,72.3,0,0,0,42,437.43a58.16,58.16,0,0,0-7.16,4.18c2.57-1,5.06-2.18,7.61-3.18s5.09-2,7.66-3,5.15-1.87,7.73-2.78S63.05,430.93,65.67,430.07Z" style="fill:#263238"></path><path d="M61.13,423.5a51.11,51.11,0,0,0-12.91,3.44,50.83,50.83,0,0,0-11.71,6.45c4.13-1.72,8.14-3.51,12.24-5.12S57,425.09,61.13,423.5Z" style="fill:#263238"></path><path d="M150.79,305.61l-46.82.23s12.71-37.63,24.81-53.18,21.81-13.5,22.89,4.8S150.79,305.61,150.79,305.61Z" style="fill:#F26C9F"></path><path d="M151.67,257.46c.06.83.1,1.7.13,2.57,0,.39,0,.78.06,1.18.66,18.33-1.06,44.4-1.06,44.4l-12.72.07h-1.27l-32.83.18s5.39-16,12.47-31.38c.24-.51.47-1,.73-1.54,3.61-7.72,7.63-15.17,11.59-20.26C140.88,237.11,150.58,239.17,151.67,257.46Z" style="fill:#F26C9F"></path><path d="M112.85,305.8l9.51-.06A38.8,38.8,0,0,0,112.85,305.8Zm38.47-37.92c-.26-1.86-.41-3.72-.52-5.59a105.23,105.23,0,0,0-.92-11.07c-.14-.85-.31-1.69-.51-2.53.18-.18.37-.34.56-.53-.14-.36-.28-.7-.43-1-.14.15-.3.28-.44.43a22.61,22.61,0,0,0-1-2.82,6.85,6.85,0,0,0-2-1.76,19.9,19.9,0,0,1,2,4.35c.1.33.19.66.28,1a31.74,31.74,0,0,1-9.36,6.42c-3.55,1.45-7.95,1.64-11.12-.72-.19.26-.37.51-.55.78a11.72,11.72,0,0,0,9.15,1.78c4.59-.87,8.51-3.9,11.94-6.91l.23-.2c1.44,6.18.9,12.7,1.87,19,.37,2.34,1,4.7,1.58,7.06,0-1.33,0-2.66,0-4C151.73,270.31,151.49,269.1,151.32,267.88Zm-2.57,29.62a10.35,10.35,0,0,1-9.49,1.14c-7.08-2.27-11.21-9-17.07-13.14a54,54,0,0,0-8.59-4.58c-.13.27-.24.55-.36.83,1.66.79,3.33,1.56,4.9,2.41a31.12,31.12,0,0,1,4.1,2.59,47.76,47.76,0,0,1,4.32,3.84c2.71,2.64,5.37,5.45,8.67,7.38,3,1.75,6.59,2.86,10.07,2.19a10.4,10.4,0,0,0,6-3.72c0-.59.06-1.21.08-1.85A10.34,10.34,0,0,1,148.75,297.5Z" style="fill:#fff"></path><path d="M110,295c3-.92,24.61-2.35,39.93-1.33a.18.18,0,0,1,0,.36c-1.69.1-36.73,2-39.93,1.46C109.69,295.48,109.74,295.11,110,295Z" style="fill:#263238"></path><path d="M153.76,277.23a.12.12,0,0,0-.24,0,42,42,0,0,0-1,4.84c-.07.37-.12.75-.19,1.12-.13-4-.32-7.89-.53-11.81,0-.18-.3-.18-.29,0,.12,13.59-.24,26-1.07,33.86l-4.06.34a.25.25,0,0,0,0,.49l5.16.18c.22,0,1.08-11.32.87-20.24.28-1.29.58-2.57.79-3.87A32.28,32.28,0,0,0,153.76,277.23Z" style="fill:#263238"></path><path d="M110.3,305.85c-2.11.13-4.22.24-6.32.3h-.42l.13-.41c.82-2.58,1.66-5.15,2.58-7.69s1.85-5.09,2.85-7.6,2-5,3.17-7.48,2.29-4.91,3.6-7.28l-3,7.56-2.88,7.56-2.88,7.57L104.26,306l-.28-.4C106.08,305.61,108.19,305.72,110.3,305.85Z" style="fill:#263238"></path><path d="M167.48,261.51c-7.12,2.35-20.56-7.66-26.27-16.22-.39-.59,0-25.47-.4-30.4-.09-1,31.67,4.82,31.67,4.82s-2.15,10.62-1.35,19.22C171.21,239.65,174.36,259.24,167.48,261.51Z" style="fill:#eb9481"></path><path d="M172.49,219.7l0,0c0,.15-.15.77-.31,1.77-.28,1.7-.7,4.45-.95,7.57a56.89,56.89,0,0,0-.07,9.86,4.7,4.7,0,0,0,.08.68v.11c.07.4.13.94.2,1.58a19.48,19.48,0,0,1-3,.43c-16.91,1.08-24.39-19.13-26.65-26.95l.54.05c.83.06,1.93.19,3.25.36l1,.14c2.11.3,4.63.7,7.25,1.12.86.14,1.72.27,2.6.43,1.88.33,3.78.65,5.54.94.76.15,1.51.28,2.21.4s1.55.27,2.26.39l1,.18.49.1,2.63.47,1.26.22a4.57,4.57,0,0,1,.53.12c.05,0,.07,0,.09,0Z" style="fill:#263238"></path><path d="M134.73,178.64c-3,11.13,3.86,42.76,11.93,49.6,11.72,9.91,30.37,10.28,38.68-3.66,8-13.51-1.63-54.59-10.6-60.75C161.52,154.76,139.17,162.2,134.73,178.64Z" style="fill:#eb9481"></path><path d="M139.32,209.6c5.65-1.82,3.15-16.52,3.15-16.52s6.74-4,6.65-17.76c0,0,7.28,12.27,30.83,5.05a21,21,0,0,0-4-12.23A89.09,89.09,0,0,1,184.35,180S186.52,159,168.18,155c-7.3-1.59-17.53.83-31.85,11.4,0,0-4.69-8.87-6.28-7.31s3.47,9.72,3.47,9.72-7.28-.9-8.18.75c-.78,1.42,6.18,2,6.18,2s-10,5.25-6,17.1C129.11,199.5,136.52,210.51,139.32,209.6Z" style="fill:#263238"></path><path d="M133.4,171a12.68,12.68,0,0,0-10.86,12.81c.11,3.53,1.64,7.09,3.32,10.15a43.8,43.8,0,0,0,6.85,8.9c.14.15.36-.1.21-.25a33.52,33.52,0,0,1-5.75-8.52,30.9,30.9,0,0,1-3.24-9.3,12.17,12.17,0,0,1,9.54-13.44A.18.18,0,0,0,133.4,171Z" style="fill:#263238"></path><path d="M153.83,154.11a48.67,48.67,0,0,0-11,6.45,35.47,35.47,0,0,0-8.56,8.55c-.11.17.11.37.25.21,5.25-5.63,12.09-9.89,19-13.25,6.43-3.15,14.46-4.58,20.62,0a.1.1,0,1,0,.12-.15C168.58,151,160.4,151.45,153.83,154.11Z" style="fill:#263238"></path><path d="M142.77,204.55s-7.36-10.19-12-7.55,1,17.48,6.52,19.44a5.59,5.59,0,0,0,7.44-3.11Z" style="fill:#eb9481"></path><path d="M132.49,201.21c-.09,0-.1.12,0,.15,3.87,1.5,5.95,5,7.42,8.71-1.16-1.4-2.73-2.16-4.62-.77-.1.07,0,.23.1.2a3.44,3.44,0,0,1,3.8,1.14,17.11,17.11,0,0,1,1.86,3c.18.34.8.15.67-.25a.59.59,0,0,1,0-.08C141.69,208.43,137.77,201.63,132.49,201.21Z" style="fill:#263238"></path><path d="M167.71,196.8c0-.07-.14.13-.13.22.45,2.1.6,4.59-1.19,5.63a.06.06,0,0,0,0,.11C168.7,202,168.47,198.73,167.71,196.8Z" style="fill:#263238"></path><path d="M165.43,194.93c-3.44.35-2.5,7.22.69,6.9S168.32,194.64,165.43,194.93Z" style="fill:#263238"></path><path d="M179.82,194.32c0-.08.18.08.19.17.23,2.13.85,4.54,2.87,5,.06,0,.07.12,0,.12C180.48,199.59,179.69,196.38,179.82,194.32Z" style="fill:#263238"></path><path d="M181.42,191.84c3.39-.73,4.6,6.1,1.46,6.77S178.58,192.45,181.42,191.84Z" style="fill:#263238"></path><path d="M162.21,193a26.31,26.31,0,0,0,2.53-1.31,4.55,4.55,0,0,0,2.33-1.82,1.47,1.47,0,0,0-.47-1.72,3.65,3.65,0,0,0-3.69.13,5.33,5.33,0,0,0-2.73,2.7A1.57,1.57,0,0,0,162.21,193Z" style="fill:#263238"></path><path d="M183.08,188.08a26.66,26.66,0,0,1-2.83-.34,4.62,4.62,0,0,1-2.82-.89,1.46,1.46,0,0,1-.16-1.78,3.63,3.63,0,0,1,3.49-1.17,5.27,5.27,0,0,1,3.51,1.58A1.56,1.56,0,0,1,183.08,188.08Z" style="fill:#263238"></path><path d="M168.11,215.73c.58.43,1.18,1,2,1a5.59,5.59,0,0,0,2.21-.85c.07,0,.15,0,.11.1a2.91,2.91,0,0,1-2.54,1.53,2.29,2.29,0,0,1-1.93-1.66C167.87,215.73,168,215.67,168.11,215.73Z" style="fill:#263238"></path><path d="M169.47,209.05a7.32,7.32,0,0,0,5.28,2.56,9.28,9.28,0,0,0,2.62-.24,3.51,3.51,0,0,0,.49-.12l.46-.14a.53.53,0,0,0,.36-.53v0l-.05-.22h0l0-.19c-.19-1.64-.69-4.11-.69-4.11.64.22,3.88,1.17,3.72.32-1.4-7-2.95-14.84-5.82-21.54a.2.2,0,0,0-.39.11c1.08,6.81,3.34,13.38,4.53,20.2a12.48,12.48,0,0,0-3.56-.57c-.22.1,1.05,4.76,1.08,5.5a.45.45,0,0,1,0,.08c-2.7.73-4.89.18-7.82-1.3C169.47,208.73,169.32,208.9,169.47,209.05Z" style="fill:#263238"></path><path d="M176.29,210.67a8.66,8.66,0,0,1-3.07,3.14,3.86,3.86,0,0,1-2.33.47c-1.76-.21-2-1.76-1.89-3.14a9.33,9.33,0,0,1,.48-2.15A11.24,11.24,0,0,0,176.29,210.67Z" style="fill:#263238"></path><path d="M173.22,213.81a3.86,3.86,0,0,1-2.33.47c-1.76-.21-2-1.76-1.89-3.14C170.85,211.08,172.82,212.06,173.22,213.81Z" style="fill:#ff9abb"></path></g></svg>
