<svg xmlns="http://www.w3.org/2000/svg" id="Layer_1" data-name="Layer 1" viewBox="0 0 739.15 735.05"><defs><clipPath id="clip-path" transform="translate(-5)"><path d="M511.06 414.71c0 66.24-52 119.93-123.43 119.93-74.78 0-119.72-53.69-119.72-119.93s44.93-119.92 119.72-119.92c71.47.01 123.43 53.7 123.43 119.92" class="cls-1"/></clipPath><clipPath id="clip-path-5" transform="translate(-5)"><path d="M250.86 477.12S314.72 612.5 365.6 648.53s102.75 48.16 102.75 48.16 55.27-72.15 37.39-74.62c-16.2-2.23-60.11-28.79-105.51-59.19-56.86-38.09-109.39-84.93-114-85.76-20.81-3.73-35.34 0-35.34 0Z" class="cls-1"/></clipPath><linearGradient id="linear-gradient" x1="386.4" x2="386.4" y1="722.11" y2="2.11" gradientTransform="matrix(1 0 0 -1 0 722.11)" gradientUnits="userSpaceOnUse"><stop offset="0" stop-color="#cce4ff"/><stop offset="1" stop-color="#cbe3ff" stop-opacity="0"/></linearGradient><style>.cls-1{fill:none}.cls-4{fill:#00a7b9}.cls-5{fill:#a7dce0}.cls-6{clip-path:url(#clip-path)}.cls-8{fill:#7d5f54}.cls-13{clip-path:url(#clip-path-5)}.cls-16{fill:#ffce03}</style></defs><path d="M659.55 273.15C659.55 122.29 537.25 0 386.4 0S113.25 122.29 113.25 273.15V720h546.3Z" style="fill-rule:evenodd;fill:url(#linear-gradient)" transform="translate(-5)"/><path d="M686.09 240.73h-158.6c-18.25 0-24.58-.63-23.95-11.33.5-8.56 10.7-9.65 16.36-10.07h16.37c1.26-4 7.8-20.32 16.36-19.82s13.25 9.33 14.51 12.9c.63-10.07 13.22-42.17 41.54-38.4 22.65 3 29.16 22.66 29.58 32.1 2.1-4.82 9.31-13.84 21.4-11.33s16.36 17.41 17 24.55h9.44c4.83-.42 14.73 1 15.73 10.07s-10.08 11.33-15.74 11.33M230.54 352.45H30.29c-23 0-31-.79-30.24-14.26.64-10.77 13.51-12.14 20.66-12.67h20.67c1.59-5 7-17.26 17.78-16.63s19.61 3.43 21.19 7.92c.8-12.67 16.69-53.06 52.45-48.31 28.61 3.8 36.82 28.51 37.35 40.39 2.65-6.07 11.76-17.42 27-14.26s20.66 21.91 21.45 30.89h11.92c6.09-.53 18.6 1.27 19.87 12.67s-12.7 14.26-19.85 14.26" style="fill:#fff"/><path d="M467.18 483.78s73.51-6.7 101.47-5.58 127.06-36.12 145.1-57.14 18.68-10.4 18.68-10.4-10.6 61.15-54 78.92-21.14 8.6-21.14 8.6S704 501.41 727 487.63s6.16 11.4 6.16 11.4-46.54 42-72.68 35.25 17.3 13.17 26.14 6.75-3.17 23.45-35.75 17.16-35.11-1.69-35.11-1.69l29.1 6s-109.5 103.13-166.53 8.28-11.17-87-11.17-87Zm-169.29 0s-73.51-6.7-101.48-5.58-127.06-36.12-145.1-57.14-18.68-10.4-18.68-10.4 10.61 61.15 54 78.92 21.13 8.6 21.13 8.6-46.68 3.23-69.76-10.55S31.89 499 31.89 499s46.54 42 72.68 35.25-17.3 13.2-26.14 6.75 3.17 23.45 35.74 17.16 35.12-1.69 35.12-1.69l-29.11 6s109.51 103.13 166.53 8.28 11.18-87 11.18-87Z" class="cls-4"/><path d="m462.94 335.37-3.22-44.32-28.54 34.07Z" class="cls-5"/><path d="m465.87 341.09-3.22-44.32-28.54 34.06Z" class="cls-5"/><path id="body" d="M510.4 580.87c0-82.73-53.27-149.79-120.41-149.79s-122.74 67.06-122.74 149.79 54.43 149.78 121.58 149.78S510.4 663.59 510.4 580.87" class="cls-5" transform="translate(-5)"/><path d="m297.88 335.37 3.21-44.32 28.54 34.07Z" class="cls-5"/><path d="m295 341.09 3.21-44.32 28.54 34.06Z" class="cls-5"/><path id="head" d="M511.06 414.71c0 66.24-52 119.93-123.43 119.93-74.78 0-119.72-53.69-119.72-119.93s44.93-119.92 119.72-119.92c71.47.01 123.43 53.7 123.43 119.92" class="cls-5" transform="translate(-5)"/><g class="cls-6"><path d="M385 477.16s-111-5.14-111-100.75c.24-78.67 35.7-79.15 56-81 20 0 42 7.18 52.65 30.22 10.62-23.38 31.43-30.44 51.57-30.44 23.89 0 60.88 1.91 60.88 80.62C495 473.25 385 477.16 385 477.16" class="cls-4"/></g><g class="cls-6"><path d="M384.91 467.71s-99.14-4.25-99.14-83.4c.22-65.14 31.88-71.64 50-73.15 17.83 0 37.49 12 47 31.12 9.48-19.36 28.06-31.3 46-31.3 21.33 0 54.37 7.68 54.37 72.84 0 80.65-98.29 83.89-98.29 83.89Z" class="cls-5"/></g><g class="cls-6"><path id="Eye_Shadow" d="M388 394.57c5.11-27.64 9.71-37.59 39-51.77 13.23-6.41 31.78-9 56.07-.29 6.79 2.43 7.86 13.2 7.86 13.2s-34.63 1.41-54.55 5.52c-27.54 5.68-43.69 36.22-43.69 36.22s-4.89-1.67-4.67-2.88Zm-8.23 0c-5.11-27.64-9.71-37.59-39-51.77-13.23-6.41-34.84-5.1-55.41-.29-7.11 1.66-6.22 13.38-6.22 13.38s32.34 1.24 52.26 5.34c27.54 5.68 43.69 36.22 43.69 36.22s4.89-1.67 4.66-2.88Z" class="cls-4" data-name="Eye Shadow"/></g><path d="M415.63 371.31a40.2 40.2 0 0 1 31-11c11.6.89 27.11-4.5 29.34-4.2s-8.24 23.66-23.23 19.26c-21.44-6.3-37.1-4.1-37.1-4.1Zm-50.56-1.22a40.22 40.22 0 0 0-31-11c-11.61.89-27.12-4.49-29.35-4.19S313 378.59 328 374.18c21.45-6.3 37.1-4.09 37.1-4.09Z" class="cls-6" style="fill:#231f20" transform="translate(-5)"/><path d="m337.68 572.83 18.56 16.07 18.56-16.07Zm52.69 0 18.57 16.07 18.56-16.07Zm-52.69 76.95 18.56 16.08 18.56-16.08Zm52.69 0 18.57 16.08 18.56-16.08Zm-74.13-38.47 18.56 16.07 18.57-16.07Zm96.38 0 18.56 16.07 18.56-16.07Zm-48.62 0 18.56 16.07 18.56-16.07Z" class="cls-4"/><path d="M367.24 726c0 4.55-5.67 0-12.49 0s-12.49 4.55-12.49 0 1.68-14.44 11.91-14.35c12.83.08 13.07 9.78 13.07 14.35" class="cls-8"/><ellipse cx="346.39" cy="725.97" class="cls-8" rx="4.13" ry="9.08"/><ellipse cx="354.75" cy="725.97" class="cls-8" rx="4.13" ry="9.08"/><ellipse cx="363.11" cy="725.97" class="cls-8" rx="4.13" ry="9.08"/><path d="M426.14 726c0 4.55-5.68 0-12.5 0s-12.49 4.55-12.49 0 1.68-14.44 11.91-14.35c12.79.08 13.08 9.78 13.08 14.35" class="cls-8"/><ellipse cx="405.28" cy="725.97" class="cls-8" rx="4.13" ry="9.08"/><ellipse cx="413.64" cy="725.97" class="cls-8" rx="4.13" ry="9.08"/><ellipse cx="422.01" cy="725.97" class="cls-8" rx="4.13" ry="9.08"/><path d="M327.68 411.42a51.71 51.71 0 1 1 51.71-51.7 51.76 51.76 0 0 1-51.71 51.7m0-97.27a45.57 45.57 0 1 0 45.56 45.57 45.62 45.62 0 0 0-45.56-45.57m113.12 96.04a51.71 51.71 0 1 1 51.7-51.7 51.76 51.76 0 0 1-51.7 51.7m0-97.27a45.57 45.57 0 1 0 45.57 45.57 45.62 45.62 0 0 0-45.57-45.57"/><path d="M376.32 358.85h15.84V365h-15.84Z"/><path d="m372.8 391.49 9.27 7.86a9.65 9.65 0 0 0 13.3-.37l9.07-8.45-15.61-38.71-16 39.67Z" style="fill:#f5e00a" transform="translate(-5)"/><path d="m372.8 394.11 9.27 5.87a12.14 12.14 0 0 0 13.3-.28l9.07-6.31-15.61-28.9-16 29.62Z" style="fill:#f3c714" transform="translate(-5)"/><path d="M252.18 479.87s63.53 133.72 90.49 164.89C387.58 696.68 460 702.31 460 702.31s12.45-9 10.87-19.39-218.69-203.05-218.69-203.05" style="fill:#074422" transform="translate(-5)"/><path id="SVGID" d="M250.86 477.12S314.72 612.5 365.6 648.53s102.75 48.16 102.75 48.16 55.27-72.15 37.39-74.62c-16.2-2.23-60.11-28.79-105.51-59.19-56.86-38.09-109.39-84.93-114-85.76-20.81-3.73-35.34 0-35.34 0Z" style="fill:#7b1316" transform="translate(-5)"/><path d="M276.19 473.66S339.8 539 422.88 594.48c44.83 29.95 93.22 42 93.22 42M252.18 478s34.82 82.39 93.4 151.9c35.47 42.1 127.94 69.3 127.94 69.3" class="cls-13" style="stroke-width:3.78px;stroke:#ffce03;stroke-miterlimit:10;fill:none" transform="translate(-5)"/><path d="M271.14 472.94s85.12 86.41 130.7 116c59.35 38.48 104.82 51.82 104.82 51.82" class="cls-13" style="stroke-width:1.26px;stroke:#ffce03;stroke-miterlimit:10;fill:none" transform="translate(-5)"/><path d="M242.7 475.46s2.31-4.68 13.87-5.07 28.13 5.07 28.13 5.07l7.4 7.81s-17-2.53-24.7 0a165.64 165.64 0 0 0-16.61 6.78zm37.79 26.46a1 1 0 0 0-1.27-1 3.56 3.56 0 0 0-1.52.89 2.86 2.86 0 0 0-1 1.77 5.54 5.54 0 0 0 .26 2.28 12.15 12.15 0 0 0 2 4.29 5.79 5.79 0 0 0 3.85 2.24c1.57.19 3.59-.65 3.84-2.39a.633.633 0 0 0-1.22-.34v.12s0-.08 0 0-.07.13-.1.19a2 2 0 0 1-.25.39c-.06.09.05-.06 0 0l-.06.07-.15.16a3.61 3.61 0 0 1-.35.33l-.1.08-.16.1-.43.25h-.16c.06 0 0 0 0 0h-.12a3.88 3.88 0 0 1-.45.14l-.43.1h-1.18a5.22 5.22 0 0 1-1.83-.67 8 8 0 0 1-2.79-3 22.61 22.61 0 0 1-1.76-4.36 4 4 0 0 1-.31-2.55.54.54 0 0 1 .07-.13l.06-.08a.1.1 0 0 0 0-.05l.18-.17.13-.08a.39.39 0 0 1 .11-.06c-.06 0 0 0 0 0h.12c.1-.05 0 0 0 0h.17c-.08 0 0 0 0 0 .18.05-.09-.06.07 0a.632.632 0 0 0 .64-1.09 8.16 8.16 0 0 0-6.28-1.3 5.16 5.16 0 0 0-3.72 3.81 4 4 0 0 0 .45 3 .61.61 0 0 0 .78.26.62.62 0 0 0 .37-.74 17 17 0 0 1-1.05-3.9 6.3 6.3 0 0 1 .06-1.84 4 4 0 0 1 .5-1.34 5.77 5.77 0 0 1 .39-.58 4.85 4.85 0 0 1 .56-.55 2.94 2.94 0 0 1 1.11-.58h.59a2.1 2.1 0 0 1 .69.1 7.61 7.61 0 0 1 1.38.54 5.12 5.12 0 0 0 3.62.74.64.64 0 0 0 .43-.79.35.35 0 0 0-.06-.14 1.72 1.72 0 0 1-.14-1.18 1.48 1.48 0 0 1 .28-.64s.12-.15 0-.07l.12-.14.14-.12c0-.05.06-.05 0 0l.08-.05.16-.09h.08l.36-.1h.55a1.66 1.66 0 0 1 1.15.67c0-.33.09-.66.13-1a4.36 4.36 0 0 0-.75 6.49l.39.42a3.81 3.81 0 0 1 .3.35 1.76 1.76 0 0 1 .14.23v.13a.29.29 0 0 0 0 .09c0-.11 0 0 0 0a1.21 1.21 0 0 1-.05.18.63.63 0 1 0 1.21.34 2 2 0 0 0-.56-2c-.2-.24-.42-.47-.64-.7l-.15-.17-.05-.06s.06.08 0 0a3.87 3.87 0 0 1-.21-.34l-.08-.16c-.05-.11 0 0 0 0v-.09a2.4 2.4 0 0 1-.12-.38v-.26a3.25 3.25 0 0 1 0-.44 2.48 2.48 0 0 1 0-.38v-.29a3.58 3.58 0 0 1 .16-.56v-.08c0-.1-.07.13 0 0s.13-.26.2-.39a2.14 2.14 0 0 1 .13-.19s.12-.16.05-.08a3.48 3.48 0 0 1 .47-.47c.08-.07-.07.05 0 0l.12-.08a.64.64 0 0 0 .13-1 2.94 2.94 0 0 0-4.84 3.31c.13-.3.25-.61.38-.92l-.19.05h-.09a2.41 2.41 0 0 1-.38 0h-.27l-.43-.11a6.67 6.67 0 0 1-.66-.25l-.75-.35a5.26 5.26 0 0 0-3.44-.66 4.65 4.65 0 0 0-2.7 2 6 6 0 0 0-.94 3.58 16.29 16.29 0 0 0 1.12 4.75l1.15-.49-.15-.26a.54.54 0 0 0-.05-.11c.05.1 0 0 0 0a3.56 3.56 0 0 1-.15-.56c0-.12 0 0 0 0v-.15a2.26 2.26 0 0 1 0-.52v-.21a4.39 4.39 0 0 1 .13-.52 1.55 1.55 0 0 1 .08-.23s.07-.17 0-.09 0-.1.05-.12a3.72 3.72 0 0 1 .27-.48c0-.08.1-.15.15-.23a.86.86 0 0 0 .07-.1c-.06.09 0-.05.06-.06a3.59 3.59 0 0 1 .38-.4l.23-.2s.09-.07 0 0l.14-.11a3.78 3.78 0 0 1 1-.49 5.37 5.37 0 0 1 2.61-.1 8.42 8.42 0 0 1 2.92 1.21l.63-1.08a1.94 1.94 0 0 0-2.29.43 2.87 2.87 0 0 0-.67 2.62 16.24 16.24 0 0 0 .8 2.69 23.46 23.46 0 0 0 1 2.56 10.26 10.26 0 0 0 3.15 4 6.16 6.16 0 0 0 4.52 1.18 4.81 4.81 0 0 0 3.77-3l-1.22-.33a1.31 1.31 0 0 1-.09.38v.09l-.1.16a2.11 2.11 0 0 1-.48.46 2.52 2.52 0 0 1-1.45.41 4.34 4.34 0 0 1-2.94-1.35 8.38 8.38 0 0 1-1.8-3.23 13.79 13.79 0 0 1-.52-1.85 3 3 0 0 1-.05-.79 1.6 1.6 0 0 1 .17-.69l.12-.18c-.09.14 0 0 .06-.06a3.7 3.7 0 0 1 .28-.28l.13-.11.09-.07c-.06 0 0 0 0 0l.33-.22.14-.08s.23-.1.07 0h.21c.07 0 .05 0 0 0h.1c0 .05-.23-.07-.27-.11l-.06-.08v-.13.09a.64.64 0 0 0 .63.64.64.64 0 0 0 .64-.63Zm11.15 23.84.06-.19s.07-.14 0 0a4.64 4.64 0 0 1 .49-.87s.15-.19 0-.05l.09-.1a2.62 2.62 0 0 1 .22-.25 5.23 5.23 0 0 1 .49-.45c.16-.15-.14.09 0 0l.11-.08.28-.18c.2-.12.41-.22.62-.33s-.18.07 0 0l.12-.05.32-.11.32-.08h1c.13 0-.18 0 0 0h.13s-.16-.11-.05 0v-.07.28c0-.17 0 0 0 0a1.42 1.42 0 0 0 0 .2l-.1.48c-.25 1.15-.55 2.3-.9 3.43s-.82 2.49-1.32 3.71a.81.81 0 0 0 .37.92.85.85 0 0 0 1-.12l1.92-1.76c.16-.14.32-.28.47-.43l.23-.2.08-.08c.06-.05-.07 0 0 0l.23-.14c.07 0 0 0 0 0h.13s-.13 0 0 0 .07 0 0 0 .07 0 0 0c.1.06 0 0 0 0a.41.41 0 0 1 .05.09c0 .05.1.23.05.08q.11.29.18.57a5.78 5.78 0 0 1 .12.57s0 .28 0 .16v.33a10.12 10.12 0 0 1 0 1.74.69.69 0 0 0 0 .13v.37a47.69 47.69 0 0 1-1.22 4.7 16.81 16.81 0 0 0-.71 4.28 7.37 7.37 0 0 0 1.32 4.58.82.82 0 1 0 1.41-.82 6 6 0 0 1-.56-.91l-.06-.12s-.06-.12 0 0a1.37 1.37 0 0 0-.07-.16c-.06-.18-.12-.36-.17-.53s-.08-.32-.11-.48 0-.19-.05-.28 0-.13 0 0v-.1a9.85 9.85 0 0 1 0-2.17 1.15 1.15 0 0 1 0-.26c0-.1 0 0 0 0v-.15c0-.19.07-.39.1-.58.14-.73.33-1.45.54-2.16a33.1 33.1 0 0 0 1.23-5.09 9.65 9.65 0 0 0 0-2.63 3.58 3.58 0 0 0-1-2.38 1.58 1.58 0 0 0-1.57-.22 4.74 4.74 0 0 0-1.32.94l-2.29 2.1 1.37.79a43.94 43.94 0 0 0 2.3-7.53 2.22 2.22 0 0 0-.26-2.08 2.13 2.13 0 0 0-1.8-.54 5.83 5.83 0 0 0-3 1 6 6 0 0 0-2.28 3 .81.81 0 0 0 1.56.44Zm17.73-.44h-.19s-.25 0 0 0h-1.2c-.52 0-1-.11-1.54-.11a2.9 2.9 0 0 0-2.85 1.64 6.89 6.89 0 0 0-.28 3.52 15.49 15.49 0 0 0 .79 3.36 36.81 36.81 0 0 0 3 6.09c.58 1 1.16 2 1.72 3 .28.51.54 1 .8 1.53.12.25.23.49.35.73l.15.33.08.2.06.13c0-.08 0-.08 0 0a11.08 11.08 0 0 1 .57 1.68c.07.29.12.58.17.87s0-.12 0 0v.23a3.83 3.83 0 0 1 0 .47 8.06 8.06 0 0 1 0 .85c0-.18 0-.06 0 0v.25a3.31 3.31 0 0 1-.12.42v.24c0 .04 0-.11 0 0a3.72 3.72 0 0 1-.21.39l-.06.1s-.2.25-.06.09a3.26 3.26 0 0 1-.31.33.83.83 0 0 0 0 1.16.84.84 0 0 0 1.16 0c1.67-1.6 1.62-4.13 1-6.19a19.59 19.59 0 0 0-1.3-3.14c-.51-1-1.07-2-1.63-3a64.09 64.09 0 0 1-3.24-5.92l-.14-.33c.08.18 0 0 0-.06a1.67 1.67 0 0 0-.08-.2l-.3-.79a13.92 13.92 0 0 1-.45-1.56c-.06-.25-.12-.5-.16-.76l-.06-.34v-.06a10.4 10.4 0 0 1-.09-1.93v-.5l.06-.24c0-.05 0-.11.05-.17s0-.09 0 0l.06-.13.11-.17c.08-.16-.08 0 0-.06a.93.93 0 0 0 .14-.14c.07-.06.07 0 0 0l.1-.06a1.29 1.29 0 0 1 .16-.09c.14-.08-.15 0 0 0a1.18 1.18 0 0 1 .4-.1c-.1 0-.12 0 0 0h.25c1.21 0 2.4.31 3.6 0a.83.83 0 0 0 .57-1 .85.85 0 0 0-1-.58Z" class="cls-16"/><path d="m308.38 538.41 3 .56a.92.92 0 0 0 .63-.08.88.88 0 0 0 .38-.49.83.83 0 0 0-.57-1l-3-.56a.82.82 0 0 0-1 .57.82.82 0 0 0 .56 1M342.65 579c0 .15.05-.23 0 0v.13c0 .12-.07.23-.11.35v.09c-.05.13.08-.16 0 0l-.08.17c-.07.15-.15.3-.23.45A15.34 15.34 0 0 1 341 582c-.11.16-.23.31-.35.47l-.09.13c.11-.15 0 0 0 0l-.2.25c-.25.31-.51.62-.79.91s-.51.53-.78.78l-.36.31c-.06 0-.11.13 0 0a.31.31 0 0 1-.09.07l-.18.13-.33.19h-.08c-.11.06.18-.06.06 0l-.16.06h-.07c-.09 0-.08-.05.1 0h-.12.05-.23a3.69 3.69 0 0 1-.45-.11 4.17 4.17 0 0 1-.69-.26 8 8 0 0 1-.81-.45 12.61 12.61 0 0 1-1.38-1c-1.85-1.5-3.73-3.09-4.73-5.24l-.09-.2c.06.12 0-.1 0-.1a2.42 2.42 0 0 1-.12-.35 6.28 6.28 0 0 1-.23-.85 1.7 1.7 0 0 1 0-.22v-.46a5.67 5.67 0 0 1 0-1.09v-.05c0-.13 0-.26.07-.39a4.84 4.84 0 0 1 .25-.82c-.05.13.05-.08.05-.09l.08-.16.2-.34.11-.16c.1-.15-.07.06 0 0l.26-.28.22-.2s.18-.15 0 0l.15-.11a6.27 6.27 0 0 1 .62-.36h.16l.35-.11a1.37 1.37 0 0 1 .29-.07h.27a4.7 4.7 0 0 1 .65 0h.17c-.16 0-.06 0 0 0l.39.09.27.09c-.17-.06 0 0 0 0l.16.08.24.15c.16.1-.11-.1 0 0l.18.16c.61.52 1.43-.08 1.77-.63a2.3 2.3 0 0 0 .31-1.45 3.26 3.26 0 0 0-2.32-2.47 21 21 0 0 0-3.57-1 17.12 17.12 0 0 0-3.91-.38 9.76 9.76 0 0 0-6.52 2.5 7.44 7.44 0 0 0-2.46 5.55 6 6 0 0 0 .29 1.57.71.71 0 0 0 .79.52.73.73 0 0 0 .63-.71q0-3.66-.08-7.32c0-1.13-.06-2.27 0-3.4 0-.27 0-.54.06-.8v-.12a2.59 2.59 0 0 1 .09-.4c0-.1.06-.21.09-.31l.06-.17c.05-.12-.08.14 0-.06l.15-.29a1.3 1.3 0 0 0 .1-.15c.13-.18-.07.08.06-.07l.22-.24.09-.08s.16-.13.08-.07.08 0 .07 0l.11-.07.3-.16.14-.07c-.13 0 0 0 0 0l.31-.1a3.38 3.38 0 0 1 .63-.14c.21 0-.09 0 0 0h1.95s.18 0 0 0h.33a19.88 19.88 0 0 1 2.93.72c.47.15.94.32 1.4.51.22.09.31.12.56.24l.73.34a20 20 0 0 1 5.35 3.83l1-1a15.52 15.52 0 0 1-3.54-4.66c-.22-.45-.39-.82-.54-1.22s-.3-.86-.44-1.29v.09-.77c0-.1 0 .19 0 0s0-.29.07-.44a14 14 0 0 1 .57-1.91c0-.09.07-.17.1-.25a1 1 0 0 0 0-.1c.07-.16-.05.11 0 0s.15-.33.22-.49a6.61 6.61 0 0 1 .44-.77l.12-.17c.11-.16-.1.11 0 0a1.42 1.42 0 0 1 .24-.25.1.1 0 0 1 .05 0c.09-.09-.16.09-.05 0l.1-.06h.07c.02 0-.18.05-.1 0h-.09.29a2.85 2.85 0 0 1 .5.14s-.11 0 0 0l.19.1a4 4 0 0 1 1 .83 19.71 19.71 0 0 1 2.12 2.75 36.16 36.16 0 0 1 1.94 3.22l.82-1.06a23.25 23.25 0 0 1-2.18-.89 5 5 0 0 0-2.11-.44 3 3 0 0 0-2.94 2.16 3.89 3.89 0 0 0 .71 2.5 19.23 19.23 0 0 1 1 2.11 19.61 19.61 0 0 1 .75 2.28c.1.39.19.79.27 1.19 0 .19.07.38.1.58v.1c0 .03 0-.09 0 0v.3a2.26 2.26 0 0 1 0 .26v.09c0 .04 0 0 0 0a.26.26 0 0 1-.05.09c-.05.1.06-.06 0 0l-.1.1h-.06l-.2.13c-.15.09-.3.17-.44.27a3.94 3.94 0 0 0-1.27 1.36 5.22 5.22 0 0 0-.44 3.58 5.57 5.57 0 0 0 1.93 3.16 8.82 8.82 0 0 0 4.09 1.86 14.84 14.84 0 0 0 2.21.28 3.67 3.67 0 0 0 2.15-.29c.84-.52.86-1.46.85-2.34v-3.93a.73.73 0 0 0-.72-.72.74.74 0 0 0-.73.72v4.69s0 .11 0 0a1.66 1.66 0 0 1-.06.21c0-.13-.07.13 0 .07s.09-.06 0 0h-.08c-.16.1.06 0 0 0h-.19c-.08 0 0 0 0 0h-.14a3.84 3.84 0 0 1-.48 0h-1.57a10.65 10.65 0 0 1-2.15-.5l-.43-.16c.11 0-.1 0-.12-.06l-.23-.1c-.28-.15-.56-.31-.82-.48a4.1 4.1 0 0 1-.65-.53c-.1-.1-.21-.21-.3-.32l-.14-.15s-.07-.09 0 0a4.35 4.35 0 0 1-.48-.84c-.06-.12 0 0 0 0v-.08c-.05-.13-.1-.26-.14-.39l-.09-.37v-.27a5.16 5.16 0 0 1 0-.79v-.37c0 .13 0 0 0 0v-.23c0-.08.06-.23.1-.35l.06-.16a.41.41 0 0 1 0-.08c0 .09 0 .07 0 0a2 2 0 0 1 .17-.32.67.67 0 0 1 .09-.14s.16-.21 0-.08c.07-.09.15-.17.22-.25l.14-.14c.05 0 .17-.13.06 0 .55-.42 1.23-.65 1.56-1.31a3.57 3.57 0 0 0 .08-2.33c-.15-.74-.33-1.48-.55-2.2a25 25 0 0 0-1.86-4.24 2.42 2.42 0 0 1-.34-.87v-.3c0-.04 0 .15 0 0v-.16s0-.11 0 0v-.06l.09-.14c.06-.11-.07.07 0 0l.13-.13c.05 0 .17-.12.05 0l.32-.19h.07l.19-.07.38-.09s.14 0 0 0h.3a2.42 2.42 0 0 1 .38 0h-.05.16l.27.06a13.34 13.34 0 0 1 1.93.76 9.49 9.49 0 0 0 1.12.42.73.73 0 0 0 .82-1.06 35.36 35.36 0 0 0-1.85-3.08 28.38 28.38 0 0 0-2.14-2.86 5.14 5.14 0 0 0-2.59-1.76 2.05 2.05 0 0 0-1.32.06 1.92 1.92 0 0 0-.62.48 6 6 0 0 0-1.06 1.7 14.31 14.31 0 0 0-.79 2.19 7.61 7.61 0 0 0-.3 1.9 2.88 2.88 0 0 0 .17.92 17.18 17.18 0 0 0 4.78 7.46.76.76 0 0 0 1 0 .74.74 0 0 0 0-1 21.81 21.81 0 0 0-11.09-5.93c-1.83-.36-4.05-.56-5.63.63-1.93 1.45-1.7 4-1.68 6.14 0 2.84.07 5.68.1 8.52l1.42-.19a4.61 4.61 0 0 1-.15-.53 2.21 2.21 0 0 1-.05-.25s0-.16 0-.06v-.1a5.46 5.46 0 0 1 0-1.07c0-.2 0 .1 0 0v-.38c0-.08.09-.37.15-.55l.18-.48c0-.11-.05.09 0 0a.61.61 0 0 0 .05-.12 8.54 8.54 0 0 1 .74-1.23l.08-.1c.07-.09-.07.07 0 0l.16-.2a9.17 9.17 0 0 1 .82-.83l.2-.17.11-.08a7.76 7.76 0 0 1 1.45-.85s.12-.06 0 0h.12l.37-.14a10.32 10.32 0 0 1 1.35-.36 9.82 9.82 0 0 1 1.27-.15 10.9 10.9 0 0 1 1.4 0 15.61 15.61 0 0 1 2.71.36c.91.2 1.82.45 2.72.74.21.07.42.14.63.23s-.15-.07.05 0l.16.07.28.15.28.19.15.14.1.1c.08.1 0 0 0 0l.13.22c-.07-.13 0-.07 0 0a.75.75 0 0 1 .05.16s0 .07 0 .11c0-.17 0 0 0 0v.25c0 .08 0-.17 0 0a.93.93 0 0 1 0 .13v.1c0 .08.07-.12 0 0s0 .06 0 .09.1-.08 0 0l-.07.07c-.09.11.11 0 0 0l-.09.05c.09-.05.06 0 0 0l.7.19c-2-1.89-5.29-1.09-6.76 1a6 6 0 0 0-.9 4.21 8.85 8.85 0 0 0 1.77 4.18 19.93 19.93 0 0 0 3.3 3.32 12.48 12.48 0 0 0 4 2.55 3.07 3.07 0 0 0 1.64.17 3 3 0 0 0 1-.49 11 11 0 0 0 2-1.94 22.61 22.61 0 0 0 1.9-2.56 9.26 9.26 0 0 0 1.1-2.23 3.09 3.09 0 0 0 .09-.53.72.72 0 0 0-.72-.72.78.78 0 0 0-.73.75Zm10.75 19a10.64 10.64 0 0 1 2.07-3 11.12 11.12 0 0 1 1.25-1.09c.15-.11.29-.21.45-.31l.2-.11s-.13 0 0 0 .2 0 0 0-.21-.09-.05 0c-.2-.1-.06 0 .05.07s-.05-.13.06.08a3.37 3.37 0 0 0 .19.32s.09.21 0 .06 0 .1 0 .12a11.69 11.69 0 0 1 .43 1.93 23.3 23.3 0 0 1 .25 4.22 22.73 22.73 0 0 1-.65 4.79 1.42 1.42 0 0 0 2.73.75 11.27 11.27 0 0 1 1.21-2.63c.14-.22.28-.44.43-.65l.22-.31c.07-.1-.2.24.11-.15.15-.18.3-.36.46-.53l.24-.26c.11-.1.14-.12.07-.07l.08-.05a.64.64 0 0 1-.52-.09c.14.09.12.11 0 0a2.39 2.39 0 0 1 .21.34 5.24 5.24 0 0 1 .52 1.24 9.91 9.91 0 0 1 .49 2.84c.21 4-.73 7.91.4 11.8a9.11 9.11 0 0 0 3.57 5.14 1.414 1.414 0 1 0 1.43-2.44l-.32-.22c.21.16 0 0-.06-.06s-.33-.31-.49-.48l-.17-.19s-.26-.35-.09-.1c-.14-.21-.28-.41-.4-.63a5.86 5.86 0 0 1-.3-.55c0-.07-.07-.15-.11-.23-.17-.37.09.26-.05-.13a13.32 13.32 0 0 1-.42-1.36c-.11-.43-.18-.87-.25-1.3v-.42c0-.27 0-.54-.05-.81a26.94 26.94 0 0 1 0-3 33.13 33.13 0 0 0-.07-7c-.31-2-1.52-6.07-4.34-5.06-1.28.46-2.21 1.88-2.91 3a14.75 14.75 0 0 0-1.66 3.58c.91.24 1.81.5 2.72.75a26.56 26.56 0 0 0 .37-10.69c-.25-1.49-.65-3.2-2-4.07-1.69-1.08-3.37.15-4.65 1.25a13.28 13.28 0 0 0-3.22 4.19 1.44 1.44 0 0 0 .5 1.93 1.42 1.42 0 0 0 1.94-.5Zm21.53-6.63c-3.13 2.72-3.72 7.26-2.91 11.12.92 4.4 3.53 8.22 4.89 12.4a16.05 16.05 0 0 1 .76 3.44 15.27 15.27 0 0 1 0 1.79c0 .44.07-.22 0 .2 0 .14-.06.28-.1.42a1.22 1.22 0 0 1-.09.27c.13-.29-.24.35-.05.11a1.46 1.46 0 0 0 0 2 1.44 1.44 0 0 0 2 0c1.49-1.94 1.24-4.57.78-6.84a30 30 0 0 0-2.38-6.61 54 54 0 0 1-2.51-5.84c-.17-.53-.33-1.06-.46-1.61-.06-.27-.12-.54-.17-.81a2 2 0 0 1-.06-.34s-.07-.46 0-.19a12.83 12.83 0 0 1 0-2.77v-.1c0-.26.05-.32.08-.48a10.37 10.37 0 0 1 .4-1.45c0-.09.07-.17.1-.26.12-.3-.06.1.07-.16a11.52 11.52 0 0 1 .74-1.28c.24-.35-.17.18.11-.14l.27-.3a7.94 7.94 0 0 1 .59-.57 1.43 1.43 0 0 0 0-2 1.46 1.46 0 0 0-2 0Z" class="cls-16"/><path d="M375.5 608a5.18 5.18 0 0 0 7.05-2.18 1.53 1.53 0 0 0 .14-1.09 1.44 1.44 0 0 0-.65-.84 1.42 1.42 0 0 0-1.93.5 2 2 0 0 1-.17.32c0 .06-.12.27-.19.3s.24-.29.06-.09l-.11.12a2.77 2.77 0 0 1-.25.24c-.05 0-.21.17 0 0a2.2 2.2 0 0 1-.3.19c-.06 0-.25.17-.32.16s.37-.14.13-.06l-.18.07a5.23 5.23 0 0 1-.66.15c.5-.1.1 0 0 0a2 2 0 0 1-.35 0h-.16c-.17 0 .38.06.15 0l-.38-.08-.3-.11c.39.12.22.1.1 0l-.17-.09a1.456 1.456 0 1 0-1.51 2.49m52.26 37.3-.17.23s-.09.12 0 .05l-.42.5a17.61 17.61 0 0 1-2.68 2.57l-.13.1-.23.17-.54.38c-.35.23-.71.44-1.08.64-.17.09-.35.19-.53.27l-.25.12h-.2a9.77 9.77 0 0 1-1.08.36l-.54.12h-.42a8.41 8.41 0 0 1-1.12 0c-.44 0-.87-.09-1.31-.15h-.5l-.68-.12a17.22 17.22 0 0 1-2.53-.69l-.32-.13h-.15c-.22-.09-.44-.2-.65-.31a8.07 8.07 0 0 1-1.08-.67s-.25-.18-.15-.1l-.25-.21c-.15-.12-.29-.26-.43-.39s-.25-.27-.37-.41l-.08-.1a2.48 2.48 0 0 1-.19-.26 7.82 7.82 0 0 1-.57-1 2.56 2.56 0 0 0-.11-.24c-.08-.19 0 .1 0 0a.61.61 0 0 0 0-.12c-.07-.19-.13-.37-.18-.56s-.09-.35-.13-.53 0-.17-.05-.25a1.11 1.11 0 0 0 0-.19 6.24 6.24 0 0 1 0-1.06c0-.15 0 0 0 0v-.15a4.08 4.08 0 0 1 .21-.78l.05-.15.1-.21a4.94 4.94 0 0 1 .3-.49 5.69 5.69 0 0 0 1.25-2.25 2 2 0 0 0-.3-1.45 2.75 2.75 0 0 0-1.27-.9 11.94 11.94 0 0 0-5.91-1 7.58 7.58 0 0 0-6.37 6.73 6 6 0 0 0 0 1.12l1.46-.4-3.74-6.9-.43-.8c-.15-.3-.25-.52-.35-.77a4.55 4.55 0 0 1-.23-.8.45.45 0 0 1 0-.16v-.11a4 4 0 0 1 0-.49v-.11c0-.11.07 0 0 .06s0-.08.06-.1c.09-.17-.12.12 0 0l.09-.09h.07c.06-.08-.09.06-.1.07a1.81 1.81 0 0 0 .29-.19l.16-.08s.23-.1.08 0h.12l.22-.08c.29-.09.58-.16.88-.23s.65-.1 1-.17h.9c.72 0 1.44-.07 2.17 0l1 .06a2 2 0 0 0 .42.05c-.15 0-.16 0 0 0h.3a4.48 4.48 0 0 1 .74.2c.2.06-.15-.08 0 0l.31.16 1 .52 3.91 2a.8.8 0 0 0 1-.2.79.79 0 0 0-.06-1 15.92 15.92 0 0 1-2.52-2.47l-.11-.15s-.09-.11 0 0l-.24-.32a16.584 16.584 0 0 1-1.45-2.43 2.92 2.92 0 0 1-.14-.31.87.87 0 0 1-.07-.17s-.08-.18 0 0c-.09-.22-.18-.44-.25-.66a14.35 14.35 0 0 1-.44-1.41 9 9 0 0 1-.21-1v-.35a7.72 7.72 0 0 1 0-1.52s0-.15 0 0a.9.9 0 0 1 0-.16 2.57 2.57 0 0 1 .08-.38 4.69 4.69 0 0 1 .24-.75s.05-.09.07-.14.2-.34.31-.5.12-.15 0 0L403 621a5.66 5.66 0 0 1 .43-.42l.1-.08c-.13.1 0 0 0 0l.3-.2.26-.14.14-.07a4.27 4.27 0 0 1 .61-.18h.13c-.18 0 0 0 0 0a1.31 1.31 0 0 1 .28 0s.37 0 .17 0l.31.07.3.09h.06l.13.08.33.2.22.15c.4.33.78.69 1.16 1q2.77 2.6 5.34 5.4l.76-1.3c-1.88-.59-3.88-1.09-5.73-.18a3.47 3.47 0 0 0-1.77 4.47 8.29 8.29 0 0 0 1.51 2.41c.28.34.58.65.88 1l.39.46.1.12.06.07c0-.07.05.06.06.07l.11.16a7.73 7.73 0 0 1 .66 1.11c.06.14 0 .05 0 0a.69.69 0 0 1 .05.13c0 .1.08.21.11.31l.06.28v.13c0 .1 0-.12 0 0v.4c0 .1 0 .2-.07.3s0 .08 0 .13.05-.09 0 0-.09.17-.14.26l-.09.13c-.15.19-.31.37-.47.55-2 2.55-1.14 6.1.85 8.38 2.33 2.67 6.16 3.28 9.51 3.52a20.48 20.48 0 0 0 4.63 0 5.17 5.17 0 0 0 3.59-2 3.58 3.58 0 0 0 .46-1 .8.8 0 0 0-.55-1 .81.81 0 0 0-1 .55 1.8 1.8 0 0 1-.08.21s-.06.12 0 0c0 0 0 .07-.05.1a2.77 2.77 0 0 1-.22.37l-.06.08-.15.15-.15.15s-.05 0-.06.05.12-.09 0 0a5.7 5.7 0 0 1-.76.43c.18-.09 0 0-.08 0l-.21.08-.48.14-.44.1h-.36c-.33 0-.65.06-1 .07a20.63 20.63 0 0 1-2.08-.05q-1.26-.06-2.49-.18h-.47c-.13 0 .11 0 0 0l-.61-.1c-.42-.07-.84-.15-1.25-.25s-.79-.21-1.18-.34l-.53-.2h-.14c-.12 0 .09 0 0 0l-.31-.14a8.43 8.43 0 0 1-1.06-.59l-.47-.32c.08.06 0 0 0 0l-.22-.18a6.81 6.81 0 0 1-.7-.72 1.56 1.56 0 0 1-.16-.2c.09.12 0 0-.06-.07l-.3-.44a8.54 8.54 0 0 1-.48-.89l-.05-.12s.06.15 0 0l-.09-.24a5.16 5.16 0 0 1-.27-.95 1.55 1.55 0 0 1 0-.21v-.12c0-.04 0 .15 0 0a7.69 7.69 0 0 1 0-1v-.23c0-.08 0 0 0 0v-.11a3.41 3.41 0 0 1 .1-.46l.15-.45c-.06.17 0 0 0-.08a2.12 2.12 0 0 1 .11-.21 2.57 2.57 0 0 1 .26-.41.86.86 0 0 1 .07-.1s-.09.11 0 0l.23-.28a4 4 0 0 0 .78-1.24 3.53 3.53 0 0 0-.05-2.44 7.9 7.9 0 0 0-1.35-2.29c-.52-.65-1.13-1.22-1.65-1.88l-.09-.12a2.48 2.48 0 0 1-.19-.26c-.12-.17-.23-.36-.34-.55l-.12-.24-.06-.13c-.05-.12 0 .1 0 0a3.89 3.89 0 0 1-.07-.5v-.14s0-.13 0 0v-.22a2.44 2.44 0 0 1 0-.27c0-.09 0 0 0 0v-.21c0-.07.06-.19.09-.29l.06-.12a1.64 1.64 0 0 1 .14-.22s.09-.14 0-.06.06-.07.06-.07a3.89 3.89 0 0 1 .36-.34c.08-.07-.1.07 0 0l.1-.08c.09 0 .17-.11.26-.15l.24-.12c-.14.07.05 0 .09 0a3.8 3.8 0 0 1 .55-.16h.41a4.21 4.21 0 0 1 .71 0 3.54 3.54 0 0 1 .58.07q.35.06.69.15c.46.12.92.26 1.37.4a.77.77 0 0 0 .88-.36.8.8 0 0 0-.12-.94c-1.61-1.76-3.29-3.46-5-5.1a9.93 9.93 0 0 0-2.81-2.15 3.74 3.74 0 0 0-2.81 0 5.1 5.1 0 0 0-2.34 1.89 6.1 6.1 0 0 0-.93 3.16 13 13 0 0 0 1.65 6.24 16.27 16.27 0 0 0 4.37 5.28l.95-1.23-3.72-1.96a10.15 10.15 0 0 0-2.32-1.07 14.56 14.56 0 0 0-4.17-.25 11.88 11.88 0 0 0-4.28.86 2.3 2.3 0 0 0-1.2 1.12 3.12 3.12 0 0 0-.09 1.66 6.72 6.72 0 0 0 .62 1.85c.31.66.68 1.3 1 1.95s.73 1.35 1.1 2l2.2 4.06a.79.79 0 0 0 .88.36.77.77 0 0 0 .57-.75 6.3 6.3 0 0 1 0-1.15v-.12c0-.06 0-.19.05-.29s.09-.38.15-.57.11-.33.17-.5a.61.61 0 0 1 .05-.12c-.06.14 0 0 0 0s.09-.2.14-.3a7.09 7.09 0 0 1 .58-.95 1 1 0 0 1 .08-.11c-.09.13 0 0 0 0l.17-.2a5.6 5.6 0 0 1 .41-.43 4.72 4.72 0 0 1 .41-.37l.1-.09s-.12.09 0 0l.27-.19a6.14 6.14 0 0 1 1-.54c.13-.06 0 0 0 0h.12l.28-.1a4.78 4.78 0 0 1 .83-.2h.21a7.74 7.74 0 0 1 2.15.07 17.75 17.75 0 0 1 2.87.82l.13.05s.16.06.07 0 0 0 .07 0l.15.08c.05 0 .22.17.12.07l.09.09h.05c-.05-.07-.06-.06 0 0s.08.17 0 0a.56.56 0 0 1 0 .12c0 .06 0 .13 0 0a.49.49 0 0 0 0 .12c0 .14 0 0 0 0v.12a.56.56 0 0 1 0 .12s-.09.21 0 .07c-.38.71-.95 1.3-1.31 2a6.12 6.12 0 0 0-.29 4.64 8.11 8.11 0 0 0 2.83 4A12.42 12.42 0 0 0 415 652c.9.19 1.8.32 2.71.42a8.89 8.89 0 0 0 2.47 0 11.25 11.25 0 0 0 4.44-2 18.94 18.94 0 0 0 3.71-3.38c.26-.32.51-.64.75-1a.79.79 0 0 0-.28-1.07.76.76 0 0 0-1 .26Zm15.3 13.7a6.09 6.09 0 0 1-.25-.83v-.18c-.06-.22 0 .3 0 .07v-.97a3.91 3.91 0 0 1 .2-.9c0-.14.1-.27.15-.41s.09-.23 0 0v-.08a6.93 6.93 0 0 1 .43-.75c.08-.12.28-.34.07-.11l.28-.33.31-.3c.1-.09.43-.33.14-.13a5.92 5.92 0 0 1 .68-.42l.22-.1c.15-.08 0 0-.06 0a6.48 6.48 0 0 1 .63-.17h.25c-.24-.16-.06 0 0 0s-.2-.19-.07-.06l.18.18c.12.12 0 0-.06-.07s.1.15.14.22.21.45.15.29.08.25.1.32c.12.38.22.77.32 1.16q.3 1.21.51 2.46a23.29 23.29 0 0 1 .33 2.58c.08 1 .12 2 .12 3a1.63 1.63 0 0 0 3.2.43c.1-.51.22-1 .37-1.51.07-.23.15-.47.23-.7s.08-.21.11-.31l.17-.42.11-.25.14-.3c.12-.25.25-.49.38-.73.25-.44.52-.86.8-1.29.14-.21-.25.26.05 0l.12-.06a.34.34 0 0 1-.25.08h-.19c.11 0 .21.11 0 0 0 0 .36.19.15.07s.12.11.13.13.32.36.11.08a4.8 4.8 0 0 1 .3.48s.22.47.07.11c0 .09.07.19.1.28a15 15 0 0 1 .47 1.62c.94 3.94.85 8.14 3.13 11.66a8.89 8.89 0 0 0 5.06 3.93 1.64 1.64 0 0 0 2-1.13 1.66 1.66 0 0 0-1.14-2l-.63-.2c-.4-.15.28.16-.09-.05l-.23-.12a6.16 6.16 0 0 1-.55-.33l-.21-.15c.33.24-.12-.1-.17-.15a9.49 9.49 0 0 1-.82-.86c-.3-.32.18.27-.08-.08l-.15-.22c-.15-.23-.3-.45-.44-.68-.23-.4-.42-.8-.61-1.22 0-.06-.11-.28 0 0l-.15-.39c-.08-.21-.15-.42-.22-.64a24 24 0 0 1-.72-3.26 38 38 0 0 0-1.32-6.62 5.57 5.57 0 0 0-2.15-3 3 3 0 0 0-3.67.34 10.13 10.13 0 0 0-2 3.25 17.64 17.64 0 0 0-1.26 3.82l3.2.43a38.22 38.22 0 0 0-.53-6.22c-.17-1-.38-2-.64-3a7.69 7.69 0 0 0-.95-2.42 3.66 3.66 0 0 0-2.88-1.71 5.35 5.35 0 0 0-2.86.8 7.61 7.61 0 0 0-3.16 3.76 7.2 7.2 0 0 0-.13 5.17 1.67 1.67 0 0 0 2 1.14 1.64 1.64 0 0 0 1.15-2Zm22.26-13.24a4.38 4.38 0 0 0-4.21 1.2 6.06 6.06 0 0 0-1.53 4.33 13.59 13.59 0 0 0 2.56 7.3 39.64 39.64 0 0 0 5.18 5.81c.93.91 1.88 1.8 2.76 2.76.47.5.91 1 1.35 1.56 0 .07.1.13.14.19s-.12-.16 0 0l.29.39c.22.29.43.6.63.91a16.45 16.45 0 0 1 1.11 2 1.76 1.76 0 0 1 .09.2s.14.31.08.16 0 .07 0 .08.07.19.11.28c.13.35.24.71.34 1.07s.14.67.22 1 0-.25 0 0v1.81c0 .31 0 .09 0 0a2.68 2.68 0 0 1-.05.3c0 .2-.08.4-.13.6a1.63 1.63 0 0 0 3.14.86c1.39-5.54-2.08-10.67-5.78-14.45-1.7-1.75-3.54-3.37-5.16-5.2-.19-.22-.38-.43-.56-.66l-.28-.33s-.32-.41-.1-.12c-.35-.45-.67-.91-1-1.39s-.57-1-.82-1.46c-.06-.12-.11-.25-.18-.37-.19-.41.11.31 0-.12s-.23-.6-.32-.92-.17-.62-.24-.94c0-.14-.05-.27-.08-.41s0-.19 0 0v-.29a7.93 7.93 0 0 1 0-1.09s.06-.54 0-.18a3.75 3.75 0 0 1 .13-.6s.19-.49 0-.18a3.35 3.35 0 0 1 .3-.52c-.2.31 0 0 .08-.08l.19-.18c-.15.12-.16.12 0 0l.35-.2c-.34.18.13 0 .23 0 .4-.12-.34 0 .07 0 .19 0 .17 0 0 0l.25.06a1.624 1.624 0 0 0 .87-3.13Z" class="cls-16"/><path d="M469.52 662.37a9.82 9.82 0 0 1 1.05-1.68l-.26.33a10.35 10.35 0 0 1 1.75-1.75 4.08 4.08 0 0 1-.33.25c.17-.12.33-.25.51-.36a1.71 1.71 0 0 0 .74-1 1.68 1.68 0 0 0-.16-1.26 1.64 1.64 0 0 0-2.23-.58 11.67 11.67 0 0 0-3.88 4.37 1.62 1.62 0 0 0 .58 2.23 1.65 1.65 0 0 0 2.23-.58Z" class="cls-16"/></svg>